<svg width="24" height="23" viewBox="0 0 24 23" fill="none" xmlns="http://www.w3.org/2000/svg">
<path d="M23.5999 19.2H23.1999V4.80003C23.1999 3.91638 22.4835 3.20003 21.5999 3.20003H17.9999V0.400048C17.9999 0.179149 17.8209 4.99998e-05 17.6 0C17.5753 0 17.5506 0.00229999 17.5263 0.00684997L15.1263 0.456848L14.7263 0.532047L11.1627 1.20004H8.79996C8.35811 1.20004 7.99996 1.55819 7.99996 2.00004C7.20566 2.00109 6.48727 2.47204 6.16957 3.20003H2.39999C1.51634 3.20003 0.799996 3.91638 0.799996 4.80003V19.2H0.399998C0.179099 19.2 0 19.3791 0 19.6V20.7999C0 21.6836 0.716346 22.3999 1.59999 22.3999H22.3999C23.2835 22.3999 23.9999 21.6836 23.9999 20.7999V19.6C23.9999 19.3791 23.8208 19.2 23.5999 19.2ZM11.5999 1.93204L17.1999 0.882046V7.12001L11.5999 6.06802V1.93204ZM11.5999 6.88002L12.3999 7.03001V7.60001H11.5999V6.88002ZM8.79996 2.00004H10.7999V6.00002H8.79996V2.00004ZM9.59995 9.2V6.80002H10.7999V9.2H9.59995ZM10.7999 10V10.6C10.7999 10.9313 10.5313 11.2 10.1999 11.2C9.8686 11.2 9.59995 10.9313 9.59995 10.6V10H10.7999ZM7.99996 2.80004V5.20002C7.33721 5.20002 6.79997 4.66278 6.79997 4.00003C6.79997 3.33728 7.33721 2.80004 7.99996 2.80004ZM1.59999 4.80003C1.59999 4.35818 1.95814 4.00003 2.39999 4.00003H5.99997C6.00127 5.10402 6.89597 5.99872 7.99996 6.00002C7.99996 6.44187 8.35811 6.80002 8.79996 6.80002V10.6C8.79996 11.3732 9.42675 12 10.1999 12C10.9731 12 11.5999 11.3732 11.5999 10.6V8.40001H12.7999C13.0208 8.40001 13.1999 8.22091 13.1999 8.00001V7.18201L17.5263 7.99321C17.5506 7.99766 17.5752 7.99996 17.5999 8.00001C17.8208 8.00001 17.9999 7.82091 17.9999 7.60001V4.00003H21.5999C22.0417 4.00003 22.3999 4.35818 22.3999 4.80003V19.2H15.5999C15.4939 19.1999 15.3922 19.2419 15.3171 19.3168L14.6343 19.9999H9.36555L8.68276 19.3168C8.60771 19.2419 8.50596 19.1999 8.39996 19.2H1.59999V4.80003ZM23.1999 20.7999C23.1999 21.2418 22.8417 21.5999 22.3999 21.5999H1.59999C1.15814 21.5999 0.799996 21.2418 0.799996 20.7999V19.9999H8.23436L8.91715 20.6827C8.99215 20.7577 9.09385 20.7999 9.19995 20.7999H14.7999C14.906 20.7999 15.0077 20.7577 15.0827 20.6827L15.7655 19.9999H23.1999V20.7999Z" fill="#202333"/>
<path d="M20.8007 5.20117H19.2007V6.00117H20.4007V16.8011H3.60078V6.00117H5.60077V5.20117H3.20078C2.97988 5.20117 2.80078 5.38027 2.80078 5.60117V17.2011C2.80078 17.422 2.97988 17.6011 3.20078 17.6011H20.8007C21.0216 17.6011 21.2007 17.422 21.2007 17.2011V5.60117C21.2007 5.38027 21.0216 5.20117 20.8007 5.20117Z" fill="#202333"/>
<path d="M12.3957 18.4004H11.5957V19.2004H12.3957V18.4004Z" fill="#202333"/>
<path d="M6.3957 13.1992H5.5957V13.9992H6.3957V13.1992Z" fill="#202333"/>
<path d="M19.2011 13.1992H7.20117V13.9992H19.2011V13.1992Z" fill="#202333"/>
<path d="M17.9968 14.8008H4.79688V15.6008H17.9968V14.8008Z" fill="#202333"/>
</svg>
