<svg width="32" height="32" viewBox="0 0 32 32" fill="none" xmlns="http://www.w3.org/2000/svg">
<path d="M1.04 21.8037C1.0575 22.0237 1.217 22.2062 1.433 22.2527L3.1755 22.6287C3.237 22.9257 3.315 23.2187 3.4095 23.5047L2.0905 24.6997C1.927 24.8477 1.88 25.0857 1.975 25.2852C2.216 25.7922 2.4845 26.2607 2.773 26.6777C2.898 26.8587 3.127 26.9367 3.3375 26.8692L5.031 26.3237C5.2335 26.5507 5.449 26.7662 5.676 26.9687L5.1305 28.6622C5.063 28.8717 5.1405 29.1012 5.322 29.2267C5.739 29.5152 6.2075 29.7837 6.7145 30.0247C6.9145 30.1197 7.152 30.0722 7.3 29.9092L8.495 28.5902C8.7815 28.6842 9.0745 28.7627 9.3715 28.8242L9.7475 30.5667C9.794 30.7822 9.9765 30.9417 10.196 30.9597C10.462 30.9807 10.7285 30.9997 11 30.9997C11.2715 30.9997 11.538 30.9807 11.804 30.9597C12.024 30.9422 12.2065 30.7827 12.253 30.5667L12.629 28.8242C12.926 28.7627 13.2195 28.6847 13.5055 28.5902L14.7005 29.9092C14.849 30.0727 15.087 30.1202 15.286 30.0247C15.793 29.7837 16.2615 29.5147 16.6785 29.2267C16.86 29.1012 16.9375 28.8717 16.87 28.6622L16.3245 26.9687C16.5515 26.7662 16.767 26.5507 16.9695 26.3242L18.663 26.8697C18.8725 26.9377 19.102 26.8597 19.2275 26.6782C19.516 26.2612 19.7845 25.7927 20.0255 25.2857C20.1205 25.0862 20.0735 24.8482 19.91 24.7002L18.591 23.5052C18.685 23.2187 18.7635 22.9257 18.825 22.6287L20.5675 22.2527C20.783 22.2062 20.9425 22.0237 20.9605 21.8042C20.981 21.5377 21 21.2712 21 20.9997C21 20.7282 20.981 20.4617 20.96 20.1957C20.9425 19.9757 20.783 19.7932 20.567 19.7467L18.8245 19.3707C18.763 19.0737 18.685 18.7802 18.5905 18.4942L19.9095 17.2992C20.073 17.1512 20.12 16.9132 20.025 16.7137C19.784 16.2067 19.515 15.7382 19.227 15.3212C19.1015 15.1397 18.872 15.0617 18.6625 15.1297L16.969 15.6752C16.7665 15.4482 16.551 15.2327 16.324 15.0302L16.8695 13.3367C16.937 13.1272 16.8595 12.8977 16.678 12.7722C16.261 12.4837 15.7925 12.2152 15.2855 11.9742C15.0855 11.8787 14.848 11.9262 14.7 12.0897L13.505 13.4087C13.2185 13.3147 12.9255 13.2362 12.6285 13.1747L12.2525 11.4322C12.206 11.2167 12.0235 11.0572 11.804 11.0392C11.2715 10.9962 10.728 10.9972 10.1955 11.0392C9.9755 11.0567 9.793 11.2162 9.7465 11.4322L9.3705 13.1747C9.0735 13.2362 8.7805 13.3142 8.4945 13.4087L7.2995 12.0897C7.1515 11.9262 6.914 11.8792 6.714 11.9742C6.207 12.2152 5.7385 12.4837 5.3215 12.7722C5.14 12.8977 5.0625 13.1272 5.13 13.3367L5.6755 15.0302C5.4485 15.2327 5.233 15.4482 5.0305 15.6752L3.3375 15.1297C3.1275 15.0617 2.898 15.1397 2.773 15.3212C2.4845 15.7382 2.216 16.2067 1.975 16.7137C1.88 16.9132 1.927 17.1512 2.0905 17.2992L3.4095 18.4942C3.3155 18.7807 3.237 19.0737 3.1755 19.3707L1.433 19.7467C1.2175 19.7932 1.058 19.9757 1.04 20.1952C1.019 20.4617 1 20.7282 1 20.9997C1 21.2712 1.019 21.5377 1.04 21.8037ZM2.0105 20.6452L3.7115 20.2777C3.9125 20.2342 4.0665 20.0722 4.0995 19.8692C4.1745 19.4082 4.2955 18.9557 4.459 18.5237C4.532 18.3317 4.4795 18.1142 4.327 17.9762L3.0425 16.8122C3.1545 16.5977 3.2715 16.3922 3.3925 16.1977L5.0405 16.7287C5.2355 16.7912 5.4505 16.7287 5.581 16.5697C5.876 16.2087 6.209 15.8762 6.57 15.5807C6.729 15.4507 6.7925 15.2362 6.729 15.0402L6.198 13.3922C6.3925 13.2707 6.5975 13.1537 6.8125 13.0422L7.9765 14.3272C8.115 14.4797 8.333 14.5322 8.5245 14.4592C8.9555 14.2957 9.408 14.1747 9.8695 14.0997C10.0725 14.0667 10.2345 13.9127 10.278 13.7117L10.645 12.0107C10.8805 11.9982 11.12 11.9977 11.3545 12.0107L11.722 13.7117C11.7655 13.9127 11.9275 14.0667 12.1305 14.0997C12.5915 14.1747 13.044 14.2957 13.476 14.4592C13.667 14.5322 13.885 14.4802 14.0235 14.3272L15.1875 13.0427C15.402 13.1547 15.6075 13.2717 15.802 13.3927L15.271 15.0407C15.208 15.2367 15.271 15.4507 15.43 15.5812C15.791 15.8762 16.1235 16.2092 16.419 16.5702C16.5495 16.7297 16.764 16.7932 16.9595 16.7292L18.6075 16.1982C18.729 16.3927 18.846 16.5977 18.9575 16.8122L17.6725 17.9762C17.52 18.1142 17.4675 18.3317 17.5405 18.5242C17.704 18.9552 17.825 19.4077 17.9 19.8692C17.933 20.0722 18.087 20.2342 18.288 20.2777L19.989 20.6447C19.9955 20.7622 20 20.8807 20 20.9997C20 21.1187 19.996 21.2372 19.9895 21.3542L18.2885 21.7217C18.0875 21.7652 17.9335 21.9272 17.9005 22.1302C17.8255 22.5912 17.7045 23.0437 17.541 23.4757C17.468 23.6677 17.5205 23.8852 17.673 24.0232L18.9575 25.1872C18.8455 25.4017 18.7285 25.6072 18.6075 25.8017L16.9595 25.2707C16.763 25.2067 16.5495 25.2702 16.419 25.4297C16.1245 25.7897 15.7915 26.1227 15.43 26.4187C15.271 26.5487 15.208 26.7632 15.271 26.9587L15.802 28.6067C15.6075 28.7282 15.4025 28.8452 15.188 28.9567L14.024 27.6717C13.886 27.5192 13.6685 27.4677 13.476 27.5397C13.045 27.7032 12.5925 27.8242 12.131 27.8992C11.928 27.9322 11.766 28.0862 11.7225 28.2872L11.3555 29.9882C11.12 30.0007 10.8805 30.0012 10.646 29.9882L10.2785 28.2872C10.235 28.0862 10.073 27.9322 9.87 27.8992C9.409 27.8242 8.9565 27.7032 8.5245 27.5397C8.333 27.4667 8.115 27.5187 7.977 27.6717L6.813 28.9562C6.5985 28.8442 6.393 28.7272 6.1985 28.6062L6.7295 26.9582C6.7925 26.7622 6.7295 26.5482 6.5705 26.4177C6.2095 26.1227 5.877 25.7897 5.5815 25.4287C5.451 25.2692 5.236 25.2062 5.041 25.2697L3.393 25.8007C3.2715 25.6062 3.1545 25.4012 3.043 25.1862L4.328 24.0222C4.4805 23.8842 4.533 23.6667 4.46 23.4742C4.2965 23.0432 4.1755 22.5907 4.1005 22.1292C4.0675 21.9262 3.9135 21.7642 3.7125 21.7207L2.0105 21.3547C2.0045 21.2372 2 21.1187 2 20.9997C2 20.8807 2.004 20.7622 2.0105 20.6452Z" fill="#6060EB"/>
<path d="M27.1095 8.11774C27.2975 8.05874 27.4335 7.89424 27.456 7.69824C27.486 7.44574 27.5 7.21724 27.5 7.00024C27.5 6.78324 27.486 6.55474 27.4565 6.30224C27.434 6.10624 27.298 5.94174 27.11 5.88274L25.7235 5.44724C25.682 5.33374 25.636 5.22224 25.5855 5.11324L26.2575 3.82574C26.3485 3.65124 26.3285 3.43924 26.2065 3.28424C25.917 2.91824 25.584 2.58524 25.217 2.29474C25.062 2.17224 24.85 2.15274 24.6755 2.24324L23.387 2.91524C23.278 2.86524 23.1665 2.81924 23.053 2.77774L22.6175 1.39124C22.5585 1.20324 22.394 1.06724 22.198 1.04474C21.692 0.985738 21.3075 0.985738 20.8015 1.04474C20.6055 1.06724 20.441 1.20324 20.382 1.39124L19.9465 2.77774C19.833 2.81924 19.7215 2.86524 19.6125 2.91574L18.325 2.24374C18.1505 2.15324 17.939 2.17274 17.7835 2.29474C17.4175 2.58424 17.0845 2.91724 16.794 3.28424C16.6715 3.43924 16.6515 3.65074 16.7425 3.82574L17.414 5.11324C17.364 5.22224 17.318 5.33374 17.2765 5.44724L15.89 5.88274C15.702 5.94174 15.566 6.10624 15.5435 6.30224C15.514 6.55474 15.5 6.78324 15.5 7.00024C15.5 7.21724 15.514 7.44574 15.5435 7.69824C15.566 7.89424 15.702 8.05874 15.89 8.11774L17.2765 8.55324C17.318 8.66674 17.364 8.77824 17.4145 8.88724L16.7425 10.1747C16.6515 10.3492 16.6715 10.5612 16.7935 10.7162C17.083 11.0822 17.416 11.4152 17.783 11.7057C17.9375 11.8282 18.15 11.8477 18.3245 11.7572L19.612 11.0857C19.721 11.1357 19.8325 11.1817 19.946 11.2232L20.3815 12.6097C20.4405 12.7977 20.605 12.9337 20.801 12.9562C21.0545 12.9862 21.283 13.0002 21.5 13.0002C21.717 13.0002 21.9455 12.9862 22.198 12.9567C22.394 12.9342 22.5585 12.7982 22.6175 12.6102L23.053 11.2237C23.1665 11.1822 23.278 11.1362 23.387 11.0857L24.6745 11.7577C24.849 11.8487 25.061 11.8292 25.216 11.7067C25.582 11.4172 25.915 11.0842 26.2055 10.7172C26.328 10.5622 26.348 10.3507 26.257 10.1757L25.585 8.88824C25.6355 8.77924 25.6815 8.66774 25.723 8.55424L27.1095 8.11774ZM25.1795 7.67574C25.0215 7.72574 24.8985 7.85024 24.8505 8.00924C24.7825 8.23524 24.6925 8.45274 24.5835 8.65624C24.505 8.80224 24.5035 8.97774 24.5805 9.12424L25.215 10.3402C25.0965 10.4717 24.971 10.5972 24.84 10.7152L23.624 10.0807C23.477 10.0037 23.3015 10.0057 23.156 10.0837C22.9525 10.1927 22.735 10.2827 22.509 10.3507C22.3505 10.3982 22.2255 10.5217 22.1755 10.6797L21.7635 11.9917C21.581 12.0027 21.4195 12.0027 21.2365 11.9917L20.8245 10.6797C20.7745 10.5217 20.65 10.3987 20.491 10.3507C20.2645 10.2827 20.047 10.1927 19.8445 10.0837C19.6985 10.0052 19.523 10.0037 19.376 10.0807L18.16 10.7152C18.0285 10.5967 17.903 10.4712 17.785 10.3402L18.4195 9.12424C18.496 8.97774 18.495 8.80174 18.4165 8.65624C18.3075 8.45274 18.2175 8.23524 18.1495 8.00924C18.102 7.85074 17.9785 7.72574 17.8205 7.67574L16.5085 7.26374C16.5025 7.17224 16.5 7.08474 16.5 7.00024C16.5 6.91574 16.5025 6.82824 16.5085 6.73674L17.8205 6.32474C17.9785 6.27474 18.1015 6.15024 18.1495 5.99124C18.2175 5.76474 18.3075 5.54724 18.4165 5.34474C18.495 5.19874 18.4965 5.02324 18.4195 4.87624L17.785 3.66024C17.9035 3.52874 18.029 3.40324 18.16 3.28524L19.376 3.91974C19.5225 3.99624 19.6985 3.99474 19.844 3.91674C20.0475 3.80774 20.265 3.71774 20.491 3.64974C20.6495 3.60224 20.7745 3.47874 20.8245 3.32074L21.2365 2.00874C21.419 1.99774 21.5805 1.99774 21.7635 2.00874L22.1755 3.32074C22.2255 3.47874 22.35 3.60174 22.509 3.64974C22.7355 3.71774 22.953 3.80774 23.1555 3.91674C23.3015 3.99524 23.477 3.99674 23.624 3.91974L24.84 3.28524C24.9715 3.40374 25.097 3.52924 25.215 3.66024L24.5805 4.87624C24.504 5.02274 24.505 5.19874 24.5835 5.34424C24.6925 5.54774 24.7825 5.76524 24.8505 5.99124C24.898 6.14974 25.0215 6.27474 25.1795 6.32474L26.4915 6.73674C26.4975 6.82824 26.5 6.91574 26.5 7.00024C26.5 7.08474 26.4975 7.17224 26.4915 7.26374L25.1795 7.67574Z" fill="#6060EB"/>
<path d="M30.631 17.4819L29.772 17.1769C29.723 17.0374 29.667 16.9009 29.6035 16.7684L29.994 15.9459C30.0755 15.7749 30.053 15.5729 29.936 15.4239C29.686 15.1044 29.397 14.8149 29.0765 14.5639C28.927 14.4469 28.724 14.4249 28.554 14.5059L27.731 14.8964C27.599 14.8334 27.4625 14.7769 27.323 14.7284L27.0175 13.8694C26.954 13.6909 26.7945 13.5634 26.6065 13.5404C26.161 13.4869 25.8385 13.4869 25.393 13.5404C25.205 13.5629 25.0455 13.6904 24.982 13.8694L24.677 14.7284C24.5375 14.7774 24.401 14.8334 24.2685 14.8969L23.446 14.5064C23.276 14.4254 23.0735 14.4479 22.924 14.5644C22.6045 14.8144 22.315 15.1034 22.064 15.4239C21.9475 15.5729 21.925 15.7754 22.006 15.9464L22.3965 16.7694C22.3335 16.9014 22.277 17.0379 22.2285 17.1774L21.3695 17.4829C21.191 17.5464 21.0635 17.7059 21.0405 17.8939C21.013 18.1154 21 18.3139 21 18.4999C21 18.6859 21.013 18.8839 21.04 19.1064C21.0625 19.2944 21.19 19.4539 21.369 19.5174L22.228 19.8224C22.277 19.9619 22.333 20.0984 22.3965 20.2309L22.006 21.0534C21.9245 21.2244 21.947 21.4264 22.064 21.5754C22.314 21.8949 22.603 22.1844 22.9235 22.4354C23.0725 22.5519 23.2755 22.5744 23.446 22.4934L24.269 22.1029C24.401 22.1659 24.5375 22.2224 24.677 22.2709L24.9825 23.1299C25.046 23.3084 25.2055 23.4359 25.3935 23.4589C25.616 23.4869 25.814 23.4999 26 23.4999C26.186 23.4999 26.384 23.4869 26.6065 23.4599C26.7945 23.4374 26.954 23.3099 27.0175 23.1309L27.3225 22.2719C27.462 22.2229 27.5985 22.1669 27.731 22.1034L28.5535 22.4939C28.724 22.5754 28.927 22.5534 29.0755 22.4359C29.395 22.1859 29.6845 21.8969 29.9355 21.5764C30.052 21.4274 30.0745 21.2249 29.9935 21.0539L29.603 20.2309C29.666 20.0989 29.7225 19.9624 29.771 19.8229L30.63 19.5174C30.8085 19.4539 30.936 19.2944 30.959 19.1064C30.987 18.8839 31 18.6859 31 18.4999C31 18.3139 30.987 18.1159 30.96 17.8934C30.9375 17.7049 30.81 17.5459 30.631 17.4819ZM29.995 18.6824L29.2025 18.9639C29.049 19.0184 28.9315 19.1444 28.888 19.3014C28.8225 19.5389 28.729 19.7654 28.6105 19.9749C28.5305 20.1164 28.5245 20.2884 28.594 20.4354L28.953 21.1919C28.87 21.2829 28.783 21.3699 28.6925 21.4524L27.936 21.0934C27.79 21.0239 27.6175 21.0299 27.4755 21.1099C27.2655 21.2289 27.039 21.3219 26.8025 21.3874C26.6455 21.4309 26.5195 21.5484 26.4645 21.7019L26.183 22.4944C26.062 22.5009 25.939 22.5009 25.818 22.4944L25.5365 21.7019C25.482 21.5484 25.356 21.4309 25.199 21.3874C24.9615 21.3219 24.735 21.2284 24.5255 21.1099C24.384 21.0304 24.2125 21.0244 24.065 21.0934L23.3085 21.4524C23.2175 21.3694 23.1305 21.2824 23.048 21.1919L23.407 20.4354C23.477 20.2884 23.4705 20.1164 23.3905 19.9749C23.2715 19.7649 23.1785 19.5384 23.113 19.3019C23.0695 19.1449 22.952 19.0189 22.7985 18.9639L22.006 18.6824C22.002 18.6219 22 18.5614 22 18.4999C22 18.4384 22.002 18.3774 22.005 18.3174L22.7975 18.0354C22.951 17.9809 23.0685 17.8549 23.1115 17.6979C23.1775 17.4599 23.271 17.2339 23.3895 17.0244C23.4695 16.8829 23.4755 16.7109 23.406 16.5639L23.047 15.8074C23.13 15.7164 23.217 15.6294 23.3075 15.5469L24.064 15.9059C24.211 15.9759 24.383 15.9699 24.5245 15.8894C24.7345 15.7704 24.961 15.6774 25.1975 15.6119C25.3545 15.5684 25.4805 15.4509 25.5355 15.2974L25.817 14.5049C25.938 14.4984 26.061 14.4984 26.182 14.5049L26.4635 15.2974C26.518 15.4509 26.644 15.5684 26.801 15.6119C27.0385 15.6774 27.265 15.7709 27.4745 15.8894C27.6165 15.9699 27.788 15.9759 27.935 15.9059L28.6915 15.5469C28.7825 15.6299 28.8695 15.7169 28.952 15.8074L28.593 16.5639C28.523 16.7109 28.5295 16.8829 28.6095 17.0244C28.7285 17.2344 28.8215 17.4609 28.887 17.6974C28.9305 17.8544 29.048 17.9804 29.2015 18.0354L29.994 18.3169C29.998 18.3779 30 18.4384 30 18.4999C30 18.5614 29.998 18.6219 29.995 18.6824Z" fill="#6060EB"/>
<path d="M11 26.5C14.0325 26.5 16.5 24.0325 16.5 21C16.5 17.9675 14.0325 15.5 11 15.5C7.9675 15.5 5.5 17.9675 5.5 21C5.5 24.0325 7.9675 26.5 11 26.5ZM11 16.5C13.481 16.5 15.5 18.519 15.5 21C15.5 23.481 13.481 25.5 11 25.5C8.519 25.5 6.5 23.481 6.5 21C6.5 18.519 8.519 16.5 11 16.5Z" fill="#6060EB"/>
<path d="M1.01172 12.6797L1.77972 13.3202C4.06922 10.5747 7.42972 9.00023 11.0007 9.00023C11.2552 9.00023 11.5092 9.01473 11.7632 9.03073L11.1472 9.64673L11.8542 10.3537L13.3542 8.85373C13.5497 8.65823 13.5497 8.34223 13.3542 8.14673L11.8542 6.64673L11.1472 7.35373L11.8267 8.03323C11.5517 8.01573 11.2762 8.00023 11.0007 8.00023C7.13272 8.00023 3.49172 9.70573 1.01172 12.6797Z" fill="#6060EB"/>
<path d="M21.5 4.5C20.1215 4.5 19 5.6215 19 7C19 8.3785 20.1215 9.5 21.5 9.5C22.8785 9.5 24 8.3785 24 7C24 5.6215 22.8785 4.5 21.5 4.5ZM21.5 8.5C20.673 8.5 20 7.827 20 7C20 6.173 20.673 5.5 21.5 5.5C22.327 5.5 23 6.173 23 7C23 7.827 22.327 8.5 21.5 8.5Z" fill="#6060EB"/>
<path d="M26 16.5C24.897 16.5 24 17.397 24 18.5C24 19.603 24.897 20.5 26 20.5C27.103 20.5 28 19.603 28 18.5C28 17.397 27.103 16.5 26 16.5ZM26 19.5C25.4485 19.5 25 19.0515 25 18.5C25 17.9485 25.4485 17.5 26 17.5C26.5515 17.5 27 17.9485 27 18.5C27 19.0515 26.5515 19.5 26 19.5Z" fill="#6060EB"/>
<path d="M30.5963 2.51029L28.0963 2.01029C27.8243 1.95529 27.5618 2.13179 27.5078 2.40229L27.0078 4.90229L27.9883 5.09879L28.2578 3.75279C28.7423 4.76079 28.9983 5.87179 28.9983 7.00029C28.9983 8.72429 28.4293 10.3453 27.3533 11.6878L28.1338 12.3133C29.3363 10.8128 29.9983 8.92629 29.9983 7.00029C29.9983 5.69079 29.6958 4.39979 29.1203 3.23479L30.4003 3.49079L30.5963 2.51029Z" fill="#6060EB"/>
</svg>
