<svg width="34" height="34" viewBox="0 0 34 34" fill="none" xmlns="http://www.w3.org/2000/svg">
<g clip-path="url(#clip0)">
<path d="M31.0456 23.1866C30.7127 23.1866 30.3826 23.2432 30.0643 23.3551L20.7123 26.6423C20.753 26.446 20.7745 26.2427 20.7745 26.0344C20.7745 24.3874 19.4345 23.0474 17.7874 23.0474H9.04658C6.3417 23.0474 3.7987 24.1007 1.88608 26.0134L0.00976562 27.8896V33.9999H21.6459L32.3353 28.7925C33.343 28.3016 33.994 27.2602 33.994 26.1393C33.9941 24.5111 32.6714 23.1866 31.0456 23.1866ZM31.4633 27.0024L21.1867 32.0086H2.00104V28.7145L3.29411 27.4214C4.83065 25.8849 6.87357 25.0387 9.04658 25.0387H17.7874C18.3364 25.0387 18.7831 25.4854 18.7831 26.0345C18.7831 26.5835 18.3364 27.0302 17.7874 27.0302H11.4596V29.0215H19.9487L30.7246 25.2338C30.8302 25.1967 30.9382 25.1778 31.0456 25.1778C31.5059 25.1778 32.0028 25.5455 32.0028 26.1393C32.0028 26.504 31.7911 26.8427 31.4633 27.0024Z" fill="#A284F5"/>
<path d="M12.1463 13.99C12.6837 14.4149 12.9919 15.0438 12.9919 15.7158V18.2854L14.2248 20.8462H19.7847L21.0177 18.2854V15.7221C21.0177 15.0468 21.3272 14.4143 21.8668 13.9871C23.7585 12.4896 24.8434 10.2486 24.8434 7.83873C24.8434 3.51646 21.327 0 17.0047 0C16.9037 0 16.8013 0.00199128 16.7002 0.0057747C14.6695 0.0829699 12.771 0.939086 11.3542 2.41648C9.93826 3.89301 9.16113 5.82548 9.16604 7.85791C9.17188 10.262 10.2581 12.4971 12.1463 13.99ZM18.5333 18.8549H15.476L14.9831 17.8311V16.7114H19.0262V17.8311L18.5333 18.8549ZM12.7914 3.79478C13.8489 2.69207 15.2639 2.05307 16.7758 1.99566C16.8518 1.9928 16.9289 1.99128 17.0047 1.99128C20.229 1.99128 22.8521 4.61445 22.8521 7.83866C22.8521 9.63632 22.0424 11.3083 20.6308 12.4258C19.882 13.0185 19.369 13.8242 19.1486 14.7201H14.8622C14.6426 13.8248 14.13 13.0198 13.3814 12.4279C11.9723 11.3138 11.1618 9.64635 11.1574 7.85313C11.1537 6.33877 11.734 4.89741 12.7914 3.79478Z" fill="#A284F5"/>
<path d="M4.21484 6.86011H7.17482V8.85139H4.21484V6.86011Z" fill="#A284F5"/>
<path d="M5.42773 2.32373L6.42338 0.599283L8.98671 2.07927L7.99107 3.80372L5.42773 2.32373Z" fill="#A284F5"/>
<path d="M5.42773 13.3882L7.99106 11.9082L8.9867 13.6326L6.42337 15.1126L5.42773 13.3882Z" fill="#A284F5"/>
<path d="M26.834 6.86011H29.794V8.85139H26.834V6.86011Z" fill="#A284F5"/>
<path d="M25.0176 2.0791L27.5809 0.599117L28.5766 2.32356L26.0132 3.80355L25.0176 2.0791Z" fill="#A284F5"/>
<path d="M25.0195 13.6333L26.0152 11.9088L28.5785 13.3888L27.5829 15.1133L25.0195 13.6333Z" fill="#A284F5"/>
</g>
<defs>
<clipPath id="clip0">
<rect width="34" height="34" fill="white"/>
</clipPath>
</defs>
</svg>
