<svg width="21" height="26" viewBox="0 0 21 26" fill="none" xmlns="http://www.w3.org/2000/svg">
<path d="M6.67188 4.2168H7.51514V5.06006H6.67188V4.2168Z" fill="#202333"/>
<path d="M8.35938 4.2168H9.20264V5.06006H8.35938V4.2168Z" fill="#202333"/>
<path d="M10.0449 4.2168H10.8882V5.06006H10.0449V4.2168Z" fill="#202333"/>
<path d="M12.5723 1.6875H13.4155V2.53076H12.5723V1.6875Z" fill="#202333"/>
<path d="M20.5532 25.0377C20.5852 24.9606 20.5935 24.8758 20.5772 24.794C20.5609 24.7122 20.5207 24.6371 20.4617 24.5781L18.0163 22.1326L17.2215 18.9531L17.6313 16.086C17.6377 16.0411 17.6368 15.9954 17.6288 15.9507L16.7855 11.3246C16.7551 11.0059 16.6111 10.7088 16.3798 10.4875C16.1485 10.2662 15.8454 10.1355 15.5257 10.1191C15.3825 10.1206 15.2406 10.1467 15.1062 10.1963V2.10815C15.1055 1.54924 14.8832 1.01341 14.488 0.618203C14.0928 0.222993 13.557 0.000669489 12.998 0H4.56333C4.00442 0.000669489 3.46859 0.222993 3.07338 0.618203C2.67817 1.01341 2.45584 1.54924 2.45517 2.10815V7.28071C2.14841 7.18502 1.81885 7.19167 1.5162 7.29969C1.25179 7.39138 1.01534 7.54939 0.829455 7.7586C0.643572 7.96781 0.514484 8.22122 0.454539 8.49459C0.394396 8.75998 0.402366 9.03627 0.477707 9.29775C0.553048 9.55923 0.693312 9.79741 0.885445 9.99011L2.13178 11.2364C1.78961 11.4092 1.52213 11.7008 1.37941 12.0565C1.23669 12.4123 1.22851 12.8079 1.35641 13.1692C1.02237 13.2212 0.713336 13.3775 0.473512 13.6157C0.323413 13.7655 0.204327 13.9434 0.123075 14.1392C0.0418232 14.3351 0 14.545 0 14.7571C0 14.9691 0.0418232 15.1791 0.123075 15.3749C0.204327 15.5708 0.323413 15.7487 0.473512 15.8984L1.1633 16.5882C0.902841 16.661 0.665179 16.7988 0.472669 16.9888C0.170347 17.2917 0.000554091 17.7021 0.000554091 18.1301C0.000554091 18.5581 0.170347 18.9685 0.472669 19.2715L2.15919 20.958C2.24839 21.0453 2.34744 21.122 2.45433 21.1865V21.5031C2.455 22.0621 2.67732 22.5979 3.07253 22.9931C3.46774 23.3883 4.00357 23.6106 4.56248 23.6113H8.60423L10.1672 25.1743C10.2065 25.2135 10.2531 25.2447 10.3044 25.2659C10.3557 25.2871 10.4106 25.2979 10.4662 25.2978H20.1636C20.247 25.2978 20.3286 25.2731 20.3979 25.2268C20.4672 25.1805 20.5213 25.1147 20.5532 25.0377ZM6.67148 0.843261H10.8878V1.68652H6.67148V0.843261ZM3.29844 8.01098V2.10815C3.29844 1.77268 3.4317 1.45095 3.66891 1.21374C3.90613 0.976526 4.22786 0.843261 4.56333 0.843261H5.82822V2.10815C5.82822 2.21997 5.87264 2.32722 5.95171 2.40629C6.03078 2.48536 6.13802 2.52978 6.24985 2.52978H11.3094C11.4212 2.52978 11.5285 2.48536 11.6075 2.40629C11.6866 2.32722 11.731 2.21997 11.731 2.10815V0.843261H12.9959C13.3314 0.843261 13.6531 0.976526 13.8903 1.21374C14.1276 1.45095 14.2608 1.77268 14.2608 2.10815V19.395H4.85214C4.78142 19.1233 4.64036 18.8751 4.44316 18.6753L3.75084 17.983C4.08794 17.8911 4.38517 17.6903 4.5962 17.4119C4.80723 17.1334 4.9202 16.793 4.9175 16.4436C4.91498 16.2699 4.88422 16.0977 4.82642 15.9338C5.05728 15.8988 5.27745 15.8129 5.471 15.6823C5.66454 15.5517 5.8266 15.3797 5.94543 15.1787H7.93637C8.04819 15.1787 8.15544 15.1343 8.23451 15.0552C8.31358 14.9761 8.358 14.8689 8.358 14.7571V12.2273C8.358 12.1155 8.31358 12.0082 8.23451 11.9291C8.15544 11.8501 8.04819 11.8056 7.93637 11.8056H5.40659C5.29476 11.8056 5.18752 11.8501 5.10845 11.9291C5.02938 12.0082 4.98496 12.1155 4.98496 12.2273V12.4803L4.01942 11.5151C3.81838 11.3191 3.56998 11.1785 3.29844 11.107V8.01098ZM5.82822 13.3488V12.6489H7.51474V14.3354H6.18154C6.17709 13.9767 6.0527 13.6299 5.82822 13.3501V13.3488ZM1.48163 9.39392C1.39016 9.30121 1.32354 9.18692 1.28795 9.06164C1.25235 8.93635 1.24892 8.80411 1.27798 8.67715C1.30775 8.54209 1.3722 8.41712 1.465 8.31457C1.55779 8.21202 1.67571 8.13543 1.80713 8.09235C1.87284 8.06868 1.94219 8.05669 2.01204 8.05693C2.17139 8.05912 2.32617 8.11052 2.45517 8.20408V10.3675L1.48163 9.39392ZM2.33585 12.1122C2.48381 11.9713 2.67971 11.8919 2.88397 11.89C3.08738 11.8893 3.28278 11.9692 3.42745 12.1122L5.11145 13.7957C5.25718 13.9411 5.33962 14.1381 5.34081 14.3439C5.34023 14.4373 5.32266 14.5299 5.28895 14.6171C5.25178 14.7195 5.19213 14.8123 5.1144 14.8886C4.98117 15.0221 4.80378 15.1023 4.61558 15.1142C4.42738 15.126 4.24132 15.0688 4.09236 14.9531L2.33754 13.2021C2.26563 13.1308 2.2086 13.0459 2.16973 12.9524C2.13086 12.8589 2.11094 12.7586 2.11112 12.6573C2.11159 12.4532 2.1923 12.2574 2.33585 12.1122ZM1.07096 15.3022C0.963047 15.1941 0.889636 15.0565 0.860028 14.9066C0.83042 14.7568 0.845947 14.6015 0.904643 14.4605C0.963338 14.3195 1.06256 14.1991 1.18974 14.1146C1.31693 14.03 1.46635 13.9851 1.61908 13.9855C1.79296 13.9859 1.96155 14.0454 2.09721 14.1541L3.84655 15.8984C3.98605 16.044 4.06296 16.2385 4.06079 16.4402C4.05863 16.6418 3.97756 16.8346 3.83497 16.9772C3.69238 17.1198 3.4996 17.2008 3.29796 17.203C3.09631 17.2052 2.90184 17.1282 2.75622 16.9888L1.07096 15.3022ZM2.75748 20.3618L1.07096 18.6753C0.935839 18.529 0.862552 18.3361 0.866445 18.137C0.870338 17.9379 0.95111 17.748 1.09185 17.6071C1.23259 17.4662 1.42238 17.3852 1.62149 17.381C1.8206 17.3769 2.01358 17.45 2.16003 17.5849L3.84655 19.2715C3.98605 19.4171 4.06296 19.6116 4.06079 19.8132C4.05863 20.0148 3.97756 20.2076 3.83497 20.3502C3.69238 20.4928 3.4996 20.5739 3.29796 20.576C3.09631 20.5782 2.90184 20.5013 2.75622 20.3618H2.75748ZM4.56333 22.768C4.22786 22.768 3.90613 22.6348 3.66891 22.3976C3.4317 22.1603 3.29844 21.8386 3.29844 21.5031V21.4294H3.30181C3.65595 21.4318 4.00077 21.3159 4.28161 21.1002C4.56245 20.8844 4.76324 20.5811 4.85214 20.2383H14.2608V21.5031C14.2608 21.8386 14.1276 22.1603 13.8903 22.3976C13.6531 22.6348 13.3314 22.768 12.9959 22.768H4.56333ZM10.6407 24.4546L9.79744 23.6113H12.9959C13.5548 23.6106 14.0907 23.3883 14.4859 22.9931C14.8811 22.5979 15.1034 22.0621 15.1041 21.5031V11.3815C15.1048 11.2701 15.1495 11.1635 15.2285 11.085C15.3075 11.0065 15.4143 10.9624 15.5257 10.9624C15.7458 10.9624 15.9157 11.2095 15.9541 11.4595L16.7851 16.0304L16.3732 18.9135C16.3656 18.9675 16.3685 19.0225 16.3816 19.0754L17.2249 22.4484C17.2434 22.5226 17.2817 22.5904 17.3358 22.6445L19.1458 24.4546H10.6407Z" fill="#202333"/>
<path d="M7.93359 21.082H9.62012V21.9253H7.93359V21.082Z" fill="#202333"/>
<path d="M5.40601 10.9629H7.93579C8.04761 10.9629 8.15485 10.9185 8.23393 10.8394C8.313 10.7603 8.35742 10.6531 8.35742 10.5413V8.01147C8.35742 7.89965 8.313 7.79241 8.23393 7.71334C8.15485 7.63427 8.04761 7.58984 7.93579 7.58984H5.40601C5.29418 7.58984 5.18694 7.63427 5.10787 7.71334C5.0288 7.79241 4.98438 7.89965 4.98438 8.01147V10.5413C4.98438 10.6531 5.0288 10.7603 5.10787 10.8394C5.18694 10.9185 5.29418 10.9629 5.40601 10.9629ZM5.82764 8.4331H7.51416V10.1196H5.82764V8.4331Z" fill="#202333"/>
<path d="M9.20117 10.5413C9.20117 10.6531 9.24559 10.7603 9.32466 10.8394C9.40374 10.9185 9.51098 10.9629 9.6228 10.9629H12.1526C12.2644 10.9629 12.3717 10.9185 12.4507 10.8394C12.5298 10.7603 12.5742 10.6531 12.5742 10.5413V8.01147C12.5742 7.89965 12.5298 7.79241 12.4507 7.71334C12.3717 7.63427 12.2644 7.58984 12.1526 7.58984H9.6228C9.51098 7.58984 9.40374 7.63427 9.32466 7.71334C9.24559 7.79241 9.20117 7.89965 9.20117 8.01147V10.5413ZM10.0444 8.4331H11.731V10.1196H10.0444V8.4331Z" fill="#202333"/>
<path d="M12.1526 11.8047H9.6228C9.51098 11.8047 9.40374 11.8491 9.32466 11.9282C9.24559 12.0073 9.20117 12.1145 9.20117 12.2263V14.7561C9.20117 14.8679 9.24559 14.9752 9.32466 15.0542C9.40374 15.1333 9.51098 15.1777 9.6228 15.1777H12.1526C12.2644 15.1777 12.3717 15.1333 12.4507 15.0542C12.5298 14.9752 12.5742 14.8679 12.5742 14.7561V12.2263C12.5742 12.1145 12.5298 12.0073 12.4507 11.9282C12.3717 11.8491 12.2644 11.8047 12.1526 11.8047ZM11.731 14.3345H10.0444V12.6479H11.731V14.3345Z" fill="#202333"/>
<path d="M6.67188 17.709H7.51514V18.5522H6.67188V17.709Z" fill="#202333"/>
<path d="M8.35938 17.709H9.20264V18.5522H8.35938V17.709Z" fill="#202333"/>
<path d="M10.0449 17.709H10.8882V18.5522H10.0449V17.709Z" fill="#202333"/>
</svg>
