<svg width="34" height="34" viewBox="0 0 34 34" fill="none" xmlns="http://www.w3.org/2000/svg">
<g clip-path="url(#clip0)">
<path d="M33.0709 14.9858C32.9607 14.2951 32.3114 13.8246 31.6207 13.9348C30.93 14.045 30.4595 14.6943 30.5697 15.385C30.5708 15.3925 30.5721 15.4 30.5734 15.4075C31.8631 22.9996 26.7541 30.1996 19.162 31.4893C11.57 32.779 4.36994 27.6699 3.08024 20.0779C1.79055 12.4858 6.89968 5.28581 14.4917 3.99612C19.1606 3.20301 23.913 4.8339 27.111 8.32683L21.5007 10.1961C20.837 10.4169 20.4781 11.1339 20.6988 11.7976C20.6989 11.7977 20.699 11.7979 20.699 11.7981C20.9199 12.4618 21.6369 12.8207 22.3006 12.6C22.3008 12.5999 22.3009 12.5998 22.3011 12.5998L29.8997 10.067C30.4171 9.89465 30.7661 9.41046 30.766 8.86512V1.26647C30.766 0.567005 30.199 0 29.4995 0C28.8001 0 28.2331 0.567005 28.2331 1.26647V5.89274C21.711 -0.31055 11.395 -0.052092 5.19169 6.46999C-1.01161 12.9921 -0.753221 23.308 5.76894 29.5114C12.2911 35.7148 22.607 35.4563 28.8104 28.9342C32.3477 25.215 33.9263 20.0468 33.0709 14.9858Z" fill="#6060EB"/>
</g>
<defs>
<clipPath id="clip0">
<rect width="34" height="34" fill="white"/>
</clipPath>
</defs>
</svg>
