<svg width="32" height="32" viewBox="0 0 32 32" fill="none" xmlns="http://www.w3.org/2000/svg">
<g clip-path="url(#clip0)">
<path d="M29.152 5.5252C24.7492 4.31883 20.3205 2.4404 16.3447 0.0930272C16.1335 -0.0316601 15.8715 -0.0316601 15.6603 0.0930272C11.5698 2.50784 7.38048 4.28464 2.85267 5.5252C2.56017 5.60527 2.35742 5.87114 2.35742 6.17445V13.0523C2.35742 20.135 5.62485 24.8232 8.36597 27.5089C11.317 30.4005 14.7545 31.9995 16.0025 31.9995C17.2505 31.9995 20.688 30.4005 23.6389 27.5089C26.38 24.8233 29.6472 20.1351 29.6472 13.0523V6.17439C29.6472 5.87114 29.4445 5.60527 29.152 5.5252ZM28.301 13.0523C28.301 19.6674 25.2534 24.0421 22.6967 26.5472C19.7948 29.3907 16.6921 30.6532 16.0025 30.6532C15.313 30.6532 12.2101 29.3907 9.3081 26.5472C6.75141 24.042 3.70373 19.6674 3.70373 13.0523V6.68539C8.0336 5.45602 12.066 3.74033 16.0026 1.45265C19.841 3.67965 24.0746 5.48064 28.301 6.68514V13.0523Z" fill="#FA8B26"/>
<path d="M10.0386 6.61021C9.90233 6.26427 9.51152 6.09433 9.16552 6.23065C7.96302 6.70446 6.72877 7.14058 5.49708 7.52696C5.21639 7.61508 5.02539 7.87508 5.02539 8.16921V10.7686C5.02539 11.1404 5.32683 11.4418 5.69852 11.4418C6.0702 11.4418 6.37164 11.1404 6.37164 10.7686V8.66114C7.47658 8.30364 8.58033 7.90821 9.65902 7.48314C10.005 7.34696 10.1749 6.95615 10.0386 6.61021Z" fill="#FA8B26"/>
<path d="M11.3172 6.73789C11.4075 6.73789 11.4992 6.7197 11.5872 6.68133L11.5995 6.67595C11.9401 6.5267 12.0935 6.13027 11.9442 5.78983C11.7949 5.44927 11.3962 5.29521 11.056 5.44433L11.0451 5.44902C10.7044 5.59783 10.5505 5.99396 10.6993 6.33458C10.8097 6.58745 11.0575 6.73789 11.3172 6.73789Z" fill="#FA8B26"/>
<path d="M24.0248 21.7046C23.7138 21.5013 23.2967 21.5888 23.0931 21.9C22.5384 22.749 21.8877 23.562 21.1587 24.3161C20.5592 24.9363 19.9095 25.5143 19.2278 26.0339C18.9323 26.2593 18.8754 26.6817 19.1007 26.9774C19.2333 27.1511 19.4337 27.2424 19.6365 27.2424C19.7788 27.2424 19.9223 27.1975 20.0442 27.1045C20.7795 26.5438 21.4801 25.9205 22.1265 25.2519C22.9147 24.4366 23.619 23.5566 24.2202 22.6363C24.4236 22.3251 24.336 21.908 24.0248 21.7046Z" fill="#FA8B26"/>
<path d="M17.6618 27.0904L17.6231 27.1131C17.3015 27.2994 17.1915 27.7112 17.3778 28.0329C17.5026 28.2485 17.7285 28.3689 17.9609 28.3689C18.0753 28.3689 18.1914 28.3397 18.2975 28.2781L18.342 28.2519C18.6629 28.0641 18.7706 27.6517 18.5827 27.3309C18.3947 27.0102 17.9824 26.9027 17.6618 27.0904Z" fill="#FA8B26"/>
<path d="M11.4132 14.6251C10.9999 14.2117 10.4502 13.9842 9.86559 13.9842C9.28097 13.9842 8.73122 14.2118 8.31772 14.6251C7.46441 15.4786 7.46441 16.8674 8.31772 17.7208L12.2925 21.6954C12.7058 22.1087 13.2555 22.3362 13.8402 22.3362C14.4249 22.3362 14.9746 22.1087 15.388 21.6953L23.6856 13.3977C24.5388 12.544 24.5388 11.1554 23.6854 10.3023C23.2721 9.88888 22.7224 9.66138 22.1376 9.66138C21.5529 9.66138 21.0033 9.88894 20.5898 10.3023L13.8401 17.0519L11.4132 14.6251ZM21.5418 11.2542C21.7009 11.0952 21.9126 11.0076 22.1377 11.0076C22.3629 11.0076 22.5744 11.0952 22.7336 11.2542C23.0621 11.5827 23.0621 12.1173 22.7335 12.4459L14.4361 20.7434C14.277 20.9024 14.0653 20.99 13.8402 20.99C13.6151 20.99 13.4034 20.9024 13.2443 20.7434L9.26965 16.7689C8.94109 16.4403 8.94109 15.9057 9.26953 15.5772C9.42865 15.4182 9.64034 15.3305 9.86553 15.3305C10.0907 15.3305 10.3023 15.4181 10.4613 15.5771L13.3641 18.48C13.4905 18.6062 13.6616 18.6771 13.8401 18.6771C14.0187 18.6771 14.1898 18.6062 14.316 18.48L21.5418 11.2542Z" fill="#FA8B26"/>
</g>
<defs>
<clipPath id="clip0">
<rect width="32" height="32" fill="white"/>
</clipPath>
</defs>
</svg>
