<svg width="33" height="34" viewBox="0 0 33 34" fill="none" xmlns="http://www.w3.org/2000/svg">
<path d="M26.1985 22.8986C29.7465 22.8986 32.6329 20.0122 32.6329 16.4642C32.6329 12.9162 29.7465 10.0298 26.1985 10.0298C25.4339 10.0298 24.6912 10.1628 23.9818 10.4255C23.6703 8.97511 22.3781 7.88502 20.8365 7.88502C20.8349 7.88502 20.8333 7.88502 20.8317 7.88502C20.6901 4.01741 17.4997 0.914429 13.5978 0.914429C9.60635 0.914429 6.35913 4.16165 6.35913 8.15312C6.35913 8.4491 6.37736 8.74508 6.41328 9.03945C3.03094 9.53544 0.460938 12.4545 0.460938 15.928C0.460938 19.7715 3.58805 22.8986 7.43153 22.8986H11.7211V25.5796H9.04012V26.652H12.2573C12.5533 26.652 12.7935 26.4118 12.7935 26.1158V22.8986H13.8659V23.971H14.9383V22.8986H16.0107V29.8692H14.9383V30.9416H16.5469C16.8429 30.9416 17.0831 30.7014 17.0831 30.4054V22.8986H18.1555V25.0434H19.2279V22.8986H20.3003V28.2606C20.3003 28.5566 20.5405 28.7968 20.8365 28.7968H23.5175V27.7244H21.3727V22.8986H22.4451V26.1158C22.4451 26.4118 22.6853 26.652 22.9813 26.652H26.1985V25.5796H23.5175V22.8986H26.1985ZM1.53334 15.928C1.53334 12.8218 3.96393 10.2389 7.06691 10.0491C7.22241 10.0395 7.36557 9.96332 7.45995 9.84C7.55432 9.71667 7.59078 9.55796 7.55968 9.40568C7.47442 8.99441 7.43153 8.57296 7.43153 8.15312C7.43153 4.75308 10.1978 1.98683 13.5978 1.98683C16.9979 1.98683 19.7641 4.75308 19.7641 8.15312C19.7641 8.21263 19.7598 8.27108 19.7555 8.33006L19.748 8.45392C19.74 8.61961 19.8097 8.77993 19.9357 8.88771C20.0622 8.99549 20.2317 9.03892 20.3936 9.0046C21.7561 8.71988 22.9813 9.77619 22.9802 11.092C22.9781 11.1092 22.97 11.1794 22.9695 11.1966C22.9609 11.3875 23.0548 11.5692 23.2156 11.6727C23.3765 11.7757 23.5808 11.7859 23.7507 11.6979C24.5186 11.3027 25.3422 11.1022 26.1985 11.1022C29.1551 11.1022 31.5605 13.5076 31.5605 16.4642C31.5605 19.4208 29.1551 21.8262 26.1985 21.8262H7.43153C4.17948 21.8262 1.53334 19.18 1.53334 15.928Z" fill="#FA8B26"/>
<path d="M15.1172 3.85544C14.6298 3.68279 14.1188 3.59485 13.5977 3.59485V4.66725C13.9961 4.66725 14.3869 4.73427 14.7591 4.86618L15.1172 3.85544Z" fill="#FA8B26"/>
<path d="M12.4353 4.86608L12.0766 3.85535C10.26 4.49986 9.03906 6.22642 9.03906 8.15245H10.1115C10.1115 6.67951 11.0455 5.35885 12.4353 4.86608Z" fill="#FA8B26"/>
<path d="M18.8498 13.6797L17.8932 13.2872C17.8283 13.0979 17.7527 12.9146 17.667 12.7382L18.0653 11.7859C18.1399 11.6079 18.1125 11.4036 17.9946 11.2507C17.6889 10.8561 17.3329 10.5001 16.9367 10.1928C16.7838 10.0749 16.5795 10.0475 16.4015 10.122L15.4492 10.5204C15.2723 10.4346 15.0889 10.359 14.9002 10.2942L14.5077 9.33758C14.4342 9.15903 14.2707 9.03356 14.0792 9.00889C13.52 8.93812 13.1446 8.93812 12.5854 9.00889C12.394 9.03302 12.2299 9.15849 12.157 9.33758L11.7645 10.2942C11.5757 10.359 11.3924 10.4346 11.2154 10.5204L10.2631 10.122C10.0856 10.048 9.88027 10.0749 9.72799 10.1928C9.33335 10.4985 8.97731 10.854 8.67007 11.2502C8.55157 11.403 8.52476 11.6073 8.59929 11.7859L8.99769 12.7382C8.91189 12.9151 8.83629 13.0985 8.77141 13.2872L7.81483 13.6797C7.63628 13.7532 7.51081 13.9167 7.48614 14.1081C7.45022 14.3875 7.43359 14.625 7.43359 14.8551C7.43359 15.0851 7.45022 15.3226 7.48561 15.602C7.50973 15.7934 7.6352 15.9575 7.8143 16.0304L8.77087 16.4229C8.83575 16.6117 8.91136 16.795 8.99715 16.972L8.59875 17.9243C8.52422 18.1023 8.55157 18.3066 8.66953 18.4594C8.97517 18.854 9.33067 19.2101 9.72692 19.5173C9.87973 19.6358 10.0846 19.6626 10.2626 19.5881L11.2149 19.1897C11.3918 19.2755 11.5752 19.3511 11.7639 19.416L12.1564 20.3726C12.2299 20.5511 12.3934 20.6766 12.5849 20.7013C12.8642 20.7366 13.1018 20.7533 13.3318 20.7533C13.5618 20.7533 13.7993 20.7366 14.0787 20.7013C14.2701 20.6771 14.4342 20.5517 14.5071 20.3726L14.8996 19.416C15.0889 19.3511 15.2723 19.2755 15.4487 19.1897L16.401 19.5881C16.579 19.6626 16.7833 19.6358 16.9361 19.5173C17.3318 19.2112 17.6873 18.8551 17.994 18.4594C18.1125 18.3066 18.1393 18.1023 18.0648 17.9243L17.6664 16.972C17.7522 16.795 17.8278 16.6117 17.8927 16.4229L18.8493 16.0304C19.0278 15.957 19.1533 15.7934 19.178 15.602C19.2134 15.3226 19.23 15.0851 19.23 14.8551C19.23 14.625 19.2134 14.3875 19.178 14.1081C19.1538 13.9167 19.0284 13.7526 18.8498 13.6797ZM18.1458 15.1602L17.253 15.5264C17.1007 15.5891 16.9854 15.7178 16.9404 15.8765C16.8594 16.1629 16.7474 16.4347 16.6069 16.6851C16.5265 16.8288 16.5168 17.0015 16.5801 17.1538L16.9501 18.0396C16.8144 18.1934 16.6696 18.3382 16.5157 18.4739L15.6299 18.1039C15.4777 18.0401 15.305 18.0503 15.1608 18.1307C14.9114 18.2707 14.6396 18.3827 14.3527 18.4637C14.1945 18.5087 14.0653 18.624 14.0026 18.7763L13.6363 19.6691C13.4219 19.6846 13.2412 19.6846 13.0262 19.6691L12.6599 18.7763C12.5972 18.624 12.4685 18.5087 12.3098 18.4637C12.0235 18.3827 11.7516 18.2707 11.5012 18.1302C11.3575 18.0497 11.1848 18.0401 11.0326 18.1034L10.1468 18.4739C9.99287 18.3382 9.84756 18.1934 9.71244 18.0396L10.0824 17.1538C10.1462 17.0015 10.1366 16.8288 10.0556 16.6851C9.91512 16.4347 9.80306 16.1623 9.72209 15.8765C9.67705 15.7184 9.56177 15.5891 9.40949 15.5264L8.51672 15.1602C8.50975 15.0529 8.50599 14.9527 8.50599 14.8551C8.50599 14.7575 8.50975 14.6572 8.51779 14.55L9.41056 14.1838C9.56284 14.121 9.67812 13.9923 9.72316 13.8336C9.80413 13.5473 9.9162 13.2754 10.0567 13.025C10.1371 12.8813 10.1468 12.7087 10.0835 12.5564L9.71298 11.6706C9.84863 11.5167 9.99341 11.3714 10.1473 11.2363L11.0331 11.6062C11.1848 11.6701 11.358 11.6599 11.5017 11.5794C11.7521 11.4389 12.0245 11.3269 12.3103 11.2459C12.4685 11.2009 12.5977 11.0856 12.6605 10.9333L13.0267 10.0405C13.2412 10.025 13.4219 10.025 13.6369 10.0405L14.0031 10.9333C14.0658 11.0856 14.1945 11.2009 14.3532 11.2459C14.6396 11.3269 14.9114 11.4389 15.1618 11.5794C15.3055 11.6599 15.4787 11.6695 15.6305 11.6062L16.5163 11.2363C16.6702 11.3719 16.8155 11.5167 16.9506 11.6706L16.5806 12.5564C16.5168 12.7087 16.527 12.8813 16.6074 13.0256C16.7474 13.2749 16.8594 13.5467 16.9404 13.8336C16.9854 13.9918 17.1007 14.121 17.253 14.1838L18.1458 14.55C18.1538 14.6572 18.1576 14.7575 18.1576 14.8551C18.1576 14.9527 18.1538 15.0529 18.1458 15.1602Z" fill="#FA8B26"/>
<path d="M25.5142 19.3084L26.036 19.6098L26.5722 18.6811L26.0499 18.3797C26.0837 18.2784 26.1228 18.1792 26.1448 18.073H26.7352V17.0006H26.1448C26.1234 16.8945 26.0842 16.7953 26.0499 16.6939L26.5722 16.3926L26.036 15.4639L25.5142 15.7652C25.4435 15.6859 25.3695 15.6113 25.2896 15.5406L25.5909 15.0188L24.6622 14.4826L24.3609 15.0049C24.2595 14.9711 24.1603 14.932 24.0542 14.91V14.3191H22.9818V14.9094C22.8756 14.9309 22.7764 14.97 22.6751 15.0044L22.3737 14.4821L21.445 15.0183L21.7464 15.54C21.667 15.6108 21.5925 15.6848 21.5217 15.7647L21 15.4633L20.4638 16.392L20.986 16.6934C20.9523 16.7947 20.9131 16.8939 20.8911 17.0001H20.3008V18.0725H20.8911C20.9126 18.1787 20.9517 18.2778 20.986 18.3792L20.4638 18.6805L21 19.6092L21.5217 19.3079C21.5925 19.3872 21.6665 19.4618 21.7464 19.5326L21.445 20.0543L22.3737 20.5905L22.6751 20.0682C22.7764 20.102 22.8756 20.1411 22.9818 20.1631V20.7535H24.0542V20.1631C24.1603 20.1417 24.2595 20.1025 24.3609 20.0682L24.6622 20.5905L25.5909 20.0543L25.2896 19.5326C25.3695 19.4618 25.4435 19.3878 25.5142 19.3084ZM23.518 19.1449C22.6311 19.1449 21.9094 18.4232 21.9094 17.5363C21.9094 16.6494 22.6311 15.9277 23.518 15.9277C24.4048 15.9277 25.1266 16.6494 25.1266 17.5363C25.1266 18.4232 24.4048 19.1449 23.518 19.1449Z" fill="#FA8B26"/>
<path d="M13.3294 12.1746C11.8511 12.1746 10.6484 13.3773 10.6484 14.8556C10.6484 16.3339 11.8511 17.5366 13.3294 17.5366C14.8077 17.5366 16.0104 16.3339 16.0104 14.8556C16.0104 13.3773 14.8077 12.1746 13.3294 12.1746ZM13.3294 16.4642C12.4426 16.4642 11.7208 15.7424 11.7208 14.8556C11.7208 13.9687 12.4426 13.247 13.3294 13.247C14.2163 13.247 14.938 13.9687 14.938 14.8556C14.938 15.7424 14.2163 16.4642 13.3294 16.4642Z" fill="#FA8B26"/>
<path d="M6.35938 25.5792H7.96797V26.6516H6.35938V25.5792Z" fill="#FA8B26"/>
<path d="M14.9399 28.2607V25.0435H13.8675V27.7245H11.7227V28.7969H14.4037C14.6996 28.7969 14.9399 28.5566 14.9399 28.2607Z" fill="#FA8B26"/>
<path d="M9.03906 27.7239H10.6477V28.7963H9.03906V27.7239Z" fill="#FA8B26"/>
<path d="M6.35938 27.7239H7.96797V28.7963H6.35938V27.7239Z" fill="#FA8B26"/>
<path d="M9.57422 29.8684H13.8638V30.9408H9.57422V29.8684Z" fill="#FA8B26"/>
<path d="M7.43359 32.0131H8.50599V33.0855H7.43359V32.0131Z" fill="#FA8B26"/>
<path d="M9.57422 32.0131H10.6466V33.0855H9.57422V32.0131Z" fill="#FA8B26"/>
<path d="M11.7227 32.0131H12.7951V33.0855H11.7227V32.0131Z" fill="#FA8B26"/>
<path d="M18.1568 32.0132H13.8672V33.0856H18.693C18.989 33.0856 19.2292 32.8454 19.2292 32.5494V29.8684H18.1568V32.0132Z" fill="#FA8B26"/>
<path d="M18.1523 26.1151H19.2247V28.7961H18.1523V26.1151Z" fill="#FA8B26"/>
<path d="M3.57947 26.6511H5.28673V25.5787H3.57947C3.35749 24.9562 2.76767 24.5063 2.06953 24.5063C1.18266 24.5063 0.460938 25.2281 0.460938 26.1149C0.460938 27.0018 1.18266 27.7235 2.06953 27.7235C2.76767 27.7235 3.35749 27.2737 3.57947 26.6511ZM1.53334 26.1149C1.53334 25.8195 1.77409 25.5787 2.06953 25.5787C2.36498 25.5787 2.60573 25.8195 2.60573 26.1149C2.60573 26.4104 2.36498 26.6511 2.06953 26.6511C1.77409 26.6511 1.53334 26.4104 1.53334 26.1149Z" fill="#FA8B26"/>
<path d="M24.5898 27.7239H26.1984V28.7963H24.5898V27.7239Z" fill="#FA8B26"/>
<path d="M27.2734 27.7239H28.882V28.7963H27.2734V27.7239Z" fill="#FA8B26"/>
<path d="M31.0268 24.5063C30.3287 24.5063 29.7389 24.9562 29.5169 25.5787H27.2734V26.6511H29.5169C29.7389 27.2737 30.3287 27.7235 31.0268 27.7235C31.9137 27.7235 32.6354 27.0018 32.6354 26.1149C32.6354 25.2281 31.9137 24.5063 31.0268 24.5063ZM31.0268 26.6511C30.7314 26.6511 30.4906 26.4104 30.4906 26.1149C30.4906 25.8195 30.7314 25.5787 31.0268 25.5787C31.3223 25.5787 31.563 25.8195 31.563 26.1149C31.563 26.4104 31.3223 26.6511 31.0268 26.6511Z" fill="#FA8B26"/>
<path d="M3.67891 28.7968C2.79204 28.7968 2.07031 29.5185 2.07031 30.4054C2.07031 31.2922 2.79204 32.0139 3.67891 32.0139C4.37704 32.0139 4.96686 31.5641 5.18885 30.9415H8.5047V29.8692H5.18885C4.96686 29.2466 4.37704 28.7968 3.67891 28.7968ZM3.67891 30.9415C3.38346 30.9415 3.14271 30.7008 3.14271 30.4054C3.14271 30.1099 3.38346 29.8692 3.67891 29.8692C3.97436 29.8692 4.21511 30.1099 4.21511 30.4054C4.21511 30.7008 3.97436 30.9415 3.67891 30.9415Z" fill="#FA8B26"/>
</svg>
