<svg width="35" height="34" viewBox="0 0 35 34" fill="none" xmlns="http://www.w3.org/2000/svg">
<path d="M4.97727 2.79944C4.1154 2.79944 3.41406 3.47234 3.41406 4.29927C3.41406 5.1262 4.1154 5.79886 4.97727 5.79886C5.83914 5.79886 6.54022 5.12596 6.54022 4.29902C6.54022 3.47209 5.83914 2.79944 4.97727 2.79944ZM4.97727 4.84159C4.66545 4.84159 4.41178 4.5982 4.41178 4.29902C4.41178 4.00009 4.66545 3.7567 4.97727 3.7567C5.28883 3.7567 5.5425 4.00009 5.5425 4.29902C5.5425 4.5982 5.28883 4.84159 4.97727 4.84159Z" fill="#6060EB"/>
<path d="M9.16868 2.79944C8.3068 2.79944 7.60547 3.47234 7.60547 4.29927C7.60547 5.1262 8.3068 5.79886 9.16868 5.79886C10.0305 5.79886 10.7316 5.1262 10.7316 4.29927C10.7316 3.47234 10.0305 2.79944 9.16868 2.79944ZM9.16868 4.84159C8.85686 4.84159 8.60318 4.5982 8.60318 4.29902C8.60318 4.00009 8.85686 3.7567 9.16868 3.7567C9.48024 3.7567 9.73391 4.00009 9.73391 4.29902C9.73391 4.5982 9.48024 4.84159 9.16868 4.84159Z" fill="#6060EB"/>
<path d="M13.3559 2.79944C12.494 2.79944 11.793 3.47234 11.793 4.29927C11.793 5.1262 12.494 5.79886 13.3559 5.79886C14.2178 5.79886 14.9189 5.1262 14.9189 4.29927C14.9189 3.47234 14.2178 2.79944 13.3559 2.79944ZM13.3559 4.84159C13.0441 4.84159 12.7907 4.5982 12.7907 4.29902C12.7907 4.00009 13.0441 3.7567 13.3559 3.7567C13.6677 3.7567 13.9214 4.00009 13.9214 4.29902C13.9214 4.5982 13.6675 4.84159 13.3559 4.84159Z" fill="#6060EB"/>
<path d="M32.5801 0.822754H2.51647C1.50795 0.822754 0.6875 1.60994 0.6875 2.57758V23.7006C0.6875 24.6682 1.50795 25.4554 2.51647 25.4554H5.73447C5.58165 25.6433 5.59503 25.9151 5.77512 26.0879L8.17189 28.3875C7.99232 28.7409 7.83512 29.105 7.70134 29.4758H4.31225C4.03697 29.4758 3.81365 29.6901 3.81365 29.9544V32.6986C3.81365 32.963 4.03697 33.1772 4.31225 33.1772H14.1561C14.4317 33.1772 14.655 32.963 14.655 32.6986C14.655 31.2383 15.8932 30.0502 17.4153 30.0502C18.9371 30.0502 20.1753 31.2383 20.1753 32.6986C20.1753 32.963 20.3986 33.1772 20.6742 33.1772H30.518C30.7936 33.1772 31.0169 32.963 31.0169 32.6986V29.9544C31.0169 29.6901 30.7936 29.4758 30.518 29.4758H27.129C26.9952 29.105 26.838 28.7409 26.6584 28.3875L29.0554 26.0879C29.2353 25.9151 29.2487 25.6433 29.0958 25.4554H32.5799C33.5884 25.4554 34.4088 24.6682 34.4088 23.7006V11.8602C34.4088 11.5958 34.1855 11.3816 33.9102 11.3816C33.6347 11.3816 33.4114 11.5958 33.4114 11.8602V23.7006C33.4114 24.1405 33.0383 24.4982 32.5799 24.4982H28.104L25.1639 21.6772V18.4038C25.1639 18.1394 24.9403 17.9252 24.665 17.9252H23.7671V14.9759L24.4711 14.3523C24.6126 14.2269 24.6663 14.0349 24.6092 13.8586L23.4121 10.1575C23.3473 9.95726 23.1541 9.82076 22.9356 9.82076H21.6053C21.3868 9.82076 21.1936 9.95726 21.1288 10.1575L19.9317 13.8586C19.8746 14.0349 19.9283 14.2269 20.0698 14.3523L20.774 14.9759V17.9252H19.8761C19.6006 17.9252 19.3773 18.1394 19.3773 18.4038V19.6482H15.453V18.9212L17.3687 17.0832C17.4624 16.9933 17.5148 16.8716 17.5148 16.7448V12.8199C17.5148 12.6921 17.4613 12.5694 17.3664 12.4795L14.7062 9.95874C14.5629 9.82298 14.3488 9.78323 14.1633 9.85753C13.9776 9.93208 13.8566 10.1061 13.8566 10.2991V14.5659L12.5597 15.3493L11.2628 14.5659V14.2931C11.2628 14.0287 11.0395 13.8145 10.7639 13.8145C10.4884 13.8145 10.2651 14.0287 10.2651 14.2931V14.83C10.2651 14.9946 10.3531 15.1474 10.4982 15.2351L12.294 16.3199C12.4563 16.4182 12.6631 16.4182 12.8255 16.3199L14.6213 15.2351C14.7664 15.1474 14.8544 14.9946 14.8544 14.83V11.4445L16.5171 13.0199V16.5463L14.6015 18.3843C14.5078 18.4742 14.4553 18.5959 14.4553 18.723V19.6578C14.2276 19.7022 14.0563 19.8952 14.0563 20.1268V23.3785C13.6696 23.5066 13.2904 23.6577 12.9217 23.8297L10.6641 21.6636V18.723C10.6641 18.5959 10.6116 18.4742 10.518 18.3843L8.60232 16.5463V13.0199L10.2651 11.4445V12.0515C10.2651 12.3159 10.4884 12.5301 10.7639 12.5301C11.0395 12.5301 11.2628 12.3159 11.2628 12.0515V10.2994C11.2628 10.1061 11.1419 9.93208 10.9561 9.85778C10.7706 9.78323 10.5566 9.82322 10.4133 9.95874L7.75279 12.4795C7.65786 12.5694 7.6046 12.6921 7.6046 12.8199V16.7448C7.6046 16.8716 7.65709 16.9933 7.75073 17.0832L9.66641 18.9212V21.6772L6.72626 24.4982H2.51647C2.05801 24.4982 1.68521 24.1405 1.68521 23.7006V7.7786H33.4114V9.63044C33.4114 9.89456 33.6347 10.1088 33.9102 10.1088C34.1858 10.1088 34.4091 9.89456 34.4091 9.63044V2.57758C34.4091 1.60994 33.5886 0.822754 32.5801 0.822754V0.822754ZM21.6112 14.4148L20.978 13.854L21.9732 10.778H22.5682L23.5631 13.854L22.93 14.4148C22.8278 14.5054 22.7694 14.6328 22.7694 14.7665V17.9254H21.772V14.7665C21.7717 14.6328 21.7136 14.5054 21.6112 14.4148ZM24.1662 18.8824V21.6639L21.9086 23.83C21.5399 23.6579 21.1607 23.5068 20.774 23.3785V20.127C20.774 19.8955 20.6027 19.7025 20.375 19.658V18.8827H24.1662V18.8824ZM13.0601 24.8366C13.5837 24.569 14.1358 24.3493 14.701 24.1837C14.9107 24.1222 15.054 23.9363 15.054 23.7258V20.6054H19.7763V23.7258C19.7763 23.9363 19.9199 24.1222 20.1295 24.1837C20.6948 24.3493 21.2469 24.569 21.7704 24.8366C21.9642 24.9356 22.2024 24.9015 22.3578 24.7527L24.6581 22.5456L27.5445 25.3152C27.5447 25.3152 27.5447 25.3155 27.545 25.3157L27.9973 25.7494L25.697 27.9565C25.5418 28.1053 25.5063 28.3341 25.6095 28.52C25.8884 29.0221 26.1174 29.5518 26.29 30.0944C26.354 30.2956 26.5478 30.4331 26.767 30.4331H30.0192V32.22H24.9475C24.6897 28.4484 21.4102 25.4557 17.4153 25.4557C16.3471 25.4557 15.3146 25.6655 14.3462 26.0792C14.0946 26.1868 13.9814 26.4697 14.0936 26.7114C14.2055 26.9528 14.5009 27.0612 14.7522 26.9538C15.592 26.5949 16.4878 26.4129 17.4153 26.4129C20.8599 26.4129 23.6923 28.9767 23.9478 32.22H21.1401C20.8954 30.4575 19.3183 29.0932 17.4153 29.0932C15.5122 29.0932 13.9351 30.4575 13.6904 32.22H10.8823C11.0035 30.6483 11.7215 29.2043 12.9348 28.1125C13.1358 27.9318 13.1461 27.6289 12.9575 27.4359C12.7691 27.2433 12.4535 27.2335 12.2525 27.4142C10.8576 28.6691 10.0106 30.3993 9.88355 32.22H4.81111V30.4331H8.06332C8.28278 30.4331 8.47651 30.2956 8.54057 30.0944C8.7132 29.5518 8.94218 29.0221 9.22106 28.52C9.32423 28.3341 9.28873 28.1053 9.13359 27.9565L6.83329 25.7494L7.28558 25.3157C7.28558 25.3155 7.28584 25.3152 7.2861 25.3152L10.1725 22.5456L12.4728 24.7527C12.6279 24.9015 12.8664 24.9356 13.0601 24.8366ZM1.68521 6.82134V2.57758C1.68521 2.1377 2.05826 1.78002 2.51647 1.78002H32.5801C33.0386 1.78002 33.4114 2.13795 33.4114 2.57758V6.82134H1.68521Z" fill="#6060EB"/>
</svg>
