<svg width="43" height="16" viewBox="0 0 43 16" fill="none" xmlns="http://www.w3.org/2000/svg">
<path d="M33.9137 0.392C33.8154 0.679877 33.6863 0.961757 33.5695 1.24364C32.2293 4.49425 30.8831 7.73886 29.5429 10.9895C28.9221 12.4948 28.3012 13.9942 27.6803 15.4995C27.6434 15.5835 27.6065 15.6135 27.5082 15.6135C26.2111 15.6075 24.914 15.6075 23.6107 15.6135C23.5308 15.6135 23.5062 15.5895 23.4816 15.5175C22.5657 12.6508 21.6436 9.77798 20.7215 6.91121C20.7092 6.88122 20.703 6.85124 20.6907 6.81525C20.6538 6.83924 20.6539 6.88122 20.6416 6.91121C19.6764 9.77798 18.7113 12.6508 17.7461 15.5175C17.7216 15.5895 17.6908 15.6075 17.6109 15.6075C16.3077 15.6075 14.9983 15.6075 13.695 15.6075C13.6213 15.6075 13.5905 15.5835 13.5536 15.5235C12.8836 14.39 12.2074 13.2625 11.5312 12.135C11.4881 12.069 11.482 12.009 11.5066 11.9311C12.1828 9.90393 12.859 7.8708 13.5352 5.84367C13.5475 5.81368 13.5413 5.77769 13.5844 5.75371C14.3528 7.23507 15.1151 8.71644 15.8896 10.2158C16.99 6.9292 18.0842 3.6546 19.1723 0.380005C20.242 0.380005 21.3178 0.380005 22.3874 0.380005C22.4673 0.529941 22.4981 0.691872 22.5472 0.847806C22.7993 1.64546 23.0452 2.44312 23.2972 3.24678C23.5124 3.93648 23.7275 4.62619 23.9427 5.31589C24.1578 6.0116 24.373 6.7073 24.5943 7.403C24.8586 8.24864 25.123 9.08828 25.3812 9.93392C25.3996 10.0059 25.4304 10.0719 25.4488 10.1498C25.5963 9.81397 25.7377 9.48411 25.8853 9.15425C26.2971 8.22465 26.7029 7.28905 27.1086 6.35945C27.6065 5.21993 28.1045 4.08042 28.6024 2.93491C28.9589 2.11326 29.3216 1.29761 29.6782 0.475964C29.6905 0.43998 29.7089 0.409992 29.7397 0.386003C31.1351 0.392 32.5244 0.392 33.9137 0.392Z" fill="#A284F5"/>
<path d="M42.267 15.613C40.8593 15.613 39.4454 15.613 38.0377 15.613C37.9516 15.613 37.9209 15.583 37.8901 15.511C37.5827 14.6654 37.2692 13.8257 36.9619 12.9861C36.9373 12.9141 36.9004 12.8901 36.8205 12.8901C35.0254 12.8901 33.2304 12.8901 31.4415 12.8901C31.3247 12.8901 31.3247 12.8901 31.3616 12.7882C31.7366 11.8706 32.1054 10.953 32.4743 10.0353C32.505 9.95138 32.5481 9.93339 32.6341 9.93339C33.7038 9.93939 34.7795 9.93339 35.8492 9.93339C35.8861 9.93339 35.923 9.93339 35.966 9.93339C35.8553 9.62153 35.7447 9.32165 35.634 9.01578C35.2099 7.85228 34.7795 6.68878 34.3554 5.52528C34.3369 5.4713 34.3431 5.42932 34.3615 5.37534C35.0254 3.74404 35.6832 2.11274 36.3471 0.481441C36.3594 0.451454 36.384 0.427464 36.3717 0.391479C36.3779 0.391479 36.384 0.391479 36.3902 0.391479C36.4332 0.427464 36.4455 0.475444 36.4639 0.517426C36.8635 1.56098 37.2631 2.59853 37.6688 3.63609C38.0684 4.66765 38.4618 5.69921 38.8614 6.73076C39.3286 7.93625 39.7958 9.14173 40.2569 10.3472C40.6933 11.4687 41.1236 12.5963 41.5601 13.7178C41.7814 14.2815 41.9904 14.8513 42.2179 15.415C42.2363 15.463 42.2302 15.517 42.2609 15.565C42.267 15.589 42.267 15.601 42.267 15.613Z" fill="#A284F5"/>
<path d="M11.9118 2.48566C11.5368 1.9399 11.0696 1.48409 10.4918 1.14824C9.7664 0.722421 8.97339 0.518508 8.14349 0.434544C8.03899 0.42255 7.93448 0.434544 7.82998 0.39856H7.7685C7.72547 0.39856 7.68859 0.39856 7.64556 0.39856C7.59023 0.39856 7.5349 0.39856 7.48572 0.39856H0.828125C0.828125 5.4364 0.828125 10.4742 0.828125 15.5061C0.828125 15.596 0.846567 15.62 0.938777 15.62C2.18055 15.614 3.42846 15.614 4.67023 15.62C4.76859 15.62 4.79318 15.596 4.79318 15.5001C4.78703 13.8328 4.79318 12.1655 4.78703 10.4982C4.78703 10.4083 4.81162 10.3903 4.89768 10.3903C5.70913 10.3963 6.51444 10.3903 7.32589 10.3903C8.00825 10.3903 8.67831 10.3303 9.33608 10.1624C9.4037 10.1444 9.44059 10.1144 9.46518 10.0484C9.74795 9.19678 10.0307 8.35115 10.3135 7.50551C10.8545 5.8862 11.3893 4.2609 11.9303 2.6416C11.9549 2.58162 11.9487 2.53964 11.9118 2.48566ZM8.56151 6.36C8.32791 6.92975 7.86071 7.22363 7.27057 7.34957C6.93861 7.42154 6.6005 7.43954 6.26854 7.43954C5.80749 7.44553 5.35259 7.43954 4.89153 7.43954C4.81777 7.43954 4.79318 7.42154 4.79318 7.34957C4.79932 6.69586 4.79318 6.04813 4.79318 5.39441C4.79318 4.74669 4.79318 4.10497 4.79318 3.46324C4.79318 3.37928 4.80547 3.34929 4.89768 3.35529C5.45094 3.36129 6.00421 3.35529 6.55747 3.36129C6.87713 3.36728 7.19065 3.41526 7.49802 3.51122C8.10661 3.70314 8.48774 4.10497 8.65372 4.69871C8.80741 5.25647 8.78282 5.81423 8.56151 6.36Z" fill="#A284F5"/>
</svg>
