<svg width="41" height="32" viewBox="0 0 41 32" fill="none" xmlns="http://www.w3.org/2000/svg">
<path d="M14.1734 15.9138C14.3921 15.9138 14.5694 15.7365 14.5694 15.5177C14.5694 15.299 14.3921 15.1217 14.1734 15.1217C13.9547 15.1217 13.7773 15.299 13.7773 15.5177C13.7773 15.7365 13.9547 15.9138 14.1734 15.9138Z" fill="#6060EB"/>
<path d="M15.4781 15.9532C15.6968 15.9532 15.8741 15.7759 15.8741 15.5572C15.8741 15.3384 15.6968 15.1611 15.4781 15.1611C15.2593 15.1611 15.082 15.3384 15.082 15.5572C15.082 15.7759 15.2593 15.9532 15.4781 15.9532Z" fill="#6060EB"/>
<path d="M16.7788 15.9928C16.9976 15.9928 17.1749 15.8154 17.1749 15.5967C17.1749 15.378 16.9976 15.2007 16.7788 15.2007C16.5601 15.2007 16.3828 15.378 16.3828 15.5967C16.3828 15.8154 16.5601 15.9928 16.7788 15.9928Z" fill="#6060EB"/>
<path d="M39.1996 18.7265C38.5139 18.7265 37.9261 19.1538 37.6884 19.7562H34.9621V14.885H38.1194C38.6277 14.885 39.0412 14.4715 39.0412 13.9632V11.139C39.0412 10.6307 38.6277 10.2172 38.1194 10.2172H36.9315L37.8293 9.36334C38.0077 9.1936 38.1094 8.96461 38.1156 8.71836C38.1218 8.47218 38.0316 8.23836 37.862 8.05999L35.9156 6.01361C35.5654 5.64522 34.9807 5.63064 34.6124 5.98089L33.4122 7.12234V5.50993C33.4122 5.00166 32.9987 4.58812 32.4904 4.58812H29.6662C29.158 4.58812 28.7444 5.00166 28.7444 5.50993V8.82568H22.4079V1.82793C22.4079 0.845209 21.6084 0.0457764 20.6257 0.0457764C19.643 0.0457764 18.8436 0.845209 18.8436 1.82793V8.82576H7.67781C6.78111 8.82576 6.05162 9.55525 6.05162 10.452V19.7563H3.40445C3.16683 19.1539 2.57904 18.7266 1.89327 18.7266C0.997916 18.7266 0.269531 19.455 0.269531 20.3503C0.269531 21.2457 0.997916 21.9741 1.89327 21.9741C2.57904 21.9741 3.16683 21.5468 3.40445 20.9444H6.05162V27.7562H3.24731C2.69722 27.7562 2.2497 28.2037 2.2497 28.7538V29.4788C2.2497 30.8437 3.3601 31.9541 4.72499 31.9541H36.4471C37.812 31.9541 38.9224 30.8437 38.9224 29.4788V28.7538C38.9224 28.2037 38.4749 27.7562 37.9248 27.7562H34.9621V20.9444H37.6884C37.9261 21.5468 38.5139 21.9741 39.1996 21.9741C40.095 21.9741 40.8234 21.2457 40.8234 20.3503C40.8234 19.4549 40.095 18.7265 39.1996 18.7265ZM1.89327 20.7859C1.65303 20.7859 1.45763 20.5905 1.45763 20.3503C1.45763 20.11 1.65303 19.9146 1.89327 19.9146C2.1335 19.9146 2.32891 20.11 2.32891 20.3503C2.32891 20.5904 2.1335 20.7859 1.89327 20.7859ZM33.4122 8.762L35.2383 7.02523L36.8176 8.6858L35.0374 10.3789C35.0368 10.3796 35.0361 10.3801 35.0355 10.3807L33.4122 11.9246V8.762ZM32.9819 14.885H33.774V19.7562H32.9819V14.885ZM32.2241 5.77622V12.5511C32.2241 12.5567 32.224 12.5624 32.224 12.568C32.224 12.5692 32.2239 12.5705 32.2239 12.5717C32.2238 12.576 32.2237 12.5803 32.2236 12.5847C32.2235 12.5862 32.2235 12.5877 32.2234 12.5892C32.2233 12.5938 32.2231 12.5983 32.2229 12.6029C32.2229 12.6038 32.2228 12.6046 32.2228 12.6055C32.2169 12.7286 32.1914 12.8485 32.1483 12.9611C32.1477 12.9626 32.1471 12.9642 32.1465 12.9658C32.1455 12.9685 32.1444 12.9712 32.1433 12.9738C32.1421 12.9771 32.1407 12.9803 32.1395 12.9835L32.1391 12.9845C31.9822 13.3669 31.6244 13.6464 31.1977 13.6908C31.1962 13.691 31.1946 13.6911 31.1931 13.6913C31.1891 13.6917 31.1853 13.6921 31.1813 13.6924C31.1762 13.6929 31.1712 13.6932 31.1662 13.6936C31.1637 13.6938 31.1613 13.694 31.1588 13.6941C31.1549 13.6944 31.151 13.6947 31.1472 13.6949C31.1448 13.6951 31.1422 13.6952 31.1398 13.6953C31.1339 13.6956 31.1281 13.6959 31.1222 13.6961C31.1209 13.6962 31.1197 13.6962 31.1184 13.6962C31.1133 13.6963 31.1081 13.6965 31.1029 13.6967C31.1011 13.6967 31.0992 13.6967 31.0975 13.6967C31.0912 13.6968 31.0847 13.6969 31.0783 13.6969C30.4465 13.6969 29.9325 13.1828 29.9325 12.5511V5.77622H32.2241ZM22.4078 10.0138H28.7443V10.8058H22.4078V10.0138ZM22.4078 11.9939H28.7443V12.5511C28.7443 12.5611 28.7444 12.5712 28.7445 12.5812C28.7606 13.8443 29.785 14.8688 31.0481 14.8848C31.0582 14.8848 31.0682 14.8849 31.0782 14.8849H31.7938V19.7561H29.0216V14.6571C29.0216 13.9311 28.4309 13.3405 27.7049 13.3405H22.4078V11.9939ZM31.7938 20.9443V25.7759H29.0216V20.9443H31.7938ZM22.4078 14.5286H27.7049C27.7758 14.5286 27.8335 14.5862 27.8335 14.6571V16.5087H22.4078V14.5286ZM22.3308 18.5309C22.3813 18.4417 22.4078 18.3409 22.4078 18.2384V17.6968H27.8335V19.7562H21.6376L22.3308 18.5309ZM27.8335 20.9443V25.7759H13.1802V20.9443H27.8335ZM20.0316 1.82793C20.0316 1.50033 20.2981 1.23388 20.6257 1.23388C20.9533 1.23388 21.2197 1.50033 21.2197 1.82793V3.71693H20.0316V1.82793ZM20.0316 4.90495H21.2197V5.38019H20.0316V4.90495ZM20.0316 6.56829H21.2197V18.082L20.6257 19.1319L20.0316 18.082V6.56829ZM18.9205 18.5308L19.6137 19.756H13.1802V17.6968H18.8435V18.2383C18.8435 18.3409 18.87 18.4417 18.9205 18.5308ZM13.1802 16.5087V14.6571C13.1802 14.5862 13.2379 14.5286 13.3088 14.5286H18.8435V16.5087H13.1802ZM7.23972 10.4519C7.23972 10.2103 7.43623 10.0138 7.67781 10.0138H18.8435V10.8058H8.62584C8.29776 10.8058 8.03179 11.0718 8.03179 11.3999V14.885C8.03179 15.2131 8.29776 15.479 8.62584 15.479C8.95391 15.479 9.21989 15.2131 9.21989 14.885V11.9939H18.8435V13.3405H13.3088C12.5828 13.3405 11.9921 13.9311 11.9921 14.6571V19.7562H9.21989V17.2612C9.21989 16.9331 8.95391 16.6671 8.62584 16.6671C8.29776 16.6671 8.03179 16.9331 8.03179 17.2612V19.7562H7.23972V10.4519ZM11.9921 20.9443V25.7759H9.21989V20.9443H11.9921ZM7.23972 20.9443H8.03179V26.37C8.03179 26.698 8.29776 26.964 8.62584 26.964H32.3878C32.7159 26.964 32.9819 26.698 32.9819 26.37V20.9443H33.774V27.7561H7.23972V20.9443ZM37.7343 28.9442V29.4788C37.7343 30.1885 37.1569 30.7659 36.4471 30.7659H4.72499C4.01522 30.7659 3.4378 30.1885 3.4378 29.4788V28.9442H37.7343ZM33.2729 13.6969L35.6824 11.4052H37.8531V13.6969H33.2729ZM39.1996 20.7859C38.9594 20.7859 38.764 20.5905 38.764 20.3503C38.764 20.11 38.9594 19.9146 39.1996 19.9146C39.4399 19.9146 39.6353 20.11 39.6353 20.3503C39.6353 20.5904 39.4399 20.7859 39.1996 20.7859Z" fill="#6060EB"/>
<path d="M31.0959 13.1591C31.3754 13.1591 31.602 12.9325 31.602 12.653C31.602 12.3735 31.3754 12.147 31.0959 12.147C30.8164 12.147 30.5898 12.3735 30.5898 12.653C30.5898 12.9325 30.8164 13.1591 31.0959 13.1591Z" fill="#6060EB"/>
<path d="M14.5628 23.2419H16.3053C16.6334 23.2419 16.8994 22.976 16.8994 22.6479C16.8994 22.3198 16.6334 22.0538 16.3053 22.0538H14.5628C14.2347 22.0538 13.9688 22.3198 13.9688 22.6479C13.9688 22.9759 14.2347 23.2419 14.5628 23.2419Z" fill="#6060EB"/>
<path d="M14.5628 25.064H20.5033C20.8314 25.064 21.0974 24.798 21.0974 24.4699C21.0974 24.1418 20.8314 23.8759 20.5033 23.8759H14.5628C14.2347 23.8759 13.9688 24.1418 13.9688 24.4699C13.9688 24.7979 14.2347 25.064 14.5628 25.064Z" fill="#6060EB"/>
<path d="M26.368 23.8759H22.3284C22.0004 23.8759 21.7344 24.1418 21.7344 24.4699C21.7344 24.798 22.0004 25.064 22.3284 25.064H26.368C26.696 25.064 26.962 24.798 26.962 24.4699C26.962 24.1418 26.696 23.8759 26.368 23.8759Z" fill="#6060EB"/>
<path d="M18.4495 23.2419H26.4494C26.7775 23.2419 27.0434 22.976 27.0434 22.6479C27.0434 22.3198 26.7775 22.0538 26.4494 22.0538H18.4495C18.1214 22.0538 17.8555 22.3198 17.8555 22.6479C17.8555 22.9759 18.1214 23.2419 18.4495 23.2419Z" fill="#6060EB"/>
</svg>
