<svg width="31" height="32" viewBox="0 0 31 32" fill="none" xmlns="http://www.w3.org/2000/svg">
<path d="M30.1392 7.069C30.4124 7.069 30.6338 6.85657 30.6338 6.59449V5.22687C30.6338 3.9923 29.5869 2.98795 28.3002 2.98795H15.5649C15.367 2.32512 14.9961 1.7167 14.4796 1.22109C13.4496 0.232787 11.9328 -0.195124 10.521 0.10437C10.1948 0.173576 9.93379 0.408174 9.83992 0.716662C9.74559 1.02684 9.83471 1.36118 10.0725 1.58941L11.5301 2.98795H9.03653L8.82561 2.78558C8.38939 2.36703 7.65755 2.47203 7.36649 2.98795H2.79056C1.50382 2.98795 0.457031 3.9923 0.457031 5.22687V23.5475C0.457031 24.7821 1.50389 25.7865 2.79056 25.7865H12.5256L11.8945 28.1195H10.8037C9.20312 28.1195 7.90102 29.3688 7.90102 30.9045C7.90102 31.5028 8.4084 31.9897 9.03204 31.9897H22.0588C22.6824 31.9897 23.1898 31.5028 23.1898 30.9045C23.1898 29.3688 21.8877 28.1195 20.2871 28.1195H19.1963L18.5651 25.7865H28.3002C29.5869 25.7865 30.6337 24.7821 30.6337 23.5475V8.82492C30.6337 8.56284 30.4123 8.35042 30.1392 8.35042C29.866 8.35042 29.6446 8.56284 29.6446 8.82492V21.5012H14.5149L15.491 20.5647C15.9718 20.6739 16.5006 20.5517 16.8804 20.1873C17.3642 19.7231 17.442 19.0145 17.1137 18.4716L17.94 17.6788C18.0627 17.5611 18.2057 17.468 18.3651 17.4022C20.0418 16.7098 19.8854 16.775 19.9039 16.7663C20.218 16.6182 20.5207 16.4519 20.8108 16.2685L21.5546 16.9822C22.4705 17.8609 23.9528 17.861 24.8688 16.9822C25.7846 16.1035 25.7847 14.6811 24.8688 13.8023L23.9309 12.9025C23.9308 12.4846 23.7539 12.0854 23.4186 11.7927C23.2413 11.6379 23.0297 11.527 22.8019 11.4655C22.9697 10.9531 22.8361 10.3921 22.436 10.0072C22.166 9.74745 21.8316 9.59018 21.4854 9.54521C21.5192 9.13529 21.3807 8.71956 21.0764 8.40744C20.8638 8.18934 20.5986 8.04281 20.3148 7.97397C20.438 7.50047 20.3219 6.98518 19.9604 6.60411C19.3482 5.95878 18.3161 5.95809 17.6955 6.55364L17.5045 6.73665L16.7725 6.03429C16.19 5.4754 15.82 4.74063 15.7306 3.96513C15.7295 3.95526 15.7284 3.94583 15.7275 3.93696H28.3002C29.0415 3.93696 29.6447 4.51565 29.6447 5.22687V6.59449C29.6447 6.85657 29.8661 7.069 30.1392 7.069ZM12.158 3.93696C12.1591 4.15494 12.0731 4.37324 11.9002 4.53919C11.5549 4.87048 10.9973 4.86917 10.6534 4.53919L10.0257 3.93696H12.158ZM20.2871 29.0685C21.3422 29.0685 22.2007 29.8922 22.2007 30.9045C22.2007 30.9796 22.137 31.0407 22.0588 31.0407H9.03198C8.95373 31.0407 8.89 30.9796 8.89 30.9045C8.89 29.8921 9.74846 29.0685 10.8036 29.0685H20.2871ZM12.9163 28.1195L13.5474 25.7865H17.5433L18.1745 28.1195H12.9163ZM29.6447 22.4502V23.5475C29.6447 24.2588 29.0415 24.8375 28.3002 24.8375C27.897 24.8375 2.90559 24.8375 2.7905 24.8375C2.04915 24.8375 1.44601 24.2588 1.44601 23.5475V22.4502H29.6447ZM13.1161 21.5012H4.32032L6.75769 19.1626C6.95083 18.9772 6.95083 18.6769 6.75769 18.4916C6.56454 18.3063 6.25141 18.3063 6.05833 18.4916L2.92148 21.5012H1.44608V5.22687C1.44608 4.51565 2.04922 3.93696 2.79056 3.93696H7.18272C7.14086 5.06798 7.59303 6.19962 8.44192 7.01409C9.18509 7.72713 10.1719 8.15086 11.2207 8.20726C11.755 8.23599 12.456 8.45897 13.036 8.86652C12.5196 9.55214 12.2827 10.3578 12.3794 11.1382L12.4898 12.0295C12.5395 12.4301 12.3975 12.8235 12.1001 13.1087L11.8385 13.3597C11.263 12.9335 10.4268 12.9675 9.89128 13.4814C9.42706 13.9267 9.34549 14.5794 9.60023 15.0934L7.69602 16.9204C7.50287 17.1058 7.50287 17.4062 7.69602 17.5915C7.88923 17.7768 8.20229 17.7768 8.39538 17.5915L10.2394 15.8222L14.6373 20.0417L13.1161 21.5012ZM16.1809 19.5163C15.9891 19.7002 15.6793 19.6995 15.4883 19.5162L10.5905 14.817C10.3991 14.6334 10.3991 14.3361 10.5904 14.1524C10.5905 14.1524 10.5905 14.1524 10.5905 14.1524C10.782 13.9687 11.0917 13.9687 11.2832 14.1524C11.7775 14.6267 15.8284 18.5135 16.1809 18.8516C16.3719 19.0349 16.3719 19.333 16.1809 19.5163ZM23.553 13.8818L24.1695 14.4733C24.6976 14.9799 24.6976 15.8044 24.1695 16.311C23.6414 16.8176 22.7822 16.8176 22.2541 16.3111L21.6105 15.6936C21.9912 15.3837 23.5114 13.9284 23.553 13.8818ZM18.3948 7.2249C18.6231 7.00585 19.0036 7.00504 19.2292 7.24295C19.4325 7.45718 19.4139 7.80802 19.1878 8.02494L19.0821 8.12631C18.6533 8.53305 19.1215 9.19775 19.6841 8.9346C19.9106 8.82811 20.1799 8.87683 20.3542 9.05571C20.5387 9.2449 20.5523 9.54377 20.3864 9.76663C20.0546 10.2132 20.5292 10.7632 21.0505 10.5294C21.2711 10.4311 21.5401 10.489 21.7358 10.6773C21.8934 10.8289 21.9281 11.0645 21.8227 11.265C21.8176 11.2727 21.7948 11.306 21.7353 11.3763C21.3769 11.8001 21.7481 12.425 22.3082 12.3624C22.4761 12.3437 22.634 12.3906 22.7529 12.4945C23.0049 12.7145 22.9974 13.0789 22.7763 13.2911C21.4489 14.5246 20.8564 15.2568 19.4787 15.9093L17.9743 16.5303C17.6993 16.6439 17.4525 16.8044 17.2407 17.0076L16.4493 17.7669L12.5465 14.0223L12.7994 13.7797C13.3125 13.2874 13.5576 12.6086 13.472 11.9173L13.3615 11.0259C13.2985 10.5174 13.4457 9.98561 13.771 9.5146L14.0435 9.77525C14.5027 10.216 15.2258 10.2512 15.7129 9.78749C15.7905 9.72509 15.6489 9.85307 18.3948 7.2249ZM16.0732 6.70529L16.8046 7.40709C13.5186 10.5431 15.9629 8.21045 15.0179 9.1123C14.9285 9.19812 14.8276 9.18563 14.7424 9.10387L14.0789 8.46915C14.073 8.46353 14.0669 8.45797 14.0607 8.45267C13.2627 7.73007 12.1953 7.30878 11.2757 7.25969C10.4703 7.2164 9.71226 6.89086 9.14121 6.34297C8.3806 5.61319 8.0331 4.55406 8.21688 3.55052C8.21727 3.54858 8.21766 3.54658 8.21798 3.54465C8.83785 4.13939 9.28567 4.56911 9.95391 5.21026C10.685 5.91174 11.8683 5.91181 12.5995 5.21026C12.9529 4.87123 13.1475 4.42046 13.1475 3.94108C13.1475 3.46164 12.9529 3.01087 12.5995 2.67184L10.8636 1.00629C11.9114 0.827466 13.0181 1.16094 13.7802 1.89215C14.6122 2.69051 14.6829 3.50961 14.7475 4.06956C14.8616 5.05842 15.3324 5.99444 16.0732 6.70529Z" fill="#07C28E"/>
</svg>
