<svg width="33" height="33" viewBox="0 0 33 33" fill="none" xmlns="http://www.w3.org/2000/svg">
<path d="M25.7833 9.79688H16.502C16.146 9.79688 15.8574 10.0854 15.8574 10.4414C15.8574 10.7974 16.146 11.0859 16.502 11.0859H25.7833C26.1393 11.0859 26.4278 10.7974 26.4278 10.4414C26.4278 10.0854 26.1393 9.79688 25.7833 9.79688Z" fill="#FA8B26"/>
<path d="M23.5279 13.0797C23.4081 12.9598 23.2418 12.8909 23.0723 12.8909C22.9028 12.8909 22.7365 12.9598 22.6166 13.0797C22.4967 13.1996 22.4277 13.3659 22.4277 13.5354C22.4277 13.7049 22.4967 13.8712 22.6166 13.9911C22.7365 14.111 22.9028 14.1799 23.0723 14.1799C23.2418 14.1799 23.4081 14.111 23.5279 13.9911C23.6478 13.8712 23.7168 13.7049 23.7168 13.5354C23.7168 13.3659 23.6478 13.1996 23.5279 13.0797Z" fill="#FA8B26"/>
<path d="M16.9557 2.96058C16.8358 2.84069 16.6695 2.77173 16.5 2.77173C16.3305 2.77173 16.1642 2.84069 16.0443 2.96058C15.9244 3.08046 15.8555 3.24675 15.8555 3.41626C15.8555 3.58577 15.9244 3.75206 16.0443 3.87194C16.1642 3.99182 16.3305 4.06079 16.5 4.06079C16.6695 4.06079 16.8358 3.99182 16.9557 3.87194C17.0756 3.75206 17.1445 3.58577 17.1445 3.41626C17.1445 3.24675 17.0756 3.08046 16.9557 2.96058Z" fill="#FA8B26"/>
<path d="M20.3612 12.8906H16.502C16.146 12.8906 15.8574 13.1792 15.8574 13.5352C15.8574 13.8911 16.146 14.1797 16.502 14.1797H20.3612C20.7172 14.1797 21.0057 13.8911 21.0057 13.5352C21.0057 13.1792 20.7172 12.8906 20.3612 12.8906Z" fill="#FA8B26"/>
<path d="M25.7833 16.7576H16.502C16.146 16.7576 15.8574 17.0461 15.8574 17.4021C15.8574 17.7581 16.146 18.0466 16.502 18.0466H25.7833C26.1393 18.0466 26.4278 17.7581 26.4278 17.4021C26.4278 17.0461 26.1393 16.7576 25.7833 16.7576Z" fill="#FA8B26"/>
<path d="M23.5279 20.0407C23.4081 19.9208 23.2418 19.8518 23.0723 19.8518C22.9028 19.8518 22.7365 19.9208 22.6166 20.0407C22.4967 20.1605 22.4277 20.3268 22.4277 20.4963C22.4277 20.6658 22.4967 20.8321 22.6166 20.952C22.7365 21.0719 22.9028 21.1409 23.0723 21.1409C23.2418 21.1409 23.4081 21.0719 23.5279 20.952C23.6478 20.8321 23.7168 20.6658 23.7168 20.4963C23.7168 20.3268 23.6478 20.1605 23.5279 20.0407Z" fill="#FA8B26"/>
<path d="M20.3612 19.8513H16.502C16.146 19.8513 15.8574 20.1399 15.8574 20.4958C15.8574 20.8518 16.146 21.1404 16.502 21.1404H20.3612C20.7172 21.1404 21.0057 20.8518 21.0057 20.4958C21.0057 20.1399 20.7172 19.8513 20.3612 19.8513Z" fill="#FA8B26"/>
<path d="M25.7833 23.7185H16.502C16.146 23.7185 15.8574 24.0071 15.8574 24.363C15.8574 24.719 16.146 25.0076 16.502 25.0076H25.7833C26.1393 25.0076 26.4278 24.719 26.4278 24.363C26.4278 24.0071 26.1393 23.7185 25.7833 23.7185Z" fill="#FA8B26"/>
<path d="M23.5279 27.0013C23.4081 26.8815 23.2418 26.8125 23.0723 26.8125C22.9028 26.8125 22.7365 26.8815 22.6166 27.0013C22.4967 27.1212 22.4277 27.2875 22.4277 27.457C22.4277 27.6265 22.4967 27.7928 22.6166 27.9127C22.7365 28.0326 22.9028 28.1016 23.0723 28.1016C23.2418 28.1016 23.4081 28.0326 23.5279 27.9127C23.6478 27.7928 23.7168 27.6265 23.7168 27.457C23.7168 27.2875 23.6478 27.1212 23.5279 27.0013Z" fill="#FA8B26"/>
<path d="M20.3612 26.8123H16.502C16.146 26.8123 15.8574 27.1008 15.8574 27.4568C15.8574 27.8128 16.146 28.1013 16.502 28.1013H20.3612C20.7172 28.1013 21.0057 27.8128 21.0057 27.4568C21.0057 27.1008 20.7172 26.8123 20.3612 26.8123Z" fill="#FA8B26"/>
<path d="M27.0234 2.51373H22.1005C21.3889 1.83562 20.4269 1.41797 19.3687 1.41797H18.8041C18.3724 0.563448 17.4856 0 16.5019 0C15.5181 0 14.6314 0.563448 14.1997 1.41797H13.6337C12.5754 1.41797 11.6136 1.83562 10.9019 2.51373H5.98049C4.24767 2.51373 2.83789 3.92351 2.83789 5.65633V29.8574C2.83789 31.5902 4.24767 33 5.98049 33H27.0233C28.7561 33 30.1659 31.5902 30.1659 29.8574V5.65633C30.166 3.92351 28.7562 2.51373 27.0234 2.51373ZM13.6338 2.70703H14.6383C14.9282 2.70703 15.1824 2.51347 15.2596 2.23407C15.4133 1.67765 15.9242 1.28906 16.5019 1.28906C17.0797 1.28906 17.5905 1.67765 17.7442 2.23407C17.8213 2.51347 18.0756 2.70703 18.3655 2.70703H19.3687C20.7676 2.70703 21.9191 3.78661 22.0341 5.1563H10.9684C11.0833 3.78661 12.2349 2.70703 13.6338 2.70703ZM28.8769 29.8575C28.8769 30.8795 28.0454 31.711 27.0234 31.711H5.98049C4.95846 31.711 4.12695 30.8795 4.12695 29.8575V5.65633C4.12695 4.6343 4.95846 3.80279 5.98049 3.80279H9.99894C9.78779 4.28696 9.66991 4.82076 9.66991 5.38189V5.80084C9.66991 6.15681 9.95847 6.44536 10.3144 6.44536H22.6881C23.044 6.44536 23.3326 6.15681 23.3326 5.80084V5.38189C23.3326 4.82083 23.2147 4.28696 23.0036 3.80279H27.0234C28.0454 3.80279 28.8769 4.6343 28.8769 5.65633V29.8575Z" fill="#FA8B26"/>
<path d="M12.4022 9.64166C12.1505 9.38997 11.7423 9.38997 11.4907 9.64159L8.73452 12.3978L7.88548 11.5487C7.63379 11.2971 7.22568 11.2971 6.97392 11.5487C6.72223 11.8004 6.72223 12.2085 6.97392 12.4603L8.27877 13.7651C8.40465 13.891 8.56959 13.9539 8.73452 13.9539C8.89946 13.9539 9.06446 13.891 9.19027 13.7651L12.4022 10.5532C12.6538 10.3015 12.6538 9.89341 12.4022 9.64166Z" fill="#FA8B26"/>
<path d="M10.8301 23.7185H7.73633C7.38035 23.7185 7.0918 24.0071 7.0918 24.363V27.4568C7.0918 27.8128 7.38035 28.1013 7.73633 28.1013H10.8301C11.186 28.1013 11.4746 27.8128 11.4746 27.4568V24.363C11.4746 24.0071 11.186 23.7185 10.8301 23.7185ZM10.1855 26.8123H8.38086V25.0076H10.1855V26.8123Z" fill="#FA8B26"/>
<path d="M10.8301 16.7576H7.73633C7.38035 16.7576 7.0918 17.0461 7.0918 17.4021V20.4958C7.0918 20.8518 7.38035 21.1404 7.73633 21.1404H10.8301C11.186 21.1404 11.4746 20.8518 11.4746 20.4958V17.4021C11.4746 17.0461 11.186 16.7576 10.8301 16.7576ZM10.1855 19.8513H8.38086V18.0466H10.1855V19.8513Z" fill="#FA8B26"/>
</svg>
