<svg width="45" height="45" viewBox="0 0 45 45" fill="none" xmlns="http://www.w3.org/2000/svg">
<path d="M12.1724 23.9175L14.9091 19.4612L17.3825 24.3729L19.9913 19.0019L22.6305 25.1849C22.7763 25.5266 23.1087 25.7315 23.4581 25.7314C23.5759 25.7314 23.6956 25.7081 23.8108 25.659C24.2676 25.464 24.4799 24.9356 24.2849 24.4788L20.0968 14.6674L17.3534 20.3157L15.0646 15.7706L11.9432 20.8533L10.9968 19.7296C10.6768 19.3497 10.1093 19.3011 9.72948 19.6211C9.34957 19.9411 9.30101 20.5085 9.62097 20.8884L12.1724 23.9175ZM34.5922 15.4656H28.0979V9.04154V8.9195C28.0979 6.31459 26.0876 4.19531 23.6165 4.19531H10.1807C7.70963 4.19531 5.69922 6.31455 5.69922 8.9195V9.04154V32.6787V35.9545C5.69922 38.5594 7.70963 40.6787 10.1807 40.6787H23.6165C25.4132 40.6787 26.9661 39.5582 27.68 37.9454H34.5922C37.1809 37.9454 39.2869 35.8515 39.2869 33.2778V20.1332C39.287 17.5594 37.1809 15.4656 34.5922 15.4656ZM26.2992 30.88H7.498V10.8403H26.2992V30.88ZM7.498 8.9195C7.498 7.30644 8.70143 5.99409 10.1807 5.99409H23.6165C25.0957 5.99409 26.2992 7.30644 26.2992 8.9195V9.04154H7.498V8.9195ZM23.6165 38.8799H10.1807C8.70143 38.8799 7.498 37.5676 7.498 35.9545V32.6787H26.2992V35.9545C26.2992 37.5676 25.0957 38.8799 23.6165 38.8799ZM37.4882 33.2778C37.4882 34.8597 36.1891 36.1466 34.5923 36.1466H28.0939C28.0964 36.0828 28.0979 36.0189 28.0979 35.9545V32.6788V17.2644H34.5922C36.1891 17.2644 37.4882 18.5513 37.4882 20.1331V33.2778H37.4882ZM15.6026 35.6675C15.6082 35.3134 15.7455 34.976 15.9847 34.7288C16.2238 34.4815 16.5455 34.3444 16.8795 34.3474C17.2136 34.3504 17.533 34.4931 17.7682 34.7446C18.0034 34.9961 18.1354 35.3359 18.1354 35.69C18.1354 36.0442 18.0034 36.384 17.7682 36.6354C17.533 36.8869 17.2136 37.0297 16.8795 37.0326C16.5455 37.0356 16.2238 36.8985 15.9847 36.6513C15.7455 36.404 15.6082 36.0666 15.6026 35.7125V35.6675Z" fill="#07C28E"/>
</svg>
