<svg width="58" height="58" viewBox="0 0 58 58" fill="none" xmlns="http://www.w3.org/2000/svg">
<circle opacity="0.15" cx="29" cy="29" r="29" fill="white"/>
<path d="M21.265 29.3141H36.0635C36.2271 29.3141 36.3839 29.248 36.4995 29.1304C36.6152 29.0128 36.6801 28.8533 36.6801 28.6869C36.6789 26.9743 36.1475 25.3056 35.1613 23.9174C34.1752 22.5293 32.7844 21.4923 31.1862 20.9535C31.9272 20.4108 32.4799 19.6431 32.7649 18.7607C33.0499 17.8783 33.0524 16.9267 32.7721 16.0427C32.4919 15.1588 31.9432 14.388 31.2051 13.8413C30.4669 13.2945 29.5774 13 28.6643 13C27.7512 13 26.8616 13.2945 26.1235 13.8413C25.3854 14.388 24.8367 15.1588 24.5564 16.0427C24.2762 16.9267 24.2787 17.8783 24.5637 18.7607C24.8486 19.6431 25.4014 20.4108 26.1424 20.9535C24.5442 21.4923 23.1534 22.5293 22.1673 23.9174C21.1811 25.3056 20.6497 26.9743 20.6484 28.6869C20.6484 28.8533 20.7134 29.0128 20.829 29.1304C20.9447 29.248 21.1015 29.3141 21.265 29.3141ZM25.5813 17.3972C25.5813 16.777 25.7621 16.1707 26.1009 15.6549C26.4396 15.1392 26.9211 14.7373 27.4845 14.4999C28.0478 14.2626 28.6677 14.2005 29.2658 14.3215C29.8638 14.4425 30.4131 14.7411 30.8443 15.1797C31.2755 15.6183 31.5691 16.1771 31.6881 16.7854C31.807 17.3937 31.746 18.0243 31.5126 18.5973C31.2793 19.1704 30.8841 19.6601 30.3771 20.0047C29.8701 20.3493 29.2741 20.5333 28.6643 20.5333C27.8466 20.5333 27.0624 20.2029 26.4843 19.6147C25.9061 19.0266 25.5813 18.229 25.5813 17.3972ZM28.6643 21.7877C30.3613 21.7805 31.9992 22.4207 33.2549 23.5818C34.5105 24.743 35.2927 26.3407 35.4469 28.0597H21.8816C22.0359 26.3407 22.818 24.743 24.0737 23.5818C25.3294 22.4207 26.9673 21.7805 28.6643 21.7877Z" fill="white"/>
<path d="M22.5005 25L21.5005 28V29L36.0005 28.5L35.5005 25.5L32.5005 22.5L28.5005 21L24.0005 22.5L22.5005 25Z" fill="white"/>
<path d="M27.5005 21L25.0005 18.5V17C25.8339 15.1666 28.1005 12.1 30.5005 14.5C33.5005 17.5 31.5005 19 31.0005 20C30.6005 20.8 28.5005 21 27.5005 21Z" fill="white"/>
<path d="M17.0005 33.5016C13.8005 33.9016 13.6672 31.335 14.0005 30.0016C15.6006 28.0016 17.3339 28.835 18.0005 29.5016C19.6005 31.5016 18.0005 33.0016 17.0005 33.5016Z" fill="white"/>
<path d="M28.0005 43.5016C25.2005 41.9016 26.5005 40.1683 27.5005 39.5016C28.5005 38.4056 31.0005 39.0016 31.0005 41.5016C31.0005 43.5016 29.0005 43.6683 28.0005 43.5016Z" fill="white"/>
<path d="M41.0005 33.5016C37.8005 32.7016 38.6672 30.5016 39.5005 29.5016C40.8338 28.835 43.5005 28.1016 43.5005 30.5016C43.5005 32.9016 41.8338 33.5016 41.0005 33.5016Z" fill="white"/>
<path d="M40.9965 28.0625C40.2858 28.0624 39.5969 28.312 39.0463 28.7692C38.4957 29.2264 38.1173 29.863 37.9752 30.5713H34.8305C34.667 30.5713 34.5101 30.6374 34.3945 30.755C34.2789 30.8727 34.2139 31.0322 34.2139 31.1985C34.2139 32.3629 33.7592 33.4797 32.9497 34.303C32.1403 35.1264 31.0424 35.589 29.8977 35.589H27.4313C26.2865 35.589 25.1887 35.1264 24.3792 34.303C23.5698 33.4797 23.115 32.3629 23.115 31.1985C23.115 31.0322 23.0501 30.8727 22.9344 30.755C22.8188 30.6374 22.662 30.5713 22.4984 30.5713H19.3537C19.2009 29.8099 18.7756 29.1333 18.1603 28.6727C17.5449 28.2121 16.7833 28.0003 16.0231 28.0784C15.263 28.1565 14.5584 28.5189 14.0461 29.0954C13.5337 29.6719 13.25 30.4214 13.25 31.1985C13.25 31.9757 13.5337 32.7252 14.0461 33.3016C14.5584 33.8781 15.263 34.2406 16.0231 34.3187C16.7833 34.3968 17.5449 34.185 18.1603 33.7244C18.7756 33.2638 19.2009 32.5872 19.3537 31.8257H21.9188C22.0704 33.2052 22.7164 34.4794 23.7333 35.4051C24.7502 36.3307 26.0667 36.8427 27.4313 36.8434H28.0479V38.1605C27.2993 38.3159 26.6341 38.7486 26.1813 39.3745C25.7285 40.0005 25.5203 40.7751 25.5971 41.5484C25.6739 42.3216 26.0302 43.0383 26.5969 43.5594C27.1636 44.0806 27.9004 44.3692 28.6645 44.3692C29.4285 44.3692 30.1653 44.0806 30.732 43.5594C31.2988 43.0383 31.6551 42.3216 31.7319 41.5484C31.8087 40.7751 31.6005 40.0005 31.1477 39.3745C30.6948 38.7486 30.0297 38.3159 29.2811 38.1605V36.8434H29.8977C31.2623 36.8427 32.5788 36.3307 33.5956 35.4051C34.6125 34.4794 35.2585 33.2052 35.4101 31.8257H37.9752C38.0918 32.4071 38.3683 32.9429 38.7723 33.3708C39.1764 33.7988 39.6915 34.1013 40.2579 34.2434C40.8243 34.3854 41.4186 34.3611 41.9719 34.1733C42.5253 33.9854 43.0148 33.6417 43.3838 33.1822C43.7528 32.7226 43.986 32.166 44.0564 31.577C44.1268 30.9879 44.0315 30.3907 43.7815 29.8546C43.5315 29.3185 43.1371 28.8655 42.6442 28.5483C42.1512 28.2311 41.5799 28.0626 40.9965 28.0625ZM16.3324 33.0801C15.9665 33.0801 15.6089 32.9698 15.3047 32.763C15.0005 32.5563 14.7634 32.2624 14.6234 31.9186C14.4834 31.5748 14.4467 31.1964 14.5181 30.8314C14.5895 30.4664 14.7657 30.1312 15.0244 29.868C15.2831 29.6049 15.6127 29.4257 15.9715 29.3531C16.3303 29.2805 16.7023 29.3177 17.0403 29.4601C17.3783 29.6026 17.6672 29.8437 17.8705 30.1532C18.0737 30.4626 18.1822 30.8264 18.1822 31.1985C18.1822 31.6976 17.9873 32.1762 17.6404 32.529C17.2935 32.8819 16.823 33.0801 16.3324 33.0801ZM30.5143 41.2338C30.5143 41.606 30.4058 41.9697 30.2025 42.2792C29.9993 42.5886 29.7104 42.8298 29.3724 42.9722C29.0344 43.1146 28.6624 43.1519 28.3036 43.0793C27.9448 43.0067 27.6152 42.8275 27.3565 42.5643C27.0978 42.3012 26.9216 41.9659 26.8502 41.6009C26.7788 41.2359 26.8155 40.8576 26.9555 40.5137C27.0955 40.1699 27.3326 39.8761 27.6368 39.6693C27.941 39.4625 28.2986 39.3522 28.6645 39.3522C29.1551 39.3522 29.6256 39.5504 29.9725 39.9033C30.3194 40.2562 30.5143 40.7348 30.5143 41.2338ZM40.9965 33.0801C40.6307 33.0801 40.273 32.9698 39.9688 32.763C39.6646 32.5563 39.4275 32.2624 39.2875 31.9186C39.1475 31.5748 39.1109 31.1964 39.1823 30.8314C39.2537 30.4664 39.4298 30.1312 39.6885 29.868C39.9472 29.6049 40.2768 29.4257 40.6357 29.3531C40.9945 29.2805 41.3664 29.3177 41.7044 29.4601C42.0424 29.6026 42.3313 29.8437 42.5346 30.1532C42.7379 30.4626 42.8464 30.8264 42.8464 31.1985C42.8464 31.6976 42.6515 32.1762 42.3046 32.529C41.9576 32.8819 41.4871 33.0801 40.9965 33.0801Z" fill="white"/>
</svg>
