<svg width="16" height="22" viewBox="0 0 16 22" fill="none" xmlns="http://www.w3.org/2000/svg">
<path d="M15.9979 17.8704C15.9513 15.0208 13.0377 14.1788 10.9103 13.5641C10.662 13.4924 10.4233 13.4234 10.1996 13.3545V12.1789C10.6346 11.9063 11.0157 11.5555 11.3231 11.1462H12.619C13.2532 11.1462 13.7692 10.6302 13.7692 9.99607V8.60382C13.846 8.42461 13.8887 8.22738 13.8887 8.02028V7.58728C13.8887 7.38038 13.846 7.18328 13.7692 7.00419V6.28595C13.7692 3.1042 11.1807 0.515625 7.99896 0.515625C4.81787 0.515625 2.22991 3.1042 2.22991 6.28599V6.98367C2.22991 6.98916 2.23052 6.99444 2.23073 6.99989C2.15267 7.18016 2.10918 7.37871 2.10918 7.58732V8.02032C2.10918 8.83885 2.77459 9.5048 3.59247 9.5048H3.9309C4.16532 10.6289 4.85543 11.5876 5.79829 12.1787V13.3545C5.57457 13.4234 5.33589 13.4923 5.08767 13.5641C2.96023 14.1788 0.0466458 15.0208 4.09308e-05 17.8704C-2.24983e-08 17.8727 0 17.8749 0 17.8771V21.0741C0 21.3003 0.183389 21.4836 0.409533 21.4836H1.62372C1.84986 21.4836 2.03325 21.3003 2.03325 21.0741C2.03325 20.8479 1.84986 20.6646 1.62372 20.6646H0.819026V17.8805C0.836267 16.8863 1.29298 16.141 2.25624 15.5351C2.89188 15.1353 3.66897 14.8504 4.43496 14.6121L5.42443 16.5399C5.53472 16.7548 5.81709 16.8278 6.01776 16.6924L6.45895 16.3948L6.83773 17.8185L6.18874 20.6645H5.3012C5.07506 20.6645 4.89167 20.8479 4.89167 21.0741C4.89167 21.3003 5.07506 21.4836 5.3012 21.4836H15.5884C15.8145 21.4836 15.9979 21.3003 15.9979 21.0741V17.8771C15.9979 17.8749 15.9979 17.8727 15.9979 17.8704ZM10.6829 14.3509C10.7099 14.3587 10.7373 14.3667 10.7645 14.3746L10.0565 15.7553L8.73166 14.8619L9.85423 14.1047C10.115 14.1867 10.3924 14.267 10.6829 14.3509ZM7.99925 15.3559L8.82045 15.9096L8.42357 17.4014H7.57436L7.1776 15.9101L7.99925 15.3559ZM7.99917 14.368L6.61732 13.4362V12.574C7.04983 12.727 7.51469 12.8109 7.99892 12.8109C8.48311 12.8109 8.94806 12.7273 9.38052 12.5743V13.4362L7.99917 14.368ZM11.3354 6.36089C11.3298 6.35733 11.3242 6.35377 11.3186 6.3502C10.4783 5.81527 9.7525 5.35328 8.61531 5.67865C8.60474 5.68168 8.59426 5.68512 8.58398 5.68897C8.34289 5.77952 8.12366 5.86392 7.91161 5.94554C6.61654 6.44407 5.90944 6.71633 4.6625 6.68127V6.35332C4.6625 4.51353 6.15922 3.01677 7.99892 3.01677C9.83863 3.01677 11.3353 4.51353 11.3353 6.35332V6.36089H11.3354ZM12.9501 9.99607C12.9501 10.1786 12.8016 10.3271 12.619 10.3271H11.8029C11.9182 10.0659 12.0074 9.79073 12.0671 9.50476H12.4055C12.5978 9.50476 12.7814 9.46757 12.9501 9.40061V9.99607H12.9501ZM13.0697 8.02028C13.0697 8.38718 12.7717 8.68569 12.4055 8.68569H12.1541C12.1542 8.67553 12.1545 6.92302 12.1545 6.92302H12.4055C12.7717 6.92302 13.0697 7.22099 13.0697 7.58728V8.02028H13.0697ZM3.59247 8.68573C3.22622 8.68573 2.92824 8.38722 2.92824 8.02032V7.58732C2.92824 7.22104 3.22618 6.92306 3.59247 6.92306H3.84347C3.84347 6.92306 3.8438 8.67557 3.84388 8.68573H3.59247ZM3.85113 6.10395H3.59243C3.40097 6.10395 3.21811 6.14081 3.04996 6.20715C3.09226 3.51324 5.29588 1.33469 7.99896 1.33469C10.7028 1.33469 12.9071 3.51349 12.9491 6.2076C12.7806 6.14097 12.5973 6.10395 12.4055 6.10395H12.1468C12.0173 3.92818 10.2066 2.1977 7.99896 2.1977C5.79133 2.1977 3.98054 3.92822 3.85113 6.10395ZM4.68715 9.0537C4.68711 9.05329 4.68703 9.05288 4.68699 9.05247C4.67146 8.92211 4.66254 8.78975 4.66254 8.6553V7.5003C6.06367 7.53445 6.89949 7.21288 8.20586 6.70998C8.41161 6.63077 8.62428 6.54891 8.85595 6.4618C9.62956 6.24585 10.0747 6.52929 10.8788 7.04117C11.0183 7.13 11.1713 7.22734 11.3354 7.32731V8.6553C11.3354 9.26432 11.1706 9.83521 10.8845 10.3272H7.99896C7.77282 10.3272 7.58943 10.5105 7.58943 10.7367C7.58943 10.9629 7.77282 11.1462 7.99896 11.1462H10.2155C9.62571 11.6717 8.84915 11.9919 7.99896 11.9919C6.29412 11.9918 4.88475 10.7062 4.68715 9.0537ZM5.94237 15.7553L5.23363 14.3745C5.26074 14.3667 5.2881 14.3587 5.31505 14.3509C5.60557 14.267 5.8829 14.1867 6.14378 14.1046L7.2668 14.8619L5.94237 15.7553ZM7.02886 20.6646L7.58619 18.2205H8.41185L8.97005 20.6646H7.02886ZM15.1789 20.6646H9.81021L9.16019 17.8184L9.53913 16.3943L9.98139 16.6925C10.1821 16.8278 10.4645 16.7548 10.5748 16.5398L11.5631 14.6122C12.3291 14.8505 13.1061 15.1353 13.7417 15.5351C14.7049 16.141 15.1617 16.8863 15.1789 17.8805V20.6646H15.1789Z" fill="#202333"/>
<path d="M13.5633 18.6172H11.4994C11.2732 18.6172 11.0898 18.8005 11.0898 19.0267C11.0898 19.2529 11.2732 19.4363 11.4994 19.4363H13.5633C13.7894 19.4363 13.9728 19.2529 13.9728 19.0267C13.9728 18.8005 13.7895 18.6172 13.5633 18.6172Z" fill="#202333"/>
<path d="M3.46422 20.6641C3.23808 20.6641 3.05469 20.8474 3.05469 21.0736C3.05469 21.2998 3.23808 21.4831 3.46422 21.4831H3.46537C3.69151 21.4831 3.87428 21.2998 3.87428 21.0736C3.87428 20.8474 3.69036 20.6641 3.46422 20.6641Z" fill="#202333"/>
</svg>
