<svg width="24" height="25" viewBox="0 0 24 25" fill="none" xmlns="http://www.w3.org/2000/svg">
<path d="M7.5909 11.8697C8.24308 11.8697 8.90468 11.7205 9.52485 11.4054C9.79124 11.27 10.0434 11.1069 10.2744 10.9207C10.4256 10.7988 10.4493 10.5774 10.3275 10.4263C10.2055 10.2751 9.98423 10.2514 9.83306 10.3733C9.64007 10.5289 9.42922 10.6652 9.20633 10.7784C8.68784 11.0419 8.13498 11.1667 7.58973 11.1667C6.2834 11.1666 5.02202 10.4501 4.39089 9.20796C3.80353 8.05205 3.88955 6.66299 4.61537 5.58283C4.72366 5.42167 4.68076 5.20323 4.51961 5.09495C4.35854 4.98667 4.14005 5.02951 4.03172 5.19067C3.16396 6.48214 3.06135 8.14351 3.76402 9.52648C4.51923 11.0126 6.02802 11.8698 7.5909 11.8697Z" fill="#202333"/>
<path d="M8.19967 6.08248C8.11154 5.81819 7.86521 5.64062 7.58668 5.64062C7.30809 5.64062 7.06176 5.81819 6.97364 6.08248L6.40189 7.79775C6.40175 7.79822 6.40157 7.79869 6.40143 7.79916L5.97908 9.06616C5.91767 9.25038 6.01723 9.44946 6.20141 9.51087C6.38553 9.57213 6.58466 9.47266 6.64612 9.28849L6.99065 8.25483H8.18256L8.5271 9.28849C8.57622 9.43582 8.71333 9.52896 8.86057 9.52896C8.89741 9.52896 8.93491 9.5231 8.97181 9.51082C9.15603 9.44941 9.25554 9.25029 9.19414 9.06611L8.77165 7.79873C8.7716 7.79864 8.7716 7.79859 8.77169 7.79855L8.19967 6.08248ZM7.22494 7.55165L7.58654 6.4669L7.94814 7.55165H7.22494Z" fill="#202333"/>
<path d="M16.0998 10.2346L17.4792 10.9291C17.5299 10.9546 17.5839 10.9667 17.637 10.9667C17.7656 10.9667 17.8895 10.8959 17.9513 10.7732C18.0386 10.5998 17.9688 10.3884 17.7954 10.3011L17.1721 9.98729C19.443 9.92846 21.6964 10.7466 23.4143 12.2669C23.4812 12.3261 23.5643 12.3552 23.6472 12.3552C23.7443 12.3552 23.8411 12.3151 23.9106 12.2366C24.0393 12.0912 24.0257 11.869 23.8803 11.7403C21.9828 10.0611 19.4781 9.17718 16.9683 9.29123L17.2664 8.69919C17.3536 8.5258 17.2838 8.31439 17.1105 8.22711C16.937 8.13973 16.7257 8.20962 16.6383 8.38301L15.9439 9.76242C15.8566 9.93586 15.9264 10.1472 16.0998 10.2346Z" fill="#202333"/>
<path d="M17.8052 15.8613H16.9883C16.7941 15.8613 16.6367 16.0187 16.6367 16.2129V17.4383V19.2764C16.6367 19.4705 16.7941 19.6279 16.9883 19.6279H18.3158C19.0164 19.6279 19.5864 19.0579 19.5864 18.3573C19.5864 17.795 19.2191 17.3172 18.712 17.1503C18.7485 17.0487 18.7695 16.9397 18.7695 16.8256C18.7695 16.2939 18.3369 15.8613 17.8052 15.8613ZM17.3399 16.5645H17.8052C17.9492 16.5645 18.0663 16.6816 18.0663 16.8256C18.0663 16.9696 17.9492 17.0868 17.8052 17.0868H17.3399V16.5645ZM18.8832 18.3574C18.8832 18.6703 18.6287 18.9248 18.3158 18.9248H17.3399V17.7899H18.3158C18.6287 17.7899 18.8832 18.0445 18.8832 18.3574Z" fill="#202333"/>
<path d="M5.50131 4.67217C5.6471 4.56797 5.80258 4.47375 5.96332 4.39204C7.72397 3.49747 9.88414 4.20196 10.7788 5.96256C11.3524 7.09142 11.2818 8.45696 10.5946 9.52633C10.4897 9.68969 10.537 9.9072 10.7003 10.0122C10.7592 10.05 10.825 10.068 10.8901 10.068C11.0057 10.068 11.119 10.0109 11.1862 9.90645C12.0078 8.62782 12.0918 6.99458 11.4056 5.64404C10.3353 3.53768 7.75088 2.69495 5.6448 3.76517C5.4527 3.86277 5.26694 3.97541 5.09251 4.10001C4.93454 4.21288 4.89798 4.43245 5.01085 4.59042C5.12373 4.74853 5.34339 4.78495 5.50131 4.67217Z" fill="#202333"/>
<path d="M16.6081 14.519C16.411 14.592 16.2201 14.6826 16.0405 14.7883C15.8732 14.8869 15.8173 15.1023 15.9159 15.2696C16.0144 15.437 16.2299 15.4927 16.3971 15.3943C16.541 15.3096 16.6941 15.237 16.8522 15.1784C18.3175 14.6361 19.9509 15.3868 20.4933 16.8521C20.8347 17.7743 20.6778 18.7913 20.0738 19.5726C19.955 19.7263 19.9833 19.947 20.1369 20.0658C20.2009 20.1153 20.2766 20.1393 20.3517 20.1393C20.4568 20.1393 20.5608 20.0923 20.63 20.0027C21.3834 19.0283 21.5788 17.7592 21.1526 16.608C20.4756 14.7791 18.4371 13.8419 16.6081 14.519Z" fill="#202333"/>
<path d="M19.2999 20.2605C19.1479 20.3522 18.9858 20.4302 18.818 20.4923C18.4947 20.6119 18.1634 20.6687 17.8372 20.6687C16.6852 20.6686 15.5997 19.9606 15.177 18.8187C14.8432 17.9172 14.9878 16.9163 15.5636 16.1414C15.6795 15.9855 15.647 15.7653 15.4912 15.6495C15.3353 15.5337 15.1151 15.5661 14.9993 15.722C14.2811 16.6885 14.101 17.9374 14.5176 19.0627C15.0453 20.4882 16.4 21.3719 17.838 21.3718C18.245 21.3718 18.6587 21.301 19.0621 21.1517C19.2712 21.0743 19.4734 20.977 19.6632 20.8624C19.8295 20.7621 19.8828 20.546 19.7825 20.3798C19.6822 20.2136 19.4661 20.1602 19.2999 20.2605Z" fill="#202333"/>
<path d="M4.14685 12.4642L3.82519 13.4506C3.74949 13.6826 3.76871 13.9301 3.87919 14.1476C3.98973 14.3651 4.17835 14.5266 4.41034 14.6023L6.01288 15.1249C6.10607 15.1553 6.20179 15.1704 6.29704 15.1704C6.43889 15.1704 6.57975 15.1369 6.70987 15.0708C6.92738 14.9603 7.08886 14.7717 7.16452 14.5397L7.48618 13.5533C7.86161 13.5599 8.23624 13.5317 8.60487 13.4681L9.07409 14.3916C9.30224 14.8405 9.85326 15.0203 10.3022 14.7921L11.805 14.0285C12.254 13.8004 12.4337 13.2494 12.2055 12.8004L11.7363 11.877C12.0049 11.6168 12.2487 11.3311 12.4647 11.0236L13.4511 11.3453C13.6831 11.421 13.9306 11.4018 14.1481 11.2912C14.3656 11.1807 14.5271 10.9921 14.6027 10.7601L15.1253 9.1576C15.2815 8.67877 15.0191 8.16215 14.5402 8.00596L13.5538 7.68425C13.5607 7.30864 13.5322 6.9342 13.4686 6.56557L14.392 6.09634C14.6095 5.98581 14.771 5.79718 14.8466 5.56519C14.9223 5.33325 14.903 5.0857 14.7926 4.8682L14.029 3.36546C13.8009 2.91648 13.25 2.73676 12.8008 2.96491L11.8774 3.43418C11.6171 3.16549 11.3315 2.92169 11.024 2.70582L11.3458 1.71937C11.5019 1.24054 11.2394 0.723967 10.7605 0.567778L9.158 0.0451141C8.67926 -0.111076 8.16255 0.151381 8.00641 0.630263L7.68465 1.61671C7.30871 1.60973 6.9345 1.63832 6.56597 1.70189L6.09674 0.778484C5.98625 0.560934 5.79763 0.399447 5.56564 0.32379C5.33375 0.248179 5.08624 0.267305 4.8686 0.377884L3.36595 1.14144C3.1484 1.25193 2.98691 1.44056 2.91126 1.67254C2.83555 1.90453 2.85482 2.15208 2.96531 2.36958L3.43458 3.29304C3.16589 3.55329 2.92204 3.8389 2.70622 4.14636L1.71977 3.82465C1.48778 3.74895 1.24023 3.76821 1.02278 3.87875C0.805275 3.98928 0.643788 4.17791 0.568178 4.40985L0.0455138 6.01239C-0.0301904 6.24437 -0.0109713 6.49188 0.0995615 6.70943C0.210094 6.92693 0.398722 7.08837 0.63071 7.16403L1.61707 7.48573C1.61018 7.86149 1.63872 8.23589 1.70229 8.60442L0.778837 9.07369C0.329815 9.30184 0.15014 9.85277 0.378284 10.3018L1.14189 11.8045C1.37008 12.2536 1.9211 12.4332 2.37003 12.2051L3.29343 11.7359C3.55369 12.0045 3.8393 12.2483 4.14685 12.4642ZM2.05151 11.5782C1.94815 11.6307 1.82121 11.5894 1.76876 11.486L1.00515 9.98327C0.952605 9.87991 0.993996 9.75306 1.09736 9.70052L2.25767 9.11087C2.40059 9.03826 2.4763 8.87813 2.4417 8.72161C2.33595 8.24273 2.29836 7.74983 2.33005 7.25656C2.34036 7.09639 2.24084 6.94957 2.08821 6.89979L0.848681 6.49553C0.79529 6.47814 0.751883 6.44097 0.72643 6.39086C0.700976 6.34075 0.696523 6.2838 0.713914 6.2304L1.23667 4.62782C1.27253 4.51757 1.39155 4.45719 1.5018 4.4931L2.74138 4.89735C2.89391 4.94709 3.06093 4.88728 3.14704 4.75176C3.41212 4.3348 3.73303 3.95881 4.10091 3.63424C4.22115 3.52821 4.25439 3.35425 4.18178 3.21138L3.59217 2.05106C3.56672 2.00095 3.56227 1.944 3.5797 1.89056C3.5971 1.83717 3.63427 1.79372 3.68438 1.76826L5.18707 1.00457C5.23718 0.979112 5.29414 0.974705 5.34762 0.992096C5.40096 1.00953 5.44437 1.04666 5.46983 1.09677L6.05943 2.25713C6.13208 2.40001 6.29217 2.47576 6.44868 2.44116C6.92766 2.33537 7.42051 2.29786 7.91369 2.32951C8.07541 2.33987 8.22068 2.24025 8.27046 2.08767L8.67476 0.848094C8.71072 0.737843 8.82964 0.67742 8.93994 0.713374L10.5425 1.23604C10.6527 1.27199 10.7132 1.39091 10.6772 1.50117L10.2729 2.74075C10.2231 2.89337 10.283 3.06034 10.4185 3.14645C10.8355 3.41158 11.2115 3.73254 11.5361 4.10037C11.6421 4.22061 11.8161 4.2538 11.9589 4.18123L13.1193 3.59163C13.2226 3.53909 13.3494 3.58038 13.402 3.68384L14.1656 5.18658C14.191 5.23669 14.1955 5.29369 14.1781 5.34708C14.1607 5.40047 14.1235 5.44392 14.0734 5.46933L12.9131 6.05893C12.7702 6.13159 12.6945 6.29167 12.7291 6.44819C12.8348 6.92726 12.8724 7.4202 12.8407 7.91324C12.8304 8.07346 12.9299 8.22028 13.0825 8.27006L14.3221 8.67431C14.4324 8.71027 14.4928 8.82919 14.4568 8.93944L13.9341 10.542C13.9167 10.5954 13.8796 10.6389 13.8295 10.6643C13.7794 10.6897 13.7225 10.6942 13.669 10.6767L12.4295 10.2725C12.2769 10.2228 12.11 10.2826 12.0238 10.4181C11.7586 10.8352 11.4377 11.2112 11.0699 11.5357C10.9496 11.6417 10.9164 11.8156 10.989 11.9585L11.5786 13.1188C11.6312 13.2222 11.5898 13.349 11.4864 13.4016L9.98367 14.1652C9.88036 14.2177 9.75342 14.1764 9.70092 14.073L9.11131 12.9127C9.03866 12.7698 8.87848 12.6941 8.72206 12.7286C8.24308 12.8344 7.75019 12.8719 7.25705 12.8403C7.09622 12.8297 6.95002 12.9295 6.90024 13.0821L6.49603 14.3217C6.47859 14.3751 6.44142 14.4185 6.39135 14.444C6.34124 14.4694 6.28429 14.4739 6.2308 14.4564L4.62827 13.9338C4.57492 13.9163 4.53147 13.8792 4.50601 13.8291C4.48056 13.779 4.47615 13.722 4.49359 13.6686L4.89785 12.429C4.94763 12.2764 4.88772 12.1095 4.75221 12.0233C4.33525 11.7583 3.95926 11.4374 3.63469 11.0695C3.5662 10.9918 3.46941 10.9505 3.37092 10.9505C3.31692 10.9505 3.2624 10.9629 3.21182 10.9886L2.05151 11.5782Z" fill="#202333"/>
<path d="M10.8263 15.8632L9.3267 15.4939C9.13821 15.4476 8.94771 15.5626 8.90131 15.7512C8.8549 15.9397 8.97007 16.1302 9.15861 16.1766L9.83601 16.3435C7.63552 16.9073 5.25644 16.6125 3.24266 15.5138C3.07218 15.4207 2.85866 15.4836 2.76566 15.654C2.6727 15.8244 2.73542 16.038 2.90591 16.131C4.3553 16.9218 5.98076 17.3261 7.6074 17.3261C8.47685 17.3261 9.34662 17.2102 10.1901 16.9765L10.0316 17.6201C9.98516 17.8086 10.1003 17.9991 10.2889 18.0455C10.3171 18.0524 10.3454 18.0558 10.3732 18.0558C10.5312 18.0558 10.6748 17.9485 10.7143 17.7883L11.0836 16.2887C11.1059 16.1981 11.0913 16.1024 11.0431 16.0226C10.9948 15.9428 10.9169 15.8854 10.8263 15.8632Z" fill="#202333"/>
<path d="M23.95 16.301L23.4761 15.0208C23.4013 14.8188 23.2524 14.6579 23.0566 14.5679C22.8608 14.478 22.6418 14.4696 22.4397 14.5444L21.6991 14.8186C21.5301 14.6027 21.3428 14.4011 21.1392 14.2159L21.4695 13.4972C21.5595 13.3014 21.5679 13.0824 21.4931 12.8803C21.4183 12.6782 21.2693 12.5174 21.0736 12.4274L19.8332 11.8573C19.4292 11.6716 18.9493 11.8492 18.7635 12.2533L18.4331 12.972C18.16 12.938 17.885 12.9272 17.6111 12.9395L17.3369 12.1989C17.2621 11.9968 17.1131 11.836 16.9174 11.746C16.7215 11.6561 16.5025 11.6477 16.3005 11.7225L15.0203 12.1964C14.6033 12.3508 14.3896 12.8158 14.544 13.2328L14.8182 13.9735C14.6022 14.1425 14.4006 14.3297 14.2155 14.5334L13.4967 14.203C13.0928 14.0173 12.6127 14.1949 12.427 14.599L11.8569 15.8393C11.7669 16.0351 11.7585 16.2542 11.8333 16.4563C11.9082 16.6583 12.0571 16.8191 12.2529 16.9091L12.9717 17.2395C12.9377 17.5126 12.9268 17.7876 12.9391 18.0614L12.1984 18.3356C11.7814 18.49 11.5677 18.955 11.7221 19.3721L12.1959 20.6521C12.2707 20.8542 12.4197 21.0151 12.6155 21.1051C12.8113 21.195 13.0304 21.2034 13.2324 21.1286L13.973 20.8544C14.142 21.0704 14.3292 21.2719 14.533 21.4571L14.2026 22.1758C14.1126 22.3716 14.1042 22.5906 14.179 22.7927C14.2538 22.9948 14.4028 23.1556 14.5986 23.2456L15.8389 23.8156C16.0345 23.9056 16.2537 23.9141 16.4558 23.8392C16.6578 23.7644 16.8186 23.6154 16.9086 23.4197L17.239 22.701C17.5122 22.735 17.7871 22.7459 18.061 22.7335L18.3351 23.4741C18.41 23.6762 18.5589 23.837 18.7547 23.927C18.8621 23.9764 18.9764 24.0012 19.0912 24.0012C19.1856 24.0011 19.2803 23.9844 19.3716 23.9506L20.6517 23.4766C21.0687 23.3223 21.2825 22.8573 21.1281 22.4402L20.854 21.6995C21.0699 21.5306 21.2714 21.3433 21.4565 21.1396L22.1753 21.4699C22.3711 21.5599 22.5901 21.5683 22.7922 21.4935C22.9943 21.4187 23.155 21.2697 23.245 21.0739L23.8151 19.8337C23.9051 19.6379 23.9135 19.4188 23.8387 19.2168C23.7639 19.0147 23.6149 18.8539 23.4192 18.7639L22.7004 18.4335C22.7344 18.1604 22.7453 17.8855 22.733 17.6116L23.4737 17.3374C23.8907 17.183 24.1044 16.718 23.95 16.301ZM23.2296 16.6779L22.2411 17.0438C22.0908 17.0995 21.9971 17.2498 22.0134 17.4092C22.0531 17.7983 22.0376 18.192 21.9671 18.5794C21.9384 18.7373 22.0203 18.8947 22.1662 18.9617L23.1256 19.4027C23.1578 19.4175 23.1726 19.4425 23.1794 19.4608C23.1862 19.4791 23.1911 19.5077 23.1764 19.5399L22.6063 20.7802C22.5825 20.832 22.5209 20.8548 22.469 20.831L21.5096 20.39C21.3638 20.3229 21.191 20.3633 21.0899 20.4879C20.8416 20.7937 20.553 21.0619 20.2319 21.2849C20.1003 21.3764 20.0472 21.5454 20.1029 21.6957L20.4688 22.6841C20.4886 22.7376 20.4612 22.7973 20.4077 22.8171L19.1275 23.291C19.0944 23.3032 19.0662 23.2961 19.0484 23.288C19.0307 23.2798 19.007 23.2631 18.9946 23.2298L18.6287 22.2414C18.5773 22.1024 18.4449 22.0119 18.2992 22.0119C18.2873 22.0119 18.2753 22.0125 18.2633 22.0137C17.8743 22.0534 17.4807 22.0378 17.0931 21.9674C16.9349 21.9388 16.7778 22.0206 16.7108 22.1665L16.2698 23.1259C16.255 23.1581 16.2301 23.1729 16.2117 23.1797C16.1934 23.1865 16.1648 23.1915 16.1326 23.1767L14.8924 22.6066C14.8405 22.5828 14.8177 22.5212 14.8415 22.4694L15.2825 21.51C15.3496 21.3642 15.3093 21.1915 15.1847 21.0903C14.8788 20.842 14.6107 20.5533 14.3876 20.2323C14.296 20.1007 14.127 20.0475 13.9768 20.1032L12.9883 20.4692C12.9551 20.4815 12.9269 20.4744 12.9091 20.4662C12.8915 20.458 12.8677 20.4413 12.8554 20.4081L12.3815 19.1279C12.3617 19.0745 12.3891 19.0148 12.4426 18.995L13.4311 18.6291C13.5814 18.5734 13.675 18.4232 13.6587 18.2637C13.619 17.8748 13.6346 17.4811 13.705 17.0935C13.7337 16.9356 13.6518 16.7783 13.506 16.7112L12.5466 16.2702C12.5145 16.2554 12.4996 16.2305 12.4928 16.2121C12.486 16.1938 12.481 16.1652 12.4958 16.133L13.0659 14.8927C13.0898 14.8409 13.1515 14.8182 13.2031 14.8419L14.1625 15.2829C14.3083 15.35 14.4811 15.3097 14.5822 15.1851C14.8304 14.8793 15.1191 14.6111 15.4402 14.388C15.5718 14.2965 15.6249 14.1276 15.5692 13.9772L15.2033 12.9888C15.1911 12.9555 15.1982 12.9274 15.2063 12.9097C15.2145 12.8919 15.2312 12.8681 15.2644 12.8558L16.5446 12.3819C16.5777 12.3696 16.6059 12.3768 16.6237 12.3849C16.6414 12.3931 16.6652 12.4098 16.6775 12.443L17.0434 13.4315C17.0991 13.5818 17.2496 13.6755 17.4088 13.6592C17.7977 13.6194 18.1915 13.6351 18.579 13.7055C18.7367 13.7341 18.8942 13.6523 18.9613 13.5064L19.4023 12.547C19.4261 12.4952 19.4879 12.4725 19.5395 12.4962L20.7799 13.0663C20.812 13.0811 20.8268 13.1061 20.8336 13.1244C20.8404 13.1427 20.8454 13.1713 20.8306 13.2035L20.3896 14.1629C20.3225 14.3087 20.3628 14.4815 20.4875 14.5826C20.7934 14.8309 21.0615 15.1196 21.2846 15.4406C21.3761 15.5722 21.545 15.6254 21.6953 15.5697L22.6838 15.2038C22.7169 15.1915 22.7451 15.1986 22.7629 15.2068C22.7806 15.215 22.8044 15.2317 22.8167 15.2649L23.2906 16.5451C23.3104 16.5986 23.283 16.6582 23.2296 16.6779Z" fill="#202333"/>
</svg>
