<svg width="22" height="28" viewBox="0 0 22 28" fill="none" xmlns="http://www.w3.org/2000/svg">
<path d="M16.2996 9.71095H15.0796C15.0052 9.47451 14.9104 9.2456 14.7961 9.02597L15.6587 8.16332C15.7665 8.05552 15.8258 7.91216 15.8258 7.75968C15.8258 7.60714 15.7665 7.46378 15.6587 7.35599L14.6435 6.34074C14.4209 6.11832 14.0588 6.11821 13.8361 6.34079L12.9735 7.20345C12.7538 7.08909 12.5249 6.99429 12.2885 6.91985V5.6998C12.2884 5.38506 12.0323 5.12891 11.7175 5.12891H10.2818C9.96705 5.12891 9.71095 5.385 9.71095 5.6998V6.91985C9.47451 6.99435 9.2456 7.08909 9.02592 7.20345L8.16321 6.34074C7.94063 6.11827 7.57851 6.11832 7.35593 6.34079L6.34079 7.35593C6.23294 7.46373 6.17353 7.60709 6.17353 7.75962C6.17353 7.91211 6.23294 8.05547 6.34074 8.16326L7.20339 9.02592C7.08904 9.24554 6.99424 9.47451 6.9198 9.7109H5.69975C5.385 9.7109 5.12891 9.96699 5.12891 10.2818V11.7175C5.12891 12.0323 5.385 12.2884 5.69975 12.2884H6.9198C6.99429 12.5248 7.08904 12.7538 7.20339 12.9734L6.34074 13.836C6.11816 14.0586 6.11816 14.4208 6.34074 14.6434L7.35593 15.6585C7.57851 15.8812 7.94074 15.8811 8.16326 15.6585L9.02592 14.7959C9.24554 14.9102 9.47457 15.005 9.71095 15.0795V16.2995C9.71095 16.6143 9.96705 16.8704 10.2818 16.8704H11.7175C12.0323 16.8704 12.2884 16.6143 12.2884 16.2995V15.0795C12.5248 15.005 12.7538 14.9102 12.9734 14.7959L13.8361 15.6585C14.0587 15.8812 14.4209 15.8811 14.6435 15.6585L15.6586 14.6434C15.7664 14.5356 15.8258 14.3922 15.8258 14.2397C15.8258 14.0872 15.7664 13.9439 15.6586 13.836L14.7959 12.9734C14.9103 12.7537 15.0051 12.5248 15.0795 12.2884H16.2996C16.6143 12.2884 16.8705 12.0323 16.8705 11.7175V10.2818C16.8705 9.96705 16.6144 9.71095 16.2996 9.71095ZM16.0649 11.4827H14.7727C14.5856 11.4827 14.4231 11.6116 14.3804 11.7938C14.2946 12.1609 14.1504 12.5091 13.9519 12.8287C13.8532 12.9877 13.877 13.1937 14.0092 13.3261L14.9229 14.2398L14.2398 14.9229L13.3261 14.0092C13.1938 13.8768 12.9878 13.853 12.8287 13.9518C12.5091 14.1503 12.1609 14.2944 11.7939 14.3804C11.6116 14.423 11.4828 14.5855 11.4828 14.7726V16.0649H10.5168V14.7726C10.5168 14.5855 10.3879 14.423 10.2057 14.3804C9.83868 14.2946 9.49047 14.1504 9.17083 13.9518C9.0119 13.8532 8.80581 13.8768 8.67341 14.0092L7.75973 14.9229L7.07663 14.2398L7.99031 13.3261C8.12266 13.1937 8.1464 12.9877 8.04768 12.8287C7.84922 12.5091 7.70505 12.1609 7.61917 11.7938C7.57658 11.6116 7.41405 11.4827 7.22692 11.4827H5.93468V10.5167H7.22692C7.41405 10.5167 7.57652 10.3879 7.61917 10.2056C7.70505 9.83857 7.84922 9.49036 8.04768 9.17078C8.1464 9.01179 8.12266 8.80576 7.99031 8.67336L7.07663 7.75968L7.75973 7.07658L8.67341 7.99026C8.80565 8.12261 9.01179 8.1464 9.17083 8.04762C9.49036 7.84916 9.83857 7.705 10.2057 7.61912C10.3879 7.57652 10.5168 7.41405 10.5168 7.22686V5.93457H11.4828V7.22686C11.4828 7.41399 11.6116 7.57647 11.7939 7.61912C12.1609 7.705 12.5091 7.84916 12.8287 8.04762C12.9876 8.14629 13.1937 8.1225 13.3261 7.99026L14.2398 7.07658L14.9229 7.75968L14.0092 8.67336C13.8769 8.8057 13.8532 9.01174 13.9519 9.17078C14.1503 9.49025 14.2945 9.83846 14.3804 10.2056C14.4231 10.3879 14.5855 10.5167 14.7727 10.5167H16.0649V11.4827Z" fill="#202333"/>
<path d="M11.0058 8.8418C9.81575 8.8418 8.84766 9.80994 8.84766 10.9999C8.84766 12.1899 9.8158 13.158 11.0058 13.158C12.1957 13.158 13.1639 12.1899 13.1639 10.9999C13.1639 9.80994 12.1958 8.8418 11.0058 8.8418ZM11.0058 12.3524C10.26 12.3524 9.65332 11.7456 9.65332 10.9999C9.65332 10.2542 10.26 9.64746 11.0058 9.64746C11.7515 9.64746 12.3582 10.2542 12.3582 10.9999C12.3582 11.7456 11.7515 12.3524 11.0058 12.3524Z" fill="#202333"/>
<path d="M1.73927 10.5977H0.402834C0.180362 10.5977 0 10.778 0 11.0005C0 11.223 0.180362 11.4033 0.402834 11.4033H1.73927C1.96175 11.4033 2.14211 11.223 2.14211 11.0005C2.14211 10.778 1.96175 10.5977 1.73927 10.5977Z" fill="#202333"/>
<path d="M21.5967 10.5977H20.2603C20.0377 10.5977 19.8574 10.778 19.8574 11.0005C19.8574 11.223 20.0377 11.4033 20.2603 11.4033H21.5967C21.8192 11.4033 21.9995 11.223 21.9995 11.0005C21.9995 10.778 21.8192 10.5977 21.5967 10.5977Z" fill="#202333"/>
<path d="M4.73426 17.2645C4.57699 17.1072 4.32192 17.1072 4.16455 17.2645L3.21955 18.2095C3.06223 18.3668 3.06223 18.6219 3.21955 18.7792C3.37687 18.9365 3.63195 18.9365 3.78927 18.7792L4.73426 17.8342C4.89158 17.6769 4.89158 17.4218 4.73426 17.2645Z" fill="#202333"/>
<path d="M18.7812 3.22151C18.6238 3.06419 18.3688 3.06419 18.2114 3.22151L17.2664 4.1665C17.1091 4.32382 17.1091 4.57889 17.2664 4.73621C17.4238 4.89353 17.6788 4.89348 17.8362 4.73621L18.7812 3.79122C18.9385 3.63385 18.9385 3.37877 18.7812 3.22151Z" fill="#202333"/>
<path d="M11.0005 0C10.778 0 10.5977 0.180362 10.5977 0.402834V1.73927C10.5977 1.96175 10.778 2.14211 11.0005 2.14211C11.223 2.14211 11.4033 1.96175 11.4033 1.73927V0.402834C11.4033 0.180362 11.223 0 11.0005 0Z" fill="#202333"/>
<path d="M18.7812 18.2095L17.8362 17.2645C17.6788 17.1072 17.4238 17.1072 17.2664 17.2645C17.1091 17.4218 17.1091 17.6769 17.2664 17.8342L18.2114 18.7792C18.3688 18.9365 18.6238 18.9365 18.7812 18.7792C18.9385 18.6219 18.9385 18.3668 18.7812 18.2095Z" fill="#202333"/>
<path d="M4.73426 4.1665L3.78927 3.22151C3.63195 3.06419 3.37687 3.06419 3.21955 3.22151C3.06223 3.37883 3.06223 3.6339 3.21955 3.79122L4.16455 4.73621C4.32187 4.89353 4.57694 4.89353 4.73426 4.73621C4.89158 4.57884 4.89158 4.32377 4.73426 4.1665Z" fill="#202333"/>
<path d="M19.0387 10.0136C18.6052 6.31427 15.6728 3.38154 11.9908 2.93273C11.7703 2.9056 11.569 3.06303 11.5421 3.28384C11.5152 3.5047 11.6724 3.70558 11.8932 3.73254C15.2371 4.1401 17.8464 6.76158 18.2384 10.1074C18.2625 10.3124 18.4365 10.4634 18.638 10.4634C18.6537 10.4634 18.6695 10.4624 18.6854 10.4606C18.9065 10.4348 19.0646 10.2347 19.0387 10.0136Z" fill="#202333"/>
<path d="M18.6836 11.5402C18.4625 11.5121 18.2613 11.6685 18.2333 11.8893C17.9587 14.0586 16.7343 15.9727 14.8741 17.1406C14.0721 17.6442 13.5934 18.5059 13.5934 19.4458V21.1037H8.41654V19.4091C8.41654 18.499 7.94092 17.6392 7.17538 17.1653C5.0105 15.8252 3.71799 13.5072 3.71794 10.9646C3.71794 7.29329 6.46784 4.18416 10.1145 3.73245C10.3353 3.70511 10.492 3.50391 10.4647 3.28311C10.4374 3.06235 10.2363 2.90514 10.0154 2.93286C5.98621 3.43199 2.91206 6.8969 2.91211 10.9646C2.91211 12.3682 3.27718 13.7511 3.96796 14.9639C4.63758 16.1397 5.60003 17.1377 6.75117 17.8503C7.28135 18.1785 7.61065 18.7758 7.61065 19.409V21.1623C7.20105 21.3047 6.90569 21.6936 6.90569 22.1511V22.7254C6.90569 22.9685 6.9897 23.192 7.12919 23.37C6.98965 23.5479 6.90569 23.7713 6.90569 24.0145V24.5888C6.90569 25.1663 7.37561 25.6362 7.95312 25.6362H9.21962V26.5469C9.21962 27.0722 9.647 27.4996 10.1723 27.4996H11.8372C12.3625 27.4996 12.7899 27.0722 12.7899 26.5469V25.6362H14.0564C14.6339 25.6362 15.1038 25.1663 15.1038 24.5888V24.0145C15.1038 23.7714 15.0198 23.5479 14.8802 23.37C15.0198 23.192 15.1038 22.9686 15.1038 22.7254V22.1511C15.1038 21.6936 14.8085 21.3047 14.3988 21.1623V19.4457C14.3988 18.7848 14.7365 18.1782 15.3023 17.823C17.3677 16.5262 18.7273 14.4003 19.0323 11.9905C19.0605 11.7697 18.9043 11.5682 18.6836 11.5402ZM11.9843 26.5468C11.9843 26.6265 11.917 26.6938 11.8373 26.6938H10.1725C10.0928 26.6938 10.0255 26.6265 10.0255 26.5468V25.6361H11.9843V26.5468ZM14.2983 24.5887C14.2983 24.7197 14.1876 24.8304 14.0566 24.8304C13.3454 24.8304 8.62434 24.8304 7.95328 24.8304C7.82228 24.8304 7.71158 24.7197 7.71158 24.5887V24.0145C7.71158 23.8835 7.82228 23.7728 7.95328 23.7728H14.0566C14.1876 23.7728 14.2983 23.8835 14.2983 24.0145V24.5887ZM14.2983 22.7253C14.2983 22.8563 14.1876 22.967 14.0566 22.967H7.95328C7.82228 22.967 7.71158 22.8563 7.71158 22.7253V22.151C7.71158 22.02 7.82228 21.9093 7.95328 21.9093H14.0566C14.1876 21.9093 14.2983 22.02 14.2983 22.151V22.7253Z" fill="#202333"/>
</svg>
