<svg width="87" height="87" viewBox="0 0 87 87" fill="none" xmlns="http://www.w3.org/2000/svg">
<circle opacity="0.12" cx="43.8359" cy="43.5" r="43" fill="#6060EB"/>
<path d="M43.0754 34.92H46.5703C48.3625 34.92 50.1847 34.92 51.9769 34.92C53.5601 34.92 55.1433 34.7706 56.7264 34.8901C58.3395 35.0394 59.5642 36.4135 59.5044 38.0265C59.5044 40.8344 59.5044 43.6722 59.5044 46.48C59.5044 46.9281 59.385 47.197 58.8473 47.1671C57.981 47.1372 57.1446 47.1372 56.3082 47.1671C55.89 47.1671 55.6511 47.0476 55.6511 46.5697C55.6511 43.7618 55.6212 40.924 55.6511 38.1162C55.6511 37.0408 54.4562 36.1447 53.5004 36.5629C53.351 36.6226 53.2614 36.9811 53.2614 37.22C53.2614 39.8188 53.2614 42.3877 53.2614 44.9865C53.2614 45.4943 53.2315 46.0021 53.2614 46.5099C53.2913 47.0177 53.0523 47.1671 52.6341 47.197C51.7081 47.197 50.7821 47.197 49.8561 47.197C49.3184 47.197 49.3782 46.8385 49.3782 46.5099V37.3694C49.3782 36.5629 49.3782 36.5629 48.5716 36.5927H48.4522C46.9586 36.6525 46.9586 36.6525 46.9586 38.1759C46.9586 40.924 46.9586 43.6722 46.9586 46.4502C46.9586 47.0476 46.7794 47.2866 46.1521 47.2567C45.3157 47.197 44.5092 47.2268 43.6728 47.2567C43.1949 47.2567 43.0156 47.0775 43.0156 46.6294C43.0156 43.4033 43.0156 40.1474 43.0156 36.9213C43.0754 36.2343 43.0754 35.6369 43.0754 34.92Z" fill="#0013FF"/>
<path d="M31.2504 42.6266C31.2504 43.9409 31.2504 45.2254 31.2504 46.4799C31.2504 46.928 31.1309 47.1371 30.6231 47.1072C29.7569 47.0774 28.8906 47.0774 28.0243 47.1072C27.6062 47.1072 27.3672 46.9877 27.3672 46.5098C27.3672 42.8357 27.3672 39.1914 27.3672 35.5173C27.3672 35.0393 27.5464 34.9198 27.9945 34.9198C31.2504 34.9198 34.4765 34.9198 37.7026 34.9198C39.4351 34.8601 40.8988 36.2342 40.9286 37.9667C40.9286 37.9966 40.9286 38.0264 40.9286 38.0264C40.9585 40.8642 40.9286 43.7019 40.9286 46.5397C40.9286 46.9579 40.7793 47.1072 40.3611 47.1072C39.4351 47.0774 38.5091 47.0774 37.5532 47.1072C37.1051 47.1072 36.9857 46.928 36.9857 46.5098C37.0155 45.3448 36.9857 44.1799 37.0155 43.0149C37.0155 42.6863 36.9558 42.537 36.5973 42.537C34.8648 42.537 33.1323 42.537 31.4595 42.537C31.4595 42.5668 31.3699 42.5967 31.2504 42.6266ZM31.2504 41.0434C33.1622 41.0434 34.9843 41.0434 36.8363 41.0434C36.9857 41.0135 37.0753 40.8941 37.135 40.7447C37.135 39.7291 37.135 38.7135 37.1051 37.6979C37.0454 37.0706 36.5376 36.5926 35.9103 36.5926C34.5064 36.5628 33.1323 36.5926 31.7284 36.5926C31.3998 36.5926 31.2803 36.6822 31.2803 37.0108C31.2504 38.2953 31.2504 39.6096 31.2504 41.0434Z" fill="#FFB000"/>
<path d="M66.1084 41.8187C66.1084 43.372 66.0785 44.8357 66.1084 46.3292C66.1084 46.8968 65.9889 47.1357 65.3616 47.076C64.4954 47.0163 63.6291 47.0461 62.7629 47.076C62.3745 47.076 62.1953 46.9864 62.1953 46.5383C62.1953 42.8343 62.1953 39.1303 62.1953 35.4263C62.1953 35.0081 62.3745 34.8886 62.7629 34.8886C66.1084 34.8886 69.454 34.8886 72.7995 34.8886C74.084 34.8587 75.1594 35.8445 75.1892 37.1289C75.1892 37.1887 75.1892 37.2185 75.1892 37.2783C75.1892 37.9653 75.1892 38.6524 75.1892 39.3095C75.249 40.594 74.2632 41.6992 72.9788 41.7589C72.919 41.7589 72.8294 41.7589 72.7697 41.7589C70.7086 41.7888 68.6475 41.7589 66.6162 41.7589C66.4967 41.7888 66.3474 41.8187 66.1084 41.8187ZM66.198 40.1758C67.7215 40.1758 69.1553 40.1758 70.5891 40.1758C70.9475 40.2056 71.2761 39.9368 71.3359 39.5784C71.3359 39.5186 71.3359 39.4589 71.3359 39.429C71.3359 38.742 71.3359 38.0848 71.3359 37.3978C71.3359 36.7107 71.1865 36.5315 70.4696 36.5315C69.3644 36.5315 68.2591 36.5315 67.1838 36.5315H66.2578L66.198 40.1758Z" fill="#FFB000"/>
<path d="M12.4883 34.8901C13.474 34.8901 14.4 34.8901 15.326 34.8901C16.4014 34.8901 16.4014 34.8901 16.4014 35.9655C16.4014 38.7734 16.4014 41.6111 16.4014 44.419C16.4014 45.2853 16.5507 45.4645 17.4469 45.4645C19.8366 45.4645 22.2262 45.4645 24.6159 45.4346C25.1536 45.4346 25.3328 45.5541 25.303 46.0918C25.2432 47.1671 25.3926 47.0477 24.3471 47.0477H15.2962C13.474 47.0477 12.548 46.1217 12.548 44.3294C12.548 41.5215 12.548 38.6838 12.548 35.8759C12.4883 35.607 12.4883 35.2785 12.4883 34.8901Z" fill="#FFB000"/>
<path d="M14.5807 49.2278H15.0885V51.0798H16.2236V51.498H14.5508V49.2278H14.5807Z" fill="#FFB000"/>
<path d="M16.5193 49.438C16.4596 49.3782 16.4297 49.3185 16.4297 49.2289C16.4297 49.1393 16.4596 49.0795 16.5193 49.0198C16.579 48.96 16.6687 48.9302 16.7583 48.9302C16.8479 48.9302 16.9375 48.96 16.9972 49.0198C17.057 49.0795 17.0869 49.1393 17.0869 49.2289C17.0869 49.3185 17.057 49.3782 16.9972 49.438C16.9375 49.4977 16.8479 49.5276 16.7583 49.5276C16.6687 49.5276 16.579 49.4977 16.5193 49.438ZM16.5193 49.7666H17.0271V51.4991H16.5193V49.7666Z" fill="#FFB000"/>
<path d="M19.0636 49.9448C19.213 50.0941 19.2727 50.3032 19.2727 50.5123V51.4981H18.7649V50.6019C18.7649 50.4825 18.7351 50.3928 18.6753 50.3032C18.6156 50.2435 18.4961 50.1837 18.4065 50.2136C18.287 50.2136 18.1974 50.2435 18.1078 50.3331C18.0181 50.4227 17.9883 50.5422 17.9883 50.6916V51.4981H17.4805V49.7656H17.9584V49.9448C18.0181 49.885 18.1078 49.8253 18.1974 49.7656C18.287 49.7357 18.4065 49.7058 18.526 49.7058C18.7351 49.7357 18.9143 49.7954 19.0636 49.9448Z" fill="#FFB000"/>
<path d="M21.4811 49.7656V51.4981H21.0032V51.289C20.9435 51.3487 20.8539 51.4085 20.7642 51.4682C20.6746 51.4981 20.5551 51.5279 20.4655 51.5279C20.2564 51.5279 20.0772 51.4682 19.9278 51.3188C19.7785 51.1695 19.7188 50.9604 19.7188 50.7214V49.7357H20.2266V50.6318C20.2266 50.9007 20.346 51.05 20.585 51.05C20.7045 51.05 20.7941 51.0201 20.8837 50.9305C20.9733 50.8409 21.0032 50.7214 21.0032 50.5721V49.7058L21.4811 49.7656Z" fill="#FFB000"/>
<path d="M23.0604 51.4979L22.6721 50.9602L22.2838 51.4979H21.7461L22.4033 50.6316L21.7461 49.7654H22.3136L22.6721 50.2732L23.0604 49.7654H23.5981L22.9409 50.6316L23.628 51.5278L23.0604 51.4979Z" fill="#FFB000"/>
<path d="M30.2337 51.02H29.1882L28.9791 51.498H28.4414L29.457 49.2278H29.9648L30.9804 51.498H30.4428L30.2337 51.02ZM30.0843 50.6317L29.7259 49.7655L29.3674 50.6317H30.0843Z" fill="#FFB000"/>
<path d="M32.6512 49.8552C32.7707 49.915 32.8901 50.0344 32.9499 50.1838C33.0992 50.4825 33.0992 50.841 32.9499 51.1098C32.8901 51.2293 32.7707 51.3488 32.6512 51.4384C32.5317 51.4981 32.3823 51.5579 32.233 51.5579C32.0239 51.5579 31.8447 51.4981 31.6953 51.3488V52.1553H31.1875V49.7955H31.6654V50.0046C31.8148 49.8552 31.994 49.7656 32.2031 49.7656C32.3823 49.7357 32.5317 49.7656 32.6512 49.8552ZM32.4421 50.9903C32.6213 50.7812 32.6213 50.4825 32.4421 50.3033C32.3525 50.2137 32.233 50.1539 32.1135 50.1838C31.994 50.1838 31.8745 50.2435 31.7849 50.3033C31.6356 50.5124 31.6356 50.8111 31.7849 50.9903C31.8745 51.0799 31.994 51.1397 32.1135 51.1098C32.2629 51.1098 32.3823 51.0799 32.4421 50.9903Z" fill="#FFB000"/>
<path d="M34.7162 49.9448C34.8656 50.0941 34.9552 50.3032 34.9253 50.5123V51.4981H34.4474V51.289C34.3279 51.4682 34.1188 51.5578 33.9097 51.5279C33.7902 51.5279 33.6707 51.4981 33.5512 51.4682C33.4616 51.4383 33.372 51.3786 33.3123 51.289C33.2525 51.1994 33.2227 51.1098 33.2227 51.0201C33.2227 50.8708 33.2824 50.7214 33.4019 50.6318C33.5811 50.5123 33.7603 50.4825 33.9694 50.4825H34.3578C34.3578 50.3928 34.3279 50.3032 34.2681 50.2136C34.1785 50.1539 34.0889 50.124 33.9694 50.124C33.8798 50.124 33.7902 50.1539 33.7006 50.1539C33.611 50.1837 33.5512 50.2136 33.4616 50.2734L33.2824 49.9149C33.372 49.8552 33.4915 49.7954 33.611 49.7656C33.7305 49.7357 33.8798 49.7058 34.0292 49.7058C34.3279 49.7357 34.537 49.7954 34.7162 49.9448ZM34.298 51.1396C34.3578 51.1098 34.4175 51.05 34.4474 50.9604V50.7812H34.0889C33.8798 50.7812 33.7902 50.8409 33.7902 50.9903C33.7902 51.05 33.8201 51.1098 33.8499 51.1396C33.9097 51.1695 33.9993 51.1994 34.059 51.1994C34.1487 51.1994 34.2383 51.1695 34.298 51.1396Z" fill="#FFB000"/>
<path d="M35.758 51.4084C35.3398 51.1993 35.1307 50.6915 35.3398 50.2733C35.4295 50.094 35.5788 49.9447 35.758 49.8551C35.9074 49.7655 36.0866 49.7356 36.2658 49.7356C36.4451 49.7356 36.5944 49.7655 36.7438 49.8551C36.8633 49.9148 36.9828 50.0343 37.0425 50.1837L36.6542 50.3928C36.5944 50.2434 36.4152 50.1538 36.2658 50.1538C36.1464 50.1538 36.0269 50.1837 35.9373 50.2733C35.758 50.4824 35.758 50.7811 35.9373 50.9902C36.0269 51.0798 36.1464 51.1395 36.2658 51.1097C36.4451 51.1097 36.5944 51.0201 36.6542 50.8707L37.0425 51.0798C36.9828 51.2291 36.8633 51.3188 36.7438 51.4084C36.5944 51.498 36.4451 51.5279 36.2658 51.5279C36.0866 51.5279 35.9074 51.498 35.758 51.4084Z" fill="#FFB000"/>
<path d="M38.8957 49.9448C39.045 50.0941 39.1048 50.3032 39.1048 50.5123V51.4981H38.597V50.602C38.597 50.4825 38.5671 50.3929 38.5073 50.3032C38.4476 50.2435 38.3281 50.1838 38.2385 50.2136C38.119 50.2136 37.9995 50.2435 37.9398 50.3331C37.8502 50.4227 37.8203 50.5422 37.8203 50.6916V51.4981H37.3125V49.1084H37.8203V49.9747C37.88 49.9149 37.9697 49.8552 38.0593 49.8253C38.1489 49.7954 38.2684 49.7656 38.358 49.7656C38.5671 49.7357 38.7463 49.7954 38.8957 49.9448Z" fill="#FFB000"/>
<path d="M41.2809 50.7811H39.9666C39.9964 50.8707 40.0562 50.9902 40.1458 51.0499C40.2354 51.1097 40.3549 51.1395 40.4744 51.1395C40.564 51.1395 40.6237 51.1395 40.7133 51.1097C40.7731 51.0798 40.8627 51.0499 40.9224 50.9902L41.1913 51.2889C41.0121 51.498 40.7432 51.5876 40.4744 51.5577C40.2951 51.5577 40.1159 51.5279 39.9666 51.4383C39.8172 51.3785 39.6977 51.259 39.6081 51.1097C39.4588 50.811 39.4588 50.4824 39.6081 50.1837C39.6977 50.0343 39.8172 49.9447 39.9367 49.8551C40.086 49.7655 40.2354 49.7356 40.4146 49.7356C40.564 49.7356 40.7432 49.7655 40.8627 49.8551C41.0121 49.9148 41.1017 50.0343 41.1913 50.1837C41.2809 50.333 41.3108 50.4824 41.3108 50.6616C41.2809 50.6317 41.2809 50.6915 41.2809 50.7811ZM40.086 50.2135C39.9964 50.2733 39.9666 50.3629 39.9367 50.4824H40.803C40.7731 50.2733 40.5939 50.1239 40.3848 50.1239C40.2653 50.1239 40.1757 50.1538 40.086 50.2135Z" fill="#FFB000"/>
<path d="M48.125 51.4973V50.1232L47.4678 51.2284H47.2288L46.5717 50.1232V51.4973H46.0938V49.2271H46.5119L47.3782 50.631L48.2146 49.2271H48.6328V51.4973H48.125Z" fill="#0013FF"/>
<path d="M50.8699 49.7646L50.0933 51.6167C50.0335 51.7959 49.9439 51.9452 49.7946 52.0349C49.6751 52.1245 49.5257 52.1543 49.3764 52.1543C49.2868 52.1543 49.1971 52.1543 49.1075 52.1245C49.0179 52.0946 48.9582 52.0647 48.8984 52.005L49.0777 51.6465C49.1075 51.6764 49.1673 51.7063 49.1971 51.7361C49.2569 51.766 49.2868 51.766 49.3465 51.766C49.4062 51.766 49.466 51.7361 49.5257 51.7063C49.5855 51.6764 49.6153 51.6167 49.6452 51.5569L48.8984 49.7646H49.4062L49.8842 50.9595L50.3621 49.7646H50.8699Z" fill="#0013FF"/>
<path d="M51.3166 51.4674C51.1673 51.4375 51.0478 51.3778 50.8984 51.2882L51.0777 50.8998C51.1971 50.9596 51.2868 51.0193 51.4361 51.0791C51.5556 51.1089 51.705 51.1388 51.8244 51.1388C51.9439 51.1388 52.0634 51.1388 52.153 51.0791C52.2128 51.0492 52.2426 50.9894 52.2426 50.8998C52.2426 50.8401 52.2128 50.8102 52.1829 50.7803C52.1232 50.7505 52.0634 50.7206 52.0335 50.6907C51.9738 50.6907 51.8842 50.631 51.7647 50.631C51.6153 50.6011 51.466 50.5712 51.3465 50.5115C51.227 50.4816 51.1374 50.392 51.0478 50.3024C50.9582 50.2128 50.9283 50.0634 50.9283 49.944C50.9283 49.8245 50.9582 49.705 51.0478 49.5855C51.1374 49.466 51.227 49.3764 51.3764 49.3167C51.5556 49.2569 51.7348 49.2271 51.9141 49.2271C52.0634 49.2271 52.2128 49.2569 52.3323 49.2868C52.4517 49.3167 52.5712 49.3764 52.6907 49.4361L52.5413 49.8245C52.3621 49.705 52.1232 49.6452 51.9141 49.6452C51.7946 49.6452 51.6751 49.6751 51.5855 49.705C51.5257 49.7349 51.4959 49.8245 51.4959 49.8842C51.4959 49.9738 51.5556 50.0336 51.6153 50.0634C51.7348 50.1232 51.8543 50.1531 51.9738 50.1829C52.1231 50.2128 52.2725 50.2427 52.392 50.3024C52.5115 50.3323 52.6011 50.4219 52.6907 50.5115C52.7803 50.6011 52.8102 50.7505 52.8102 50.87C52.8102 50.9894 52.7803 51.1089 52.6907 51.2284C52.6011 51.3479 52.5115 51.4375 52.3621 51.4973C52.1829 51.557 52.0037 51.5869 51.8244 51.5869C51.6452 51.557 51.4959 51.5271 51.3166 51.4674Z" fill="#0013FF"/>
<path d="M55.6208 51.7359C55.5611 51.8255 55.4715 51.8852 55.352 51.945C55.2325 52.0047 55.113 52.0047 54.9935 52.0047C54.8442 52.0047 54.665 51.9749 54.5455 51.8852C54.3663 51.7956 54.2169 51.6463 54.0675 51.4969C53.8584 51.467 53.6792 51.4073 53.5299 51.2878C53.3805 51.1982 53.2312 51.0489 53.1415 50.8696C53.0519 50.6904 52.9922 50.5112 52.9922 50.3021C52.9922 50.093 53.0519 49.8839 53.1415 49.7047C53.2312 49.5254 53.3805 49.3761 53.5597 49.2865C53.9779 49.0774 54.4559 49.0774 54.8442 49.2865C55.0234 49.3761 55.1728 49.5254 55.2624 49.7047C55.5014 50.1229 55.4715 50.6307 55.2026 50.9891C55.0533 51.1982 54.8442 51.3476 54.6052 51.4073C54.6351 51.467 54.6948 51.4969 54.7546 51.5268C54.8143 51.5567 54.8741 51.5567 54.9039 51.5567C55.0533 51.5567 55.1728 51.4969 55.2624 51.3774L55.6208 51.7359ZM53.6195 50.7501C53.6792 50.8696 53.7688 50.9592 53.8883 51.019C54.1273 51.1385 54.3961 51.1385 54.6052 51.019C54.7247 50.9592 54.8143 50.8696 54.8741 50.7501C54.9338 50.6307 54.9637 50.5112 54.9637 50.3618C54.9637 50.2423 54.9338 50.093 54.8741 49.9735C54.8143 49.854 54.7247 49.7644 54.6052 49.7047C54.3663 49.5852 54.0974 49.5852 53.8883 49.7047C53.7688 49.7644 53.7091 49.854 53.6195 49.9735C53.5597 50.093 53.5299 50.2125 53.5299 50.3618C53.5299 50.5112 53.5597 50.6307 53.6195 50.7501Z" fill="#0013FF"/>
<path d="M55.8906 49.2271H56.3984V51.0791H57.5335V51.4973H55.8906V49.2271Z" fill="#0013FF"/>
<path d="M67.3607 49.3473C67.5101 49.407 67.6296 49.4966 67.6893 49.646C67.7789 49.7655 67.8088 49.9148 67.8088 50.0642C67.8088 50.2135 67.7789 50.3629 67.6893 50.4824C67.5997 50.6019 67.4802 50.7213 67.3607 50.7811C67.1815 50.8408 67.0322 50.8707 66.8529 50.8707H66.4049V51.498H65.8672V49.2278H66.8529C67.0322 49.2278 67.2114 49.2577 67.3607 49.3473ZM67.1815 50.3629C67.2711 50.3031 67.301 50.1837 67.301 50.0642C67.301 49.9447 67.2711 49.8551 67.1815 49.7655C67.0919 49.7057 66.9426 49.646 66.8231 49.6758H66.4049V50.4525H66.8231C66.9426 50.4525 67.062 50.4226 67.1815 50.3629Z" fill="#FFB000"/>
<path d="M70.2902 49.2278V51.498H69.7525V50.572H68.7369V51.498H68.1992V49.2278H68.7369V50.1239H69.7525V49.2278H70.2902Z" fill="#FFB000"/>
<path d="M72.3178 49.3473C72.4671 49.407 72.5866 49.4966 72.6464 49.646C72.736 49.7655 72.7658 49.9148 72.7658 50.0642C72.7658 50.2135 72.736 50.3629 72.6464 50.4824C72.5567 50.6019 72.4373 50.7213 72.3178 50.7811C72.1385 50.8408 71.9892 50.8707 71.81 50.8707H71.3619V51.498H70.8242V49.2278H71.81C71.9892 49.2278 72.1684 49.2577 72.3178 49.3473ZM72.1385 50.3629C72.2282 50.3031 72.258 50.1837 72.258 50.0642C72.258 49.9447 72.2282 49.8551 72.1385 49.7655C72.0489 49.7057 71.8996 49.646 71.7801 49.6758H71.3619V50.4525H71.7801C71.8996 50.4525 72.0191 50.4226 72.1385 50.3629Z" fill="#FFB000"/>
</svg>
