<svg width="55" height="38" viewBox="0 0 55 38" fill="none" xmlns="http://www.w3.org/2000/svg">
<g clip-path="url(#clip0_0:7232)">
<path d="M5.00714 3.76705C5.00714 3.6598 5.00714 3.6598 5.00714 3.76705C5.00714 3.55255 5.11514 3.55255 5.22314 3.55255C5.11514 3.6598 5.11514 3.6598 5.33114 3.44531C5.33114 3.44531 5.43914 3.44531 5.43914 3.33806C5.33114 3.33806 5.33114 3.33806 5.54714 3.33806C5.76314 3.33806 5.76314 3.33806 5.65514 3.33806C5.76314 3.33806 5.87114 3.44531 5.87114 3.55255C5.76314 3.44531 5.76314 3.44531 5.97914 3.6598C5.97914 3.6598 5.97914 3.76705 6.08714 3.76705C6.08714 3.6598 6.08714 3.6598 6.08714 3.87429C6.08714 4.08879 6.08714 4.08879 6.08714 3.98154C6.08714 4.08879 5.97914 4.19603 5.87114 4.19603C5.97914 4.08879 5.97914 4.08879 5.76314 4.30328C5.76314 4.30328 5.65514 4.30328 5.65514 4.41053C5.76314 4.41053 5.76314 4.41053 5.54714 4.41053C5.33114 4.41053 5.33114 4.41053 5.43914 4.41053C5.33114 4.41053 5.22314 4.30328 5.22314 4.19603C5.33114 4.30328 5.33114 4.30328 5.11514 4.08879C5.11514 3.82067 5.11514 3.76705 5.00714 3.76705C5.00714 3.82067 5.00714 3.82067 5.00714 3.76705C5.00714 4.14241 5.27714 4.3569 5.60114 4.3569C5.87114 4.3569 6.19514 4.08879 6.19514 3.76705C6.08714 3.17719 5.81714 2.90908 5.22314 2.80183C4.62914 2.69458 4.35914 3.28444 4.25114 3.76705C4.14314 4.24966 4.73714 4.62502 5.22314 4.73227C5.81714 4.83951 6.08714 4.24966 6.19514 3.76705C6.19514 3.39169 5.92514 3.17719 5.60114 3.17719C5.33114 3.17719 5.00714 3.33806 5.00714 3.76705Z" fill="#FA8B26"/>
<path d="M8.40948 3.76705C8.40948 3.6598 8.40948 3.6598 8.40948 3.76705C8.40948 3.55255 8.51748 3.55255 8.62548 3.55255C8.51748 3.6598 8.51748 3.6598 8.73348 3.44531C8.73348 3.44531 8.84148 3.44531 8.84148 3.33806C8.73348 3.33806 8.73348 3.33806 8.94948 3.33806C9.16548 3.33806 9.16548 3.33806 9.05748 3.33806C9.16548 3.33806 9.27348 3.44531 9.27348 3.55255C9.16548 3.44531 9.16548 3.44531 9.38148 3.6598C9.38148 3.6598 9.38148 3.76705 9.48948 3.76705C9.48948 3.6598 9.48948 3.6598 9.48948 3.87429C9.48948 4.08879 9.48948 4.08879 9.48948 3.98154C9.48948 4.08879 9.38148 4.19603 9.27348 4.19603C9.16548 3.92792 9.16548 3.92792 9.00348 4.08879C9.00348 4.08879 8.89548 4.08879 8.89548 4.19603C9.00348 4.19603 9.00348 4.19603 8.78748 4.19603C8.57148 4.19603 8.57148 4.19603 8.67948 4.19603C8.57148 4.19603 8.46348 4.08879 8.46348 3.98154C8.57148 4.08879 8.57148 4.08879 8.35548 3.87429C8.51748 3.82067 8.51748 3.76705 8.40948 3.76705C8.40948 3.82067 8.40948 3.82067 8.40948 3.76705C8.40948 4.14241 8.67948 4.3569 9.00348 4.3569C9.32748 4.3569 9.59748 4.08879 9.59748 3.76705C9.48948 3.17719 9.21948 2.90908 8.62548 2.80183C8.03148 2.69458 7.76148 3.28444 7.65348 3.76705C7.54548 4.3569 8.13948 4.62502 8.62548 4.73227C9.21948 4.83951 9.48948 4.24966 9.59748 3.76705C9.59748 3.39169 9.32748 3.17719 9.00348 3.17719C8.67948 3.17719 8.40948 3.33806 8.40948 3.76705Z" fill="#FA8B26"/>
<path d="M11.8118 3.76705C11.8118 3.6598 11.8118 3.6598 11.8118 3.76705C11.8118 3.55255 11.9198 3.55255 12.0278 3.55255C11.9198 3.6598 11.9198 3.6598 12.1358 3.44531C12.1358 3.44531 12.2438 3.44531 12.2438 3.33806C12.1358 3.33806 12.1358 3.33806 12.3518 3.33806C12.5678 3.33806 12.5678 3.33806 12.4598 3.33806C12.5678 3.33806 12.6758 3.44531 12.6758 3.55255C12.5678 3.44531 12.5678 3.44531 12.7838 3.6598C12.7838 3.6598 12.7838 3.76705 12.8918 3.76705C12.8918 3.6598 12.8918 3.6598 12.8918 3.87429C12.8918 4.08879 12.8918 4.08879 12.8918 3.98154C12.8918 4.08879 12.7838 4.19603 12.6758 4.19603C12.7838 4.08879 12.7838 4.08879 12.5678 4.30328C12.5678 4.30328 12.4598 4.30328 12.4598 4.41053C12.5678 4.41053 12.5678 4.41053 12.3518 4.41053C12.1358 4.41053 12.1358 4.41053 12.2438 4.41053C12.1358 4.41053 12.0278 4.30328 12.0278 4.19603C12.1358 4.30328 12.1358 4.30328 11.9198 4.08879C11.8118 3.82067 11.8118 3.76705 11.8118 3.76705C11.8118 3.82067 11.8118 3.82067 11.8118 3.76705C11.8118 4.14241 12.0818 4.3569 12.4058 4.3569C12.7838 4.3569 12.9998 4.08879 12.9998 3.76705C12.8918 3.17719 12.6218 2.90908 12.0278 2.80183C11.4338 2.69458 11.1638 3.28444 11.0558 3.76705C10.9478 4.24966 11.5418 4.62502 12.0278 4.73227C12.6218 4.83951 12.8918 4.24966 12.9998 3.76705C12.9998 3.39169 12.7298 3.17719 12.4058 3.17719C12.0818 3.06995 11.8118 3.33806 11.8118 3.76705Z" fill="#FA8B26"/>
<path d="M52.7991 36.4212H1.71513C1.12113 36.4212 0.743126 35.9385 0.743126 35.4559V1.56608C0.743126 0.976223 1.22913 0.600861 1.71513 0.600861H52.7451C53.3391 0.600861 53.7171 1.08347 53.7171 1.56608V35.3487C53.7711 35.9385 53.2851 36.4212 52.7991 36.4212Z" stroke="#FA8B26" stroke-width="2" stroke-miterlimit="10"/>
<path d="M0.743126 6.23129H53.8251" stroke="#FA8B26" stroke-width="2" stroke-miterlimit="10"/>
<path d="M26.0157 10.6288C25.7997 10.6288 25.6377 10.7896 25.5837 10.9505L25.2057 12.9346C24.3957 13.2027 23.6397 13.6317 22.9917 14.1679L21.1017 13.4172C20.9397 13.3635 20.6697 13.4172 20.6157 13.578L18.8337 16.4737C18.7257 16.6346 18.7797 16.9027 18.8877 17.0099L20.3997 18.3505C20.2917 18.8331 20.2377 19.3693 20.2377 19.8519C20.2377 20.3882 20.2917 20.8708 20.3997 21.3534L18.8877 22.694C18.7257 22.8012 18.7257 23.0693 18.8337 23.2302L20.6157 26.1259C20.7237 26.2867 20.9397 26.3403 21.1017 26.2867L22.9917 25.536C23.6397 26.0722 24.3957 26.5012 25.2057 26.7693L25.5837 28.7534C25.6377 28.9679 25.7997 29.1287 26.0157 29.1287H29.4177C29.6337 29.1287 29.7957 28.9679 29.8497 28.7534L30.2277 26.7693C31.0377 26.5012 31.7937 26.0722 32.4417 25.536L34.3317 26.2867C34.4937 26.3403 34.7637 26.2867 34.8717 26.1259L36.6537 23.2302C36.7617 23.0693 36.7077 22.8012 36.5997 22.694L35.0877 21.3534C35.1957 20.8708 35.2497 20.3345 35.2497 19.8519C35.2497 19.3157 35.1957 18.8331 35.0877 18.3505L36.5997 17.0099C36.7617 16.9027 36.7617 16.6346 36.6537 16.4737L34.8717 13.578C34.7637 13.4172 34.5477 13.3099 34.3317 13.4172L32.4417 14.1679C31.7937 13.6317 31.0377 13.2563 30.2277 12.9346L29.8497 10.9505C29.7957 10.736 29.6337 10.6288 29.4177 10.6288H26.0157ZM26.3937 11.4867H29.0937L29.4177 13.3635C29.4177 13.5244 29.5797 13.6317 29.6877 13.6853C30.5517 13.9534 31.3617 14.436 32.0637 15.0259C32.1717 15.1331 32.3337 15.1331 32.4957 15.0795L34.2777 14.3824L35.6817 16.6882L34.2777 17.9751C34.1697 18.0824 34.1157 18.2432 34.1697 18.4041C34.2777 18.8867 34.3317 19.423 34.3317 19.9592C34.3317 20.4954 34.2777 21.0316 34.1697 21.5143C34.1157 21.6751 34.1697 21.836 34.2777 21.9432L35.6817 23.2302L34.2777 25.536L32.4957 24.8389C32.3337 24.7853 32.1717 24.8389 32.0637 24.8925C31.3617 25.4824 30.6057 25.965 29.6877 26.2331C29.5257 26.2867 29.4177 26.394 29.4177 26.5548L29.0937 28.4316H26.3937L26.0697 26.5548C26.0157 26.394 25.9077 26.2867 25.7997 26.2331C24.9357 25.965 24.1257 25.4824 23.4237 24.8925C23.3157 24.7853 23.1537 24.7853 22.9917 24.8389L21.2097 25.536L19.8057 23.2302L21.2637 21.9432C21.3717 21.836 21.4257 21.6751 21.3717 21.5143C21.2637 21.0316 21.1557 20.4954 21.1557 19.9592C21.1557 19.423 21.2097 18.8867 21.3717 18.4041C21.4257 18.2432 21.3717 18.0824 21.2637 17.9751L19.8057 16.6345L21.2097 14.3288L22.9917 15.0259C23.1537 15.0795 23.3157 15.0795 23.4237 14.9722C24.1257 14.3824 24.8817 13.9534 25.7997 13.6317C25.9617 13.578 26.0697 13.4708 26.0697 13.3099L26.3937 11.4867ZM27.7437 14.9722C24.9897 14.9722 22.7757 17.1708 22.7757 19.9056C22.7757 22.6403 24.9897 24.8389 27.7437 24.8389C30.4977 24.8389 32.7117 22.6403 32.7117 19.9056C32.7117 17.1708 30.4977 14.9722 27.7437 14.9722ZM27.7437 15.723C30.0657 15.723 31.9557 17.5998 31.9557 19.9056C31.9557 22.2114 30.0657 24.0882 27.7437 24.0882C25.4217 24.0882 23.5317 22.2114 23.5317 19.9056C23.5317 17.5998 25.4217 15.723 27.7437 15.723Z" fill="#FA8B26"/>
<path d="M28.8234 19.3704L29.6874 20.0139L28.8234 20.8183L29.2554 21.1936L30.6054 20.0139L29.2554 18.9415L28.8234 19.3704Z" fill="#FA8B26"/>
<path d="M26.0694 18.9415L24.7734 20.0139L26.0694 21.1936L26.5014 20.8183L25.6374 20.0139L26.5014 19.3704L26.0694 18.9415Z" fill="#FA8B26"/>
<path d="M28.2446 18.1211L26.4492 21.7262L26.9817 21.9877L28.7771 18.3826L28.2446 18.1211Z" fill="#FA8B26"/>
</g>
<defs>
<clipPath id="clip0_0:7232">
<rect width="54" height="37" fill="white" transform="translate(0.203125 0.0117188)"/>
</clipPath>
</defs>
</svg>
