<svg width="87" height="87" viewBox="0 0 87 87" fill="none" xmlns="http://www.w3.org/2000/svg">
<circle opacity="0.12" cx="43.9219" cy="43.998" r="43" fill="#07C28E"/>
<path d="M20.1172 43.9976C20.1172 50.9128 30.7743 56.5188 43.92 56.5188C57.0657 56.5188 67.7229 50.9128 67.7229 43.9976C67.7229 37.0825 57.0657 31.4764 43.92 31.4764C30.7743 31.4764 20.1172 37.0825 20.1172 43.9976Z" fill="url(#paint0_radial)"/>
<path d="M43.9199 55.5923C56.5521 55.5923 66.7929 50.4026 66.7929 44.0007C66.7929 37.599 56.5521 32.4092 43.9199 32.4092C31.2876 32.4092 21.0469 37.599 21.0469 44.0007C21.0469 50.4026 31.2876 55.5923 43.9199 55.5923Z" fill="#777BB3"/>
<path d="M33.0507 45.4373C34.0894 45.4373 34.8649 45.2457 35.3555 44.8681C35.8409 44.4944 36.1761 43.8469 36.3519 42.9437C36.5157 42.0995 36.4533 41.51 36.1664 41.1919C35.8731 40.867 35.2389 40.7022 34.2816 40.7022H32.6216L31.7014 45.4373H33.0507ZM27.6215 51.27C27.5444 51.27 27.4713 51.2356 27.4223 51.176C27.3732 51.1165 27.3533 51.0382 27.368 50.9625L29.8069 38.4145C29.8304 38.2931 29.9368 38.2055 30.0604 38.2055H35.3167C36.9686 38.2055 38.1982 38.654 38.971 39.5388C39.748 40.4282 39.988 41.6715 39.6841 43.234C39.5605 43.8706 39.3479 44.4617 39.0521 44.991C38.7561 45.5209 38.3648 46.0112 37.8889 46.4486C37.3194 46.9817 36.6747 47.3682 35.9746 47.5957C35.2856 47.8201 34.4007 47.9339 33.3446 47.9339H31.2163L30.6085 51.061C30.5849 51.1824 30.4786 51.27 30.355 51.27H27.6215Z" fill="black"/>
<path d="M32.835 40.96H34.2821C35.4375 40.96 35.8389 41.2135 35.9753 41.3646C36.2015 41.6155 36.2442 42.1445 36.0988 42.8942C35.9354 43.7336 35.6325 44.3288 35.1984 44.663C34.754 45.0051 34.0315 45.1785 33.0512 45.1785H32.0152L32.835 40.96ZM35.3172 37.9468H30.0608C29.8135 37.9468 29.601 38.122 29.5538 38.3647L27.115 50.9128C27.0855 51.0642 27.1253 51.2208 27.2234 51.3399C27.3215 51.459 27.4677 51.5278 27.622 51.5278H30.3554C30.6027 51.5278 30.8153 51.3525 30.8625 51.1099L31.4297 48.1918H33.3451C34.4283 48.1918 35.3402 48.0736 36.0552 47.8408C36.7905 47.6018 37.4671 47.1968 38.0658 46.6368C38.561 46.1812 38.9689 45.6698 39.278 45.1167C39.5872 44.5634 39.8093 43.9464 39.9382 43.2828C40.258 41.6381 39.9982 40.321 39.166 39.3685C38.3419 38.4251 37.0469 37.9468 35.3172 37.9468ZM31.3885 45.6951H33.0512C34.1533 45.6951 34.9742 45.4875 35.5135 45.0723C36.053 44.657 36.4168 43.9638 36.6059 42.9925C36.7868 42.06 36.7044 41.4019 36.3587 41.0185C36.0126 40.6352 35.3205 40.4434 34.2821 40.4434H32.4092L31.3885 45.6951ZM35.3172 38.4633C36.8984 38.4633 38.052 38.8783 38.777 39.7083C39.502 40.5383 39.7204 41.6969 39.4311 43.1843C39.312 43.797 39.1106 44.3572 38.8271 44.8647C38.5433 45.3726 38.1727 45.837 37.7147 46.258C37.1688 46.7688 36.5625 47.1328 35.8953 47.3496C35.2281 47.567 34.3782 47.6752 33.3451 47.6752H31.0038L30.3554 51.0113H27.622L30.0608 38.4633H35.3172Z" fill="white"/>
<path d="M45.952 47.9336C45.8748 47.9336 45.8017 47.8992 45.7528 47.8396C45.7036 47.7801 45.6837 47.7018 45.6984 47.6261L46.7773 42.0741C46.8799 41.5461 46.8546 41.1671 46.7061 41.0069C46.6151 40.9091 46.3421 40.7449 45.5346 40.7449H43.5801L42.2237 47.7246C42.2002 47.846 42.0938 47.9336 41.9702 47.9336H39.2583C39.1812 47.9336 39.1081 47.8992 39.059 47.8396C39.0099 47.7801 38.99 47.7017 39.0048 47.6261L41.4436 35.078C41.4672 34.9567 41.5735 34.8691 41.6971 34.8691H44.409C44.4862 34.8691 44.5593 34.9035 44.6083 34.963C44.6574 35.0226 44.6773 35.1008 44.6626 35.1766L44.074 38.2052H46.1766C47.7783 38.2052 48.8645 38.4875 49.4971 39.0685C50.1419 39.6612 50.3431 40.6088 50.0952 41.8853L48.9605 47.7246C48.9369 47.846 48.8306 47.9336 48.7069 47.9336H45.952Z" fill="black"/>
<path d="M44.4056 34.6116H41.6937C41.4463 34.6116 41.2338 34.7868 41.1866 35.0295L38.7478 47.5776C38.7183 47.729 38.7581 47.8856 38.8563 48.0047C38.9544 48.1238 39.1006 48.1926 39.2549 48.1926H41.9668C42.214 48.1926 42.4267 48.0173 42.4739 47.7746L43.7896 41.0039H45.5312C46.3373 41.0039 46.5064 41.1761 46.5132 41.1835C46.5621 41.2361 46.6264 41.4797 46.5203 42.0256L45.4415 47.5776C45.412 47.729 45.4518 47.8856 45.5499 48.0047C45.6481 48.1238 45.7943 48.1926 45.9485 48.1926H48.7035C48.9508 48.1926 49.1634 48.0173 49.2106 47.7746L50.3452 41.9354C50.6115 40.5648 50.3837 39.5366 49.6684 38.8792C48.9859 38.2523 47.8426 37.9476 46.1732 37.9476H44.3838L44.9127 35.2267C44.942 35.0753 44.9024 34.9186 44.8042 34.7996C44.7061 34.6805 44.5599 34.6116 44.4056 34.6116ZM44.4056 35.1281L43.7572 38.4642H46.1732C47.6933 38.4642 48.7418 38.7295 49.3189 39.2595C49.896 39.7898 50.0688 40.6491 49.8382 41.8369L48.7035 47.6761H45.9485L47.0274 42.1241C47.1501 41.4926 47.105 41.0618 46.8919 40.8321C46.6786 40.6024 46.225 40.4874 45.5312 40.4874H43.3637L41.9668 47.6761H39.2549L41.6937 35.1281H44.4056Z" fill="white"/>
<path d="M54.3867 45.4373C55.4254 45.4373 56.2008 45.2457 56.6914 44.8681C57.1768 44.4945 57.5121 43.847 57.6879 42.9437C57.8517 42.0995 57.7893 41.51 57.5023 41.1919C57.209 40.867 56.5749 40.7022 55.6175 40.7022H53.9576L53.0373 45.4373H54.3867ZM48.9575 51.27C48.8804 51.27 48.8073 51.2356 48.7583 51.176C48.7092 51.1165 48.6892 51.0382 48.704 50.9625L51.1428 38.4145C51.1665 38.2931 51.2727 38.2055 51.3964 38.2055H56.6526C58.3046 38.2055 59.5341 38.654 60.3071 39.5388C61.084 40.4282 61.3239 41.6714 61.0202 43.234C60.8964 43.8706 60.6838 44.4617 60.3881 44.991C60.092 45.5209 59.7007 46.0112 59.2249 46.4486C58.6553 46.9817 58.0106 47.3682 57.3105 47.5957C56.6215 47.8201 55.7367 47.9339 54.6806 47.9339H52.5521L51.9446 51.061C51.9209 51.1824 51.8146 51.27 51.6909 51.27H48.9575Z" fill="black"/>
<path d="M54.1631 40.96H55.6101C56.7656 40.96 57.1669 41.2135 57.3033 41.3646C57.5296 41.6155 57.5723 42.1445 57.4268 42.8941C57.2634 43.7336 56.9605 44.3288 56.5265 44.663C56.0821 45.0051 55.3596 45.1785 54.3792 45.1785H53.3433L54.1631 40.96ZM56.6452 37.9468H51.3889C51.1417 37.9468 50.9291 38.122 50.8819 38.3647L48.4431 50.9128C48.4137 51.0642 48.4534 51.2208 48.5515 51.3399C48.6496 51.459 48.7958 51.5278 48.9501 51.5278H51.6835C51.9308 51.5278 52.1434 51.3525 52.1906 51.1099L52.7577 48.1918H54.6732C55.7564 48.1918 56.6683 48.0736 57.3833 47.8408C58.1186 47.6018 58.7953 47.1967 59.394 46.6367C59.8892 46.1812 60.297 45.6698 60.6061 45.1167C60.9152 44.5634 61.1373 43.9464 61.2662 43.2828C61.586 41.638 61.3262 40.3209 60.494 39.3684C59.67 38.4251 58.3751 37.9468 56.6452 37.9468ZM52.7166 45.6951H54.3792C55.4813 45.6951 56.3022 45.4875 56.8416 45.0723C57.3811 44.657 57.7449 43.9638 57.9339 42.9925C58.1149 42.06 58.0325 41.4019 57.6867 41.0185C57.3407 40.6352 56.6486 40.4434 55.6101 40.4434H53.7373L52.7166 45.6951ZM56.6452 38.4633C58.2265 38.4633 59.38 38.8783 60.1051 39.7083C60.8302 40.5383 61.0484 41.6969 60.7591 43.1843C60.6401 43.797 60.4387 44.3572 60.1552 44.8647C59.8713 45.3726 59.5007 45.837 59.0427 46.258C58.4969 46.7688 57.8905 47.1328 57.2233 47.3496C56.5561 47.567 55.7063 47.6752 54.6732 47.6752H52.3318L51.6835 51.0113H48.9501L51.3889 38.4633H56.6452Z" fill="white"/>
<defs>
<radialGradient id="paint0_radial" cx="0" cy="0" r="1" gradientUnits="userSpaceOnUse" gradientTransform="translate(34.4085 35.8785) scale(31.2565)">
<stop stop-color="#AEB2D5"/>
<stop offset="0.3" stop-color="#AEB2D5"/>
<stop offset="0.75" stop-color="#484C89"/>
<stop offset="1" stop-color="#484C89"/>
</radialGradient>
</defs>
</svg>
