<svg width="12" height="14" viewBox="0 0 12 14" fill="none" xmlns="http://www.w3.org/2000/svg">
<path d="M11.8972 5.87619C11.8415 2.5995 9.26968 0.0782387 5.99255 0.0822191C2.70749 0.0862269 0.135227 2.6331 0.102286 5.91893C0.0926782 6.8773 0.2262 7.78428 0.617733 8.5901C1.15388 9.69355 2.01941 10.6073 3.08648 11.2037C3.21446 11.2753 3.33955 11.3513 3.46146 11.4318C4.07403 11.836 4.60644 12.2689 5.02051 12.8781L5.57362 13.6918C5.77822 13.9928 6.22185 13.9928 6.42647 13.6918L7.00505 12.8406C7.48874 12.129 8.13936 11.55 8.89212 11.1334C10.7619 10.0984 11.9363 8.17356 11.8972 5.87619Z" fill="#E7E0EE"/>
<path d="M6.00013 10.2138C8.33818 10.2138 10.2335 8.3184 10.2335 5.98036C10.2335 3.64231 8.33818 1.74695 6.00013 1.74695C3.66208 1.74695 1.76672 3.64231 1.76672 5.98036C1.76672 8.3184 3.66208 10.2138 6.00013 10.2138Z" fill="white"/>
<path d="M6.05661 8.79267C7.45661 8.79267 8.13328 8.07711 8.13328 7.12822C8.13328 5.19155 5.15439 5.74378 5.15439 4.91933C5.15439 4.60822 5.41884 4.39822 5.89328 4.39822C6.42217 4.39822 6.98217 4.57711 7.40217 4.966L8.01661 4.15711C7.50328 3.68267 6.81884 3.43378 5.99439 3.43378C4.77328 3.43378 4.02661 4.14933 4.02661 5.01267C4.02661 6.96489 7.01328 6.33489 7.01328 7.25267C7.01328 7.54822 6.71773 7.82822 6.11106 7.82822C5.3955 7.82822 4.82773 7.50933 4.46217 7.12822L3.86328 7.96822C4.3455 8.45822 5.06106 8.79267 6.05661 8.79267Z" fill="#6060EB"/>
</svg>
