<svg width="22" height="22" viewBox="0 0 22 22" fill="none" xmlns="http://www.w3.org/2000/svg">
<path d="M8.94169 8.65231L9.71174 9.11388C9.88487 9.21378 10.1062 9.15649 10.2091 8.98515C10.3121 8.81381 10.2589 8.59144 10.0893 8.48545L9.40881 8.0767C9.73717 7.51791 9.9069 6.88017 9.90009 6.23222C9.90009 4.61477 8.9134 3.29883 7.70005 3.29883C6.48669 3.29883 5.5 4.61477 5.5 6.23222C5.5 7.84967 6.48669 9.16562 7.70005 9.16562C8.16394 9.15774 8.6076 8.9744 8.94169 8.65231ZM6.23335 6.23222C6.23335 5.03982 6.90511 4.03218 7.70005 4.03218C8.49499 4.03218 9.16674 5.03982 9.16674 6.23222C9.17229 6.74696 9.03873 7.25383 8.78038 7.69892L8.25561 7.38435C8.08248 7.28444 7.86118 7.34174 7.75823 7.51308C7.65511 7.68442 7.70846 7.90679 7.87801 8.01278L8.2728 8.24965C8.10414 8.36585 7.90487 8.42941 7.70005 8.43227C6.90511 8.43227 6.23335 7.42463 6.23335 6.23222Z" fill="#202333"/>
<path d="M14.6451 12.3433C14.5932 12.1972 14.4548 12.0996 14.2998 12.0996C14.1447 12.0996 14.0065 12.1972 13.9544 12.3433L12.121 17.4767C12.053 17.6674 12.1525 17.8772 12.3432 17.9453C12.5341 18.0133 12.7437 17.9139 12.8118 17.7231L13.3798 16.1332H15.2198L15.7878 17.7231C15.8399 17.8692 15.9781 17.9666 16.1331 17.9666C16.2524 17.9666 16.3643 17.9087 16.4328 17.8112C16.5016 17.7138 16.5186 17.589 16.4785 17.4767L14.6451 12.3433ZM13.6416 15.3999L14.2998 13.5566L14.9599 15.3999H13.6416Z" fill="#202333"/>
<path d="M20.5442 18.1636C21.478 17.0928 21.9951 15.7213 22.0005 14.3003C22.0005 10.9728 19.0803 8.17693 15.2782 7.76317C15.359 7.38074 15.4 6.99097 15.4003 6.60013C15.4003 2.96096 11.9463 0 7.7002 0C3.45409 0 5.29888e-05 2.96096 5.29888e-05 6.60013C0.00578226 7.90676 0.44622 9.17418 1.2519 10.2028L0.0238653 13.4368C-0.0189252 13.5494 -0.00352781 13.676 0.0648654 13.7751C0.133438 13.8743 0.246233 13.9336 0.366727 13.9336C0.417216 13.9334 0.467168 13.923 0.51336 13.9028L3.97707 12.3797C4.84219 12.786 5.77033 13.042 6.72157 13.1365C6.641 13.5191 6.60036 13.9092 6.60018 14.3003C6.60018 17.9396 10.0542 20.9004 14.3003 20.9004C15.4761 20.9031 16.6404 20.6696 17.7239 20.2136L21.4788 21.966C21.6166 22.0303 21.7797 22.0029 21.8889 21.8971C21.9981 21.7913 22.0307 21.6291 21.9708 21.4893L20.5442 18.1636ZM3.83849 11.6401L1.02022 12.8791L2.01013 10.2687C2.05668 10.146 2.0343 10.008 1.95123 9.90646C1.17205 8.9801 0.741457 7.81061 0.7334 6.60013C0.7334 3.36541 3.85854 0.733347 7.7002 0.733347C11.5419 0.733347 14.667 3.36541 14.667 6.60013C14.667 7.06849 14.6 7.53453 14.4683 7.98392C13.7136 10.6237 10.9288 12.4669 7.7002 12.4669C7.53495 12.4669 7.37238 12.4637 7.2005 12.4494C6.13969 12.3944 5.10144 12.1217 4.15056 11.6482C4.0528 11.5991 3.93839 11.5962 3.83849 11.6401ZM17.8838 19.4792C17.7869 19.4339 17.6752 19.4333 17.5777 19.4774C16.546 19.9356 15.4292 20.1706 14.3003 20.1671C10.4587 20.1671 7.33353 17.5352 7.33353 14.3003C7.33371 13.9291 7.3756 13.559 7.45868 13.1974C7.53889 13.2003 7.61927 13.2003 7.7002 13.2003C7.91881 13.2003 8.13545 13.1924 8.34994 13.1768C8.42334 13.1716 8.49335 13.161 8.56568 13.1541C8.7064 13.1405 8.84749 13.1281 8.98624 13.1082C9.07165 13.0957 9.1549 13.0781 9.23923 13.0635C9.36205 13.0422 9.48559 13.0225 9.6059 12.996C9.6956 12.9766 9.78297 12.9517 9.87124 12.9297C9.98385 12.9014 10.0972 12.8748 10.208 12.8424C10.2981 12.816 10.3858 12.7845 10.4748 12.7552C10.5801 12.7202 10.686 12.6869 10.7892 12.6485C10.8782 12.6151 10.9648 12.5774 11.0524 12.541C11.151 12.5004 11.2504 12.4603 11.3456 12.4164C11.433 12.376 11.5173 12.3315 11.6024 12.2888C11.6948 12.2426 11.7875 12.1967 11.8774 12.1471C11.9673 12.0977 12.0435 12.0501 12.1257 12.0005C12.2077 11.9511 12.2983 11.8976 12.3823 11.8428C12.4662 11.7882 12.5411 11.7328 12.6195 11.6779C12.6981 11.6229 12.779 11.5645 12.8564 11.5051C12.9337 11.4457 13.006 11.3841 13.0796 11.3218C13.1534 11.2595 13.2264 11.1986 13.2975 11.1345C13.3686 11.0702 13.4368 11.0027 13.505 10.9358C13.5732 10.8686 13.6397 10.8029 13.7038 10.7343C13.768 10.6658 13.8314 10.5929 13.8934 10.5206C13.9553 10.4484 14.0148 10.378 14.0726 10.305C14.1306 10.2321 14.187 10.1542 14.2425 10.0776C14.2978 10.001 14.3524 9.92579 14.4017 9.84809C14.4507 9.77038 14.5021 9.69018 14.5483 9.60943C14.5945 9.52886 14.6425 9.44775 14.6865 9.36486C14.7306 9.28196 14.7716 9.20068 14.8115 9.11707C14.8514 9.03346 14.8915 8.94465 14.9284 8.8571C14.9655 8.76937 14.9975 8.68791 15.0294 8.60036C15.0455 8.55632 15.0659 8.5146 15.0806 8.4702C18.5737 8.80017 21.2671 11.3137 21.2671 14.3003C21.2584 15.6203 20.7501 16.8881 19.8445 17.8487C19.7478 17.9548 19.7222 18.1079 19.7788 18.2399L20.9178 20.8948L17.8838 19.4792Z" fill="#202333"/>
</svg>
