<svg width="41" height="36" viewBox="0 0 41 36" fill="none" xmlns="http://www.w3.org/2000/svg">
<path fill-rule="evenodd" clip-rule="evenodd" d="M12.8123 4.04388C12.8123 3.52284 13.973 3.74803 15.4773 3.74803C15.7135 3.74803 15.7847 3.8166 15.7847 4.04388V9.27128H25.2148V11.0467H17.1173C16.9419 11.0467 16.2041 11.7071 15.9649 11.9104C15.5452 12.2673 15.3435 12.5119 14.8623 12.822V11.0467H12.8123V4.04388ZM16.8098 0.887792H31.3649V8.18634H29.2123V10.2577C28.8101 9.99848 26.9563 8.18634 26.6498 8.18634H16.8098V0.887792ZM12.5889 2.86038C12.3803 3.022 12.2318 2.95978 11.8898 2.95978V12.1316H13.8374V14.8933C14.2852 14.7782 16.3392 12.7941 16.8659 12.3829C17.2332 12.0959 17.0789 12.0546 17.6221 12.0255C19.6543 11.9169 23.611 12.1344 25.7404 12.0455C26.2834 12.0228 26.2477 11.9761 26.2517 11.4525C26.2573 10.6989 26.2399 9.92965 26.2399 9.17264C26.596 9.26418 27.9644 10.4818 28.2135 10.7255C28.5569 11.0613 28.8018 11.1871 29.1367 11.5138C29.4651 11.8343 29.7607 12.0877 30.1348 12.3288V9.17264H32.2857L32.2897 6.10352e-05H15.7848V2.86029H12.589L12.5889 2.86038Z" fill="#FA8B26"/>
<path fill-rule="evenodd" clip-rule="evenodd" d="M3.38244 35.0133H1.02499C1.56457 32.7845 0.576905 28.3186 3.26621 27.4055L5.73988 26.5311C6.16123 27.2974 6.55541 28.0799 7.02911 28.8412L8.30236 31.2653H10.4549C10.7135 30.795 12.9653 26.6297 13.1199 26.6297C13.3981 26.6297 15.3023 27.2935 15.5815 27.4172C17.65 28.3347 17.3497 30.1834 17.5431 31.9406C17.6493 32.9072 17.7324 33.903 17.7324 35.0132H15.4774C15.4774 34.2532 15.4182 32.6565 15.2724 32.0543C14.8088 32.0643 14.8651 32.153 14.35 32.153C14.35 33.2451 14.4524 33.9577 14.4524 35.0132H4.30491C4.44284 34.4438 4.50994 32.869 4.50994 32.153C3.36386 32.153 3.54129 31.6147 3.48356 33.0394C3.46594 33.4732 3.39389 33.4496 3.37905 33.9251C3.36811 34.277 3.38235 34.6578 3.38235 35.0132L3.38244 35.0133ZM0 35.6051V35.9996H18.8599C18.8599 34.3998 18.4978 29.625 18.0284 28.5148C17.2078 26.5742 15.2678 26.2913 13.4423 25.6291C13.1552 25.5251 12.9675 25.4282 12.6074 25.3476C12.1426 26.1929 11.6673 26.9695 11.208 27.8474L10.4878 29.127C10.3273 29.4035 10.269 29.4472 10.1151 29.7547C9.82613 30.3326 9.9757 30.2789 9.12249 30.2789C8.77293 30.2789 8.4935 29.4454 8.32233 29.175L6.15003 25.3475L3.06143 26.4193C2.62046 26.5701 2.10727 26.8798 1.7703 27.1496C1.34686 27.4887 1.14973 27.8694 0.886798 28.3707C0.281248 29.5249 0.467531 30.349 0.248262 31.8001L8.68048e-05 35.6051H0Z" fill="#FA8B26"/>
<path fill-rule="evenodd" clip-rule="evenodd" d="M25.5225 35.0133H23.2675C23.2675 33.9831 23.5904 29.7082 23.8514 29.0656C24.2154 28.1696 24.5736 27.7582 25.4907 27.3882C26.1733 27.1129 27.2501 26.8693 27.9825 26.5311C28.1175 27.0889 30.3672 30.6248 30.5449 31.2654H32.6975L33.9605 28.93C34.2311 28.4071 35.1631 26.931 35.26 26.5311C37.023 27.3451 38.6305 27.141 39.3759 29.0803C39.6588 29.8164 39.975 34.1121 39.975 35.0133H37.72C37.72 34.5091 37.6179 34.1771 37.6203 33.5312C37.6227 32.9116 37.5149 32.7113 37.5149 32.0544C37.0633 32.0641 37.0357 32.153 36.4899 32.153L36.6949 35.0133H26.5474L26.7524 32.153C26.2067 32.153 26.1791 32.0641 25.7274 32.0544L25.5225 35.0133ZM22.2425 35.9996H41C41 34.0769 40.8267 29.595 40.0818 28.2036C39.265 26.6779 37.9098 26.4069 36.3719 25.8556C35.8607 25.6723 35.379 25.4662 34.8499 25.3475C34.4102 26.1472 33.988 27.0192 33.4976 27.7942L32.0824 30.2789H31.16L29.1428 26.598C28.8952 26.1717 28.6163 25.8485 28.495 25.3475L25.3158 26.4308C24.2372 26.8348 23.5835 27.4295 23.094 28.4354C22.5385 29.5773 22.7201 30.5932 22.5065 32.0124L22.2425 35.9995V35.9996Z" fill="#FA8B26"/>
<path fill-rule="evenodd" clip-rule="evenodd" d="M6.15008 21.1054C6.15008 19.9388 6.17074 19.3855 7.19868 18.4651C10.116 15.8529 14.403 20.131 11.6104 22.8088C9.14519 25.1728 6.15008 22.9505 6.15008 21.1055V21.1054ZM5.12509 20.3163V21.1054C5.12509 22.9249 7.02672 24.7546 8.91759 24.7546H9.63503C12.8175 24.7546 14.8688 20.4836 12.379 18.0703C11.163 16.8916 10.5922 16.7656 8.9175 16.7656C7.01205 16.7656 5.125 18.7473 5.125 20.3162L5.12509 20.3163Z" fill="#FA8B26"/>
<path fill-rule="evenodd" clip-rule="evenodd" d="M28.2906 20.8094C28.2906 19.0735 29.714 17.7675 31.3863 17.6823C33.1036 17.5946 34.6455 18.9006 34.6455 20.908C34.6455 23.5842 31.0962 24.7262 29.2469 22.9467C28.8238 22.5395 28.2905 21.5793 28.2905 20.8094H28.2906ZM27.2656 20.6122C27.2656 22.6962 29.0424 24.7546 31.1606 24.7546C32.4558 24.7546 33.5185 24.5765 34.5209 23.5496C37.1259 20.8814 34.9189 16.7656 31.8781 16.7656C30.3085 16.7656 29.6784 16.8623 28.5201 17.9727C27.8554 18.61 27.2656 19.7169 27.2656 20.6122Z" fill="#FA8B26"/>
<path fill-rule="evenodd" clip-rule="evenodd" d="M23.4741 4.63791C23.4741 3.77465 24.6016 3.62706 24.6016 4.73655C24.6016 5.29903 23.4741 5.24858 23.4741 4.63791ZM22.4492 4.53926C22.4492 6.49364 25.6267 6.85615 25.6267 4.34197C25.6267 2.70425 22.4492 2.39862 22.4492 4.53926Z" fill="#FA8B26"/>
<path fill-rule="evenodd" clip-rule="evenodd" d="M20.0899 4.43824C20.0899 5.6909 18.4384 5.01341 19.0384 4.2234C19.3814 3.77177 20.0899 3.98218 20.0899 4.43824ZM17.9373 4.33959C17.9373 6.88893 21.1149 6.46395 21.1149 4.53688C21.1149 2.45245 17.9373 2.64097 17.9373 4.33959Z" fill="#FA8B26"/>
<path fill-rule="evenodd" clip-rule="evenodd" d="M27.9825 4.53701C27.9825 3.63984 29.2124 4.03968 29.2124 4.43836C29.2124 4.83679 28.9893 5.1288 28.5975 5.1288C28.266 5.1288 27.9825 4.85592 27.9825 4.53701ZM26.9576 4.53701C26.9576 5.30596 27.6923 6.11509 28.4951 6.11509C31.1844 6.11509 30.3661 2.33464 28.0302 3.09875C27.4813 3.27833 26.9577 3.88959 26.9577 4.53701H26.9576Z" fill="#FA8B26"/>
<path fill-rule="evenodd" clip-rule="evenodd" d="M32.286 9.17264L32.3903 1.08483C32.3916 0.757405 32.4694 0.278542 32.29 6.10352e-05L32.286 9.17264Z" fill="#808080"/>
<path fill-rule="evenodd" clip-rule="evenodd" d="M12.5898 2.86266C12.5018 2.86266 12.2626 2.84996 12.1944 2.85831C11.7039 2.91887 12.0607 2.8574 11.8906 2.96206C12.2327 2.96206 12.3812 3.02428 12.5898 2.86266Z" fill="#808080"/>
</svg>
