<svg width="39" height="34" viewBox="0 0 39 34" fill="none" xmlns="http://www.w3.org/2000/svg">
<g clip-path="url(#clip0_0:6692)">
<path fill-rule="evenodd" clip-rule="evenodd" d="M18.1644 19.9757C19.5293 20.2984 19.8221 20.2984 21.1872 19.9757V27.2069H18.1644V19.9757ZM1.97112 11.2104H9.74379C10.6967 15.3617 12.7752 18.7376 17.0846 19.7565V27.2069H1.97097V11.2103L1.97112 11.2104ZM25.2893 21.5096C25.2893 20.8341 27.0296 19.9066 27.6644 19.7565C28.3084 20.1942 34.8363 30.4153 35.0052 31.1514C34.6936 31.6237 34.365 31.8249 33.8524 32.1729C33.2228 32.6005 33.195 32.6854 32.1983 32.6854C31.8371 31.3123 25.2893 22.3802 25.2893 21.5096ZM27.2325 27.2071H22.2666V19.7567C22.7749 19.6366 22.9044 19.5525 23.5621 19.5375C23.7635 20.303 23.8181 19.9601 23.9761 20.409C24.4561 21.7732 23.0301 20.1772 25.0046 23.5519C25.5526 24.4886 27.0135 26.3743 27.2327 27.2071H27.2325ZM24.4258 18.8801C24.9389 18.6045 25.1619 18.3743 25.7213 18.2227L26.1844 18.8536C25.7338 19.5155 25.7066 19.5558 24.8576 19.7565C24.687 19.1083 24.7697 19.4014 24.4258 18.88V18.8801ZM26.5848 17.3462C26.9516 16.7901 27.2769 16.5894 27.6702 16.0374C28.0018 15.5716 28.2591 15.0467 28.5308 14.5004C28.8392 13.8799 29.0388 13.6141 29.2225 12.7918C29.6472 10.8899 28.5357 11.2104 33.9258 11.2104V16.6887C33.9258 17.6172 35.2213 17.6172 35.2213 16.6887V11.2104H37.3803V27.2071C33.268 27.2071 34.6834 28.023 30.7737 22.0793C29.1955 19.6802 29.4101 19.1775 27.7944 18.529C26.7952 18.1278 27.1597 18.2175 26.5848 17.3463V17.3462ZM19.6756 1.13036C24.2014 1.13036 28.312 5.28305 28.312 9.01904V10.7722C28.312 17.3963 19.8287 21.2715 14.5806 17.2581L13.8754 16.6589C13.8424 16.6286 13.794 16.5862 13.7615 16.5556L13.5415 16.3406C11.8038 14.5669 10.9409 12.5487 10.97 9.92606C11.0276 4.73909 15.2966 1.13036 19.6758 1.13036H19.6756ZM27.2325 3.32175C30.2586 3.32175 28.8037 3.53042 32.1986 6.1704L36.3009 9.8956H29.6076C29.6076 8.52348 29.2904 7.31195 28.8734 6.25815L27.3592 3.6315C27.3335 3.5804 27.2661 3.38633 27.2327 3.32175H27.2325ZM9.74395 9.8956H3.0507C3.26896 9.56491 4.64951 8.3602 5.0851 8.01618C5.63325 7.58329 5.64717 7.55568 6.12778 7.10217C6.59682 6.65961 6.74504 6.63597 7.2033 6.22165C9.90561 3.77844 9.85433 3.32175 12.1189 3.32175C11.5518 4.40935 11.4156 4.20608 10.5288 6.09058C10.0418 7.1255 9.74379 8.44192 9.74379 9.8956H9.74395ZM0.675781 10.553V28.5218H27.8803C29.122 28.5218 30.6939 34.0001 32.6303 34.0001C33.4603 34.0001 36.3007 32.3987 36.3007 31.1513C36.3007 30.2787 35.3958 29.2706 35.0052 28.5218C36.9259 28.5218 38.6756 28.9101 38.6756 27.8643V10.7722C38.6756 10.1533 35.7036 7.59044 35.13 7.13946C34.6256 6.74292 34.6437 6.76783 34.1956 6.33463C33.7155 5.87049 33.601 5.85367 33.1259 5.44824C32.0074 4.49345 30.124 2.34443 28.9622 2.22352C25.6539 1.8795 27.6001 3.05691 24.4963 1.27778C24.0659 1.03103 23.659 0.819188 23.2002 0.621154C21.2242 -0.231599 17.957 -0.20383 16.0038 0.690657C15.6295 0.862191 15.2821 1.04817 14.8506 1.27318C11.3856 3.07929 13.9089 1.83935 10.3851 2.21939C9.15843 2.35173 6.46346 5.26401 5.3942 6.13834C4.97925 6.4776 4.79288 6.7399 4.37794 7.07916L1.584 9.50254C1.07588 9.94987 0.675938 9.92591 0.675938 10.553H0.675781Z" fill="#FA8B26"/>
<path fill-rule="evenodd" clip-rule="evenodd" d="M19.4599 3.08874C22.98 3.08874 26.1532 5.85709 26.1532 9.44345V10.5391C26.1532 14.8245 19.7223 19.2342 14.8674 14.3238C12.3371 11.7646 12.692 7.5618 14.9718 5.10732C15.8161 4.1984 17.832 3.08874 19.4601 3.08874H19.4599ZM11.903 9.44345C11.903 20.5415 27.4485 20.2566 27.4485 9.66259C27.4485 7.53911 26.4263 5.70809 25.4204 4.48974C21.2497 -0.562041 11.903 2.40022 11.903 9.44345Z" fill="#FA8B26"/>
<path fill-rule="evenodd" clip-rule="evenodd" d="M2.83594 22.6037H4.13143V13.6193H7.80185V12.5236H2.83594V22.6037Z" fill="#FA8B26"/>
<path fill-rule="evenodd" clip-rule="evenodd" d="M17.5174 11.8668L16.0565 10.2817L15.1758 11.0275L17.466 13.4529C18.2877 13.1946 23.7808 7.63965 23.9949 6.82657L23.5318 6.1955C22.4406 6.46462 18.7518 11.0278 17.5176 11.8666L17.5174 11.8668Z" fill="#FA8B26"/>
<path fill-rule="evenodd" clip-rule="evenodd" d="M33.926 22.6053C33.926 23.1102 34.0762 23.2627 34.5737 23.2627C35.0712 23.2627 35.2215 23.1102 35.2215 22.6053V18.2227H33.926V22.6053Z" fill="#FA8B26"/>
<path fill-rule="evenodd" clip-rule="evenodd" d="M2.83594 26.3293H4.13143V23.4807H2.83594V26.3293Z" fill="#FA8B26"/>
</g>
<defs>
<clipPath id="clip0_0:6692">
<rect width="38" height="34" fill="white" transform="translate(0.675781)"/>
</clipPath>
</defs>
</svg>
