<svg width="15" height="10" viewBox="0 0 15 10" fill="none" xmlns="http://www.w3.org/2000/svg">
<path d="M14.4862 4.42915L14.4855 4.42839L10.2416 0.234836C9.92362 -0.0793172 9.40937 -0.0781481 9.0929 0.237578C8.77647 0.553264 8.77769 1.06387 9.09562 1.37806L11.945 4.19355H1.24189C0.79331 4.19355 0.429688 4.5546 0.429688 5C0.429688 5.4454 0.79331 5.80645 1.24189 5.80645H11.9449L9.09566 8.62194C8.77773 8.93613 8.77651 9.44674 9.09294 9.76242C9.40941 10.0782 9.9237 10.0793 10.2416 9.76516L14.4855 5.57161L14.4862 5.57085C14.8043 5.25561 14.8033 4.74335 14.4862 4.42915Z" fill="#212126"/>
</svg>
