<svg width="116" height="87" viewBox="0 0 116 87" fill="none" xmlns="http://www.w3.org/2000/svg">
<circle opacity="0.12" cx="43.5469" cy="43.998" r="43" fill="#07C28E"/>
<path d="M45.9515 50.153H42.8769L41.0321 47.3835L39.2898 45.0242H38.1112V48.6143C38.1112 48.8195 38.1624 48.9734 38.2137 49.1272C38.2649 49.2811 38.4186 49.3837 38.5724 49.4349C38.6749 49.4862 38.8286 49.4862 39.0848 49.5375L39.6998 49.5888V50.153H34.8828V49.5888L35.4465 49.5375C35.7027 49.4862 35.8564 49.4862 35.9589 49.4349C36.1127 49.3837 36.2152 49.2811 36.3176 49.1272C36.3689 48.9734 36.4201 48.8195 36.4201 48.6143V40.4084C36.4201 40.2545 36.4201 40.0494 36.3176 39.8955C36.2664 39.7417 36.1639 39.6391 35.9589 39.5878C35.8052 39.5365 35.6002 39.4852 35.4465 39.4339C35.2928 39.3826 35.0878 39.3826 34.8828 39.3314V38.8185H40.1097C40.5709 38.8185 41.0321 38.8698 41.442 38.9723C41.852 39.0749 42.2107 39.2288 42.5694 39.4339C42.8769 39.6391 43.1843 39.9468 43.3381 40.2545C43.5431 40.6135 43.6455 41.0238 43.6455 41.4854C43.6455 41.947 43.5943 42.306 43.4406 42.665C43.2868 42.9728 43.1331 43.2805 42.8256 43.5369C42.5694 43.7421 42.3132 43.9472 41.9545 44.1524C41.5958 44.3062 41.2371 44.4601 40.8271 44.5627L42.2107 46.4603L43.5943 48.3066C43.8505 48.6143 44.0555 48.8708 44.2092 49.0246C44.4142 49.1785 44.5679 49.2811 44.7729 49.3837C44.9266 49.4349 45.0804 49.4862 45.2854 49.5375C45.4903 49.5888 45.6441 49.5888 45.7978 49.5888L45.9515 50.153ZM41.7495 41.6906C41.7495 41.0238 41.5445 40.4597 41.1346 40.0494C40.7246 39.6391 40.1609 39.4339 39.4435 39.4339H38.1112V44.3062H39.1361C39.8535 44.3062 40.4684 44.0498 40.9809 43.5882C41.5445 43.1266 41.7495 42.5112 41.7495 41.6906ZM54.663 49.9991L52.1008 50.153L51.9983 50.0504V49.0246H51.9471L51.5371 49.4349C51.3834 49.5888 51.1784 49.7427 50.9734 49.8452C50.7172 49.9991 50.5122 50.1017 50.256 50.153C49.9998 50.2042 49.6923 50.2555 49.2824 50.2555C48.565 50.2555 48.0525 50.0504 47.6938 49.5888C47.3351 49.1272 47.1301 48.4605 47.1301 47.5886V43.7933C47.1301 43.5882 47.0789 43.4343 47.0276 43.3318C46.9764 43.1779 46.8739 43.0753 46.7202 42.9728C46.6177 42.9215 46.464 42.8702 46.3615 42.8189C46.2077 42.7676 46.054 42.7676 45.9003 42.7676V42.2547L48.5137 42.0496L48.6162 42.1522V47.6399C48.6162 48.204 48.7699 48.6656 49.0262 48.9221C49.2824 49.1785 49.5899 49.3324 49.9486 49.3324C50.256 49.3324 50.5122 49.2811 50.7172 49.1785C50.9222 49.0759 51.1272 48.9734 51.2809 48.8708C51.4346 48.7682 51.5371 48.6656 51.6396 48.5118C51.7421 48.4092 51.8446 48.3066 51.8958 48.1528V43.6908C51.8958 43.5369 51.8446 43.383 51.7933 43.2292C51.7421 43.0753 51.5884 42.9728 51.4859 42.8702C51.3834 42.8189 51.2297 42.7676 51.0759 42.7676L50.461 42.7163V42.2034L53.3307 41.9983L53.4332 42.1009V48.3579C53.4332 48.5631 53.4844 48.7169 53.5356 48.8195C53.6381 48.9734 53.7406 49.0759 53.8431 49.1272C53.9456 49.1785 54.0481 49.2298 54.2018 49.2298L54.663 49.2811V49.9991ZM63.682 46.2038C63.682 47.3835 63.3233 48.4092 62.5546 49.1785C61.7859 49.9478 60.9148 50.4094 59.9412 50.4094C59.5312 50.4094 59.07 50.3581 58.66 50.2042C58.2501 50.0504 57.8401 49.8965 57.4814 49.6914L56.8665 50.6145L56.3541 50.512L56.4053 49.0759V47.486V39.6391C56.4053 39.4339 56.3541 39.2801 56.2516 39.0749C56.1491 38.8698 56.0466 38.7672 55.9441 38.6646C55.8416 38.6133 55.6879 38.5621 55.4317 38.5108L54.868 38.4595V37.9466L57.7889 37.7415L57.8914 37.844V43.0753H57.9426C58.2501 42.7163 58.6088 42.4599 59.0188 42.306C59.4287 42.1522 59.7874 42.0496 60.1974 42.0496C61.171 42.0496 61.9909 42.4599 62.6571 43.2292C63.3233 43.9985 63.6307 44.973 63.682 46.2038ZM61.9909 46.2551C61.9909 45.8448 61.9397 45.4345 61.8372 45.0242C61.7347 44.6139 61.6322 44.2549 61.4272 43.9472C61.2735 43.6395 61.0173 43.383 60.7098 43.1779C60.4023 42.9728 60.0436 42.8702 59.6337 42.8702C59.275 42.8702 58.9163 42.9215 58.66 43.0753C58.4038 43.2292 58.1476 43.4343 57.8914 43.6908V48.3066C57.9426 48.4605 57.9939 48.6143 58.0964 48.7682C58.1989 48.9221 58.3013 49.0759 58.5063 49.2811C58.66 49.4349 58.865 49.5375 59.07 49.6401C59.275 49.7427 59.5312 49.7939 59.8387 49.7939C60.5048 49.7939 61.0173 49.4862 61.4272 48.8708C61.8372 48.2553 61.9909 47.3322 61.9909 46.2551ZM64.2456 52.7173C64.2456 52.4609 64.2969 52.2557 64.4506 52.0506C64.6044 51.8967 64.8093 51.7942 65.0143 51.7942C65.168 51.7942 65.3218 51.8454 65.4755 51.8967C65.6292 51.948 65.7317 52.0506 65.783 52.1532C65.8855 52.2557 65.9367 52.3583 66.0392 52.4609L66.2442 52.8199C66.5004 52.666 66.8079 52.307 67.2178 51.6916C67.5765 51.0761 67.884 50.5633 68.0377 50.1017L66.6541 46.7167L65.373 43.6395C65.2705 43.383 65.1168 43.1779 64.8606 43.0753C64.6044 42.9215 64.3994 42.8702 64.1432 42.8189V42.306H67.7302V42.8702C67.5765 42.8702 67.3715 42.9215 67.1666 42.9728C66.9616 43.024 66.8078 43.1266 66.8078 43.2292L66.8591 43.3318L66.9616 43.5882L68.8576 48.2553L69.6263 46.4603L70.4974 44.3062L70.6512 43.8959C70.7024 43.6908 70.7536 43.5369 70.7536 43.4343C70.7536 43.2805 70.6512 43.1779 70.3949 43.024C70.1387 42.9215 69.9337 42.8189 69.7288 42.8189V42.306H72.6497V42.8189C72.4959 42.8702 72.291 42.9215 72.0347 43.0753C71.7785 43.2292 71.5735 43.4343 71.4711 43.7421L69.78 47.7937L68.6526 50.4607C68.2939 51.23 68.0377 51.7942 67.7302 52.2044C67.474 52.6147 67.2178 52.9738 66.9616 53.1789C66.7054 53.3841 66.5004 53.5379 66.2954 53.6405C66.0904 53.7431 65.8855 53.7431 65.6805 53.7431C65.2705 53.7431 64.9118 53.6405 64.7068 53.4353C64.3481 53.2302 64.2456 53.025 64.2456 52.7173Z" fill="black"/>
<path d="M28.6808 46.3579L18.1758 52.6149L31.7555 51.6917L32.7803 37.9468L28.6808 46.3579Z" fill="url(#paint0_linear)"/>
<path d="M31.8089 51.6925L30.6303 43.6404L27.4531 47.8459L31.8089 51.6925Z" fill="url(#paint1_linear)"/>
<path d="M31.8101 51.6914L23.2524 51.0247L18.2305 52.6146L31.8101 51.6914Z" fill="url(#paint2_linear)"/>
<path d="M18.2302 52.615L20.3824 45.5886L15.668 46.6144L18.2302 52.615Z" fill="url(#paint3_linear)"/>
<path d="M27.4513 47.8457L25.504 40.1526L19.8672 45.4352L27.4513 47.8457Z" fill="url(#paint4_linear)"/>
<path d="M32.3701 40.2029L27.0408 35.8948L25.5547 40.6645L32.3701 40.2029Z" fill="url(#paint5_linear)"/>
<path d="M29.9139 34.3047L26.7368 36.0485L24.7383 34.3047H29.9139Z" fill="url(#paint6_linear)"/>
<path d="M14.4375 48.9215L15.7698 46.511L14.6937 43.6902L14.4375 48.9215Z" fill="url(#paint7_linear)"/>
<path d="M14.6406 43.5889L15.7167 46.6149L20.38 45.5891L25.6069 40.6655L27.0929 35.8958L24.7357 34.2546L20.7387 35.742L16.9466 39.2808C16.8954 39.3321 15.358 42.2042 14.6406 43.5889Z" fill="white"/>
<path d="M18.3856 38.1523C21.1015 35.4341 24.6373 33.8442 25.9697 35.229C27.302 36.6137 25.8672 39.8961 23.1513 42.6143C20.4353 45.3325 16.9507 47.025 15.6184 45.6403C14.286 44.2555 15.6184 40.8705 18.3856 38.1523Z" fill="url(#paint8_linear)"/>
<path d="M18.2305 52.615L20.3315 45.5886L27.4032 47.8453C24.841 50.2045 22.0225 52.256 18.2305 52.615Z" fill="url(#paint9_linear)"/>
<path d="M25.6133 40.6652L27.4068 47.8454C29.5591 45.5888 31.4551 43.1783 32.3775 40.2036L25.6133 40.6652Z" fill="url(#paint10_linear)"/>
<path d="M32.3684 40.254C33.1371 38.0487 33.2908 34.9201 29.8575 34.3047L27.0391 35.8433C27.0391 35.8946 32.3684 40.254 32.3684 40.254Z" fill="url(#paint11_linear)"/>
<path d="M14.4375 48.9212C14.54 52.5113 17.1534 52.5626 18.2296 52.6139L15.6674 46.6133L14.4375 48.9212Z" fill="#9E1209"/>
<path d="M25.6602 40.6647L30.6821 43.7419C30.7846 43.7932 32.1169 41.5366 32.4244 40.2544L25.6602 40.6647Z" fill="url(#paint12_radial)"/>
<path d="M20.3789 45.5378L23.1973 51.0256C24.8884 50.1024 26.1695 49.0254 27.3993 47.7945C27.3993 47.8458 20.3789 45.5378 20.3789 45.5378Z" fill="url(#paint13_radial)"/>
<path d="M15.6639 46.6138L15.2539 51.4348C16.0226 52.4605 17.0474 52.5631 18.1748 52.4605C17.3549 50.5116 15.8176 46.5625 15.6639 46.6138Z" fill="url(#paint14_linear)"/>
<path d="M27.0391 35.8946L32.6759 36.6639C32.3684 35.3817 31.446 34.5611 29.8575 34.3047L27.0391 35.8946Z" fill="url(#paint15_linear)"/>
<defs>
<linearGradient id="paint0_linear" x1="30.5923" y1="54.2789" x2="26.7113" y2="47.423" gradientUnits="userSpaceOnUse">
<stop stop-color="#FB7655"/>
<stop offset="0.41" stop-color="#E42B1E"/>
<stop offset="0.99" stop-color="#990000"/>
</linearGradient>
<linearGradient id="paint1_linear" x1="32.5296" y1="48.5203" x2="27.0794" y2="47.4563" gradientUnits="userSpaceOnUse">
<stop stop-color="#871101"/>
<stop offset="0.99" stop-color="#911209"/>
</linearGradient>
<linearGradient id="paint2_linear" x1="28.5268" y1="54.4861" x2="28.4565" y2="51.0263" gradientUnits="userSpaceOnUse">
<stop stop-color="#871101"/>
<stop offset="0.99" stop-color="#911209"/>
</linearGradient>
<linearGradient id="paint3_linear" x1="18.0297" y1="46.0889" x2="19.6518" y2="50.8414" gradientUnits="userSpaceOnUse">
<stop stop-color="white"/>
<stop offset="0.23" stop-color="#E57252"/>
<stop offset="0.46" stop-color="#DE3B20"/>
<stop offset="0.99" stop-color="#A60003"/>
</linearGradient>
<linearGradient id="paint4_linear" x1="23.3581" y1="41.3812" x2="23.6525" y2="46.5276" gradientUnits="userSpaceOnUse">
<stop stop-color="white"/>
<stop offset="0.23" stop-color="#E4714E"/>
<stop offset="0.56" stop-color="#BE1A0D"/>
<stop offset="0.99" stop-color="#A80D00"/>
</linearGradient>
<linearGradient id="paint5_linear" x1="28.089" y1="36.6249" x2="28.5194" y2="40.3615" gradientUnits="userSpaceOnUse">
<stop stop-color="white"/>
<stop offset="0.18" stop-color="#E46342"/>
<stop offset="0.4" stop-color="#C82410"/>
<stop offset="0.99" stop-color="#A80D00"/>
</linearGradient>
<linearGradient id="paint6_linear" x1="25.4815" y1="35.3252" x2="26.0878" y2="32.7558" gradientUnits="userSpaceOnUse">
<stop stop-color="white"/>
<stop offset="0.54" stop-color="#C81F11"/>
<stop offset="0.99" stop-color="#BF0905"/>
</linearGradient>
<linearGradient id="paint7_linear" x1="14.7997" y1="44.8029" x2="16.384" y2="45.7948" gradientUnits="userSpaceOnUse">
<stop stop-color="white"/>
<stop offset="0.31" stop-color="#DE4024"/>
<stop offset="0.99" stop-color="#BF190B"/>
</linearGradient>
<linearGradient id="paint8_linear" x1="12.7204" y1="48.6566" x2="26.9675" y2="33.9795" gradientUnits="userSpaceOnUse">
<stop stop-color="#BD0012"/>
<stop offset="0.07" stop-color="white"/>
<stop offset="0.17" stop-color="white"/>
<stop offset="0.27" stop-color="#C82F1C"/>
<stop offset="0.33" stop-color="#820C01"/>
<stop offset="0.46" stop-color="#A31601"/>
<stop offset="0.72" stop-color="#B31301"/>
<stop offset="0.99" stop-color="#E82609"/>
</linearGradient>
<linearGradient id="paint9_linear" x1="23.6341" y1="50.1425" x2="19.6047" y2="48.4524" gradientUnits="userSpaceOnUse">
<stop stop-color="#8C0C01"/>
<stop offset="0.54" stop-color="#990C00"/>
<stop offset="0.99" stop-color="#A80D0E"/>
</linearGradient>
<linearGradient id="paint10_linear" x1="31.013" y1="44.9853" x2="26.8617" y2="42.0389" gradientUnits="userSpaceOnUse">
<stop stop-color="#7E110B"/>
<stop offset="0.99" stop-color="#9E0C00"/>
</linearGradient>
<linearGradient id="paint11_linear" x1="32.399" y1="38.708" x2="30.4461" y2="36.7265" gradientUnits="userSpaceOnUse">
<stop stop-color="#79130D"/>
<stop offset="0.99" stop-color="#9E120B"/>
</linearGradient>
<radialGradient id="paint12_radial" cx="0" cy="0" r="1" gradientUnits="userSpaceOnUse" gradientTransform="translate(27.788 41.6318) scale(6.11347 3.19657)">
<stop stop-color="#A80D00"/>
<stop offset="0.99" stop-color="#7E0E08"/>
</radialGradient>
<radialGradient id="paint13_radial" cx="0" cy="0" r="1" gradientUnits="userSpaceOnUse" gradientTransform="translate(21.3433 47.8029) scale(6.95987 5.4227)">
<stop stop-color="#A30C00"/>
<stop offset="0.99" stop-color="#800E08"/>
</radialGradient>
<linearGradient id="paint14_linear" x1="16.9094" y1="52.5868" x2="13.4091" y2="49.6836" gradientUnits="userSpaceOnUse">
<stop stop-color="#8B2114"/>
<stop offset="0.43" stop-color="#9E100A"/>
<stop offset="0.99" stop-color="#B3100C"/>
</linearGradient>
<linearGradient id="paint15_linear" x1="28.7878" y1="35.1633" x2="29.7827" y2="37.6769" gradientUnits="userSpaceOnUse">
<stop stop-color="#B31000"/>
<stop offset="0.44" stop-color="#910F08"/>
<stop offset="0.99" stop-color="#791C12"/>
</linearGradient>
</defs>
</svg>
