<svg width="58" height="58" viewBox="0 0 58 58" fill="none" xmlns="http://www.w3.org/2000/svg">
<circle opacity="0.15" cx="29" cy="29" r="29" fill="white"/>
<path d="M28.826 37.832C28.666 37.832 28.506 37.7708 28.3835 37.6495L20.3494 29.6154C20.1144 29.3804 20.1044 29.0042 20.3244 28.7567L26.3459 22.0114C30.5548 17.0875 37.4088 13.9011 43.3853 14.0023C43.719 14.0098 43.9878 14.2786 43.9953 14.6124C44.1341 20.5926 40.9114 27.4429 35.975 31.6605L29.241 37.6732C29.1235 37.7795 28.9735 37.832 28.826 37.832ZM21.6507 29.1492L28.8497 36.3482L35.1537 30.7205C39.6614 26.8678 42.6553 20.7276 42.7478 15.2511C37.2713 15.3424 31.1323 18.3363 27.2872 22.8339L21.6507 29.1492Z" fill="white"/>
<path d="M28 21L21 29L29 36.5L38.5 28L42 21.5L43 15H39.5L34 17L28 21Z" fill="white"/>
<path d="M31.2195 42.4064C31.1595 42.4064 31.0983 42.3976 31.0408 42.3789C30.8158 42.3039 30.6308 42.1314 30.5983 41.8964L29.7407 35.9124C29.692 35.5711 29.9295 35.2549 30.2707 35.2049C30.612 35.1511 30.9283 35.3924 30.9783 35.7349L31.6483 40.4101C33.8384 37.7912 35.0559 34.4711 35.0559 31.086C35.0559 30.7409 35.3359 30.4609 35.6809 30.4609C36.0259 30.4609 36.306 30.7409 36.306 31.086C36.306 35.2274 34.6284 39.2813 31.7033 42.2051C31.5783 42.3301 31.3958 42.4064 31.2195 42.4064Z" fill="white"/>
<path d="M22.1752 28.2629C22.1465 28.2629 22.1165 28.2617 22.0865 28.2567L16.1025 27.3991C15.8675 27.3654 15.6712 27.2016 15.5975 26.9754C15.5237 26.7503 15.5837 26.5016 15.7525 26.3353C18.7188 23.369 22.7715 21.6914 26.9129 21.6914C27.2579 21.6914 27.5379 21.9714 27.5379 22.3164C27.5379 22.6614 27.2579 22.9415 26.9129 22.9415C23.5115 22.9415 20.1739 24.1703 17.5825 26.3478L22.264 27.0191C22.6052 27.0691 22.8427 27.3841 22.794 27.7266C22.7477 28.0379 22.4802 28.2629 22.1752 28.2629Z" fill="white"/>
<path d="M35.4162 25.709C34.6149 25.709 33.8149 25.404 33.2061 24.7952C31.9886 23.5764 31.9886 21.5938 33.2061 20.375C34.4249 19.1562 36.4075 19.1562 37.6263 20.375C38.8438 21.5938 38.8438 23.5764 37.6263 24.7952C37.0163 25.4052 36.2162 25.709 35.4162 25.709ZM35.4162 20.7113C34.9362 20.7113 34.4549 20.8938 34.0899 21.2588C33.3599 21.9901 33.3599 23.1801 34.0899 23.9114C34.8212 24.6414 36.0112 24.6402 36.7425 23.9114C37.4725 23.1801 37.4725 21.9901 36.7425 21.2588C36.3762 20.8951 35.8962 20.7113 35.4162 20.7113ZM37.1838 24.3539H37.1963H37.1838Z" fill="white"/>
<path d="M24.5 28L17 26.5L18 25L22.5 23L26 22.5L24.5 28Z" fill="white"/>
<path d="M31.5 41L30.5 36V34L35 31.5V35L33 39L31.5 41Z" fill="white"/>
<path d="M22 40.5L15 43.5L16.5 38.5L18.5 35H20.5L22 35.5V36L23.5 38L22 40.5Z" fill="white"/>
<path d="M14.6243 43.998C14.4606 43.998 14.3018 43.9343 14.1818 43.8155C14.0193 43.653 13.9593 43.4142 14.0255 43.1942C14.2306 42.5105 16.0669 36.4677 17.4044 35.1302C18.9107 33.6239 21.3621 33.6226 22.8684 35.1302C24.3747 36.6365 24.3747 39.0878 22.8684 40.5941C21.5308 41.9317 15.4881 43.768 14.8043 43.973C14.7443 43.9893 14.6843 43.998 14.6243 43.998ZM20.137 35.2489C19.467 35.2489 18.7982 35.504 18.2882 36.0127C17.5669 36.7353 16.3669 39.9616 15.5744 42.423C18.0344 41.6304 21.2621 40.4304 21.9833 39.7091C23.0021 38.6903 23.0021 37.0315 21.9833 36.0127C21.4746 35.504 20.8058 35.2489 20.137 35.2489Z" fill="white"/>
</svg>
