<svg width="35" height="34" viewBox="0 0 35 34" fill="none" xmlns="http://www.w3.org/2000/svg">
<g clip-path="url(#clip0_0:6743)">
<path fill-rule="evenodd" clip-rule="evenodd" d="M2.0146 30.5488H32.8822C32.4643 31.3383 32.122 32.1453 30.9308 32.1453H3.96604C2.77483 32.1453 2.43251 31.3383 2.0146 30.5488ZM2.36958 12.0994V29.4846C1.22824 29.4846 0.773132 29.3271 0.773132 30.0169C0.773132 31.8298 2.3308 33.3875 4.14373 33.3875H30.7535C33.65 33.3875 35.0351 29.4846 33.5918 29.4846H32.5273V12.0994C32.5273 8.7921 29.2916 9.43836 26.3183 9.43836C25.7722 9.43836 25.7861 9.68412 25.7861 10.1479C25.7861 11.7563 31.2854 9.27293 31.2854 11.9221V29.4846H30.2208V12.2767C30.2208 11.3886 28.7091 11.7444 26.3179 11.7444C25.5664 11.7444 25.5664 12.809 26.3179 12.809H28.979V29.4846H5.91708V12.809C8.02049 12.809 9.10998 13.1097 9.10998 12.2767C9.10998 11.3886 7.59822 11.7444 5.20711 11.7444C4.7983 11.7444 4.67482 11.8679 4.67482 12.2767V29.4846H3.61026V11.9221C3.61026 9.16806 9.10959 11.9652 9.10959 9.97064C9.10959 9.05725 7.358 9.43836 4.85212 9.43836C3.27981 9.43836 2.3684 10.5441 2.3684 12.0994H2.36958Z" fill="#FA8B26"/>
<path fill-rule="evenodd" clip-rule="evenodd" d="M10.5303 12.8069L11.809 11.4237C13.3623 12.4341 12.4549 12.9636 15.2504 11.85C16.5224 11.3434 16.3846 11.0541 16.3846 9.61357H18.5134C18.5134 10.948 18.367 11.324 19.519 11.8013C22.4273 13.0059 21.6457 12.3787 23.1258 11.3877L24.4045 12.7709C23.1595 14.564 22.9141 13.395 23.9308 16.0821C24.4306 17.4035 24.623 17.242 26.3191 17.242V19.3708C25.0444 19.3708 24.5256 19.2295 24.0309 20.4531C22.8536 23.3639 23.1025 22.0935 24.3681 23.9832L22.985 25.2619C21.7886 24.4277 22.3751 23.8415 19.595 24.8867C18.3701 25.347 18.5138 25.9651 18.5138 27.1761H16.385C16.385 26.0372 16.5338 25.3909 15.4341 24.9342C12.587 23.7513 12.9456 24.5582 11.9499 25.2251L10.5667 23.9464C11.7445 22.1185 12.0464 23.4343 10.9158 20.5826C10.3811 19.2342 10.0099 19.3708 8.57968 19.3708V17.7743C8.57968 16.6199 10.006 17.8531 10.7116 16.7129C10.7773 16.6069 11.5953 14.5007 11.5953 14.4037C11.5953 13.7606 10.8529 13.2877 10.5307 12.8073L10.5303 12.8069ZM15.1428 10.6781C14.2876 10.7494 14.3248 11.0288 13.5463 11.2104C12.7062 10.6477 12.1755 9.6294 11.0147 10.6251C9.64939 11.7957 8.34619 13.0598 10.3534 14.4037C10.129 14.828 9.76258 15.6681 9.64385 16.1779H8.0474C7.26698 17.3433 7.33782 16.8898 7.33782 18.8389C7.33782 20.4725 8.00664 20.613 9.64385 20.613C9.90465 21.1564 10.093 21.8438 10.3534 22.3872C7.49177 24.3034 11.5901 26.4673 11.5953 26.4673C13.0239 26.4673 12.6979 26.1488 13.5467 25.5805C14.1487 25.7206 14.4597 25.9533 15.1432 26.1128C15.1432 28.729 15.7273 28.4188 18.3365 28.4188C19.6951 28.4188 19.7556 27.4793 19.7556 26.1128C20.4395 25.9533 20.7506 25.7206 21.3521 25.5805C22.7321 26.5045 22.9683 27.0906 24.503 25.5381C26.5206 23.4972 25.4627 23.58 24.545 22.2099C24.8339 21.6641 24.9926 21.1592 25.2546 20.6134C27.6433 20.6134 27.5606 20.0677 27.5606 17.9524C27.5606 16.853 27.263 16.794 26.851 16.1783H25.2546C25.1359 15.6685 24.7694 14.8284 24.545 14.4041C26.5281 13.0764 25.2835 11.8254 23.8837 10.6255C22.6581 9.57479 22.1519 10.675 21.3517 11.2108C20.5729 11.0296 20.6105 10.7498 19.7552 10.6785C19.7552 7.97359 19.1917 8.3725 16.2074 8.3725C15.0577 8.3725 15.1428 10.1328 15.1428 10.6785V10.6781Z" fill="#FA8B26"/>
<path fill-rule="evenodd" clip-rule="evenodd" d="M13.0138 18.308C13.0138 13.8483 19.4562 12.3121 21.4072 16.4785C23.5874 21.1345 17.6445 24.809 14.294 21.463C13.5243 20.694 13.0142 19.3093 13.0142 18.308H13.0138ZM17.449 23.9847C20.5572 23.9847 22.9875 21.3715 23.0571 18.466C23.1295 15.444 20.7681 12.8087 17.2717 12.8087C14.2359 12.8087 11.7664 15.5002 11.8412 18.466C11.9156 21.4131 14.3047 23.9847 17.449 23.9847Z" fill="#FA8B26"/>
<path fill-rule="evenodd" clip-rule="evenodd" d="M30.7523 2.16315C31.1638 1.3855 31.0562 1.27627 31.9941 1.27627C33.255 1.27627 33.1901 3.65631 31.7092 3.34288C30.9497 3.1822 30.9755 2.66298 30.7523 2.16354V2.16315ZM29.6877 1.63086C28.2931 1.63086 26.9222 1.5434 25.7848 1.80816L25.7694 7.14563C25.754 9.13308 26.849 8.39857 26.849 7.83977V2.87272H29.6873C30.2726 5.38613 34.1225 5.02758 34.1225 2.16315C34.1225 0.501 31.3253 -1.46429 29.6873 1.63086H29.6877Z" fill="#FA8B26"/>
<path fill-rule="evenodd" clip-rule="evenodd" d="M2.01539 2.51772C2.01539 0.175278 5.22254 1.54694 3.75431 3.01478C3.09341 3.67568 2.01539 3.28784 2.01539 2.51772ZM0.773528 2.16273C0.773528 5.02716 4.62298 5.38571 5.20869 2.87231H8.047V7.83936C8.047 8.39776 9.14204 9.13266 9.12661 7.14521L9.11117 1.80774C7.97379 1.54299 6.60291 1.63045 5.20829 1.63045C3.6063 -1.39703 0.773132 0.43766 0.773132 2.16273H0.773528Z" fill="#FA8B26"/>
<path fill-rule="evenodd" clip-rule="evenodd" d="M16.3861 2.16441C16.3861 1.1782 18.9513 0.416385 18.3375 3.05128C17.5619 3.42329 17.3391 3.42329 16.5634 3.05128C16.4708 2.65355 16.3861 2.64366 16.3861 2.16441ZM15.1442 2.16441C15.1442 3.31446 15.9492 4.24486 16.9184 4.47044C16.9184 5.98893 16.6136 7.30875 17.4507 7.30875C18.2892 7.30875 17.9829 5.93194 17.9829 4.47044C20.4678 3.89146 20.3333 0.0352783 17.2734 0.0352783C16.0837 0.0352783 15.1446 1.26368 15.1446 2.16401L15.1442 2.16441Z" fill="#FA8B26"/>
</g>
<defs>
<clipPath id="clip0_0:6743">
<rect width="33.3955" height="33.3854" fill="white" transform="translate(0.773438)"/>
</clipPath>
</defs>
</svg>
