<svg width="28" height="36" viewBox="0 0 28 36" fill="none" xmlns="http://www.w3.org/2000/svg">
<path d="M24.7829 0.0286865H5.30931C4.71358 0.0293605 4.14245 0.266309 3.72121 0.687549C3.29997 1.10879 3.06302 1.67992 3.06235 2.27564V4.8222H2.46316C2.37014 4.8222 2.2784 4.84385 2.1952 4.88545C2.112 4.92705 2.03962 4.98745 1.98381 5.06187L0.186244 7.45862H0.186769C0.108554 7.56215 0.066291 7.68839 0.0664065 7.81814V10.2149C0.0672986 11.0092 0.383228 11.7707 0.944883 12.3324C1.50654 12.894 2.26805 13.2099 3.06235 13.2108V33.733C3.06302 34.3288 3.29997 34.8999 3.72121 35.3211C4.14245 35.7424 4.71358 35.9793 5.30931 35.98H24.7829C25.3787 35.9793 25.9498 35.7424 26.371 35.3211C26.7923 34.8999 27.0292 34.3288 27.0299 33.733V2.27564C27.0292 1.67992 26.7923 1.10879 26.371 0.687549C25.9498 0.266309 25.3787 0.0293605 24.7829 0.0286865ZM2.76276 6.02057H6.05829L5.15951 7.21895H1.86397L2.76276 6.02057ZM10.8518 6.02057L9.95302 7.21895H6.65748L7.55626 6.02057H10.8518ZM6.05829 8.41733H9.65342V10.2149C9.65342 10.6916 9.46404 11.1489 9.12693 11.486C8.78982 11.8231 8.3326 12.0125 7.85586 12.0125C7.37911 12.0125 6.9219 11.8231 6.58479 11.486C6.24768 11.1489 6.05829 10.6916 6.05829 10.2149V8.41733ZM10.8518 8.41733H14.4469V10.2149C14.4469 10.6916 14.2575 11.1489 13.9204 11.486C13.5833 11.8231 13.1261 12.0125 12.6494 12.0125C12.1726 12.0125 11.7154 11.8231 11.3783 11.486C11.0412 11.1489 10.8518 10.6916 10.8518 10.2149V8.41733ZM15.6453 8.41733H19.2404V10.2149C19.2404 10.6916 19.0511 11.1489 18.7139 11.486C18.3768 11.8231 17.9196 12.0125 17.4429 12.0125C16.9661 12.0125 16.5089 11.8231 16.1718 11.486C15.8347 11.1489 15.6453 10.6916 15.6453 10.2149V8.41733ZM20.4388 8.01789L21.038 7.21895V10.2149H20.4388V8.01789ZM19.54 7.21895H16.2445L17.1433 6.02057H20.4388L19.54 7.21895ZM14.7465 7.21895H11.451L12.3498 6.02057H15.6453L14.7465 7.21895ZM6.65748 12.9599C7.27596 13.2306 7.9678 13.2841 8.62053 13.1117C9.27325 12.9393 9.84846 12.5511 10.2526 12.0104C10.5313 12.383 10.893 12.6856 11.3091 12.8939C11.7251 13.1023 12.184 13.2108 12.6494 13.2108C13.1147 13.2108 13.5736 13.1023 13.9897 12.8939C14.4057 12.6856 14.7674 12.383 15.0461 12.0104C15.36 12.4299 15.7785 12.7598 16.2598 12.9669C16.7411 13.1741 17.2683 13.2513 17.7888 13.1908C18.3092 13.1304 18.8047 12.9344 19.2257 12.6225C19.6468 12.3105 19.9785 11.8936 20.1879 11.4133H21.038V16.2068H19.8396C19.6807 16.2068 19.5283 16.2699 19.4159 16.3823C19.3036 16.4946 19.2404 16.6471 19.2404 16.806C19.2404 16.9649 19.3036 17.1173 19.4159 17.2297C19.5283 17.342 19.6807 17.4052 19.8396 17.4052H21.038V21.0003H19.8396C19.6807 21.0003 19.5283 21.0634 19.4159 21.1758C19.3036 21.2882 19.2404 21.4406 19.2404 21.5995C19.2404 21.7584 19.3036 21.9108 19.4159 22.0232C19.5283 22.1355 19.6807 22.1987 19.8396 22.1987H21.038V28.7897H6.65748V12.9599ZM21.038 4.8222H6.65748V3.62382H21.038V4.8222ZM1.26478 10.2149V8.41733H4.85991V10.2149C4.85991 10.6916 4.67053 11.1489 4.33342 11.486C3.99631 11.8231 3.53909 12.0125 3.06235 12.0125C2.58561 12.0125 2.12839 11.8231 1.79128 11.486C1.45417 11.1489 1.26478 10.6916 1.26478 10.2149ZM5.30931 34.7816C5.0313 34.7813 4.76476 34.6708 4.56818 34.4742C4.37159 34.2776 4.26102 34.0111 4.26073 33.733V12.9599C4.73519 12.7517 5.14794 12.4247 5.4591 12.0104V28.7897C5.45948 29.1075 5.58586 29.412 5.81052 29.6367C6.03517 29.8614 6.33977 29.9877 6.65748 29.9881H21.038C21.3557 29.9877 21.6603 29.8614 21.885 29.6367C22.1096 29.412 22.236 29.1075 22.2364 28.7897V3.62382C22.236 3.3061 22.1096 3.00151 21.885 2.77685C21.6603 2.5522 21.3557 2.42582 21.038 2.42544H6.65748C6.33977 2.42582 6.03517 2.5522 5.81052 2.77685C5.58586 3.00151 5.45948 3.3061 5.4591 3.62382V4.8222H4.26073V2.27564C4.26102 1.99763 4.37159 1.7311 4.56818 1.53451C4.76476 1.33793 5.0313 1.22736 5.30931 1.22706H22.3862C22.6642 1.22736 22.9307 1.33793 23.1273 1.53451C23.3239 1.7311 23.4345 1.99763 23.4348 2.27564V33.733C23.4345 34.0111 23.3239 34.2776 23.1273 34.4742C22.9307 34.6708 22.6642 34.7813 22.3862 34.7816H5.30931ZM25.8315 33.733C25.8312 34.0111 25.7206 34.2776 25.5241 34.4742C25.3275 34.6708 25.0609 34.7813 24.7829 34.7816H24.3726C24.544 34.4587 24.6334 34.0986 24.6331 33.733V2.27564C24.6334 1.91005 24.544 1.54998 24.3726 1.22706H24.7829C25.0609 1.22736 25.3275 1.33793 25.5241 1.53451C25.7206 1.7311 25.8312 1.99763 25.8315 2.27564V33.733Z" fill="#07C28E"/>
<path d="M13.8523 30.5875C13.4967 30.5875 13.1492 30.693 12.8536 30.8905C12.558 31.088 12.3276 31.3687 12.1915 31.6972C12.0555 32.0257 12.0199 32.3871 12.0892 32.7358C12.1586 33.0845 12.3298 33.4048 12.5812 33.6562C12.8326 33.9076 13.1529 34.0788 13.5016 34.1481C13.8503 34.2175 14.2117 34.1819 14.5402 34.0458C14.8686 33.9098 15.1494 33.6794 15.3469 33.3838C15.5444 33.0882 15.6498 32.7406 15.6498 32.3851C15.6493 31.9085 15.4597 31.4516 15.1227 31.1146C14.7857 30.7776 14.3288 30.5881 13.8523 30.5875ZM13.8523 32.9843C13.7337 32.9843 13.6179 32.9491 13.5194 32.8833C13.4208 32.8175 13.344 32.7239 13.2987 32.6144C13.2533 32.5049 13.2415 32.3844 13.2646 32.2682C13.2877 32.152 13.3448 32.0452 13.4286 31.9614C13.5124 31.8776 13.6191 31.8205 13.7354 31.7974C13.8516 31.7743 13.9721 31.7862 14.0816 31.8315C14.191 31.8769 14.2846 31.9537 14.3505 32.0522C14.4163 32.1507 14.4514 32.2666 14.4514 32.3851C14.4513 32.5439 14.3881 32.6963 14.2758 32.8086C14.1634 32.9209 14.0111 32.9841 13.8523 32.9843Z" fill="#07C28E"/>
<path d="M19.3846 17.5932C19.5435 17.5932 19.6959 17.53 19.8083 17.4177C19.9206 17.3053 19.9838 17.1529 19.9838 16.994C19.9838 16.8351 19.9206 16.6827 19.8083 16.5703C19.6959 16.4579 19.5435 16.3948 19.3846 16.3948H18.7854V12.5708L19.6526 12.1372C19.7236 12.1024 19.787 12.0538 19.8391 11.9944C19.8913 11.935 19.9312 11.8658 19.9565 11.7909C19.9818 11.7159 19.992 11.6367 19.9865 11.5578C19.9811 11.479 19.96 11.4019 19.9247 11.3312C19.8893 11.2605 19.8403 11.1974 19.7804 11.1457C19.7206 11.094 19.6511 11.0547 19.576 11.03C19.5009 11.0053 19.4216 10.9957 19.3428 11.0018C19.2639 11.0078 19.187 11.0295 19.1166 11.0654L17.9182 11.6646C17.8187 11.7143 17.735 11.7908 17.6765 11.8855C17.618 11.9801 17.587 12.0892 17.587 12.2005V13.3988H8.59919C8.44027 13.3988 8.28787 13.462 8.1755 13.5743C8.06313 13.6867 8 13.8391 8 13.998V18.7915C7.99999 18.8845 8.0217 18.9762 8.06339 19.0594C8.10507 19.1425 8.16559 19.2147 8.24012 19.2704L8.23968 19.2709L10.6364 21.0685C10.7401 21.1462 10.8663 21.1883 10.9959 21.1883H17.587V22.0871C17.5866 22.1367 17.5821 22.1861 17.5736 22.235C17.3531 22.041 17.0883 21.904 16.8025 21.8361C16.5167 21.7682 16.2187 21.7715 15.9344 21.8456C15.6502 21.9197 15.3885 22.0624 15.1722 22.2612C14.956 22.46 14.7918 22.7088 14.6941 22.9859H12.6904C12.5491 22.5861 12.271 22.2491 11.9052 22.0346C11.5395 21.82 11.1096 21.7417 10.6917 21.8134C10.2738 21.8851 9.89466 22.1022 9.62134 22.4264C9.34803 22.7506 9.19812 23.161 9.19812 23.585C9.19812 24.0091 9.34803 24.4195 9.62134 24.7437C9.89466 25.0679 10.2738 25.285 10.6917 25.3567C11.1096 25.4284 11.5395 25.3501 11.9052 25.1355C12.271 24.921 12.5491 24.584 12.6904 24.1842H14.6941C14.8356 24.5838 15.1138 24.9206 15.4794 25.135C15.8451 25.3494 16.2748 25.4277 16.6926 25.356C17.1104 25.2843 17.4895 25.0673 17.7628 24.7432C18.0361 24.4192 18.186 24.009 18.1862 23.585C18.1862 23.5746 18.1856 23.5642 18.1854 23.5538C18.5685 23.1615 18.7837 22.6354 18.7854 22.0871V17.5932H19.3846ZM15.1903 18.1923H13.9919V16.994H15.1903V18.1923ZM9.19838 16.994H10.3968V18.1923H9.19838V16.994ZM11.5951 16.994H12.7935V18.1923H11.5951V16.994ZM11.5951 15.7956V14.5972H12.7935V15.7956H11.5951ZM17.587 19.3907L16.3886 18.4919V14.5972H17.587V19.3907ZM15.1903 15.7956H13.9919V14.5972H15.1903V15.7956ZM10.3968 14.5972V15.7956H9.19838V14.5972H10.3968ZM10.3968 19.3907H15.5897L16.3886 19.9899H11.1957L10.3968 19.3907ZM10.9959 24.1842C10.8774 24.1842 10.7616 24.1491 10.6631 24.0833C10.5645 24.0174 10.4877 23.9238 10.4424 23.8143C10.397 23.7049 10.3851 23.5844 10.4083 23.4681C10.4314 23.3519 10.4885 23.2452 10.5723 23.1614C10.6561 23.0776 10.7628 23.0205 10.879 22.9974C10.9953 22.9742 11.1158 22.9861 11.2252 23.0315C11.3347 23.0768 11.4283 23.1536 11.4942 23.2522C11.56 23.3507 11.5951 23.4665 11.5951 23.585C11.595 23.7439 11.5318 23.8962 11.4194 24.0085C11.3071 24.1209 11.1548 24.1841 10.9959 24.1842ZM16.3886 24.1842C16.2701 24.1842 16.1543 24.1491 16.0557 24.0833C15.9572 24.0174 15.8804 23.9238 15.8351 23.8143C15.7897 23.7049 15.7778 23.5844 15.801 23.4681C15.8241 23.3519 15.8812 23.2452 15.9649 23.1614C16.0487 23.0776 16.1555 23.0205 16.2717 22.9974C16.388 22.9742 16.5085 22.9861 16.6179 23.0315C16.7274 23.0768 16.821 23.1536 16.8868 23.2522C16.9527 23.3507 16.9878 23.4665 16.9878 23.585C16.9876 23.7439 16.9245 23.8962 16.8121 24.0085C16.6998 24.1209 16.5475 24.1841 16.3886 24.1842Z" fill="#07C28E"/>
</svg>
