<svg width="33" height="32" viewBox="0 0 33 32" fill="none" xmlns="http://www.w3.org/2000/svg">
<path d="M19.3046 31.9834H13.7891C13.0483 31.9834 12.431 31.45 12.3531 30.7426L12.1078 28.4959C12.0896 28.3283 11.9746 28.1833 11.8147 28.126C10.4184 27.6239 9.12593 26.9071 7.97248 25.9953C7.83986 25.8904 7.6507 25.867 7.49043 25.9354L5.33721 26.8558C4.66001 27.1451 3.86985 26.899 3.49914 26.2833L0.741346 21.7006C0.370764 21.085 0.543464 20.3054 1.14316 19.8871L3.05008 18.559C3.19376 18.4587 3.2656 18.2938 3.23716 18.1289C3.11632 17.4278 3.05496 16.7116 3.05496 16.0004C3.05496 15.2892 3.11626 14.5731 3.23716 13.8718C3.26553 13.707 3.19369 13.5422 3.04969 13.4416L1.14342 12.1139C0.543464 11.6954 0.370764 10.9158 0.741346 10.3002L3.49907 5.71763C3.86985 5.10178 4.66008 4.85573 5.33715 5.14505L7.49036 6.06532C7.65076 6.13393 7.83993 6.11046 7.97241 6.00563C8.48257 5.6025 9.02637 5.23333 9.58879 4.90824C9.81966 4.77476 10.1196 4.84618 10.2586 5.06769C10.3977 5.28921 10.3233 5.57696 10.0924 5.71038C9.57076 6.01188 9.06633 6.35438 8.59306 6.72836C8.17107 7.06207 7.5963 7.13586 7.09317 6.92078L4.94002 6.00051C4.72053 5.90668 4.46447 5.98646 4.34435 6.18594L1.58662 10.7685C1.46657 10.968 1.52266 11.2206 1.71709 11.3562L3.62343 12.684C4.06819 12.9943 4.28911 13.5079 4.20022 14.0245C4.08797 14.6756 4.03103 15.3403 4.03103 16.0004C4.03103 16.6605 4.08797 17.3252 4.20015 17.9762C4.28911 18.4929 4.06819 19.0065 3.62375 19.3166L1.71683 20.6448C1.52272 20.7802 1.46657 21.0329 1.58662 21.2322L4.34435 25.8149C4.46441 26.0144 4.72047 26.0941 4.93995 26.0003L7.09317 25.08C7.5963 24.865 8.17107 24.9388 8.59319 25.2726C9.66316 26.1184 10.8621 26.7834 12.1566 27.2488C12.6604 27.4293 13.0225 27.8807 13.0785 28.3987L13.3238 30.6447C13.349 30.8738 13.549 31.0469 13.7891 31.0469H19.3045C19.5446 31.0469 19.7447 30.8738 19.7699 30.6443L20.0152 28.3983C20.0712 27.8807 20.4333 27.4293 20.9376 27.2486C22.2315 26.7833 23.4305 26.1184 24.5005 25.2725C24.9225 24.9386 25.4973 24.8649 26.0005 25.08L28.1537 26.0002C28.3732 26.0941 28.6292 26.0144 28.7493 25.8148L31.507 21.2323C31.6271 21.0328 31.571 20.7802 31.3765 20.6445L29.4702 19.3167C29.0254 19.0065 28.8045 18.4929 28.8934 17.9762C29.0057 17.3252 29.0626 16.6605 29.0626 16.0003C29.0626 15.3402 29.0057 14.6755 28.8935 14.0246C28.8045 13.5078 29.0254 12.9942 29.4699 12.6841L31.3768 11.356C31.5709 11.2206 31.6271 10.9679 31.507 10.7686L28.7494 6.18588C28.6293 5.9864 28.3732 5.90674 28.1538 6.00051L26.0006 6.92078C25.4974 7.1358 24.9226 7.06207 24.5006 6.72824C23.4305 5.88233 22.2316 5.21741 20.9372 4.75197C20.4334 4.57154 20.0713 4.12008 20.0152 3.60207L19.77 1.35615C19.7447 1.12702 19.5447 0.953957 19.3046 0.953957H13.7891C13.5491 0.953957 13.349 1.12702 13.3238 1.35653L13.0785 3.60251C13.0225 4.12014 12.6604 4.57154 12.156 4.75222C12.0139 4.80366 11.8848 4.85274 11.7631 4.90162C11.5144 5.00139 11.2285 4.88895 11.1245 4.65033C11.0205 4.41177 11.1377 4.13744 11.3864 4.03767C11.5189 3.98454 11.6584 3.93147 11.8131 3.87547C11.9746 3.81759 12.0896 3.67256 12.1077 3.50536L12.3531 1.25857C12.431 0.550825 13.0483 0.0174561 13.7891 0.0174561H19.3046C20.0454 0.0174561 20.6628 0.550825 20.7407 1.25813L20.986 3.50486C21.0041 3.6725 21.1192 3.81753 21.2791 3.87478C22.6753 4.37681 23.9678 5.09361 25.1213 6.00551C25.2539 6.1104 25.4431 6.13381 25.6034 6.06532L27.7566 5.14505C28.4336 4.85561 29.224 5.10178 29.5947 5.71756L32.3524 10.3002C32.723 10.9158 32.5503 11.6954 31.9506 12.1137L30.0437 13.4418C29.9 13.5421 29.8282 13.707 29.8566 13.8719C29.9774 14.5731 30.0388 15.2892 30.0388 16.0004C30.0388 16.7116 29.9775 17.4277 29.8566 18.129C29.8282 18.2938 29.9001 18.4587 30.0441 18.5592L31.9503 19.887C32.5503 20.3054 32.723 21.0851 32.3524 21.7007L29.5947 26.2832C29.224 26.8991 28.4337 27.1451 27.7566 26.8558L25.6034 25.9355C25.4431 25.8669 25.2539 25.8904 25.1213 25.9952C23.9678 26.9071 22.6753 27.624 21.2796 28.1258C21.1191 28.1833 21.0041 28.3283 20.986 28.4955L20.7406 30.7423C20.6628 31.45 20.0454 31.9834 19.3046 31.9834Z" fill="#A284F5"/>
<path d="M21.5023 20.7655C21.0097 20.7655 20.5222 20.6963 20.0534 20.5599C19.7955 20.4849 19.6498 20.2234 19.728 19.9759C19.8062 19.7284 20.0788 19.5887 20.3367 19.6637C20.7136 19.7733 21.1058 19.829 21.5023 19.829C22.5704 19.829 23.5733 19.4311 24.3263 18.7087C25.8833 17.2147 25.8833 14.7838 24.3263 13.2899C22.7688 11.7962 20.2353 11.7962 18.6785 13.2899L16.8897 15.0062C16.6991 15.189 16.3901 15.189 16.1995 15.0062L14.4107 13.2899C12.8539 11.7962 10.3203 11.7962 8.76292 13.2899C8.00887 14.014 7.59345 14.9763 7.59345 15.9993C7.59345 17.0223 8.00887 17.9846 8.76311 18.7088C9.51593 19.4311 10.5188 19.829 11.5869 19.829C12.6555 19.829 13.6583 19.4311 14.4107 18.7088L16.1996 16.9924C16.3902 16.8096 16.6992 16.8096 16.8898 16.9924L18.6786 18.7087C18.7398 18.7675 18.801 18.8227 18.8605 18.8728C19.063 19.0434 19.083 19.3393 18.9052 19.5336C18.7272 19.7279 18.4189 19.7471 18.2164 19.5765C18.1412 19.5131 18.0645 19.4439 17.9884 19.371L16.5445 17.9857L15.1007 19.3709C14.1642 20.2701 12.9162 20.7654 11.5867 20.7654C10.2579 20.7654 9.00993 20.2701 8.07264 19.3709C7.13398 18.4697 6.61719 17.2723 6.61719 15.9993C6.61719 14.7263 7.13398 13.5289 8.07251 12.6278C10.0107 10.7689 13.1635 10.769 15.1007 12.6277L16.5445 14.0129L17.9882 12.6277C19.9255 10.769 23.0782 10.7689 25.0163 12.6276C26.954 14.4868 26.954 17.5118 25.0163 19.371C24.079 20.2702 22.831 20.7655 21.5023 20.7655ZM11.587 18.8933C10.7802 18.8933 10.0224 18.5926 9.45326 18.0465C8.88337 17.4997 8.56946 16.7727 8.56946 15.9994C8.56946 15.2261 8.8833 14.499 9.45326 13.9522C10.0224 13.4061 10.7802 13.1054 11.587 13.1054C12.3937 13.1054 13.1515 13.4061 13.7206 13.9522L15.5092 15.6683C15.6998 15.8511 15.6998 16.1476 15.5092 16.3304L13.7206 18.0465C13.1515 18.5926 12.3937 18.8933 11.587 18.8933ZM11.587 14.0418C11.0409 14.0418 10.5282 14.2451 10.1435 14.6143C9.75793 14.9843 9.5456 15.4761 9.5456 15.9993C9.5456 16.5225 9.75793 17.0143 10.1435 17.3843C10.5283 17.7535 11.0409 17.9568 11.587 17.9568C12.133 17.9568 12.6457 17.7535 13.0305 17.3843L14.474 15.9993L13.0305 14.6143C12.6457 14.2451 12.133 14.0418 11.587 14.0418ZM21.502 18.8931C20.7293 18.8931 19.9566 18.6109 19.3683 18.0465L17.5798 16.3304C17.3892 16.1476 17.3892 15.8511 17.5798 15.6683L19.3683 13.9522C20.5449 12.8234 22.4592 12.8234 23.6357 13.9522C24.2056 14.499 24.5195 15.226 24.5195 15.9994C24.5195 16.7727 24.2057 17.4997 23.6357 18.0465C23.0475 18.6109 22.2747 18.8931 21.502 18.8931ZM18.6151 15.9993L20.0585 17.3843C20.8545 18.1479 22.1495 18.1479 22.9455 17.3843C23.331 17.0143 23.5434 16.5225 23.5434 15.9993C23.5434 15.4761 23.331 14.9843 22.9455 14.6143C22.1496 13.8507 20.8545 13.8506 20.0585 14.6143L18.6151 15.9993ZM23.2906 17.7154H23.2912H23.2906Z" fill="#A284F5"/>
<path d="M22.0826 10.7437C21.9637 10.7437 21.8446 10.7023 21.7506 10.6186C20.3319 9.35498 18.4839 8.65904 16.5471 8.65904C14.6103 8.65904 12.7622 9.35498 11.3435 10.6186C11.146 10.7946 10.8372 10.7836 10.6538 10.594C10.4704 10.4045 10.4819 10.1082 10.6794 9.9323C12.2793 8.50732 14.3631 7.72253 16.5471 7.72253C18.731 7.72253 20.8148 8.50732 22.4147 9.9323C22.6122 10.1082 22.6237 10.4045 22.4403 10.594C22.3442 10.6934 22.2136 10.7437 22.0826 10.7437Z" fill="#A284F5"/>
<path d="M16.551 24.2771C14.367 24.2771 12.2832 23.4923 10.6833 22.0673C10.4858 21.8914 10.4743 21.5951 10.6577 21.4056C10.841 21.216 11.1498 21.205 11.3474 21.381C12.7662 22.6446 14.6141 23.3406 16.551 23.3406C18.4878 23.3406 20.3359 22.6447 21.7545 21.381C21.9521 21.205 22.2609 21.216 22.4442 21.4056C22.6276 21.5951 22.6161 21.8914 22.4186 22.0673C20.8187 23.4923 18.735 24.2771 16.551 24.2771Z" fill="#A284F5"/>
</svg>
