<svg width="87" height="87" viewBox="0 0 87 87" fill="none" xmlns="http://www.w3.org/2000/svg">
<circle opacity="0.12" cx="43.8359" cy="43.5" r="43" fill="#6060EB"/>
<g clip-path="url(#clip0)">
<path d="M27.5558 39.949L32.1066 46.4232V39.949H33.0163V47.9858H32.0543L27.504 41.4547V47.9858H26.5938V39.949H27.5558Z" fill="#CCCCCC"/>
<path d="M40.4024 47.6711C39.8028 47.9188 39.1559 48.0422 38.4626 48.0422C35.7692 48.0422 34.4219 46.6466 34.4219 43.8551C34.4219 41.2135 35.722 39.8926 38.3218 39.8926C39.0678 39.8926 39.7614 40.0053 40.4023 40.2304V41.1295C39.7613 40.8672 39.1022 40.7359 38.4258 40.7359C36.398 40.7359 35.3843 41.776 35.3843 43.8551C35.3843 46.0843 36.3822 47.1994 38.3797 47.1994C38.6983 47.1994 39.0518 47.1543 39.4405 47.064V44.3329H40.4024V47.6711Z" fill="#CCCCCC"/>
<path d="M41.9336 44.8837V39.9495H42.895V44.8836C42.895 46.4272 43.606 47.1999 45.0276 47.1999C46.4489 47.1999 47.1599 46.4271 47.1599 44.8836V39.9495H48.1218V44.8836C48.1218 46.99 47.0904 48.0426 45.0276 48.0426C42.9649 48.0428 41.9336 46.99 41.9336 44.8837Z" fill="#CCCCCC"/>
<path d="M54.692 47.1431V47.9858H49.8398V39.949H50.8013V47.1431H54.692Z" fill="#CCCCCC"/>
<path d="M58.7793 38.8889L62.4767 47.9861H61.4109L60.4484 45.4566H57.9893L58.2543 44.6145H60.1265L58.7379 40.9721L56.0803 47.9861H55.082L58.7793 38.8889Z" fill="#CCCCCC"/>
<path d="M63.4922 47.9858V39.949H66.6646C68.0793 39.949 68.7864 40.5918 68.7864 41.8765C68.7864 42.9222 68.0952 43.6961 66.7115 44.1976L69.2649 47.9858H67.9959L65.6301 44.3723V43.6928C67.0512 43.4486 67.7618 42.8586 67.7618 41.9222C67.7618 41.1806 67.3667 40.8091 66.5767 40.8091H64.4543V47.9862H63.4923L63.4922 47.9858Z" fill="#CCCCCC"/>
<path d="M72.8703 39.949V45.6705C72.8703 47.2141 72.0295 47.9857 70.3477 47.9857V47.1429C71.3879 47.1429 71.9082 46.6515 71.9082 45.6704V39.949H72.8703Z" fill="#CCCCCC"/>
<path d="M74.5848 47.705V46.7495C75.3651 47.0492 76.2073 47.1996 77.1123 47.1996C78.3916 47.1996 79.0315 46.6936 79.0315 45.6812C79.0315 44.8208 78.5596 44.3889 77.6167 44.3889H76.6595C75.1032 44.3889 74.3242 43.6587 74.3242 42.1974C74.3242 40.6614 75.3215 39.8926 77.3155 39.8926C78.182 39.8926 78.9879 40.0059 79.7336 40.2304V41.1858C78.9877 40.8858 78.182 40.7359 77.3155 40.7359C75.9632 40.7359 75.2872 41.2232 75.2872 42.1974C75.2872 43.0587 75.7445 43.4897 76.6595 43.4897H77.6167C79.2006 43.4897 79.9934 44.2209 79.9934 45.6812C79.9934 47.2554 79.0332 48.0424 77.1121 48.0424C76.2073 48.0424 75.3651 47.9296 74.5848 47.705Z" fill="#CCCCCC"/>
<path d="M27.8018 39.6868L32.3521 46.1611V39.6868H33.2624V47.7236H32.3004L27.7497 41.1925V47.7236H26.8398V39.6868H27.8018Z" fill="black"/>
<path d="M40.6445 47.409C40.045 47.6567 39.3984 47.78 38.7048 47.78C36.0111 47.78 34.6641 46.3845 34.6641 43.593C34.6641 40.9514 35.9642 39.6304 38.5646 39.6304C39.3099 39.6304 40.0036 39.7432 40.6445 39.9682V40.8672C40.0035 40.6049 39.3444 40.4736 38.6685 40.4736C36.6405 40.4736 35.6266 41.5137 35.6266 43.5928C35.6266 45.8221 36.6249 46.9372 38.6219 46.9372C38.9406 46.9372 39.2946 46.8923 39.6831 46.8018V44.0706H40.6446L40.6445 47.409Z" fill="black"/>
<path d="M42.1797 44.6211V39.6863H43.1411V44.6209C43.1411 46.1645 43.8521 46.9367 45.2738 46.9367C46.695 46.9367 47.406 46.1644 47.406 44.6209V39.6863H48.3679V44.6209C48.3679 46.7273 47.3365 47.7795 45.2738 47.7795C43.211 47.7795 42.1797 46.7275 42.1797 44.6211Z" fill="black"/>
<path d="M54.9337 46.8804V47.7231H50.082V39.6863H51.0435V46.8804H54.9337Z" fill="black"/>
<path d="M59.0256 38.6257L62.723 47.7234H61.6565L60.6946 45.1941H58.235L58.5006 44.3514H60.3723L58.9841 40.7089L56.3265 47.7234H55.3281L59.0256 38.6257Z" fill="black"/>
<path d="M63.7344 47.7236V39.6868H66.9067C68.3215 39.6868 69.028 40.3291 69.028 41.6145C69.028 42.6596 68.3372 43.4338 66.9536 43.9352L69.507 47.7236H68.2376L65.8721 44.1099V43.4298C67.2933 43.1856 68.0042 42.5961 68.0042 41.6592C68.0042 40.9176 67.6086 40.5466 66.8181 40.5466H64.6964V47.7236H63.7344Z" fill="black"/>
<path d="M73.1085 39.6863V45.4079C73.1085 46.9519 72.2677 47.7231 70.5859 47.7231V46.8804C71.6261 46.8804 72.1464 46.3889 72.1464 45.4078V39.6863H73.1085Z" fill="#A6120D"/>
<path d="M74.8269 47.4422V46.4869C75.6073 46.7865 76.4494 46.937 77.3545 46.937C78.6337 46.937 79.2736 46.4308 79.2736 45.419C79.2736 44.5581 78.8018 44.1266 77.8588 44.1266H76.9016C75.3453 44.1266 74.5664 43.396 74.5664 41.9345C74.5664 40.3986 75.5633 39.6299 77.5576 39.6299C78.4241 39.6299 79.2301 39.7432 79.9758 39.9677V40.9233C79.2298 40.6231 78.4241 40.4732 77.5576 40.4732C76.2053 40.4732 75.5293 40.9605 75.5293 41.9347C75.5293 42.796 75.9863 43.227 76.9016 43.227H77.8588C79.4426 43.227 80.2355 43.9578 80.2355 45.419C80.2355 46.9928 79.2754 47.7797 77.3543 47.7797C76.4495 47.7796 75.6072 47.6668 74.8269 47.4422Z" fill="#A6120D"/>
<path d="M9.40376 49.0974L16.7258 53.4466L24.0856 49.0385L25.4576 36.7414L16.7166 33.4966L8.03125 36.7998L9.40376 49.0974Z" fill="#B3B3B3"/>
<path d="M16.6953 52.4077L23.3116 48.4504L24.5902 37.4523L16.6953 34.5427V52.4077Z" fill="#A6120D"/>
<path d="M16.6981 52.4076V34.5422L9.00781 37.5046L10.1839 48.5028L16.6981 52.4076Z" fill="#DD1B16"/>
<path d="M18.8674 44.0533L16.6942 45.1516H14.4037L13.3269 48.062L11.3242 48.1021L16.6942 35.1917L18.8674 44.0533ZM18.6573 43.5004L16.7086 39.3311L15.1101 43.4286H16.6941L18.6573 43.5004Z" fill="#F2F2F2"/>
<path d="M18.5235 43.4318H16.6994L16.6953 45.1489L19.2175 45.1516L20.3964 48.1026L22.3126 48.1409L16.6953 35.1917L16.7097 39.3311L18.5235 43.4318Z" fill="#B3B3B3"/>
</g>
<defs>
<clipPath id="clip0">
<rect width="73" height="21" fill="white" transform="translate(7.60547 33)"/>
</clipPath>
</defs>
</svg>
