<svg width="500" height="500" viewBox="0 0 500 500" fill="none" xmlns="http://www.w3.org/2000/svg">
<circle cx="250" cy="250" r="250" fill="#FABF2C"/>
<path d="M76.7564 350C111.337 409.78 175.972 450 250 450C324.028 450 388.663 409.78 423.244 350" stroke="#253137" stroke-width="50"/>
<path d="M423.244 151C388.663 91.2199 324.028 51 250 51C175.972 51 111.337 91.2199 76.7564 151" stroke="#253137" stroke-width="50"/>
<path d="M147.383 420.816L146.75 421.797C145.998 422.964 145.177 423.915 144.289 424.651C143.401 425.388 142.474 425.903 141.509 426.197C140.544 426.491 139.567 426.56 138.579 426.406C137.598 426.256 136.634 425.877 135.688 425.266C134.771 424.674 134.038 423.96 133.491 423.123C132.95 422.291 132.607 421.37 132.463 420.36C132.326 419.355 132.403 418.291 132.694 417.17C132.984 416.048 133.506 414.904 134.258 413.737L134.892 412.756C135.644 411.59 136.466 410.644 137.356 409.919C138.259 409.192 139.196 408.684 140.168 408.395C141.145 408.098 142.124 408.025 143.105 408.175C144.094 408.329 145.047 408.702 145.964 409.294C146.91 409.904 147.653 410.625 148.194 411.458C148.742 412.295 149.078 413.217 149.204 414.225C149.341 415.23 149.257 416.289 148.952 417.401C148.659 418.511 148.136 419.65 147.383 420.816ZM144.713 420.483L145.36 419.48C145.956 418.555 146.388 417.676 146.655 416.841C146.929 416.01 147.04 415.236 146.99 414.518C146.939 413.801 146.731 413.148 146.365 412.559C146.007 411.975 145.497 411.47 144.835 411.043C144.195 410.63 143.535 410.381 142.855 410.295C142.183 410.213 141.506 410.295 140.824 410.54C140.149 410.79 139.483 411.206 138.825 411.788C138.167 412.371 137.539 413.125 136.943 414.049L136.296 415.052C135.695 415.984 135.262 416.873 134.998 417.72C134.738 418.559 134.635 419.344 134.688 420.073C134.753 420.8 134.961 421.453 135.312 422.032C135.671 422.616 136.17 423.114 136.81 423.527C137.479 423.959 138.153 424.217 138.833 424.304C139.512 424.39 140.186 424.306 140.854 424.051C141.533 423.795 142.195 423.37 142.838 422.779C143.487 422.18 144.111 421.414 144.713 420.483Z" fill="#FABF2C"/>
<path d="M158.886 417.243L150.277 433.6L148.109 432.459L156.718 416.102L158.886 417.243ZM161.866 428.208L160.932 429.983L153.607 426.128L154.541 424.353L161.866 428.208ZM166.851 421.435L165.917 423.21L157.48 418.77L158.414 416.995L166.851 421.435Z" fill="#FABF2C"/>
<path d="M172.777 424.039L165.509 441.035L163.256 440.071L170.524 423.076L172.777 424.039ZM176.628 434.73L175.839 436.574L168.228 433.319L169.017 431.475L176.628 434.73ZM181.053 427.579L180.264 429.423L171.498 425.674L172.287 423.83L181.053 427.579Z" fill="#FABF2C"/>
<path d="M186.329 429.394L180.107 446.8L177.8 445.975L184.022 428.569L186.329 429.394Z" fill="#FABF2C"/>
<path d="M199.411 446.592L201.757 447.255C201.317 448.344 200.711 449.259 199.939 449.999C199.167 450.74 198.231 451.236 197.131 451.488C196.033 451.732 194.771 451.653 193.346 451.25C192.304 450.955 191.41 450.492 190.665 449.859C189.929 449.229 189.356 448.469 188.948 447.58C188.542 446.682 188.314 445.681 188.266 444.577C188.228 443.467 188.385 442.289 188.737 441.043L189.237 439.271C189.59 438.025 190.071 436.943 190.682 436.025C191.304 435.101 192.027 434.365 192.85 433.815C193.682 433.267 194.593 432.922 195.583 432.78C196.574 432.637 197.618 432.721 198.718 433.032C200.062 433.412 201.127 433.985 201.912 434.753C202.698 435.52 203.221 436.424 203.481 437.465C203.752 438.5 203.782 439.621 203.573 440.828L201.227 440.166C201.348 439.303 201.338 438.53 201.196 437.848C201.057 437.158 200.748 436.569 200.27 436.083C199.792 435.596 199.093 435.222 198.172 434.962C197.382 434.739 196.644 434.693 195.956 434.824C195.276 434.957 194.654 435.243 194.091 435.682C193.535 436.123 193.046 436.702 192.624 437.418C192.202 438.134 191.857 438.965 191.59 439.91L191.083 441.705C190.836 442.577 190.695 443.421 190.657 444.237C190.628 445.056 190.72 445.807 190.931 446.491C191.142 447.175 191.49 447.766 191.974 448.263C192.46 448.752 193.098 449.109 193.888 449.332C194.89 449.615 195.733 449.682 196.417 449.532C197.101 449.382 197.678 449.053 198.148 448.543C198.625 448.036 199.046 447.386 199.411 446.592Z" fill="#FABF2C"/>
<path d="M212.087 436.504L208.337 454.605L205.938 454.108L209.687 436.007L212.087 436.504Z" fill="#FABF2C"/>
<path d="M224.952 440.309L216.642 456.19L214.164 455.856L223.611 438.476L225.208 438.691L224.952 440.309ZM227.79 457.689L223.958 440.175L224.139 438.547L225.737 438.762L230.281 458.024L227.79 457.689ZM228.387 450.865L228.12 452.853L217.828 451.469L218.095 449.481L228.387 450.865Z" fill="#FABF2C"/>
<path d="M247.182 456.923L247.084 458.914L237.853 458.462L237.95 456.471L247.182 456.923ZM239.24 440.023L238.335 458.485L235.887 458.365L236.793 439.903L239.24 440.023Z" fill="#FABF2C"/>
<path d="M260.044 440.259L262.409 440.047L269.791 454.513L274.459 438.962L276.836 438.748L271.007 457.832L269.161 457.998L260.044 440.259ZM259.273 440.329L261.359 440.141L262.711 451.338L263.358 458.52L260.93 458.739L259.273 440.329ZM275.508 438.868L277.595 438.68L279.251 457.09L276.824 457.309L276.177 450.127L275.508 438.868Z" fill="#FABF2C"/>
<path d="M296.661 451.82L297.033 453.778L287.417 455.606L287.045 453.648L296.661 451.82ZM284.451 437.355L287.903 455.514L285.496 455.971L282.044 437.812L284.451 437.355ZM293.793 443.668L294.165 445.626L285.821 447.213L285.449 445.254L293.793 443.668ZM293.456 435.643L293.83 437.613L284.339 439.418L283.965 437.447L293.456 435.643Z" fill="#FABF2C"/>
<path d="M298.657 434.424L300.932 433.746L311.041 446.457L312.527 430.289L314.814 429.607L312.893 449.468L311.117 449.998L298.657 434.424ZM297.915 434.645L299.923 434.047L303.472 444.752L305.532 451.663L303.196 452.359L297.915 434.645ZM313.537 429.988L315.544 429.39L320.825 447.103L318.489 447.8L316.429 440.889L313.537 429.988Z" fill="#FABF2C"/>
<path d="M329.916 434.095L325.587 435.886L324.812 434.077L328.742 432.452C329.391 432.183 329.913 431.839 330.307 431.42C330.701 431 330.947 430.532 331.045 430.015C331.147 429.487 331.08 428.938 330.844 428.367C330.586 427.742 330.254 427.283 329.85 426.993C329.45 426.691 328.967 426.552 328.4 426.576C327.837 426.588 327.181 426.75 326.43 427.061L323.098 428.439L329.396 443.666L327.132 444.603L320.067 427.521L325.663 425.207C326.539 424.845 327.358 424.611 328.121 424.507C328.88 424.394 329.576 424.427 330.209 424.605C330.846 424.772 331.407 425.089 331.894 425.556C332.38 426.024 332.788 426.657 333.118 427.454C333.409 428.158 333.493 428.87 333.369 429.59C333.243 430.302 332.933 430.97 332.44 431.595C331.956 432.217 331.308 432.755 330.498 433.209L329.916 434.095ZM333.115 442.128L328 444.244L328.517 441.873L332.353 440.286C333.072 439.989 333.631 439.611 334.028 439.154C334.433 438.693 334.674 438.181 334.753 437.618C334.828 437.046 334.736 436.448 334.477 435.822C334.215 435.189 333.875 434.688 333.458 434.32C333.04 433.953 332.537 433.744 331.948 433.694C331.36 433.645 330.683 433.778 329.916 434.095L326.69 435.43L325.961 433.601L330.372 431.777L331.125 432.235C331.975 431.966 332.769 431.913 333.504 432.075C334.237 432.23 334.878 432.551 335.428 433.038C335.985 433.522 336.416 434.132 336.72 434.867C337.16 435.931 337.297 436.927 337.132 437.856C336.971 438.775 336.548 439.6 335.862 440.333C335.172 441.057 334.257 441.656 333.115 442.128Z" fill="#FABF2C"/>
<path d="M353.644 429.971L354.566 431.738L345.887 436.264L344.966 434.496L353.644 429.971ZM337.78 419.645L346.326 436.035L344.154 437.168L335.607 420.778L337.78 419.645ZM348.546 422.994L349.467 424.761L341.937 428.688L341.015 426.921L348.546 422.994ZM345.907 415.407L346.834 417.185L338.268 421.652L337.341 419.874L345.907 415.407Z" fill="#FABF2C"/>
<path d="M350.16 412.892L355.324 409.609C356.495 408.864 357.598 408.414 358.632 408.258C359.673 408.098 360.627 408.233 361.493 408.665C362.362 409.086 363.119 409.803 363.764 410.817C364.218 411.531 364.487 412.278 364.571 413.057C364.658 413.824 364.561 414.588 364.282 415.347C364.005 416.095 363.555 416.807 362.932 417.484L362.497 418.076L357.644 421.162L356.553 419.493L360.217 417.164C360.96 416.692 361.496 416.171 361.825 415.6C362.15 415.023 362.297 414.433 362.265 413.831C362.233 413.229 362.047 412.661 361.707 412.125C361.325 411.525 360.874 411.075 360.352 410.775C359.83 410.475 359.239 410.364 358.577 410.444C357.918 410.512 357.192 410.798 356.4 411.302L353.303 413.27L362.144 427.176L360.076 428.491L350.16 412.892ZM369.194 422.695L360.906 418.035L363.052 416.655L371.319 421.163L371.401 421.292L369.194 422.695Z" fill="#FABF2C"/>
<path d="M199 57.2602C166.31 65.8555 136.892 82.5176 113 104.99M386 104.056C362.045 81.8285 332.634 65.3994 300 57" stroke="#FABF2C" stroke-width="2.5"/>
<path d="M199.223 62.1316C167.045 70.7701 138.194 87.5006 115 110M299.284 62C331.66 70.5995 360.688 87.3858 384 110" stroke="#FABF2C" stroke-width="2.5"/>
<path d="M300 52.1515C332.445 60.2982 361.807 76.1906 386 97.7445M199 52.4053C166.28 60.7981 136.729 77.0778 112.5 99.0942" stroke="#FABF2C" stroke-width="2.5"/>
<path d="M229.933 59.4044L230.423 62.6637L215.996 64.8338L215.577 62.0526L221.3 53.7112C221.871 52.8451 222.31 52.0926 222.619 51.4537C222.927 50.805 223.132 50.2359 223.236 49.7462C223.349 49.2454 223.373 48.7825 223.309 48.3576C223.213 47.7203 223.025 47.1906 222.744 46.7687C222.462 46.3371 222.094 46.027 221.641 45.8384C221.198 45.6483 220.677 45.5983 220.078 45.6884C219.441 45.7843 218.914 46.0216 218.497 46.4003C218.089 46.7776 217.806 47.2596 217.648 47.8464C217.499 48.4317 217.476 49.072 217.581 49.7673L213.395 50.397C213.206 49.1416 213.332 47.9474 213.774 46.8144C214.215 45.6717 214.934 44.7093 215.932 43.9271C216.929 43.1352 218.176 42.6267 219.673 42.4016C221.15 42.1794 222.432 42.2334 223.519 42.5637C224.614 42.883 225.489 43.4524 226.146 44.2721C226.811 45.0806 227.236 46.1029 227.422 47.339C227.527 48.0343 227.518 48.7319 227.396 49.4316C227.273 50.1217 227.053 50.8263 226.736 51.5454C226.428 52.2535 226.034 52.9842 225.555 53.7377C225.076 54.4912 224.538 55.2782 223.94 56.0989L220.894 60.764L229.933 59.4044Z" fill="#FABF2C"/>
<path d="M248.102 48.9395L248.298 52.6258C248.382 54.2251 248.285 55.614 248.005 56.7926C247.725 57.9615 247.283 58.9336 246.679 59.7089C246.084 60.474 245.357 61.0553 244.498 61.453C243.639 61.8507 242.673 62.078 241.6 62.135C240.742 62.1806 239.937 62.1158 239.184 61.9406C238.431 61.7557 237.745 61.445 237.125 61.0085C236.515 60.5715 235.976 60.0085 235.51 59.3194C235.052 58.62 234.685 57.7789 234.407 56.7962C234.13 55.8134 233.958 54.6784 233.889 53.3911L233.693 49.7049C233.608 48.1056 233.706 46.7264 233.987 45.5673C234.277 44.3979 234.719 43.4307 235.314 42.6656C235.919 41.9001 236.651 41.3233 237.511 40.9354C238.37 40.5377 239.336 40.3103 240.408 40.2534C241.267 40.2078 242.067 40.2777 242.811 40.4632C243.563 40.6383 244.249 40.9393 244.868 41.366C245.488 41.7928 246.026 42.3558 246.484 43.0552C246.941 43.7448 247.308 44.581 247.585 45.5638C247.862 46.5368 248.034 47.6621 248.102 48.9395ZM244.1 53.4062L243.844 48.5936C243.803 47.8232 243.723 47.1527 243.605 46.582C243.497 46.0108 243.349 45.5296 243.162 45.1386C242.974 44.7378 242.752 44.4172 242.495 44.1766C242.237 43.936 241.949 43.7654 241.631 43.665C241.313 43.5645 240.964 43.5244 240.583 43.5446C240.105 43.57 239.686 43.6852 239.325 43.8902C238.974 44.0946 238.683 44.4084 238.451 44.8314C238.219 45.2447 238.052 45.7914 237.952 46.4715C237.86 47.1414 237.84 47.9542 237.89 48.9099L238.146 53.7224C238.187 54.4928 238.262 55.1685 238.371 55.7495C238.49 56.3299 238.643 56.8254 238.831 57.2359C239.029 57.6362 239.251 57.9617 239.499 58.2126C239.757 58.4532 240.045 58.6237 240.363 58.7242C240.691 58.8241 241.045 58.864 241.425 58.8438C241.893 58.8189 242.303 58.7042 242.654 58.4998C243.014 58.2851 243.31 57.9662 243.542 57.5431C243.783 57.1098 243.949 56.5534 244.04 55.8737C244.131 55.1941 244.151 54.3716 244.1 53.4062Z" fill="#FABF2C"/>
<path d="M266.824 58.6702L266.696 61.9636L252.117 61.3993L252.226 58.5889L259.406 51.4638C260.129 50.7197 260.702 50.0627 261.125 49.4927C261.548 48.9129 261.856 48.3922 262.05 47.9306C262.254 47.4596 262.364 47.0094 262.381 46.5801C262.406 45.936 262.32 45.3805 262.123 44.9136C261.926 44.4369 261.623 44.0635 261.213 43.7936C260.813 43.524 260.311 43.3775 259.706 43.3541C259.062 43.3291 258.499 43.4637 258.019 43.7579C257.548 44.0524 257.18 44.473 256.915 45.0198C256.659 45.567 256.517 46.1919 256.49 46.8945L252.26 46.7307C252.309 45.4621 252.656 44.3126 253.302 43.2821C253.948 42.2419 254.835 41.4308 255.962 40.849C257.089 40.2574 258.409 39.9909 259.922 40.0494C261.415 40.1072 262.664 40.3999 263.67 40.9275C264.686 41.4457 265.439 42.1687 265.931 43.0966C266.433 44.0152 266.66 45.099 266.612 46.3481C266.584 47.0506 266.446 47.7343 266.195 48.3989C265.945 49.0538 265.597 49.7049 265.152 50.3522C264.717 50.9901 264.193 51.6344 263.582 52.2851C262.97 52.9358 262.294 53.6084 261.554 54.3029L257.69 58.3166L266.824 58.6702Z" fill="#FABF2C"/>
<path d="M285.11 60.9196L284.671 64.1862L270.211 62.246L270.585 59.4585L278.407 53.0442C279.197 52.3718 279.829 51.7718 280.304 51.2444C280.78 50.7072 281.136 50.218 281.373 49.7768C281.62 49.3272 281.773 48.8895 281.83 48.4636C281.915 47.8248 281.882 47.2636 281.73 46.7802C281.58 46.287 281.313 45.8867 280.931 45.5792C280.558 45.273 280.072 45.0796 279.472 44.9991C278.833 44.9134 278.26 44.9942 277.754 45.2416C277.258 45.4903 276.851 45.8743 276.535 46.3935C276.229 46.914 276.029 47.5227 275.936 48.2196L271.74 47.6566C271.909 46.3984 272.363 45.2869 273.104 44.3221C273.845 43.3476 274.805 42.624 275.981 42.1513C277.16 41.6689 278.499 41.5284 279.999 41.7297C281.48 41.9284 282.696 42.3379 283.647 42.9582C284.61 43.5701 285.292 44.3612 285.694 45.3315C286.106 46.2933 286.23 47.3937 286.064 48.6326C285.97 49.3295 285.767 49.9969 285.455 50.6349C285.144 51.2632 284.736 51.8785 284.232 52.4808C283.738 53.0748 283.156 53.6667 282.486 54.2566C281.816 54.8466 281.079 55.4522 280.277 56.0737L276.05 59.704L285.11 60.9196Z" fill="#FABF2C"/>
<g clip-path="url(#clip0_5_6)">
<path d="M194.432 235.01L194.463 235.098C194.501 237.389 193.803 239.184 192.372 240.483C190.94 241.782 188.958 242.431 186.426 242.431C185.272 242.475 184.122 242.276 183.049 241.847C181.977 241.418 181.006 240.769 180.201 239.941C179.402 239.079 178.781 238.068 178.374 236.965C177.967 235.863 177.781 234.691 177.829 233.516V229.258C177.728 226.901 178.547 224.597 180.114 222.833C180.888 222.006 181.832 221.356 182.88 220.926C183.929 220.496 185.057 220.297 186.19 220.343C188.804 220.343 190.85 220.982 192.328 222.261C193.806 223.539 194.517 225.344 194.463 227.677L194.432 227.764H190.242C190.287 227.211 190.222 226.655 190.051 226.127C189.881 225.599 189.607 225.11 189.246 224.689C188.828 224.322 188.34 224.044 187.812 223.869C187.283 223.695 186.725 223.629 186.171 223.674C185.577 223.655 184.988 223.788 184.459 224.06C183.931 224.332 183.481 224.735 183.152 225.23C182.385 226.427 182.006 227.832 182.068 229.252V233.547C182.013 234.976 182.419 236.384 183.226 237.563C183.586 238.066 184.065 238.473 184.62 238.746C185.175 239.018 185.789 239.149 186.408 239.126C186.932 239.166 187.459 239.098 187.955 238.924C188.451 238.751 188.906 238.476 189.29 238.117C189.994 237.24 190.335 236.125 190.242 235.004L194.432 235.01ZM218.089 233.317C218.131 234.519 217.932 235.716 217.505 236.84C217.077 237.964 216.429 238.99 215.599 239.86C214.755 240.716 213.741 241.387 212.623 241.83C211.505 242.273 210.307 242.477 209.106 242.431C207.908 242.478 206.713 242.273 205.6 241.827C204.486 241.382 203.479 240.708 202.644 239.848C201.817 238.979 201.17 237.954 200.743 236.832C200.315 235.711 200.115 234.516 200.154 233.317V229.451C200.116 228.252 200.317 227.057 200.744 225.936C201.172 224.815 201.817 223.79 202.644 222.92C203.474 222.061 204.477 221.385 205.586 220.939C206.695 220.493 207.886 220.286 209.081 220.331C210.286 220.285 211.487 220.492 212.607 220.938C213.728 221.384 214.743 222.059 215.587 222.92C216.416 223.788 217.064 224.812 217.492 225.934C217.92 227.056 218.118 228.251 218.077 229.451L218.089 233.317ZM213.8 229.42C213.864 227.947 213.425 226.496 212.555 225.305C212.148 224.779 211.62 224.359 211.017 224.079C210.413 223.8 209.752 223.669 209.087 223.699C208.424 223.66 207.762 223.787 207.16 224.067C206.558 224.348 206.035 224.773 205.638 225.305C204.789 226.504 204.362 227.952 204.424 229.42V233.317C204.365 234.803 204.803 236.267 205.669 237.476C206.067 238.001 206.587 238.421 207.183 238.701C207.78 238.981 208.435 239.112 209.093 239.082C209.756 239.112 210.416 238.982 211.018 238.702C211.619 238.422 212.144 238.002 212.549 237.476C213.417 236.268 213.856 234.804 213.794 233.317L213.8 229.42ZM229.233 242.12H224.937V220.642H229.245L229.233 242.12ZM254.029 242.12H249.721L241.061 227.633H240.974V242.12H236.666V220.642H240.974L249.634 235.147H249.721V220.642H254.029V242.12ZM275.694 223.941H269.556V242.12H265.248V223.941H259.178V220.642H275.675L275.694 223.941ZM293.493 232.657H285.524V238.789H294.999V242.12H281.216V220.642H294.968V223.941H285.524V229.358H293.493V232.657ZM305.496 238.789H315.114V242.12H301.188V220.642H305.496V238.789ZM333.411 232.657H325.449V238.789H334.918V242.12H321.14V220.642H334.886V223.941H325.449V229.358H333.411V232.657ZM357.572 239.163C356.762 240.142 355.738 240.922 354.578 241.441C352.963 242.15 351.21 242.488 349.448 242.431C348.275 242.474 347.106 242.279 346.011 241.858C344.916 241.438 343.916 240.801 343.073 239.985C342.244 239.152 341.595 238.157 341.166 237.062C340.738 235.968 340.539 234.797 340.583 233.622V229.14C340.539 227.974 340.73 226.811 341.143 225.72C341.557 224.63 342.186 223.633 342.992 222.79C343.796 221.974 344.761 221.334 345.825 220.911C346.889 220.488 348.029 220.29 349.174 220.331C351.793 220.331 353.804 220.953 355.207 222.198C355.899 222.821 356.44 223.593 356.79 224.456C357.139 225.319 357.288 226.25 357.224 227.179V227.266H353.165C353.193 226.777 353.12 226.288 352.95 225.83C352.779 225.371 352.515 224.953 352.175 224.601C351.379 223.918 350.345 223.576 349.299 223.649C348.68 223.63 348.066 223.76 347.508 224.027C346.95 224.295 346.465 224.692 346.092 225.187C345.251 226.319 344.825 227.706 344.885 229.115V233.628C344.823 235.057 345.263 236.462 346.13 237.6C346.525 238.097 347.031 238.494 347.607 238.758C348.183 239.023 348.814 239.149 349.448 239.126C350.269 239.155 351.089 239.05 351.876 238.814C352.387 238.657 352.858 238.391 353.258 238.036V233.902H349.124V230.895H357.579L357.572 239.163ZM368.704 233.51V242.12H364.389V220.642H371.86C374.313 220.642 376.218 221.202 377.606 222.317C378.293 222.878 378.839 223.593 379.199 224.404C379.56 225.215 379.724 226.099 379.679 226.986C379.705 228.006 379.397 229.008 378.801 229.837C378.13 230.705 377.238 231.376 376.218 231.779C377.33 232.042 378.306 232.707 378.957 233.647C379.54 234.626 379.829 235.752 379.791 236.891V238.472C379.797 239.102 379.878 239.729 380.034 240.339C380.14 240.903 380.434 241.415 380.868 241.79V242.101H376.423C375.982 241.695 375.71 241.137 375.664 240.539C375.554 239.841 375.498 239.135 375.496 238.428V236.928C375.521 236.475 375.457 236.022 375.306 235.595C375.156 235.167 374.922 234.774 374.618 234.438C374.285 234.128 373.893 233.889 373.464 233.736C373.036 233.583 372.581 233.519 372.128 233.547L368.704 233.51ZM368.704 230.192H371.754C372.717 230.267 373.676 229.996 374.456 229.426C374.763 229.137 375.001 228.783 375.154 228.39C375.307 227.997 375.371 227.574 375.34 227.154C375.363 226.722 375.295 226.291 375.142 225.887C374.989 225.483 374.753 225.115 374.45 224.807C373.733 224.191 372.803 223.88 371.86 223.941H368.747L368.704 230.192ZM398.007 237.488H391.047L389.603 242.12H385.102L392.342 220.642H396.762L403.977 242.12H399.476L398.007 237.488ZM392.112 234.114H396.961L394.589 226.544H394.496L392.112 234.114ZM413.509 234.332V242.12H409.213V220.642H417.431C419.896 220.642 421.838 221.264 423.258 222.51C423.957 223.132 424.509 223.902 424.876 224.762C425.243 225.623 425.415 226.555 425.381 227.49C425.419 228.426 425.249 229.358 424.882 230.22C424.514 231.081 423.96 231.85 423.258 232.47C421.838 233.716 419.896 234.338 417.431 234.338L413.509 234.332ZM413.509 231.014H417.418C417.916 231.049 418.416 230.98 418.886 230.811C419.356 230.641 419.785 230.375 420.145 230.03C420.457 229.697 420.7 229.305 420.86 228.878C421.02 228.451 421.094 227.996 421.079 227.54C421.112 226.599 420.78 225.682 420.151 224.981C419.798 224.621 419.371 224.341 418.899 224.161C418.427 223.982 417.922 223.907 417.418 223.941H413.509V231.014ZM448.994 242.12H444.699V233.199H435.927V242.12H431.625V220.642H435.933V229.874H444.699V220.642H449.007L448.994 242.12Z" fill="#253137"/>
<path d="M108.327 277.531L91.5554 284.821V284.092C88.2123 284.926 84.794 285.422 81.3518 285.574C65.5638 285.393 53.063 277.145 52.9135 267.321V263.679C58.0932 271.206 68.6392 276.236 81.3518 276.074C85.5325 276.189 89.7077 275.696 93.7468 274.611L95.2036 270.969C90.7177 272.369 86.0509 273.106 81.3518 273.154C65.5638 273.185 53.063 264.93 52.9135 254.932V252.012C58.0932 258.979 68.6206 264.021 81.3518 263.679C86.8521 263.972 92.3447 262.972 97.3887 260.759L98.1171 257.117C92.9274 259.732 87.1585 260.985 81.3518 260.759C65.5638 260.952 53.063 252.703 52.9135 242.537V239.617C58.0932 246.745 68.6392 251.788 81.3518 252.012C88.2189 251.82 94.9533 250.075 101.049 246.907L101.778 242.549C96.6915 246.31 89.2208 248.744 81.3518 249.099C65.5638 248.744 53.063 240.489 52.9135 230.167C53.063 220.299 65.5638 212.044 81.3518 211.914C90.7523 212.044 99.4805 215.344 104.679 220.667L105.189 221.507H108.862L108.327 220.648C103.154 213.638 92.813 209 81.3518 209C63.9016 209 50 218.618 50 230.167V268.08C50.6226 279.33 64.1942 288.488 81.3518 288.488C92.676 288.463 102.861 284.011 108.327 277.531Z" fill="white"/>
<path d="M101.504 303.18L107.393 278.166L90.466 285.524L100.769 242.114H80.9035L86.052 220.773H149.335L144.18 242.114H123.58L119.166 253.886L141.976 244.318L101.504 303.18ZM111.807 273.011L108.862 287.728L133.142 250.942L113.276 259.769L122.11 239.169H141.976L145.655 223.717H88.2621L84.5828 239.169H104.448L94.8861 280.37L111.807 273.011Z" fill="#253137"/>
<path d="M183.778 268.28L180.379 287.843H177.853L181.252 268.28H183.778Z" fill="#253137"/>
<path d="M188.951 276.557L186.99 287.843H184.558L187.084 273.305H189.381L188.951 276.557ZM187.823 280.023L186.828 279.996C186.954 279.127 187.182 278.277 187.514 277.444C187.854 276.602 188.297 275.845 188.844 275.173C189.399 274.501 190.057 273.973 190.819 273.587C191.589 273.193 192.467 273.01 193.452 273.037C194.232 273.054 194.881 273.207 195.4 273.493C195.929 273.771 196.341 274.152 196.637 274.635C196.932 275.119 197.129 275.679 197.228 276.315C197.326 276.942 197.335 277.609 197.255 278.317L195.669 287.843H193.224L194.836 278.277C194.899 277.694 194.876 277.17 194.769 276.705C194.67 276.23 194.447 275.854 194.097 275.576C193.757 275.289 193.264 275.137 192.619 275.119C191.938 275.101 191.325 275.231 190.779 275.509C190.232 275.786 189.753 276.167 189.341 276.651C188.938 277.126 188.606 277.658 188.347 278.25C188.096 278.832 187.921 279.423 187.823 280.023Z" fill="#253137"/>
<path d="M203.704 276.557L201.742 287.843H199.31L201.836 273.305H204.134L203.704 276.557ZM202.575 280.023L201.581 279.996C201.706 279.127 201.935 278.277 202.266 277.444C202.607 276.602 203.05 275.845 203.596 275.173C204.152 274.501 204.81 273.973 205.572 273.587C206.342 273.193 207.22 273.01 208.205 273.037C208.984 273.054 209.634 273.207 210.153 273.493C210.682 273.771 211.094 274.152 211.389 274.635C211.685 275.119 211.882 275.679 211.98 276.315C212.079 276.942 212.088 277.609 212.007 278.317L210.422 287.843H207.977L209.589 278.277C209.652 277.694 209.629 277.17 209.522 276.705C209.423 276.23 209.199 275.854 208.85 275.576C208.51 275.289 208.017 275.137 207.372 275.119C206.691 275.101 206.078 275.231 205.531 275.509C204.985 275.786 204.506 276.167 204.094 276.651C203.69 277.126 203.359 277.658 203.099 278.25C202.848 278.832 202.674 279.423 202.575 280.023Z" fill="#253137"/>
<path d="M214.695 280.816L214.735 280.507C214.842 279.531 215.084 278.59 215.46 277.685C215.846 276.781 216.352 275.975 216.979 275.267C217.606 274.559 218.349 274.004 219.209 273.601C220.069 273.198 221.027 273.01 222.084 273.037C223.105 273.054 223.979 273.274 224.704 273.695C225.439 274.116 226.03 274.676 226.478 275.374C226.935 276.064 227.253 276.843 227.432 277.712C227.611 278.581 227.656 279.477 227.566 280.399L227.539 280.708C227.423 281.685 227.172 282.621 226.787 283.517C226.402 284.412 225.891 285.21 225.255 285.908C224.628 286.607 223.885 287.158 223.025 287.561C222.165 287.955 221.211 288.139 220.163 288.112C219.151 288.094 218.277 287.879 217.543 287.467C216.817 287.046 216.231 286.49 215.783 285.801C215.335 285.111 215.021 284.336 214.842 283.476C214.663 282.616 214.614 281.73 214.695 280.816ZM217.153 280.507L217.126 280.829C217.064 281.394 217.059 281.98 217.113 282.589C217.176 283.199 217.319 283.763 217.543 284.282C217.776 284.802 218.112 285.227 218.551 285.559C218.99 285.89 219.558 286.065 220.257 286.083C221 286.101 221.654 285.957 222.219 285.653C222.783 285.339 223.262 284.918 223.656 284.39C224.059 283.861 224.377 283.275 224.61 282.63C224.852 281.985 225.013 281.344 225.094 280.708L225.121 280.399C225.184 279.835 225.184 279.248 225.121 278.639C225.067 278.021 224.924 277.448 224.691 276.92C224.467 276.382 224.136 275.948 223.697 275.616C223.258 275.276 222.689 275.097 221.99 275.079C221.247 275.052 220.588 275.2 220.015 275.522C219.451 275.836 218.972 276.261 218.578 276.799C218.183 277.336 217.865 277.932 217.624 278.586C217.391 279.231 217.234 279.871 217.153 280.507Z" fill="#253137"/>
<path d="M233.881 285.478L239.605 273.305H242.171L234.822 287.843H233.115L233.881 285.478ZM232.537 273.305L234.607 285.787L234.539 287.843H232.981L230.132 273.305H232.537Z" fill="#253137"/>
<path d="M250.582 285.357L251.791 277.847C251.854 277.291 251.8 276.803 251.63 276.382C251.469 275.961 251.196 275.634 250.81 275.401C250.434 275.168 249.959 275.043 249.386 275.025C248.885 275.016 248.392 275.097 247.908 275.267C247.433 275.437 247.021 275.692 246.672 276.033C246.323 276.373 246.094 276.803 245.987 277.323L243.568 277.336C243.631 276.61 243.86 275.979 244.254 275.442C244.648 274.895 245.14 274.443 245.732 274.085C246.323 273.717 246.959 273.449 247.639 273.278C248.32 273.099 248.983 273.014 249.628 273.023C250.604 273.041 251.451 273.252 252.167 273.655C252.893 274.049 253.439 274.604 253.807 275.321C254.174 276.037 254.308 276.897 254.21 277.9L253.094 284.672C253.014 285.165 252.965 285.662 252.947 286.163C252.938 286.656 252.996 287.14 253.121 287.615L253.094 287.843L250.636 287.856C250.537 287.444 250.488 287.028 250.488 286.607C250.497 286.186 250.528 285.769 250.582 285.357ZM252.073 279.029L251.791 280.776L249.494 280.762C249.01 280.762 248.499 280.798 247.962 280.87C247.425 280.941 246.914 281.076 246.43 281.273C245.947 281.47 245.539 281.756 245.208 282.133C244.876 282.5 244.675 282.979 244.603 283.57C244.549 284.054 244.607 284.475 244.778 284.833C244.957 285.183 245.226 285.456 245.584 285.653C245.942 285.85 246.359 285.953 246.833 285.962C247.451 285.971 248.06 285.85 248.661 285.599C249.261 285.348 249.785 284.99 250.233 284.524C250.68 284.058 250.99 283.521 251.16 282.912L252.046 284.108C251.876 284.699 251.599 285.245 251.213 285.747C250.828 286.24 250.371 286.665 249.843 287.023C249.323 287.382 248.764 287.659 248.163 287.856C247.563 288.053 246.963 288.147 246.363 288.139C245.548 288.121 244.809 287.937 244.146 287.588C243.492 287.238 242.973 286.75 242.588 286.123C242.211 285.487 242.05 284.748 242.104 283.906C242.158 282.984 242.399 282.209 242.829 281.582C243.259 280.955 243.81 280.453 244.482 280.077C245.163 279.701 245.906 279.432 246.712 279.271C247.519 279.101 248.316 279.016 249.104 279.016L252.073 279.029Z" fill="#253137"/>
<path d="M264.784 273.305L264.448 275.213H256.803L257.139 273.305H264.784ZM260.336 269.772H262.755L260.296 284.269C260.269 284.582 260.278 284.865 260.323 285.115C260.368 285.366 260.475 285.568 260.646 285.72C260.816 285.863 261.075 285.94 261.425 285.948C261.622 285.948 261.814 285.935 262.003 285.908C262.2 285.872 262.397 285.841 262.594 285.814L262.419 287.856C262.132 287.937 261.837 287.995 261.532 288.031C261.237 288.076 260.941 288.094 260.646 288.085C259.902 288.076 259.32 287.888 258.899 287.52C258.478 287.153 258.191 286.678 258.039 286.096C257.887 285.514 257.842 284.892 257.905 284.229L260.336 269.772Z" fill="#253137"/>
<path d="M270.225 273.305L267.699 287.843H265.267L267.793 273.305H270.225ZM268.277 269.489C268.277 269.068 268.407 268.719 268.667 268.441C268.935 268.155 269.28 268.007 269.701 267.998C270.122 267.989 270.467 268.119 270.736 268.388C271.014 268.656 271.148 268.997 271.139 269.409C271.139 269.821 271 270.166 270.722 270.443C270.454 270.712 270.113 270.851 269.701 270.86C269.289 270.869 268.949 270.748 268.68 270.497C268.411 270.237 268.277 269.901 268.277 269.489Z" fill="#253137"/>
<path d="M272.2 280.816L272.241 280.507C272.348 279.531 272.59 278.59 272.966 277.685C273.351 276.781 273.858 275.975 274.485 275.267C275.112 274.559 275.855 274.004 276.715 273.601C277.575 273.198 278.533 273.01 279.59 273.037C280.611 273.054 281.485 273.274 282.21 273.695C282.945 274.116 283.536 274.676 283.984 275.374C284.441 276.064 284.759 276.843 284.938 277.712C285.117 278.581 285.162 279.477 285.072 280.399L285.045 280.708C284.929 281.685 284.678 282.621 284.293 283.517C283.908 284.412 283.397 285.21 282.761 285.908C282.134 286.607 281.391 287.158 280.531 287.561C279.671 287.955 278.717 288.139 277.669 288.112C276.657 288.094 275.783 287.879 275.049 287.467C274.323 287.046 273.737 286.49 273.289 285.801C272.841 285.111 272.527 284.336 272.348 283.476C272.169 282.616 272.12 281.73 272.2 280.816ZM274.659 280.507L274.632 280.829C274.57 281.394 274.565 281.98 274.619 282.589C274.682 283.199 274.825 283.763 275.049 284.282C275.282 284.802 275.618 285.227 276.057 285.559C276.495 285.89 277.064 286.065 277.763 286.083C278.506 286.101 279.16 285.957 279.725 285.653C280.289 285.339 280.768 284.918 281.162 284.39C281.565 283.861 281.883 283.275 282.116 282.63C282.358 281.985 282.519 281.344 282.6 280.708L282.627 280.399C282.689 279.835 282.689 279.248 282.627 278.639C282.573 278.021 282.43 277.448 282.197 276.92C281.973 276.382 281.641 275.948 281.203 275.616C280.764 275.276 280.195 275.097 279.496 275.079C278.753 275.052 278.094 275.2 277.521 275.522C276.957 275.836 276.478 276.261 276.083 276.799C275.689 277.336 275.371 277.932 275.129 278.586C274.897 279.231 274.74 279.871 274.659 280.507Z" fill="#253137"/>
<path d="M291.199 276.557L289.237 287.843H286.805L289.331 273.305H291.629L291.199 276.557ZM290.07 280.023L289.076 279.996C289.201 279.127 289.43 278.277 289.761 277.444C290.102 276.602 290.545 275.845 291.091 275.173C291.647 274.501 292.305 273.973 293.066 273.587C293.837 273.193 294.715 273.01 295.7 273.037C296.479 273.054 297.129 273.207 297.648 273.493C298.177 273.771 298.589 274.152 298.884 274.635C299.18 275.119 299.377 275.679 299.475 276.315C299.574 276.942 299.583 277.609 299.502 278.317L297.917 287.843H295.472L297.084 278.277C297.147 277.694 297.124 277.17 297.017 276.705C296.918 276.23 296.694 275.854 296.345 275.576C296.004 275.289 295.512 275.137 294.867 275.119C294.186 275.101 293.573 275.231 293.026 275.509C292.48 275.786 292.001 276.167 291.589 276.651C291.185 277.126 290.854 277.658 290.594 278.25C290.343 278.832 290.169 279.423 290.07 280.023Z" fill="#253137"/>
<path d="M321.175 281.636L323.66 281.609C323.391 282.952 322.885 284.117 322.142 285.102C321.407 286.087 320.48 286.844 319.361 287.373C318.25 287.901 317.005 288.147 315.625 288.112C314.389 288.085 313.35 287.803 312.508 287.265C311.675 286.728 311.021 286.02 310.547 285.142C310.081 284.265 309.772 283.297 309.62 282.24C309.476 281.183 309.476 280.117 309.62 279.042L309.902 277.094C310.081 275.912 310.403 274.774 310.869 273.681C311.344 272.58 311.957 271.599 312.71 270.739C313.471 269.879 314.367 269.203 315.397 268.71C316.436 268.217 317.614 267.985 318.931 268.011C320.247 268.038 321.349 268.334 322.236 268.898C323.123 269.463 323.795 270.233 324.251 271.209C324.717 272.186 324.968 273.305 325.004 274.568H322.505C322.478 273.744 322.348 273.001 322.115 272.338C321.882 271.675 321.501 271.147 320.973 270.752C320.444 270.358 319.728 270.148 318.823 270.121C317.838 270.094 316.974 270.278 316.23 270.672C315.496 271.066 314.869 271.603 314.349 272.284C313.83 272.956 313.413 273.708 313.1 274.541C312.786 275.374 312.562 276.216 312.428 277.067L312.132 279.056C312.034 279.763 311.998 280.516 312.025 281.313C312.051 282.101 312.181 282.849 312.414 283.557C312.656 284.256 313.041 284.833 313.57 285.29C314.107 285.738 314.833 285.975 315.746 286.002C316.75 286.038 317.605 285.881 318.313 285.532C319.02 285.183 319.607 284.677 320.073 284.014C320.539 283.342 320.906 282.549 321.175 281.636Z" fill="#253137"/>
<path d="M330.875 273.305L328.349 287.843H325.917L328.443 273.305H330.875ZM328.927 269.489C328.927 269.068 329.057 268.719 329.317 268.441C329.585 268.155 329.93 268.007 330.351 267.998C330.772 267.989 331.117 268.119 331.386 268.388C331.664 268.656 331.798 268.997 331.789 269.409C331.789 269.821 331.65 270.166 331.372 270.443C331.104 270.712 330.763 270.851 330.351 270.86C329.939 270.869 329.599 270.748 329.33 270.497C329.061 270.237 328.927 269.901 328.927 269.489Z" fill="#253137"/>
<path d="M336.76 275.697L334.651 287.843H332.219L334.745 273.305H337.11L336.76 275.697ZM341.476 273.184L341.248 275.522C341.06 275.486 340.867 275.455 340.67 275.428C340.482 275.401 340.294 275.388 340.106 275.388C339.524 275.379 339 275.468 338.534 275.657C338.077 275.836 337.669 276.091 337.311 276.422C336.962 276.754 336.662 277.143 336.411 277.591C336.169 278.039 335.976 278.523 335.833 279.042L335.067 279.445C335.166 278.72 335.327 277.976 335.551 277.215C335.784 276.454 336.102 275.751 336.505 275.106C336.917 274.461 337.432 273.941 338.05 273.547C338.677 273.153 339.43 272.969 340.307 272.996C340.504 272.996 340.697 273.014 340.885 273.05C341.082 273.086 341.279 273.131 341.476 273.184Z" fill="#253137"/>
<path d="M347.066 286.083C347.657 286.092 348.208 285.98 348.718 285.747C349.229 285.514 349.663 285.183 350.022 284.753C350.38 284.323 350.635 283.826 350.787 283.261L353.098 283.248C352.955 284.224 352.574 285.08 351.956 285.814C351.347 286.549 350.599 287.122 349.712 287.534C348.835 287.937 347.917 288.13 346.958 288.112C345.937 288.094 345.068 287.883 344.352 287.48C343.644 287.068 343.075 286.522 342.645 285.841C342.215 285.16 341.92 284.394 341.758 283.543C341.597 282.684 341.561 281.801 341.651 280.897L341.705 280.319C341.812 279.342 342.05 278.415 342.417 277.538C342.784 276.651 343.272 275.867 343.881 275.186C344.499 274.497 345.229 273.959 346.071 273.574C346.913 273.189 347.858 273.01 348.906 273.037C349.927 273.054 350.814 273.296 351.567 273.762C352.319 274.219 352.901 274.841 353.313 275.63C353.725 276.418 353.931 277.314 353.931 278.317L351.647 278.303C351.638 277.73 351.526 277.202 351.311 276.718C351.096 276.234 350.778 275.845 350.357 275.549C349.936 275.253 349.417 275.092 348.799 275.065C348.055 275.047 347.406 275.186 346.851 275.482C346.304 275.777 345.838 276.185 345.453 276.705C345.077 277.215 344.777 277.784 344.553 278.411C344.338 279.038 344.19 279.674 344.11 280.319L344.043 280.883C343.989 281.456 343.98 282.043 344.016 282.643C344.06 283.243 344.186 283.803 344.392 284.323C344.598 284.833 344.916 285.25 345.346 285.572C345.776 285.895 346.349 286.065 347.066 286.083Z" fill="#253137"/>
<path d="M361.2 267.205L357.613 287.843H355.181L358.755 267.205H361.2Z" fill="#253137"/>
<path d="M367.636 288.112C366.642 288.094 365.777 287.897 365.043 287.52C364.317 287.135 363.722 286.62 363.256 285.975C362.799 285.321 362.472 284.578 362.275 283.745C362.078 282.912 362.02 282.039 362.1 281.125L362.154 280.547C362.244 279.616 362.472 278.702 362.839 277.806C363.207 276.902 363.695 276.086 364.304 275.361C364.922 274.635 365.648 274.062 366.481 273.641C367.323 273.211 368.254 273.01 369.275 273.037C370.287 273.054 371.129 273.269 371.801 273.681C372.473 274.093 372.997 274.64 373.373 275.321C373.758 275.992 374.009 276.749 374.126 277.591C374.242 278.424 374.251 279.28 374.153 280.158L374.005 281.273H363.457L363.78 279.244L371.828 279.257L371.868 279.042C371.958 278.397 371.922 277.775 371.761 277.175C371.6 276.575 371.304 276.082 370.874 275.697C370.453 275.303 369.884 275.097 369.168 275.079C368.424 275.052 367.779 275.204 367.233 275.536C366.687 275.858 366.23 276.297 365.863 276.852C365.495 277.399 365.204 277.999 364.989 278.653C364.783 279.298 364.64 279.929 364.559 280.547L364.505 281.112C364.452 281.685 364.47 282.263 364.559 282.845C364.649 283.427 364.819 283.96 365.07 284.444C365.33 284.918 365.688 285.308 366.145 285.613C366.602 285.908 367.166 286.065 367.838 286.083C368.653 286.101 369.383 285.926 370.028 285.559C370.682 285.183 371.277 284.708 371.815 284.135L373.199 285.317C372.778 285.935 372.276 286.455 371.694 286.876C371.112 287.297 370.476 287.61 369.786 287.816C369.096 288.022 368.38 288.121 367.636 288.112Z" fill="#253137"/>
</g>
<defs>
<clipPath id="clip0_5_6">
<rect width="399.007" height="94.18" fill="white" transform="translate(50 209)"/>
</clipPath>
</defs>
</svg>
