<svg width="32" height="32" viewBox="0 0 32 32" fill="none" xmlns="http://www.w3.org/2000/svg">
<path d="M22 7.5C23.3785 7.5 24.5 6.3785 24.5 5C24.5 3.6215 23.3785 2.5 22 2.5C20.6215 2.5 19.5 3.6215 19.5 5C19.5 6.3785 20.6215 7.5 22 7.5ZM22 3.5C22.827 3.5 23.5 4.173 23.5 5C23.5 5.827 22.827 6.5 22 6.5C21.173 6.5 20.5 5.827 20.5 5C20.5 4.173 21.173 3.5 22 3.5Z" fill="#A284F5"/>
<path d="M23.5 28.5H22C21.724 28.5 21.5 28.2755 21.5 28V20.5H23.5V22.5H29.5V17.5H23.5V19.5H20C19.724 19.5 19.5 19.2755 19.5 19V15.5H28.5C30.1545 15.5 31.5 14.1545 31.5 12.5C31.5 11.016 30.417 9.7805 29 9.5415C29 9.5275 29 9.5135 29 9.5C29 7.701 28.0455 6.083 26.5 5.1885V3.6495L25.8395 3.4095L26.1375 2.773L24.2275 0.863L23.591 1.1605L23.3505 0.5H20.6495L20.41 1.1605L19.7735 0.863L18.73 1.906C18.0125 1.642 17.2655 1.5 16.5 1.5C13.074 1.5 10.259 4.164 10.017 7.529C8.038 7.7685 6.5 9.458 6.5 11.5C6.5 11.679 6.5145 11.857 6.5385 12.034C4.4555 12.976 3 15.0695 3 17.5V20.005C3 20.762 2.6125 21.507 1.936 22.0495C1.3415 22.527 1 23.238 1 24C1 24.5285 1.173 25.04 1.484 25.464C0.8735 26.0975 0.5 26.9495 0.5 27.8865V31.5H17.5V27.8865C17.5 26.9495 17.1265 26.0975 16.516 25.464C16.827 25.04 17 24.5285 17 24C17 23.238 16.6585 22.527 16.064 22.0495C15.3875 21.507 15 20.7615 15 20.005V17.5C15 16.798 14.8725 16.1265 14.65 15.5H18.5V19C18.5 19.827 19.173 20.5 20 20.5H20.5V28C20.5 28.827 21.173 29.5 22 29.5H23.5V31.5H31.5V26.5H23.5V28.5ZM24.5 18.5H28.5V21.5H24.5V18.5ZM19.985 2.0655L20.5855 2.3465L21.124 2.123L21.3505 1.5H22.6495L22.7995 1.9115L22.9055 2.135L23.415 2.3465L24.0155 2.0655L24.9345 2.984L24.6545 3.583L24.877 4.1235L25.5 4.3505V5.65L25.0885 5.7995L24.867 5.9015L24.6545 6.417L24.9345 7.016L24.0155 7.9345L23.415 7.6535L22.8765 7.877L22.6495 8.5H21.3505L21.2005 8.0885L21.0945 7.865L20.585 7.6535L19.9845 7.9345L19.0655 7.016L19.3455 6.417L19.123 5.8765L18.5 5.6495V4.3505L18.9115 4.201L19.133 4.099L19.3455 3.5835L19.0655 2.9845L19.985 2.0655ZM1.5 27.8865C1.5 26.7155 2.297 25.714 3.4375 25.4505L6.4255 24.761L7.86 30.5H4.5V27.5H3.5V30.5H1.5V27.8865ZM9 22.951C7.1705 22.0775 6 20.2325 6 18.192V17.618C6 17.2325 6.1655 16.8775 6.4465 16.633C7.467 17.5175 8.757 18 10.121 18H11.81C11.915 18 12 18.085 12 18.192C12 20.233 10.8295 22.0775 9 22.951ZM8.803 23.9595L9 24.044L9.197 23.9595C9.491 23.8335 9.7715 23.6865 10.0375 23.5215C10.116 23.8895 10.3285 24.208 10.63 24.4225L10.11 26.5H7.8905L7.371 24.422C7.672 24.2075 7.884 23.8895 7.963 23.5215C8.229 23.6865 8.5095 23.8335 8.803 23.9595ZM9.86 27.5L9.11 30.5H8.89L8.14 27.5H9.86ZM16.5 30.5H14.5V27.5H13.5V30.5H10.14L11.575 24.7615L14.5625 25.451C15.703 25.714 16.5 26.7155 16.5 27.8865V30.5ZM15.438 22.8295C15.795 23.116 16 23.5425 16 24C16 24.31 15.9015 24.6015 15.724 24.85C15.435 24.687 15.125 24.554 14.787 24.476L11.387 23.6915C11.159 23.639 11 23.4385 11 23.2045V22.7825C12.2525 21.617 13 19.9675 13 18.19C13 17.5335 12.4665 17 11.81 17H10.121C8.8865 17 7.7265 16.5195 6.8535 15.6465L6.5985 15.3915L6.276 15.5525C5.4895 15.9465 5 16.738 5 17.618V18.192C5 19.968 5.7475 21.617 7 22.7825V23.2045C7 23.4385 6.841 23.639 6.613 23.6915L3.213 24.476C2.875 24.5545 2.565 24.6875 2.276 24.85C2.0985 24.6015 2 24.31 2 24C2 23.5425 2.205 23.116 2.562 22.8295C3.476 22.096 4 21.0665 4 20.005V17.5C4 14.743 6.243 12.5 9 12.5C11.757 12.5 14 14.743 14 17.5V20.005C14 21.0665 14.524 22.096 15.438 22.8295ZM9 11.5C8.4855 11.5 7.9885 11.572 7.5115 11.6945C7.5075 11.6295 7.5 11.565 7.5 11.5C7.5 9.8455 8.8455 8.5 10.5 8.5H11V8C11 4.9675 13.4675 2.5 16.5 2.5C16.9885 2.5 17.4685 2.571 17.9365 2.6995L17.863 2.773L18.161 3.4095L17.5 3.6495V6.35L18.1605 6.59L17.8625 7.2265L19.7725 9.1365L20.409 8.839L20.6495 9.5H23.3505L23.59 8.8395L24.2265 9.137L26.1365 7.227L25.8385 6.5905L26.4625 6.364C27.4225 7.1125 28 8.2515 28 9.5C28 9.6515 27.9895 9.8005 27.973 9.9475L27.911 10.503H28.47L28.5305 10.5C29.619 10.5165 30.5 11.4075 30.5 12.5C30.5 13.603 29.603 14.5 28.5 14.5H14.188C13.149 12.7095 11.215 11.5 9 11.5ZM24.5 27.5H30.5V30.5H24.5V27.5Z" fill="#A284F5"/>
<path d="M17 10.5C16.173 10.5 15.5 11.173 15.5 12C15.5 12.827 16.173 13.5 17 13.5C17.827 13.5 18.5 12.827 18.5 12C18.5 11.173 17.827 10.5 17 10.5ZM17 12.5C16.724 12.5 16.5 12.2755 16.5 12C16.5 11.7245 16.724 11.5 17 11.5C17.276 11.5 17.5 11.7245 17.5 12C17.5 12.2755 17.276 12.5 17 12.5Z" fill="#A284F5"/>
<path d="M21 10.5C20.173 10.5 19.5 11.173 19.5 12C19.5 12.827 20.173 13.5 21 13.5C21.827 13.5 22.5 12.827 22.5 12C22.5 11.173 21.827 10.5 21 10.5ZM21 12.5C20.724 12.5 20.5 12.2755 20.5 12C20.5 11.7245 20.724 11.5 21 11.5C21.276 11.5 21.5 11.7245 21.5 12C21.5 12.2755 21.276 12.5 21 12.5Z" fill="#A284F5"/>
<path d="M25 10.5C24.173 10.5 23.5 11.173 23.5 12C23.5 12.827 24.173 13.5 25 13.5C25.827 13.5 26.5 12.827 26.5 12C26.5 11.173 25.827 10.5 25 10.5ZM25 12.5C24.724 12.5 24.5 12.2755 24.5 12C24.5 11.7245 24.724 11.5 25 11.5C25.276 11.5 25.5 11.7245 25.5 12C25.5 12.2755 25.276 12.5 25 12.5Z" fill="#A284F5"/>
</svg>
