<svg width="41" height="41" viewBox="0 0 41 41" fill="none" xmlns="http://www.w3.org/2000/svg">
<g clip-path="url(#clip0_0:7118)">
<path fill-rule="evenodd" clip-rule="evenodd" d="M5.9663 36.4916V35.0179C6.65806 35.2027 6.65961 35.3233 7.01901 35.8599C6.40746 36.2694 6.7365 36.2858 5.9663 36.4914V36.4916ZM13.5453 23.6495C15.2559 23.2509 19.7869 20.7021 20.7031 20.7021C21.3198 20.7021 23.6716 21.8964 24.2856 22.1722C25.2355 22.599 26.8871 23.4226 27.861 23.6495V24.0705C26.1504 24.4691 21.6194 27.0179 20.7031 27.0179C19.7867 27.0179 15.2559 24.4691 13.5453 24.0705V23.6495ZM34.3875 11.8601C34.9991 11.4506 34.67 11.4342 35.4402 11.2286V12.7023C34.7485 12.5175 34.7469 12.3969 34.3875 11.8603V11.8601ZM35.8612 15.018C36.4298 15.018 36.4417 14.9174 36.9137 14.8075L37.1242 12.9128H38.8084V23.018C29.8824 23.018 32.2127 23.8186 25.7522 20.9163C25.0937 20.6205 21.1239 18.8076 20.7031 18.8076C20.2436 18.8076 12.8682 22.155 11.8724 22.6085C10.204 23.3685 4.9291 23.043 2.8013 23.0111C1.41002 22.9903 0.703186 22.8682 0.703186 24.2814V35.2289C0.703186 37.0624 2.32025 36.7026 4.28209 36.7026L4.49259 38.5973C6.19585 39.005 6.05692 38.7191 8.47034 36.8909C10.2423 35.5486 8.8468 34.8972 7.61793 33.9982C5.55705 32.4911 4.28209 31.6562 4.28209 34.8079H2.59789V24.7026C11.5239 24.7026 9.19356 23.9021 15.6541 26.8043C16.3126 27.1001 20.2824 28.9133 20.7031 28.9133C21.1627 28.9133 28.5381 25.5659 29.5339 25.1123C31.2023 24.3523 36.4772 24.6778 38.605 24.7097C39.9963 24.7306 40.7031 24.8527 40.7031 23.4394V12.492C40.7031 10.6584 39.086 11.0183 37.1242 11.0183L36.9137 9.12359C35.4088 8.7633 35.7828 8.71965 33.9085 10.1182C33.2353 10.6206 32.1844 11.0382 32.1234 11.8878C32.0421 13.0225 35.6372 15.0182 35.8612 15.0182V15.018Z" fill="#6060EB"/>
<path fill-rule="evenodd" clip-rule="evenodd" d="M12.0714 2.80751H17.124C18.1829 2.80751 19.2423 5.54443 20.9134 5.54443H29.3344V15.4392H12.0712V2.80751H12.0714ZM10.3872 2.80751V15.2287C10.3872 16.5209 11.3891 17.1234 12.7029 17.1234H28.7029C30.0167 17.1234 31.0186 16.5209 31.0186 15.2287V5.33393C31.0186 3.65349 28.5239 3.85336 27.8625 3.85867C26.3188 3.87064 24.773 3.85601 23.2289 3.86067C20.6455 3.86842 21.0689 4.17996 19.6981 2.75987C17.4927 0.475419 18.5049 0.913033 12.7029 0.913033C11.3891 0.913033 10.3872 1.5155 10.3872 2.80774V2.80751Z" fill="#6060EB"/>
<path fill-rule="evenodd" clip-rule="evenodd" d="M12.0714 32.2813H29.3347V39.0181H12.0714V32.2813ZM10.3872 31.4393V40.0708C10.3872 40.7181 11.0038 40.9128 11.6504 40.9128H29.7556C30.402 40.9128 31.0189 40.7178 31.0189 40.0708V31.4393C31.0189 30.9465 30.6694 30.5971 30.1769 30.5971H11.2294C10.7366 30.5971 10.3874 30.9465 10.3874 31.4393H10.3872Z" fill="#6060EB"/>
<path fill-rule="evenodd" clip-rule="evenodd" d="M15.0211 35.2293C15.0211 37.0783 14.845 36.9135 16.4948 36.9135C17.3543 36.9135 17.1263 36.2534 17.1263 34.5976C15.6174 34.5976 15.0211 34.3897 15.0211 35.2291V35.2293Z" fill="#6060EB"/>
<path fill-rule="evenodd" clip-rule="evenodd" d="M24.2813 36.2813C24.2813 37.2221 26.3865 37.2221 26.3865 36.2813C26.3865 34.3345 26.6515 34.5971 24.2813 34.5971V36.2813Z" fill="#6060EB"/>
<path fill-rule="evenodd" clip-rule="evenodd" d="M19.65 35.2284C19.65 37.0775 19.4738 36.9126 21.1237 36.9126C22.0864 36.9126 22.0864 34.5967 21.1237 34.5967C20.0993 34.5967 19.65 34.4542 19.65 35.2282V35.2284Z" fill="#6060EB"/>
<path fill-rule="evenodd" clip-rule="evenodd" d="M19.6485 11.4378H21.7539V9.33258H19.6485V11.4378Z" fill="#6060EB"/>
<path fill-rule="evenodd" clip-rule="evenodd" d="M24.2813 11.4387H26.3865V9.96499C26.3865 9.47996 26.2401 9.3335 25.755 9.3335H24.2813V11.4387Z" fill="#6060EB"/>
<path fill-rule="evenodd" clip-rule="evenodd" d="M15.0195 9.96499V11.4387H17.1247V9.3335H15.651C15.166 9.3335 15.0195 9.47996 15.0195 9.96499Z" fill="#6060EB"/>
<path fill-rule="evenodd" clip-rule="evenodd" d="M22.809 24.4917H24.0722V23.2285H22.809V24.4917Z" fill="#6060EB"/>
<path fill-rule="evenodd" clip-rule="evenodd" d="M17.336 24.4923H18.5992V23.2291H17.336V24.4923Z" fill="#6060EB"/>
<path fill-rule="evenodd" clip-rule="evenodd" d="M20.0712 24.4917H21.3344V23.2285H20.0712V24.4917Z" fill="#6060EB"/>
</g>
<defs>
<clipPath id="clip0_0:7118">
<rect width="40" height="40.0336" fill="white" transform="translate(0.703125 0.878906)"/>
</clipPath>
</defs>
</svg>
