<svg width="151" height="40" viewBox="0 0 151 40" xmlns="http://www.w3.org/2000/svg">
    <g fill-rule="nonzero" fill="none">
        <path fill="#FFF" d="M1.663 1.667h147.619v36.667H1.663z"/>
        <path d="M149.337 1.667v36.666H1.663V1.667h147.674M151 0H0v40H151V0z" fill="#FCD0B1"/>
        <g fill="#333">
            <path d="M55.989 7.833v24.278M55.489 7.833h1v24.278h-1z"/>
        </g>
        <path fill="#FCD0B1" d="M7.816 7.833H19.9v12.111H7.816z"/>
        <g fill="#333">
            <path d="M10.92 9.778v2.278h.666c.72 0 .776-.112.831-.667h.222v1.667h-.222c-.055-.556-.11-.667-.831-.667h-.666v1.944c0 .39.111.5.832.5V15H9.146v-.222c.555 0 .721 0 .721-.445v-4.11c0-.445-.166-.445-.72-.445v-.222h3.436c.444 0 .61 0 .776-.056v1.722h-.221c-.111-1.166-.333-1.389-1.386-1.389h-.832v-.055zM18.071 9.5c.444 0 .61 0 .776-.056v1.723h-.221c-.111-1.167-.333-1.39-1.386-1.39h-.277v4.5c0 .445.166.5.831.5V15h-2.716v-.222c.665 0 .831-.056.831-.5v-4.5h-.277c-1.053 0-1.275.222-1.386 1.389h-.221V9.444c.166 0 .332.056.776.056h3.27z"/>
        </g>
        <g fill="#333">
            <path d="M23.171 12.5c0 .278.056.333.554.333V13h-1.607v-.167c.332 0 .443-.055.443-.277V10c0-.278-.11-.278-.443-.278v-.166h2.217c.277 0 .388 0 .5-.056v1h-.112c-.055-.722-.277-.778-.942-.778h-.61v1.39h.499c.443 0 .499-.056.499-.445h.11v1.055h-.11c-.056-.333-.056-.444-.499-.444h-.499V12.5zM25.111 13v-.167c.333 0 .444-.055.444-.277V10c0-.278-.111-.278-.444-.278v-.166h1.497v.166c-.333 0-.444.056-.444.278v2.556c0 .277.111.277.444.277V13H25.11zM29.99 13.056l-2.384-2.945v2.445c0 .277.221.333.499.333v.167H26.83v-.167c.332 0 .499-.056.499-.333V9.889c-.167-.167-.278-.167-.5-.167v-.166h1.11l1.829 2.333V10c0-.278-.222-.333-.5-.333V9.5h1.276v.167c-.333 0-.5.055-.5.333v3.056h-.055zM31.708 13h-1.275v-.167c.332 0 .499-.055.61-.333l1.108-3h.333l1.22 3.056c.11.277.166.277.387.277V13h-1.44v-.167c.443 0 .498-.055.387-.277l-.388-.945h-1.109l-.332.889c-.111.278.055.333.443.333V13h.056zm-.056-1.611h.943l-.5-1.222-.443 1.222zM37.362 13.056l-2.384-2.945v2.445c0 .277.222.333.5.333v.167h-1.22v-.167c.277 0 .499-.056.499-.333V9.889c-.167-.167-.278-.167-.61-.167v-.166h1.22l1.829 2.333V10c0-.278-.222-.333-.5-.333V9.5h1.276v.167c-.333 0-.5.055-.5.333v3.056h-.11zM40.91 9.5h.11v1.056h-.11c-.111-.612-.388-.89-.998-.89-.665 0-1.109.556-1.109 1.39 0 1.11.665 1.722 1.386 1.722.333 0 .61-.111.887-.39l.11.112c-.22.333-.664.556-1.274.556-.887 0-1.774-.667-1.774-1.778 0-1.056.832-1.834 1.774-1.834.443 0 .72.223.831.223.056 0 .111-.056.167-.167zM41.409 13v-.167c.332 0 .443-.055.443-.277V10c0-.278-.11-.278-.443-.278v-.166h1.496v.166c-.332 0-.443.056-.443.278v2.556c0 .277.11.277.443.277V13H41.41zM44.291 13h-1.164v-.167c.277 0 .388-.055.499-.333l1.109-3h.332l1.22 3.056c.11.277.166.277.388.277V13h-1.442v-.167c.444 0 .5-.055.389-.277l-.389-.945h-1.108l-.333.889c-.11.278.056.333.444.333V13h.055zm0-1.611h.942l-.498-1.222-.444 1.222zM46.952 13v-.167c.333 0 .443-.055.443-.277V10c0-.278-.11-.278-.443-.278v-.166h1.497v.166c-.333 0-.444.056-.444.278v2.611c0 .222.111.278.277.278h.167c.665 0 .887-.111 1.053-.889h.11l-.11 1.056h-2.55V13z"/>
        </g>
        <g fill="#333">
            <path d="M25.222 14.722v1.056h-.11c-.056-.722-.278-.834-.943-.834h-.222v2.834c0 .278.111.333.554.333v.167h-1.718v-.167c.444 0 .554-.055.554-.333v-2.834h-.221c-.666 0-.832.112-.943.834h-.11v-1.056c.11 0 .221.056.498.056h2.162c.333 0 .444 0 .5-.056zM25.61 18.278v-.167c.333 0 .444-.055.444-.278v-2.555c0-.278-.111-.278-.444-.278v-.167h1.497V15c-.333 0-.444.056-.444.278v2.5c0 .278.111.278.444.278v.166H25.61v.056zM31.541 14.778v.166c-.332 0-.443 0-.443.278l.277 2.611c.056.278.111.278.444.278v.167h-1.497v-.167c.333 0 .443-.055.388-.278l-.222-2.722-1.108 3.222h-.056l-1.053-3.222-.277 2.667c-.056.278.166.278.499.278v.166h-1.164v-.166c.332 0 .443-.056.443-.278l.277-2.556c.056-.278-.11-.278-.443-.278v-.166h1.22l.72 2.389.776-2.39h1.22zM34.313 17h-.11c-.056-.333-.056-.444-.5-.444h-.554v1.277c0 .223.11.278.277.278h.277c.666 0 .887-.111 1.054-.889h.11l-.11 1.056H32.04v-.167c.333 0 .444-.055.444-.278v-2.555c0-.278-.111-.278-.444-.278v-.167h2.606v.89h-.111c-.056-.612-.222-.667-.942-.667h-.5V16.5h.555c.443 0 .499-.056.499-.444h.11V17h.056zM37.085 17.556c0-.334-.222-.5-.555-.667l-.554-.278c-.388-.222-.665-.444-.665-.889 0-.555.443-.944 1.053-.944.444 0 .61.222.776.222.056 0 .111-.056.167-.167h.11l.056 1h-.111c-.055-.444-.388-.833-.887-.833-.333 0-.61.222-.61.5 0 .333.277.444.555.611l.499.278c.443.222.776.5.776.944 0 .611-.555 1.056-1.22 1.056-.443 0-.72-.222-.831-.222-.056 0-.111.055-.167.166h-.11l-.056-1.11h.11c.112.666.555.888.999.888.332 0 .665-.167.665-.555z"/>
        </g>
        <g fill="#0A2A42">
            <path d="M9.7 28.722c-.055-.333-.22-.555-.554-.555-.221 0-.388.11-.388.333 0 .722 1.774 1 1.774 2.333 0 .834-.554 1.223-1.33 1.223-.832 0-1.275-.445-1.441-1.278l.831-.222c.056.388.166.722.61.722.222 0 .443-.167.443-.39 0-.777-1.773-1.055-1.773-2.332 0-.723.554-1.223 1.274-1.223.721 0 1.22.5 1.386 1.223l-.831.166zM10.92 28.278V27.5h.5v-1.222h.942V27.5h.61v.778h-.61v2.61c0 .223.11.39.332.39h.333v.833c-.111.056-.222.056-.444.056-.72 0-1.108-.334-1.108-1v-2.834h-.555v-.055zM13.526 28.833c.055-.889.61-1.389 1.496-1.389.887 0 1.386.39 1.386 1.223v2.889c0 .166.056.333.056.5h-.943c0-.112-.055-.223-.055-.334-.333.278-.665.445-1.109.445-.61 0-.942-.445-.942-1 0-1 .665-1.556 1.995-2.056v-.278c0-.389-.166-.555-.443-.555-.444 0-.499.278-.554.61h-.887v-.055zm1.94.89c-.832.5-1.053.777-1.053 1.166 0 .278.166.389.443.389s.444-.167.61-.445v-1.11zM16.963 28.278V27.5h.498v-1.222h.943V27.5h.61v.778h-.61v2.61c0 .223.11.39.332.39h.333v.833c-.11.056-.222.056-.443.056-.721 0-1.11-.334-1.11-1v-2.834h-.553v-.055zM19.679 26.278h1v.833h-1v-.833zm0 1.222h1V32h-1v-4.5zM23.227 28.722c-.056-.333-.222-.555-.555-.555-.222 0-.388.11-.388.333 0 .722 1.774 1 1.774 2.333 0 .834-.554 1.223-1.33 1.223-.832 0-1.275-.445-1.442-1.278l.832-.222c.055.388.166.722.61.722.221 0 .443-.167.443-.39 0-.777-1.774-1.055-1.774-2.332 0-.723.555-1.223 1.275-1.223.72 0 1.22.5 1.386 1.223l-.831.166zM24.39 28.278V27.5h.555v-1.222h.942V27.5h.61v.778h-.61v2.61c0 .223.111.39.333.39h.332v.833c-.11.056-.221.056-.443.056-.72 0-1.109-.334-1.109-1v-2.834h-.61v-.055zM26.996 28.833c.055-.889.61-1.389 1.497-1.389.887 0 1.385.39 1.385 1.223v2.889c0 .166.056.333.056.5h-.887c0-.112-.055-.223-.055-.334-.333.278-.666.445-1.11.445-.609 0-.941-.445-.941-1 0-1 .665-1.556 1.995-2.056v-.278c0-.389-.166-.555-.443-.555-.444 0-.5.278-.555.61h-.942v-.055zm1.94.89c-.831.5-1.053.777-1.053 1.166 0 .278.166.389.443.389.278 0 .444-.167.61-.445v-1.11zM37.307 26.278H31.93c-.111 0-.222.11-.222.222v3.667h.055s.887 0 1.275-.223c.444-.222.832-.722.832-.722.11-.11.166-.278.221-.333.056-.056.056-.111.056-.111s.055-.056.055-.111c0-.056.111-.167.222-.278 0 0 .554-.778 1.275-1.167.831-.444 1.885-.389 1.885-.389v-.444c-.111 0-.167-.111-.277-.111m-1.11 2.11c-.443.223-.83.723-.83.723-.111.111-.167.278-.222.333-.056.056-.056.112-.056.112s-.055.055-.055.11c0 .056-.111.167-.222.278 0 0-.554.778-1.275 1.167-.776.389-1.774.389-1.885.389v.444c0 .112.111.223.222.223h5.377c.111 0 .222-.111.222-.223v-3.666h-.056c.056-.056-.831-.056-1.22.11"/>
        </g>
        <g fill="#333">
            <path d="M61.586 7.889h5.211V9h-1.94v5h-1.275V9h-1.94V7.889zM73.006 7.889v6.167H71.73V11.5h-2.772v2.556h-1.275V7.889h1.275v2.444h2.772V7.89zM78.383 7.889V9H75.5v1.333h2.66v1.111H75.5v1.445h2.883V14h-4.158V7.889zM84.757 7.889l2.329 6.167H85.81l-.555-1.5h-2.273l-.554 1.5h-1.275l2.328-6.167h1.275zm-1.44 3.611h1.496l-.776-2.056-.72 2.056zM90.855 12.722l-1.774-2.666V14h-1.275V7.889h1.164l1.83 2.889 1.829-2.89h1.164v6.168h-1.275V10.11zM99.28 7.889V9h-2.882v1.333h2.661v1.111H96.4v1.445h2.882V14h-4.158V7.889zM101.554 11.722V14h-1.275V7.889h2.55c1.275 0 2.161.667 2.161 1.944 0 1-.554 1.611-1.385 1.834l1.607 2.389h-1.441l-1.497-2.278h-.72v-.056zm0-1h1.164c.665 0 .942-.333.942-.833 0-.5-.333-.833-.942-.833h-1.164v1.666zM107.208 14.056h-1.275V7.889h1.275zM111.144 7.778c.665 0 1.22.166 1.607.5v1.278c-.443-.39-.942-.612-1.552-.612-1.109 0-1.83.778-1.83 2 0 1.223.721 2 1.83 2 .554 0 1.053-.166 1.552-.61v1.277c-.388.278-.942.5-1.607.5-1.774 0-3.05-1.278-3.05-3.167 0-1.888 1.276-3.166 3.05-3.166zM116.909 7.889l2.328 6.167h-1.275l-.555-1.5h-2.272l-.555 1.5h-1.275l2.329-6.167h1.275zm-1.386 3.611h1.496l-.776-2.056-.72 2.056zM119.847 12.333c.554.39 1.22.667 1.94.667.61 0 1.108-.167 1.108-.667 0-.389-.277-.555-.72-.722l-.887-.278c-.887-.277-1.497-.777-1.497-1.777 0-1.167.998-1.778 2.162-1.778.776 0 1.33.166 1.83.5v1.278c-.555-.39-1.11-.667-1.83-.667-.554 0-.942.167-.942.611 0 .389.277.556.665.667l.942.333c1.053.333 1.497.889 1.497 1.833 0 1.223-1.053 1.834-2.328 1.834-.832 0-1.552-.223-1.996-.5v-1.334h.056zM125.279 9.278a.722.722 0 0 1-.61-.722c0-.445.333-.778.776-.778.444 0 .776.278.776.833 0 .278-.166.611-.332.889l-.555.833h-.776l.721-1.055zM61.919 23.056v-6.112h4.102v1.112h-2.827v1.555h2.605v1.111h-2.605v2.334zM69.735 16.944l2.328 6.167h-1.275l-.554-1.5H67.96l-.554 1.5h-1.275l2.328-6.167h1.275zM68.349 20.5h1.497l-.776-2.056-.72 2.056zM72.617 21.389c.555.389 1.275.667 1.94.667.61 0 1.11-.167 1.11-.667 0-.389-.278-.556-.721-.722l-.887-.278c-.887-.278-1.497-.778-1.497-1.778 0-1.167.998-1.778 2.162-1.778.776 0 1.33.167 1.83.5v1.278c-.555-.389-1.11-.667-1.83-.667-.554 0-.942.167-.942.612 0 .388.277.555.665.666l.942.334c1.053.333 1.497.888 1.497 1.833 0 1.222-1.053 1.833-2.328 1.833-.832 0-1.552-.222-1.996-.5V21.39h.055zM77.385 16.944h5.21v1.112H80.6v5h-1.275v-5h-1.94zM87.64 16.944v1.112h-2.883v1.333h2.661V20.5h-2.66v1.444h2.882v1.112h-4.158v-6.112zM88.471 21.389c.555.389 1.275.667 1.94.667.61 0 1.11-.167 1.11-.667 0-.389-.278-.556-.721-.722l-.887-.278c-.887-.278-1.497-.778-1.497-1.778 0-1.167.998-1.778 2.162-1.778.776 0 1.33.167 1.83.5v1.278c-.555-.389-1.11-.667-1.83-.667-.555 0-.943.167-.943.612 0 .388.278.555.666.666l.942.334c1.053.333 1.497.888 1.497 1.833 0 1.222-1.054 1.833-2.328 1.833-.832 0-1.553-.222-1.996-.5V21.39h.055zM93.239 16.944h5.21v1.112h-1.995v5h-1.275v-5h-1.94zM105.268 21.722v-.944h-1.054v-1.056h2.218v2.556c-.61.61-1.386.889-2.218.889-1.829 0-3.048-1.278-3.048-3.167 0-1.889 1.33-3.167 3.16-3.167.72 0 1.33.167 1.773.5v1.278a2.747 2.747 0 0 0-1.774-.611c-1.108 0-1.884.778-1.884 2 0 1.167.665 2 1.773 2 .388 0 .776-.056 1.054-.278zM108.704 20.778v2.278h-1.274v-6.112h2.55c1.274 0 2.161.667 2.161 1.945 0 1-.554 1.611-1.385 1.833l1.607 2.39h-1.441l-1.497-2.279h-.72v-.055zm0-1.056h1.165c.665 0 .942-.333.942-.833 0-.5-.333-.833-.942-.833h-1.165v1.666zM115.69 23.167c-1.72 0-2.883-1.334-2.883-3.167 0-1.833 1.164-3.167 2.882-3.167 1.718 0 2.883 1.334 2.883 3.167 0 1.833-1.165 3.167-2.883 3.167zm0-5.223c-.943 0-1.609.834-1.609 2.056s.61 2.056 1.608 2.056c.998 0 1.608-.834 1.608-2.056s-.61-2.056-1.608-2.056zM123.283 16.944l1.054 4.112.997-4.112h1.275l-1.607 6.167h-1.164l-1.053-4.055-1.054 4.055h-1.164l-1.607-6.167h1.275l.997 4.112 1.054-4.112zM128.66 23.056h-1.275v-6.112h1.275zM134.98 23.056h-.998l-2.883-4.112v4.112h-1.219v-6.112h1.22l2.716 3.89v-3.89h1.22v6.112zM139.969 21.722v-.944h-1.053v-1.056h2.217v2.556c-.61.61-1.386.889-2.217.889-1.83 0-3.05-1.278-3.05-3.167 0-1.889 1.331-3.167 3.16-3.167.721 0 1.33.167 1.774.5v1.278a2.747 2.747 0 0 0-1.774-.611c-1.108 0-1.884.778-1.884 2 0 1.167.665 2 1.774 2 .388 0 .776-.056 1.053-.278zM64.69 25.833c.666 0 1.22.167 1.608.5v1.278c-.443-.389-.942-.611-1.552-.611-1.109 0-1.83.778-1.83 2s.721 2 1.83 2c.554 0 1.053-.167 1.552-.611v1.278c-.388.277-.942.5-1.607.5-1.774 0-3.05-1.278-3.05-3.167 0-1.889 1.276-3.167 3.05-3.167zM69.901 32.222c-1.718 0-2.882-1.333-2.882-3.166 0-1.834 1.164-3.167 2.882-3.167 1.719 0 2.883 1.333 2.883 3.167 0 1.777-1.22 3.166-2.883 3.166zm0-5.222c-.942 0-1.607.833-1.607 2.056 0 1.222.61 2.055 1.607 2.055.998 0 1.608-.833 1.608-2.055 0-1.223-.665-2.056-1.608-2.056zM76.72 30.778l-1.774-2.667v3.945h-1.22v-6.112h1.164l1.83 2.89 1.829-2.89h1.164v6.167h-1.275v-3.944zM82.207 29.944v2.112h-1.275v-6.112h2.495c1.275 0 2.162.723 2.162 2 0 1.278-.832 2-2.162 2h-1.22zm1.165-2.888h-1.165v1.833h1.165c.665 0 .997-.389.997-.889 0-.611-.332-.944-.997-.944zM89.192 25.944l2.328 6.167h-1.275l-.554-1.5h-2.273l-.554 1.5h-1.275l2.328-6.167h1.275zm-1.441 3.612h1.496l-.776-2.056-.72 2.056zM97.396 32.111h-.998L93.516 28v4.111h-1.22v-6.167h1.22l2.716 3.89v-3.89h1.22v6.167zM99.89 32.111h-1.274v-6.167h1.275zM105.268 25.944v1.112h-2.883v1.333h2.66V29.5h-2.66v1.444h2.883v1.112h-4.158v-6.112zM106.044 30.389c.554.389 1.275.667 1.94.667.61 0 1.109-.167 1.109-.667 0-.389-.278-.556-.721-.722l-.887-.278c-.887-.278-1.497-.778-1.497-1.778 0-1.167.998-1.778 2.162-1.778.776 0 1.33.167 1.83.5v1.223c-.555-.39-1.11-.667-1.83-.667-.554 0-.942.167-.942.611 0 .389.277.556.665.667l.942.333c1.054.333 1.497.889 1.497 1.833 0 1.223-1.053 1.834-2.328 1.834-.832 0-1.552-.223-1.996-.5v-1.278h.056zM117.186 31v1.111h-4.213v-.055l1.774-2.334c.554-.722.997-1.222.997-1.889 0-.5-.332-.777-.886-.777-.666 0-1.33.444-1.719.777v-1.222a3.052 3.052 0 0 1 1.94-.722c1.164 0 1.94.722 1.94 1.833 0 .834-.498 1.556-1.108 2.334l-.72 1h1.995V31zM117.796 29c0-1.889.997-3.167 2.439-3.167 1.44 0 2.439 1.278 2.439 3.167 0 1.889-.998 3.167-2.44 3.167-1.44 0-2.438-1.278-2.438-3.167zm1.274 0c0 1.167.333 2.056 1.165 2.056.831 0 1.164-.89 1.164-2.056 0-1.167-.333-2.056-1.164-2.056-.832.056-1.165.945-1.165 2.056zM127.22 31v1.111h-4.158v-.055l1.774-2.334c.554-.722.997-1.222.997-1.889 0-.5-.332-.777-.887-.777-.665 0-1.33.444-1.718.777v-1.222a3.052 3.052 0 0 1 1.94-.722c1.164 0 1.94.722 1.94 1.833 0 .834-.499 1.556-1.108 2.334l-.721 1h1.94V31zM131.876 31v1.111h-4.213v-.055l1.773-2.334c.555-.722.998-1.222.998-1.889 0-.5-.332-.777-.887-.777-.665 0-1.33.444-1.718.777v-1.222a3.052 3.052 0 0 1 1.94-.722c1.164 0 1.94.722 1.94 1.833 0 .834-.499 1.556-1.108 2.334l-.721 1h1.996V31z"/>
        </g>
    </g>
</svg>
