<svg width="58" height="58" viewBox="0 0 58 58" fill="none" xmlns="http://www.w3.org/2000/svg">
<circle opacity="0.15" cx="29" cy="29" r="29" fill="white"/>
<path d="M24.9997 14C21.3237 14 18.333 16.9907 18.333 20.6667C18.333 24.3427 21.3237 27.3333 24.9997 27.3333C28.6757 27.3333 31.6663 24.3427 31.6663 20.6667C31.6663 16.9907 28.6757 14 24.9997 14Z" fill="white"/>
<path d="M35.109 43.972C34.5703 43.848 34.2357 43.312 34.3583 42.7734L36.3583 34.1067C36.4837 33.5694 37.021 33.2294 37.557 33.3574C38.0957 33.4814 38.4303 34.0174 38.3077 34.556L36.3077 43.2227C36.181 43.7747 35.6277 44.0987 35.109 43.972Z" fill="white"/>
<path d="M40.6666 42.6653C40.3933 42.6653 40.1213 42.5533 39.9226 42.3346C39.5532 41.9226 39.5866 41.292 39.9973 40.9213L42.5053 38.6653L39.9973 36.4093C39.5866 36.04 39.5532 35.408 39.9226 34.996C40.2933 34.5853 40.9253 34.5533 41.3359 34.9213L44.6693 37.9213C44.8799 38.112 44.9999 38.3813 44.9999 38.6653C44.9999 38.9493 44.8799 39.2186 44.6693 39.4093L41.3359 42.4093C41.1439 42.5813 40.9053 42.6653 40.6666 42.6653Z" fill="white"/>
<path d="M32.0003 42.668C31.7617 42.668 31.523 42.584 31.331 42.412L27.9977 39.412C27.787 39.2213 27.667 38.952 27.667 38.668C27.667 38.384 27.787 38.1146 27.9977 37.924L31.331 34.924C31.7417 34.556 32.3737 34.5893 32.7443 34.9986C33.1137 35.4106 33.0803 36.0413 32.6697 36.412L30.1617 38.668L32.6697 40.924C33.0803 41.2933 33.1137 41.9253 32.7443 42.3373C32.5457 42.556 32.2737 42.668 32.0003 42.668Z" fill="white"/>
<path d="M25.3333 38.6667C25.3333 37.632 25.7747 36.6387 26.5427 35.9453L29.88 32.9413C30.5573 32.3333 31.4267 32.0013 32.332 32.0013C33.0827 32.0013 33.808 32.2387 34.4173 32.6587C34.8707 31.772 35.66 31.116 36.6027 30.8293C35.4653 29.1253 32.196 27 30 27H20C16.508 27 13 30.8413 13 34.3333V39.6667C13 40.2187 13.448 40.6667 14 40.6667H25.944C25.5573 40.0747 25.3333 39.384 25.3333 38.6667Z" fill="white"/>
</svg>
