<svg width="41" height="41" viewBox="0 0 41 41" fill="none" xmlns="http://www.w3.org/2000/svg">
<g clip-path="url(#clip0_0:7274)">
<path fill-rule="evenodd" clip-rule="evenodd" d="M29.3749 26.4578L36.8947 32.469C38.5807 33.7907 38.8889 33.8006 38.8889 35.9719C38.8889 37.8112 37.1821 38.2975 35.7175 38.2975C34.2528 38.2975 33.6224 36.9355 32.0675 35.3935L28.8897 31.8057C28.1437 30.9133 27.3556 30.2569 26.6263 29.4178C27.1305 28.6648 28.6071 26.9719 29.3749 26.4578V26.4578ZM24.5121 28.572C23.9197 28.572 23.2917 27.691 23.0322 27.3034C24.4607 26.5475 26.2861 24.517 27.0492 23.075L28.5785 24.5056C27.9899 25.5741 27.4866 25.9148 26.6792 26.722C26.2321 27.169 25.1445 28.5719 24.5121 28.5719V28.572ZM8.02102 19.6922C8.02102 17.9701 9.22056 17.578 10.5581 17.578C13.8607 17.578 12.9259 23.4687 9.36718 21.9553C8.43617 21.5594 8.02102 20.9243 8.02102 19.6922ZM25.5692 16.3094C25.5692 13.7361 30.2205 13.2085 30.2205 16.7323C30.2205 19.3162 25.5692 19.9557 25.5692 16.3094ZM14.7867 11.2353C14.7867 7.42672 19.4379 8.37117 19.4379 10.8124C19.4379 14.1648 14.7867 13.8525 14.7867 11.2353ZM13.0952 10.3896C13.0952 12.0665 13.0549 12.2377 13.9409 13.561C13.4166 14.344 12.4043 15.5184 12.2495 16.098C10.484 15.9511 10.1508 15.3306 8.40021 16.2656C4.69892 18.2424 6.32722 23.9207 10.1353 23.9207C12.556 23.9207 14.3637 22.1087 14.3637 19.6922C14.3637 17.0427 12.5249 18.2044 14.3618 15.8846C14.7862 15.3487 15.0285 15.2959 15.2094 14.618C18.4095 15.3636 18.0427 15.0615 20.2835 13.561C21.2891 14.093 22.9857 15.2066 24.0892 15.4638C23.2344 17.2451 24.342 19.2297 26.4149 20.3265C26.1789 23.1627 20.8047 28.1492 15.6323 28.1492C13.2156 28.1492 11.8265 28.0853 9.56628 27.0268C8.95261 26.7394 8.33541 26.3652 7.81747 26.0272C6.09483 24.9028 4.6918 23.2379 3.78783 21.3884C-1.87706 9.79719 11.3193 -2.68997 23.0367 6.15665C24.8786 7.54723 26.5107 10.404 27.0492 12.7153C25.7551 12.823 25.5256 13.4467 24.7235 13.9838L20.9179 12.081C21.866 10.105 19.8598 7.00693 17.7465 7.00693C16.2428 7.00693 15.4788 6.91636 14.3033 8.00361C13.8251 8.44587 13.0952 9.57291 13.0952 10.3897V10.3896ZM36.3518 1.93266C38.298 1.93266 38.8889 2.52357 38.8889 4.46974C38.8889 6.3496 36.3829 7.16867 35.0163 5.80525C33.7422 4.53413 34.3248 1.93266 36.3518 1.93266ZM32.5462 4.25831C32.5462 7.51121 35.3585 4.93307 31.5486 10.0263C31.0347 10.7134 29.885 12.5529 29.3749 12.9267C29.1163 12.7312 29.6125 12.7896 28.7406 12.7153C28.7064 11.179 27.6599 9.31503 27.0406 8.28401C19.1324 -4.88098 -1.78707 2.53208 0.947826 18.3086C1.12578 19.3352 1.38499 20.0875 1.70528 20.9339C3.51189 25.708 8.83887 29.8406 13.5181 29.8406C15.6222 29.8406 16.9344 29.9945 18.9408 29.3435L21.5522 28.3606C22.3306 28.8819 22.7885 29.7326 23.5997 30.1287C24.2934 30.4674 24.4824 30.31 24.9663 30.4106C26.0276 30.6311 31.9968 38.4092 33.7379 39.4315C38.0296 41.9515 42.5276 37.0894 39.9443 33.0137C39.2498 31.918 32.4111 26.6462 31.3033 25.798C28.9553 24.0001 31.6184 24.9304 28.792 22.3895C28.3059 21.9526 28.0665 21.8146 27.8949 21.1723C29.222 19.6455 31.912 20.6915 31.912 16.0981C31.912 15.2963 31.1974 14.284 30.8549 13.7724C31.0724 13.613 34.9117 8.49521 35.0833 7.85253C39.6777 10.057 43.169 2.8287 38.4069 0.511967C35.2394 -1.02901 32.5462 1.73195 32.5462 4.25831H32.5462Z" fill="#FA8B26"/>
</g>
<defs>
<clipPath id="clip0_0:7274">
<rect width="40" height="40.0572" fill="white" transform="translate(0.703125 0.0671387)"/>
</clipPath>
</defs>
</svg>
