<?xml version="1.0" encoding="utf-8"?>
<!-- Generator: Adobe Illustrator 22.1.0, SVG Export Plug-In . SVG Version: 6.00 Build 0)  -->
<svg version="1.1" id="Layer_1" xmlns="http://www.w3.org/2000/svg" xmlns:xlink="http://www.w3.org/1999/xlink" x="0px" y="0px"
	 viewBox="0 0 512 512" enable-background="new 0 0 512 512" xml:space="preserve">
<g>
	<path d="M511.1,244.9c-0.3-0.4-0.7-0.8-0.8-1.2c-5.7-36.2-11.4-72.4-17.2-108.6c-2.2-13.9-4.3-27.9-6.7-41.7c-1.2-7.2-5-9.5-12-8.1
		c-2.3,0.4-4.6,0.8-6.7,1.7c-16.2,6.1-25.5,19.3-25.4,37.1c0.1,20.1,0.7,40.2,1.2,60.3c0.1,2.5-0.2,3.9-3.1,4.4
		c-18,3.2-29.9,13.8-37.4,30.2c-6.3,13.9-13.2,27.4-19.6,41.3c-4.7,10.2-11.3,18.6-20.1,25.5c-17.9,14.1-30,32.1-35.6,54.3
		c-2.2,8.9-2.8,18-2.9,27.6c-2.2-1-4-1.8-5.7-2.6c-9.1-4.3-12.4-3.1-16.8,6.1c-7.4,15.5-14.9,31.1-22.2,46.6
		c-3.7,7.9-2.3,11.8,5.5,15.5c14.5,6.9,29,13.8,43.5,20.7c22.7,10.8,45.4,21.6,68.2,32.4c6.5,3.1,10.9,2.3,13.6-3.2
		c8.6-17.5,17-35.2,25.2-52.9c2.1-4.5,0.8-9.2-3.7-11c-5.3-2.2-5.4-6-6-10.5c-2-13.3,2-23.9,10.9-34.1
		c17.7-20.2,34.4-41.4,51.6-62.1c10.2-12.2,16.4-26.3,20-41.7c0.8-3.3,0.5-6.8,2.2-10v-3c-0.8-2.3-0.8-4.7,0-7V244.9z M415.5,433.6
		c-5,10.5-10.1,20.9-14.9,31.4c-1.4,3.1-2.7,2.6-5,1.5c-31.4-15-62.7-29.9-94.2-44.8c-2.5-1.2-3.4-2.1-2-5
		c5.2-10.4,10.2-20.8,14.9-31.4c1.3-2.8,2.4-2.6,4.7-1.5c31.4,15,62.7,29.9,94.1,44.9c1.2,0.6,3,0.7,3.3,2.6
		C416.2,432.1,415.9,432.8,415.5,433.6z M480.6,294.7c-10,14.9-22.5,27.9-33.8,41.8c-8.9,11-17.9,21.8-27,32.7
		c-8.4,10.1-12.1,21.5-10.7,34.6c0.1,1.1,0,2.3,0,3.9c-3.7-1.8-7.1-3.4-10.5-5c-17.2-8.2-34.4-16.4-51.6-24.4
		c-3.1-1.5-4.2-3.4-4.4-6.7c-2.4-30.2,8.8-54.4,32.3-73.1c10.2-8.1,18-17.9,23.6-29.8c6.9-14.9,14-29.6,21.1-44.4
		c6.7-14,18.9-20.7,34.1-18.7c-9,19-17.9,37.5-26.7,56c-1.9,4-3.8,8.1-5.7,12.1c-3,6.5-2,11.5,2.8,13.8c4.8,2.3,9.5,0,12.5-6.3
		c11.3-23.6,22.5-47.2,33.8-70.8c0.3-0.6,0.6-1.2,0.9-1.8c5.1-10.7,4-13.6-7-17.8c-2.3-0.9-3.3-2-3.4-4.6
		c-0.4-20.6-1.1-41.2-1.4-61.8c-0.2-8.6,3.3-15.4,11.5-20.1c1.8,11,3.6,21.7,5.3,32.3c5.8,36.7,11.9,73.4,17.2,110.1
		C495.8,264.1,490.3,280.4,480.6,294.7z"/>
	<path fill="#1A1A1A" d="M511.1,257.8c-1.7-2.3-1.5-4.7,0-7C511.1,253.2,511.1,255.5,511.1,257.8z"/>
	<path d="M232.7,420c-8.1-17.6-16.5-35-25-52.4c-2.5-5.1-6.8-6.3-12.2-4c-2.7,1.1-5.4,2.5-8.5,3.9c-0.1-1.4-0.2-2-0.2-2.7
		c-0.1-33.5-13.9-60.1-40.2-80.6c-7.6-5.9-13.3-13.4-17.4-22.1c-7.2-15.3-14.5-30.5-21.8-45.7c-7.3-15-18.9-24.5-35.4-27.5
		c-3-0.6-3.9-1.7-3.8-4.8c0.6-20.4,1.3-40.8,1.2-61.3c0-19.8-14.2-35.4-33.8-38c-3.6-0.5-6.6,0.7-8.7,3.7c-1.7,2.5-1.8,5.6-2.3,8.6
		c-5.8,36.9-11.7,73.7-17.5,110.5c-2.2,13.9-5.6,27.8-6.1,41.8c-0.9,23.6,6.9,45,22.1,63.4c18.6,22.5,37.2,45.1,55.8,67.6
		c4.4,5.3,7.1,11.2,6.8,18.2c-0.2,5-0.7,9.9-0.9,14.9c-0.1,2.3-1.1,3.4-3.2,4.4c-7,3.5-8.4,7.5-5.1,14.5
		c7.7,16.3,15.5,32.6,23.3,48.9c3.4,7.1,7.3,8.5,14.4,5.2c9.9-4.6,19.7-9.4,29.6-14.1c27.5-13.1,55-26.2,82.5-39.3
		C233.1,429.8,235.3,425.7,232.7,420z M36.2,301.7c-12.1-14.6-18.5-31.6-18.2-50.4c0.2-11.3,3-22.6,4.8-33.9
		c5.9-37,11.8-74,17.7-111c0.1-0.6,0.2-1.2,0.4-2.2c6.9,3.9,11.3,9.4,11.3,16.9c-0.1,22.1-0.8,44.1-1.2,66.2c0,1.8-0.8,2.7-2.5,3.1
		c-0.8,0.2-1.6,0.6-2.3,0.8c-8.6,3.2-10.3,7.2-6.3,15.7c9.4,19.7,18.8,39.4,28.2,59.2c2.1,4.5,4.6,8.8,6.4,13.5
		c3.7,9.4,9.1,9.9,13.4,7.9c5.3-2.3,5.9-7.3,2.2-15.1c-9.8-20.6-19.6-41.2-29.5-61.9c-0.7-1.5-1.3-3-2-4.5
		c11.2-3.3,25.6,2.9,31.8,14.8c8,15.4,15.4,31.2,22.7,46.9c5.8,12.5,14,22.7,24.7,31.3c23.6,19,34.2,43.6,31.5,73.9
		c-0.2,2.2-0.7,3.6-2.9,4.6c-20.8,9.8-41.6,19.7-62.3,29.6c-0.3,0.1-0.6,0-1.5,0.1c1-9.5,0.7-18.5-3.4-27.1
		c-2.2-4.5-5.1-8.5-8.3-12.4C72.6,345.7,54.4,323.7,36.2,301.7z M211,421.3c-32,15.3-64,30.5-95.9,45.7c-1.9,0.9-2.8,0.7-3.7-1.3
		c-5.1-11-10.2-21.9-15.6-32.7c-1.7-3.5,1.1-3.6,2.7-4.3c23.9-11.4,47.8-22.8,71.7-34.2c7.6-3.6,15.3-7.2,22.8-10.9
		c1.7-0.8,2.8-1.2,3.8,1c5.2,11.1,10.5,22.1,15.8,33.2c0.2,0.5,0.3,0.9,0.6,1.5C213.4,420.7,211.9,420.8,211,421.3z"/>
	<path d="M364.1,66.7c0-6.9-1.7-9.1-8.3-11.2c-31.5-10.2-63-20.3-94.5-30.6c-3.6-1.2-7-1.2-10.7,0C219.4,35,188.2,45.1,157,55.1
		c-8.1,2.6-9.4,4.4-9.4,12.9c0,21.4,0,42.9,0,64.3c0,21.3,0,42.5,0,63.8c0,9,1.2,10.7,9.9,13.5c30.9,10,61.8,19.9,92.6,29.9
		c3.6,1.2,7,1.4,10.7,0.2c31.7-10.3,63.3-20.5,95-30.7c6.5-2.1,8.2-4.3,8.2-11.3C364.1,154.1,364.1,110.4,364.1,66.7z M247.3,215.6
		c0,3.7-0.3,4.9-4.5,3.5c-24.7-8.2-49.4-16.1-74.2-24c-2.5-0.8-3.8-1.7-3.8-4.7c0.1-37.4,0.1-74.7,0.1-112.1c0-0.5,0.1-1,0.3-2.2
		c22.6,7.3,44.8,14.3,66.9,21.6c5,1.6,11.9,1.6,14.4,5.5c2.3,3.7,0.8,10,0.8,15.1C247.3,150.9,247.2,183.3,247.3,215.6z M258.7,86.5
		c-1.6,0.5-3,0.9-4.8,0.4c-22.3-7.3-44.7-14.4-67.1-21.6c-0.4-0.1-0.7-0.6-1.4-1.2c21.3-6.9,42.4-13.5,63.3-20.6
		c5-1.7,9.4-1.6,14.3,0c20.9,7,41.8,13.6,62.8,20.4c0,1.4-1.1,1.4-2,1.7C302.2,72.5,280.4,79.5,258.7,86.5z M342.1,195.7
		c-24.5,7.6-48.9,15.5-73.3,23.5c-3.8,1.2-4.4,0.5-4.4-3.2c0.1-36.4,0.1-72.7,0-109.1c0-2.4,0-4.3,3-5.3c26-8.2,52-16.7,78-25
		c0.3-0.1,0.6,0,1.4,0.1v4.9c0,35.7-0.1,71.4,0.1,107.1C347,192.6,346.1,194.4,342.1,195.7z"/>
</g>
</svg>
