<svg width="87" height="87" viewBox="0 0 87 87" fill="none" xmlns="http://www.w3.org/2000/svg">
<circle opacity="0.12" cx="43.2344" cy="43.998" r="43" fill="#FA8B26"/>
<path d="M43.1156 27.5483C34.7201 27.5483 35.2443 31.1891 35.2443 31.1891L35.2537 34.961H43.2653V36.0935H32.0715C32.0715 36.0935 26.6992 35.4842 26.6992 43.9553C26.6992 52.4265 31.3883 52.1261 31.3883 52.1261H34.1867V48.1951C34.1867 48.1951 34.0359 43.5061 38.8009 43.5061C43.5659 43.5061 46.747 43.5061 46.747 43.5061C46.747 43.5061 51.2115 43.5783 51.2115 39.1914C51.2115 34.8046 51.2115 31.9379 51.2115 31.9379C51.2115 31.9379 51.8893 27.5483 43.1156 27.5483ZM38.698 30.0847C39.4951 30.0847 40.1393 30.729 40.1393 31.5261C40.1393 32.3232 39.4951 32.9674 38.698 32.9674C37.9009 32.9674 37.2566 32.3232 37.2566 31.5261C37.2566 30.729 37.9009 30.0847 38.698 30.0847Z" fill="url(#paint0_linear)"/>
<path d="M43.3541 60.4477C51.7496 60.4477 51.2254 56.8069 51.2254 56.8069L51.216 53.0351H43.2044V51.9026H54.3982C54.3982 51.9026 59.7705 52.5119 59.7705 44.0407C59.7705 35.5696 55.0814 35.87 55.0814 35.87H52.283V39.8009C52.283 39.8009 52.4338 44.49 47.6688 44.49C42.9038 44.49 39.7227 44.49 39.7227 44.49C39.7227 44.49 35.2582 44.4178 35.2582 48.8046C35.2582 53.1915 35.2582 56.0582 35.2582 56.0582C35.2582 56.0582 34.5804 60.4477 43.3541 60.4477ZM47.7717 57.9113C46.9746 57.9113 46.3304 57.2671 46.3304 56.47C46.3304 55.6729 46.9746 55.0286 47.7717 55.0286C48.5688 55.0286 49.2131 55.6729 49.2131 56.47C49.2131 57.2671 48.5688 57.9113 47.7717 57.9113Z" fill="url(#paint1_linear)"/>
<defs>
<linearGradient id="paint0_linear" x1="29.8774" y1="30.424" x2="46.2301" y2="46.8314" gradientUnits="userSpaceOnUse">
<stop stop-color="#387EB8"/>
<stop offset="1" stop-color="#366994"/>
</linearGradient>
<linearGradient id="paint1_linear" x1="39.937" y1="40.8621" x2="57.4999" y2="57.6882" gradientUnits="userSpaceOnUse">
<stop stop-color="#FFE052"/>
<stop offset="1" stop-color="#FFC331"/>
</linearGradient>
</defs>
</svg>
