<svg width="87" height="87" viewBox="0 0 87 87" fill="none" xmlns="http://www.w3.org/2000/svg">
<circle opacity="0.12" cx="43.5469" cy="43.5" r="43" fill="#FA8B26"/>
<path d="M67.1101 43.5044C67.1101 40.3825 63.2006 37.424 57.2066 35.5893C58.5898 29.48 57.975 24.6195 55.2662 23.0634C54.6419 22.6984 53.9118 22.5255 53.1145 22.5255V24.6676C53.5564 24.6676 53.9118 24.754 54.2096 24.9173C55.516 25.6665 56.0827 28.5195 55.6409 32.1888C55.5352 33.0918 55.3623 34.0427 55.151 35.0129C53.2682 34.5519 51.2126 34.1964 49.0513 33.9659C47.7545 32.1888 46.4097 30.5751 45.0553 29.163C48.1868 26.2525 51.1262 24.6579 53.1241 24.6579V22.5159C50.4826 22.5159 47.0245 24.3986 43.528 27.6645C40.0315 24.4178 36.5735 22.5543 33.9319 22.5543V24.6964C35.9203 24.6964 38.8692 26.2813 42.0007 29.1726C40.6559 30.5847 39.3111 32.1888 38.0335 33.9659C35.8626 34.1964 33.807 34.5519 31.9243 35.0225C31.7034 34.062 31.5401 33.1302 31.4248 32.2369C30.9733 28.5675 31.5305 25.7146 32.8272 24.9557C33.1154 24.7828 33.49 24.706 33.9319 24.706V22.5639C33.125 22.5639 32.395 22.7368 31.761 23.1018C29.0618 24.6579 28.4566 29.5088 29.8495 35.5989C23.8747 37.4432 19.9844 40.3921 19.9844 43.5044C19.9844 46.6263 23.8939 49.5848 29.8879 51.4195C28.5047 57.5288 29.1194 62.3893 31.8282 63.9454C32.4526 64.3104 33.1826 64.4833 33.9895 64.4833C36.6311 64.4833 40.0892 62.6006 43.5857 59.3346C47.0821 62.5814 50.5402 64.4449 53.1818 64.4449C53.9887 64.4449 54.7187 64.272 55.3527 63.907C58.0519 62.3508 58.657 57.4999 57.2642 51.4099C63.2198 49.5752 67.1101 46.6166 67.1101 43.5044ZM54.6034 37.0974C54.248 38.3365 53.8062 39.6141 53.3067 40.8916C52.9128 40.1232 52.4998 39.3547 52.0483 38.5863C51.6064 37.8178 51.1358 37.0686 50.6651 36.3385C52.0291 36.5402 53.3451 36.79 54.6034 37.0974ZM50.204 47.3275C49.4548 48.6242 48.6863 49.8538 47.889 50.9969C46.4578 51.1217 45.0073 51.189 43.5472 51.189C42.0968 51.189 40.6463 51.1217 39.2247 51.0065C38.4274 49.8634 37.6493 48.6435 36.9001 47.3563C36.17 46.0979 35.5072 44.8204 34.9021 43.5332C35.4976 42.246 36.17 40.9589 36.8905 39.7005C37.6397 38.4037 38.4082 37.1742 39.2054 36.0311C40.6367 35.9063 42.0872 35.839 43.5472 35.839C44.9977 35.839 46.4482 35.9063 47.8698 36.0215C48.6671 37.1646 49.4452 38.3845 50.1944 39.6717C50.9244 40.9301 51.5872 42.2076 52.1924 43.4948C51.5872 44.782 50.9244 46.0691 50.204 47.3275ZM53.3067 46.0787C53.8254 47.3659 54.2672 48.6531 54.6322 49.9018C53.3739 50.2092 52.0483 50.4685 50.6747 50.6703C51.1454 49.9306 51.6161 49.1718 52.0579 48.3937C52.4998 47.6252 52.9128 46.8472 53.3067 46.0787ZM43.5664 56.328C42.6731 55.4059 41.7798 54.3781 40.8961 53.2542C41.7606 53.2926 42.6443 53.3214 43.5376 53.3214C44.4406 53.3214 45.3339 53.3022 46.208 53.2542C45.3435 54.3781 44.4502 55.4059 43.5664 56.328ZM36.4198 50.6703C35.0558 50.4685 33.7398 50.2188 32.4814 49.9114C32.8368 48.6723 33.2787 47.3947 33.7782 46.1172C34.172 46.8856 34.5851 47.6541 35.0366 48.4225C35.488 49.191 35.9491 49.9402 36.4198 50.6703ZM43.5184 30.6807C44.4118 31.6029 45.3051 32.6307 46.1888 33.7546C45.3243 33.7162 44.4406 33.6873 43.5472 33.6873C42.6443 33.6873 41.751 33.7065 40.8768 33.7546C41.7414 32.6307 42.6347 31.6029 43.5184 30.6807ZM36.4102 36.3385C35.9395 37.0782 35.4688 37.837 35.0269 38.6151C34.5851 39.3835 34.172 40.152 33.7782 40.9205C33.2595 39.6333 32.8176 38.3461 32.4526 37.0974C33.711 36.7996 35.0366 36.5402 36.4102 36.3385ZM27.717 48.3649C24.3166 46.9144 22.1168 45.0125 22.1168 43.5044C22.1168 41.9963 24.3166 40.0848 27.717 38.6439C28.5431 38.2885 29.446 37.9715 30.3778 37.6737C30.9253 39.5564 31.6457 41.516 32.5391 43.5236C31.6553 45.5216 30.9445 47.4716 30.4066 49.3447C29.4556 49.0469 28.5527 48.7203 27.717 48.3649ZM32.8849 62.0915C31.5785 61.3422 31.0118 58.4893 31.4536 54.8199C31.5593 53.917 31.7322 52.966 31.9435 51.9959C33.8262 52.4569 35.8819 52.8123 38.0431 53.0429C39.3399 54.8199 40.6847 56.4337 42.0391 57.8457C38.9077 60.7563 35.9683 62.3508 33.9703 62.3508C33.5381 62.3412 33.173 62.2548 32.8849 62.0915ZM55.6697 54.7719C56.1211 58.4413 55.564 61.2942 54.2672 62.0531C53.9791 62.226 53.6044 62.3028 53.1626 62.3028C51.1742 62.3028 48.2252 60.7179 45.0938 57.8265C46.4386 56.4145 47.7834 54.8103 49.0609 53.0333C51.2318 52.8027 53.2874 52.4473 55.1702 51.9766C55.3911 52.9468 55.564 53.8786 55.6697 54.7719ZM59.3679 48.3649C58.5418 48.7203 57.6388 49.0373 56.7071 49.3351C56.1596 47.4523 55.4391 45.4928 54.5458 43.4852C55.4295 41.4872 56.1403 39.5372 56.6783 37.6641C57.6292 37.9619 58.5322 38.2885 59.3775 38.6439C62.7779 40.0944 64.9776 41.9963 64.9776 43.5044C64.968 45.0125 62.7683 46.924 59.3679 48.3649Z" fill="#61DAFB"/>
<path d="M43.5383 47.8934C45.9627 47.8934 47.9281 45.928 47.9281 43.5036C47.9281 41.0792 45.9627 39.1138 43.5383 39.1138C41.1138 39.1138 39.1484 41.0792 39.1484 43.5036C39.1484 45.928 41.1138 47.8934 43.5383 47.8934Z" fill="#61DAFB"/>
</svg>
