<svg width="34" height="39" viewBox="0 0 34 39" fill="none" xmlns="http://www.w3.org/2000/svg">
<path fill-rule="evenodd" clip-rule="evenodd" d="M31.8838 20.766C31.143 20.766 31.2686 20.8332 31.1421 20.6262C31.1418 20.6256 31.0136 20.2962 30.9847 20.2417L32.1651 19.0249C32.1834 19.9353 32.2023 20.1641 31.8838 20.766ZM16.9027 18.4434C17.0953 17.9704 18.2256 17.0102 18.6408 16.5891L19.1421 16.5133L19.693 17.0907C20.8386 18.1462 20.531 17.7955 21.9863 17.2355C22.8737 16.8937 22.5953 16.0132 22.5953 14.7735H25.423C25.5436 17.5074 24.9426 16.6342 27.0024 17.6463C27.8494 18.0624 28.2032 16.905 29.0372 16.3464C29.371 16.562 29.645 16.9138 29.9281 17.188C30.3111 17.5593 30.7623 17.9409 31.0596 18.3691C30.601 19.0541 29.3171 19.5696 29.7853 20.4808C29.9829 20.8651 30.1746 21.5203 30.3801 21.7589C30.4615 21.8535 30.4683 21.8588 30.5352 21.9644H32.6325V24.8859C32.0713 24.8859 31.1442 24.7936 30.652 24.9281C29.99 25.1085 29.9694 25.8885 29.6839 26.4462C29.371 27.0578 29.8022 27.3774 30.2274 27.7531L30.4789 28.0129C30.6706 28.2138 30.8756 28.3689 30.9847 28.6307C30.7912 28.6355 30.6503 28.8528 30.4789 29.0241C30.1398 29.3635 29.338 30.0554 29.0891 30.4089C28.9844 30.5579 29.0401 30.439 29.0369 30.5785L28.5677 30.224C28.3634 30.0238 28.3973 29.9545 28.21 29.7776L27.589 29.191C27.5757 29.1834 27.5574 29.1722 27.543 29.1654L27.4365 29.1229C27.2487 29.0613 27.1251 29.1061 26.9768 29.1784L26.3938 29.4331C25.0267 29.976 25.367 29.5564 25.367 32.0016H22.5207C22.5207 31.3682 22.6985 30.2423 22.3178 29.8215C22.1064 29.5877 21.8477 29.5573 21.5546 29.4458L21.0512 29.2185C20.4794 28.9457 20.3798 29.0091 19.9174 29.4732C19.6119 29.7799 19.1453 30.1742 18.9251 30.5033C18.7912 30.4101 18.8301 30.4249 18.6942 30.3045C18.6815 30.2933 18.5721 30.2007 18.5712 30.2002L17.8222 29.4511C17.8101 29.4396 17.7947 29.424 17.7827 29.4122C17.7169 29.347 17.6971 29.3164 17.6326 29.2488C17.5308 29.1424 17.4739 29.0943 17.3728 28.9864C17.2949 28.9035 17.2106 28.8242 17.115 28.7375L16.8275 28.4809C17.2044 27.9183 18.6131 27.171 18.148 26.3533L18.0882 26.2631C17.8918 25.9048 17.7225 24.9514 17.3262 24.8352C16.9407 24.7219 15.6715 24.7532 15.3294 24.8853V21.9644C15.8243 21.9644 16.8254 22.0605 17.23 21.9181C17.4999 21.8232 17.6308 21.6462 17.7107 21.4245C18.202 20.0594 18.5992 20.1844 17.7829 19.3004L17.4084 18.9117C17.3026 18.8105 17.2474 18.7545 17.1451 18.6584L16.9024 18.4434H16.9027ZM21.3222 16.2715C20.9925 16.3482 20.9256 16.3739 20.6481 16.5708C20.4983 16.2028 19.1595 14.9233 18.9254 14.9233C18.4975 14.9233 17.5541 16.0327 17.1091 16.4777C16.686 16.9008 15.6833 17.8035 15.4049 18.219C15.3448 18.4169 15.479 18.723 15.5547 18.8931H5.36771V7.20773C13.4575 7.20773 21.5469 7.20773 29.6367 7.20773C29.4506 7.71553 29.5621 14.1371 29.5621 15.2226C28.5093 14.3562 28.3634 15.6935 27.1652 16.4959C27.0243 16.4213 26.8019 16.3022 26.566 16.2709C26.566 15.8032 26.5651 15.3355 26.566 14.8678C26.5678 14.0982 26.6436 14.2108 26.2664 13.7245C25.0175 13.7245 23.769 13.7248 22.5201 13.7245C21.1108 13.724 21.3225 13.5081 21.3225 16.2712L21.3222 16.2715ZM4.16868 6.53361V19.717C4.16868 19.8686 4.20023 19.8683 4.28192 19.9774C4.38159 20.1107 4.39132 20.121 4.5656 20.157C5.15067 20.2776 16.2451 19.9721 16.9027 20.2411C16.8593 20.5433 16.7623 20.418 16.7529 20.8406C16.2472 20.8406 14.6084 20.7474 14.3424 20.9777C14.1304 21.1608 14.1313 21.5401 14.1313 21.8143C10.9603 21.8143 7.78936 21.8143 4.61839 21.8143C4.28722 21.8143 4.08935 21.7002 3.81835 21.571C3.79829 21.5616 3.7402 21.5368 3.72044 21.5265C3.70658 21.5191 3.68771 21.5079 3.67385 21.5003C3.65468 21.4893 3.60131 21.4551 3.58273 21.443L3.36215 21.282C3.27663 21.2003 3.25038 21.1493 3.19288 21.0659C2.53439 20.1098 2.74553 19.4446 2.74553 17.8607V6.02227C2.74553 4.50033 2.33533 2.03946 4.9177 2.03946C13.382 2.03946 21.8463 2.03946 30.3108 2.03946C30.762 2.03946 31.1887 2.2795 31.5273 2.562L31.9425 3.10932C31.954 3.12997 31.9882 3.19042 31.9982 3.21254L32.0932 3.567C32.2972 4.59794 32.1837 16.3812 32.1837 17.8445L31.5305 17.2414C31.5184 17.2299 31.5031 17.2143 31.4913 17.2025C31.3568 17.0695 31.279 16.9831 31.1528 16.8516C30.867 16.5534 30.9785 16.5753 30.7605 16.5703V7.8966C30.7605 6.71644 31.0637 5.93409 29.7868 5.93409C21.572 5.93409 13.3575 5.93409 5.143 5.93409C4.63402 5.93409 4.16927 6.01991 4.16927 6.53331L4.16868 6.53361ZM1.54709 3.91202V19.8668C1.54709 21.5374 3.07758 23.0128 4.54348 23.0128H14.2062C14.2062 26.4857 13.707 26.1587 16.7529 26.1587L16.8107 26.2631C17.0811 26.7936 17.1306 26.5677 16.1351 27.5632C15.1448 28.5535 15.1844 28.5656 16.1032 29.4346L18.5396 31.8837C19.2674 32.6106 20.3329 30.503 20.723 30.503C20.925 30.503 20.9348 30.6431 21.3222 30.6528C21.3222 31.178 21.237 32.3582 21.3623 32.784L21.6171 33.1444C21.9448 33.3838 22.4632 33.2744 23.0612 33.2744C23.7799 33.2744 24.4985 33.2744 25.2175 33.2744C26.8609 33.2744 26.6406 33.4177 26.6406 30.6528C26.934 30.6283 26.9998 30.5525 27.3144 30.503L28.2097 31.4195C29.2094 32.3918 28.8756 32.4254 30.8915 30.4095C31.1814 30.1196 32.5004 28.91 32.5505 28.6284C32.634 28.161 31.9463 27.7024 31.6765 27.424C31.5851 27.3297 31.547 27.2837 31.4524 27.1881C30.8744 26.6057 31.1976 26.8372 30.985 26.8325C31.0572 26.5966 31.1103 26.3663 31.2097 26.1587C31.7355 26.1587 32.2613 26.1601 32.787 26.1607C33.3099 26.1613 33.7566 26.0758 33.7566 25.5594V21.5147C33.7566 21.06 33.6045 20.9273 33.2323 20.8406C33.268 20.4112 33.3821 20.1771 33.3821 19.6421V4.13673C33.3821 3.47175 33.212 2.90143 32.8882 2.39834C32.8083 2.27419 32.7776 2.21108 32.7095 2.1117L32.1648 1.54817C31.4291 0.92624 30.6022 0.766113 29.5621 0.766113H30.0864C21.8469 0.766113 13.6073 0.766113 5.36771 0.766113C3.91979 0.766113 2.63288 1.20521 1.94608 2.51305C1.74879 2.88845 1.54738 3.37738 1.54738 3.91202H1.54709Z" fill="#A284F5"/>
<path fill-rule="evenodd" clip-rule="evenodd" d="M10.9863 28.4811L11.0951 28.8429C11.6731 30.2864 11.4103 30.054 13.1581 30.054C12.9753 30.527 13.0835 31.2424 13.0835 31.7768C11.8574 31.7768 11.6288 31.6264 11.3708 32.386C11.1113 33.1492 10.7005 33.2327 11.3407 33.8929C11.4354 33.9905 11.4955 34.0696 11.6038 34.1695L11.8851 34.3984C11.8128 34.6682 11.6471 34.749 11.3422 35.0539C11.1284 35.2677 10.9223 35.432 10.7616 35.6717L9.78782 34.698C9.12815 34.698 9.21485 34.8 8.71029 34.969C7.82709 35.2645 7.99016 35.4323 7.99016 36.7956H6.34201C6.15682 36.3423 6.37799 35.8248 6.19634 35.4573C6.00702 35.0749 5.5691 35.0831 5.1937 34.8864C5.17837 34.8785 5.16097 34.8655 5.14593 34.8572C4.3739 34.4426 4.29487 35.1869 3.57121 35.6717L2.98939 35.1394C2.7809 34.9245 2.65351 34.8136 2.44738 34.5482C2.68506 34.1934 3.50663 33.6983 3.3813 33.1666L3.02625 32.3412C2.75436 31.6308 2.51137 31.7768 1.32384 31.7768V30.054C3.09938 30.054 2.69892 30.1245 3.17045 29.1396C3.57504 28.2938 3.42937 28.4038 2.72811 27.676C2.66088 27.6064 2.44767 27.4268 2.44767 27.3575C2.44767 27.1552 3.37717 26.3045 3.57121 26.1591C3.84782 26.3443 3.9469 26.559 4.27718 26.8155C4.79943 27.221 4.92358 27.0535 5.65875 26.7347C6.40512 26.4112 6.26799 26.4552 6.26799 24.9607H7.99075C7.99075 25.966 7.83505 26.4301 8.53542 26.6758C9.11665 26.8795 9.30361 27.0579 9.4888 27.0579C9.9506 27.0579 10.3266 26.4292 10.6872 26.1591C10.9285 26.3655 11.0612 26.5044 11.2702 26.7014C11.546 26.9612 11.5887 27.0839 11.8857 27.2826C11.7533 27.4802 11.5952 27.684 11.4171 27.8627C11.2234 28.0567 11.1125 28.2437 10.9869 28.4811H10.9863ZM5.21847 24.4363V25.7846C4.87699 25.7766 5.02827 25.8032 4.78145 25.6248L4.27423 25.1771C3.47389 24.4546 3.41521 24.7793 2.2038 25.9907C1.32502 26.8695 0.6217 27.2649 1.27901 27.9403C1.54235 28.2107 1.99826 28.6244 2.12123 28.8653C2.12919 28.881 2.13833 28.909 2.14718 28.9305C1.70425 29.0659 0.542374 28.9158 0.298499 29.1039C-0.0627437 29.3826 0.0540335 31.1389 0.0501999 31.8579C0.0496101 31.9897 0.0369297 32.2522 0.057867 32.3769C0.138962 32.857 0.436508 32.9794 0.963775 32.9776C1.3085 32.9761 1.65323 32.9755 1.99796 32.9755C2.0593 33.307 2.12388 33.1121 1.52997 33.706C1.06728 34.1687 0.949325 34.1415 0.949325 34.698L3.1905 36.9651C4.14684 37.8265 5.10966 35.0722 5.15301 36.4302C5.15625 36.5307 5.14446 36.6856 5.14387 36.7956C5.13561 38.2653 5.03889 38.0689 8.29007 38.0689C9.53274 38.0689 9.2638 37.3169 9.2638 36.1214C9.52183 36.0669 9.45961 36.0165 9.8875 36.4771C10.295 36.9159 10.661 37.4154 11.1541 37.038L12.8028 35.391C13.852 34.3418 13.538 34.4341 12.6129 33.4586C12.1481 32.9685 12.6049 33.0457 13.3144 33.0507C14.6892 33.0602 14.3575 32.7653 14.3575 29.5297C14.3575 28.709 13.318 28.9305 12.4849 28.9305C12.4404 28.4652 12.3519 28.8146 12.561 28.5631C13.0431 27.9824 13.034 28.1673 13.2372 27.8851C13.6512 27.3098 13.4179 27.1676 12.6158 26.4024L11.7161 25.5171C11.0234 24.8412 11.3077 24.8106 10.5371 24.8106C10.5009 24.8648 9.59762 25.9477 9.42894 25.7926C9.08922 25.4803 9.67488 24.2305 9.00665 23.9465L8.77369 23.8917C8.30924 23.7855 7.38121 23.8371 6.88196 23.8371C6.14473 23.8371 5.21906 23.7077 5.21906 24.4363H5.21847Z" fill="#A284F5"/>
<path fill-rule="evenodd" clip-rule="evenodd" d="M24.1692 26.4583C23.1805 26.4583 22.5338 26.3002 21.7983 25.6281L21.4919 25.2389C21.3908 25.0982 21.4807 25.2454 21.3719 25.0646C21.2307 24.8302 21.3457 25.0407 21.2481 24.824C20.6889 23.5816 20.8924 22.2434 21.8644 21.3062C22.1165 21.0629 22.4002 20.8783 22.7225 20.7421C23.5349 20.3985 24.371 20.3743 25.1766 20.7518C25.8354 21.0606 26.4178 21.569 26.6746 22.2499C27.0495 23.2431 27.0433 24.2062 26.4791 25.1047L26.3874 25.2433C26.1471 25.5621 25.7272 25.9319 25.3435 26.1354C25.0265 26.3034 24.6234 26.4583 24.1692 26.4583ZM19.75 23.3118C19.75 24.0575 19.7992 24.6444 20.1242 25.261L20.435 25.7847C20.4465 25.803 20.4775 25.8561 20.489 25.8747C21.0658 26.8136 22.4533 27.6567 23.6449 27.6567C25.0704 27.6567 25.8982 27.4597 26.9604 26.4028C27.2565 26.1082 27.5956 25.6346 27.7563 25.2513C28.242 24.0918 28.3004 22.9036 27.7649 21.7397C27.7136 21.6282 27.7551 21.7132 27.6923 21.5961L26.8663 20.4811C26.8542 20.4705 26.8363 20.4575 26.8239 20.4469L26.6227 20.2605C26.2488 19.9072 25.7313 19.6297 25.2288 19.4929C24.1551 19.2004 23.3438 19.1623 22.2734 19.6179C21.8375 19.8034 21.3816 20.091 21.0407 20.408C20.41 20.9948 19.75 22.1172 19.75 23.3115V23.3118Z" fill="#A284F5"/>
<path fill-rule="evenodd" clip-rule="evenodd" d="M9.11349 30.6542C9.11349 31.3434 9.1306 31.8765 8.47417 32.4118C8.18399 32.6483 7.61515 32.9275 7.12504 32.8845C4.47131 32.6518 4.85525 29.1072 6.94309 29.0037C7.85755 28.9583 8.38187 29.1747 8.87758 29.9229C9.01647 30.1326 9.11349 30.3195 9.11349 30.6542ZM4.01983 30.8789C4.01983 31.5808 4.22566 32.1334 4.56744 32.6639L5.02246 33.185C5.03396 33.1968 5.0487 33.213 5.0602 33.2251L5.13245 33.3056C6.2268 34.4548 8.94098 34.5031 10.0639 32.2788C10.4582 31.4976 10.4535 30.4643 10.1052 29.6781C9.98431 29.4053 9.98696 29.4216 9.8345 29.1836L9.55259 28.81C8.7319 27.9857 7.57829 27.4865 6.28342 27.897C6.10648 27.953 6.30288 27.8878 6.12476 27.9557C4.88858 28.4278 4.01953 29.6017 4.01953 30.8786L4.01983 30.8789Z" fill="#A284F5"/>
<path fill-rule="evenodd" clip-rule="evenodd" d="M6.41797 9.52871C6.41797 10.1206 6.84556 10.2028 7.3168 10.2028C9.48897 10.2028 11.6614 10.2028 13.8336 10.2028C14.6888 10.2028 14.7268 9.00439 13.9085 9.00439H7.01719C6.69664 9.00439 6.41797 9.23529 6.41797 9.52871Z" fill="#A284F5"/>
<path fill-rule="evenodd" clip-rule="evenodd" d="M6.41797 12.527C6.41797 13.3028 7.35897 13.2011 8.13984 13.2011C8.8523 13.2011 12.4518 13.2698 12.8475 13.1138C13.1896 12.979 13.3615 12.5335 13.0695 12.1796C12.892 11.9643 12.677 11.9275 12.4102 11.9275C11.5488 11.9275 7.12777 11.7894 6.69104 12.0513C6.55273 12.1342 6.41797 12.2949 6.41797 12.5267V12.527Z" fill="#A284F5"/>
<path fill-rule="evenodd" clip-rule="evenodd" d="M6.41797 15.5216C6.41797 15.8896 6.65447 16.1208 7.01719 16.1208H11.3615C12.1748 16.1208 12.1828 14.9224 11.3615 14.9224H7.01719C6.65477 14.9224 6.41797 15.1595 6.41797 15.5216Z" fill="#A284F5"/>
<path fill-rule="evenodd" clip-rule="evenodd" d="M9.26562 4.06208C9.26562 4.60084 9.60298 4.6613 10.1645 4.6613C10.5089 4.27646 10.4641 4.41919 10.4641 3.91227C10.4641 3.43602 9.26562 3.18005 9.26562 4.06208Z" fill="#A284F5"/>
<path fill-rule="evenodd" clip-rule="evenodd" d="M12.1875 4.06188C12.1875 4.88375 13.3859 4.87932 13.3859 3.98698C13.3859 3.41872 12.1875 3.16541 12.1875 4.06188Z" fill="#A284F5"/>
<path fill-rule="evenodd" clip-rule="evenodd" d="M6.41797 4.06213C6.41797 4.87573 7.61641 4.95241 7.61641 4.21193C7.61641 3.20901 6.41797 3.45229 6.41797 4.06213Z" fill="#A284F5"/>
</svg>
