<svg width="21" height="20" viewBox="0 0 21 20" fill="none" xmlns="http://www.w3.org/2000/svg">
<path d="M4.42182 6.10904C4.58155 6.10904 4.74072 6.04433 4.85675 5.9169L7.28218 3.2528L10.6598 5.74844C10.8951 5.92231 11.2225 5.89675 11.4278 5.68839L15.0439 2.02144V4.38938C15.0439 4.71408 15.3071 4.97732 15.6319 4.97732C15.9566 4.97732 16.2198 4.71408 16.2198 4.38938V0.587947C16.2198 0.263243 15.9566 0 15.6319 0H12.0693C11.7446 0 11.4813 0.263243 11.4813 0.587947C11.4813 0.91265 11.7446 1.17589 12.0693 1.17589H14.2263L10.9485 4.49975L7.55409 1.99169C7.31158 1.81252 6.97292 1.84576 6.76992 2.06875L3.98717 5.12529C3.76857 5.36541 3.78602 5.73726 4.02613 5.95586C4.13886 6.05844 4.28056 6.10904 4.42182 6.10904Z" fill="#202333"/>
<path d="M17.0707 15.2466C17.6263 14.6685 17.9688 13.8843 17.9688 13.0211C17.9688 11.2483 16.5266 9.80606 14.7537 9.80606C14.2403 9.80606 13.7351 9.93051 13.2828 10.1629C12.6705 8.96149 11.4211 8.13672 9.98279 8.13672C8.56059 8.13672 7.32335 8.94311 6.70377 10.1226C6.27277 9.91643 5.79759 9.80606 5.31492 9.80606C3.54211 9.80606 2.09983 11.2483 2.09983 13.0211C2.09983 13.8843 2.44241 14.6685 2.99794 15.2466C1.26416 15.7786 0 17.3945 0 19.3001V19.4117C0 19.7364 0.263243 19.9997 0.587947 19.9997H19.4806C19.8053 19.9997 20.0686 19.7364 20.0686 19.4117V19.3001C20.0686 17.3945 18.8044 15.7786 17.0707 15.2466ZM14.7537 10.9819C15.8781 10.9819 16.7929 11.8967 16.7929 13.0211C16.7929 14.1455 15.8781 15.0603 14.7537 15.0603C14.7485 15.0603 14.7434 15.061 14.7382 15.0611H14.3038C13.8099 14.7358 13.2445 14.5108 12.6365 14.4156C13.2845 13.7487 13.6842 12.8393 13.6842 11.8381C13.6842 11.6584 13.6711 11.4817 13.6462 11.3088C13.9751 11.0946 14.3538 10.9819 14.7537 10.9819ZM9.98275 9.31257C11.3753 9.31257 12.5083 10.4455 12.5083 11.8381C12.5083 13.2307 11.3754 14.3637 9.98275 14.3637C8.59014 14.3637 7.45721 13.2307 7.45721 11.8381C7.45721 10.4455 8.59018 9.31257 9.98275 9.31257ZM5.31488 10.9819C5.6771 10.9819 6.02187 11.0743 6.32811 11.2508C6.29746 11.4421 6.28131 11.6383 6.28131 11.8381C6.28131 12.8456 6.68609 13.7602 7.34134 14.4283C6.7621 14.5297 6.2231 14.7494 5.74985 15.0611H5.33041C5.32519 15.061 5.3201 15.0603 5.31488 15.0603C4.19045 15.0603 3.27569 14.1456 3.27569 13.0211C3.27565 11.8967 4.19045 10.9819 5.31488 10.9819ZM4.23906 16.237H4.56016C4.10367 16.913 3.8369 17.7272 3.8369 18.6025V18.8238H1.2129C1.44231 17.3601 2.71196 16.237 4.23906 16.237ZM5.0128 18.6025C5.0128 17.6126 5.48535 16.7314 6.21628 16.1713C6.26994 16.1435 6.31898 16.1081 6.36143 16.0659C6.85072 15.7344 7.44055 15.5405 8.07482 15.5405H9.43882V18.8238H5.01276V18.6025H5.0128ZM15.0408 18.8238H10.6148V15.5405H11.9788C13.6672 15.5405 15.0408 16.9141 15.0408 18.6025V18.8238ZM16.2167 18.8238V18.6025C16.2167 17.7272 15.9499 16.913 15.4935 16.237H15.8295C17.3566 16.237 18.6263 17.3601 18.8557 18.8238H16.2167Z" fill="#202333"/>
</svg>
