<svg width="34" height="34" viewBox="0 0 34 34" fill="none" xmlns="http://www.w3.org/2000/svg">
<path d="M17 12.2188C14.3639 12.2188 12.2188 14.3639 12.2188 17C12.2188 19.6361 14.3639 21.7812 17 21.7812C19.6361 21.7812 21.7812 19.6361 21.7812 17C21.7812 14.3639 19.6361 12.2188 17 12.2188ZM17 20.7188C14.9494 20.7188 13.2812 19.0506 13.2812 17C13.2812 14.9494 14.9494 13.2812 17 13.2812C19.0506 13.2812 20.7188 14.9494 20.7188 17C20.7188 19.0506 19.0506 20.7188 17 20.7188Z" fill="#07C28E"/>
<path d="M28.6875 9.03125H32.9375C33.2308 9.03125 33.4688 8.79325 33.4688 8.5V4.25C33.4688 3.95675 33.2308 3.71875 32.9375 3.71875H28.6875C28.3943 3.71875 28.1562 3.95675 28.1562 4.25V5.84375H26.5625C26.2693 5.84375 26.0312 6.08175 26.0312 6.375V16.4688H25.5V15.9375C25.5 15.6713 25.3029 15.4461 25.0389 15.411L23.6762 15.2293C23.5195 14.6365 23.2831 14.0686 22.9707 13.5336L23.808 12.4392C23.9695 12.2278 23.9498 11.9292 23.7618 11.7412L22.2588 10.2382C22.0708 10.0497 21.7717 10.03 21.5608 10.192L20.4664 11.0293C19.9314 10.7174 19.3635 10.481 18.7707 10.3238L18.589 8.96112C18.5539 8.69709 18.3287 8.5 18.0625 8.5H15.9375C15.6713 8.5 15.4461 8.69709 15.411 8.96112L15.2293 10.3238C14.6365 10.4805 14.0686 10.7169 13.5336 11.0293L12.4392 10.192C12.2278 10.0305 11.9292 10.0502 11.7412 10.2382L10.2382 11.7412C10.0502 11.9292 10.03 12.2283 10.192 12.4392L11.0293 13.5336C10.7174 14.0686 10.481 14.6365 10.3238 15.2293L8.96113 15.411C8.69709 15.4461 8.5 15.6713 8.5 15.9375V16.4688H7.96875V6.375C7.96875 6.08175 7.73075 5.84375 7.4375 5.84375H5.84375V4.25C5.84375 3.95675 5.60575 3.71875 5.3125 3.71875H1.0625C0.76925 3.71875 0.53125 3.95675 0.53125 4.25V8.5C0.53125 8.79325 0.76925 9.03125 1.0625 9.03125H5.3125C5.60575 9.03125 5.84375 8.79325 5.84375 8.5V6.90625H6.90625V16.4688H5.84375V14.875C5.84375 14.5817 5.60575 14.3438 5.3125 14.3438H1.0625C0.76925 14.3438 0.53125 14.5817 0.53125 14.875V19.125C0.53125 19.4183 0.76925 19.6562 1.0625 19.6562H5.3125C5.60575 19.6562 5.84375 19.4183 5.84375 19.125V17.5312H6.90625V27.0938H5.84375V25.5C5.84375 25.2068 5.60575 24.9688 5.3125 24.9688H1.0625C0.76925 24.9688 0.53125 25.2068 0.53125 25.5V29.75C0.53125 30.0432 0.76925 30.2812 1.0625 30.2812H5.3125C5.60575 30.2812 5.84375 30.0432 5.84375 29.75V28.1562H7.4375C7.73075 28.1562 7.96875 27.9182 7.96875 27.625V17.5312H8.5V18.0625C8.5 18.3287 8.69709 18.5539 8.96113 18.589L10.3238 18.7707C10.4805 19.3635 10.7169 19.9314 11.0293 20.4664L10.192 21.5608C10.0305 21.7722 10.0502 22.0708 10.2382 22.2588L11.7412 23.7618C11.9292 23.9498 12.2273 23.9695 12.4392 23.808L13.5336 22.9707C14.0686 23.2826 14.6365 23.519 15.2293 23.6762L15.411 25.0389C15.4461 25.3029 15.6713 25.5 15.9375 25.5H18.0625C18.3287 25.5 18.5539 25.3029 18.589 25.0389L18.7707 23.6762C19.3635 23.5195 19.9314 23.2831 20.4664 22.9707L21.5608 23.808C21.7722 23.97 22.0713 23.9503 22.2588 23.7618L23.7618 22.2588C23.9498 22.0708 23.97 21.7717 23.808 21.5608L22.9707 20.4664C23.2826 19.9314 23.519 19.3635 23.6762 18.7707L25.0389 18.589C25.3029 18.5539 25.5 18.3287 25.5 18.0625V17.5312H26.0312V27.625C26.0312 27.9182 26.2693 28.1562 26.5625 28.1562H28.1562V29.75C28.1562 30.0432 28.3943 30.2812 28.6875 30.2812H32.9375C33.2308 30.2812 33.4688 30.0432 33.4688 29.75V25.5C33.4688 25.2068 33.2308 24.9688 32.9375 24.9688H28.6875C28.3943 24.9688 28.1562 25.2068 28.1562 25.5V27.0938H27.0938V17.5312H28.1562V19.125C28.1562 19.4183 28.3943 19.6562 28.6875 19.6562H32.9375C33.2308 19.6562 33.4688 19.4183 33.4688 19.125V14.875C33.4688 14.5817 33.2308 14.3438 32.9375 14.3438H28.6875C28.3943 14.3438 28.1562 14.5817 28.1562 14.875V16.4688H27.0938V6.90625H28.1562V8.5C28.1562 8.79325 28.3943 9.03125 28.6875 9.03125ZM29.2188 4.78125H32.4062V7.96875H29.2188V4.78125ZM4.78125 7.96875H1.59375V4.78125H4.78125V7.96875ZM4.78125 18.5938H1.59375V15.4062H4.78125V18.5938ZM4.78125 29.2188H1.59375V26.0312H4.78125V29.2188ZM24.4375 17.5977L23.1731 17.7661C22.9495 17.7958 22.7688 17.9642 22.7232 18.1857C22.5755 18.904 22.2923 19.584 21.8827 20.2061C21.7584 20.3947 21.7674 20.6412 21.9045 20.8208L22.6817 21.837L21.837 22.6817L20.8208 21.9045C20.6412 21.7674 20.3942 21.7584 20.2061 21.8827C19.584 22.2923 18.904 22.5755 18.1857 22.7232C17.9642 22.7688 17.7963 22.9495 17.7661 23.1731L17.5977 24.4375H16.4029L16.2345 23.1731C16.2047 22.9495 16.0363 22.7688 15.8148 22.7232C15.0965 22.5755 14.4165 22.2923 13.7944 21.8827C13.6064 21.7589 13.3599 21.7674 13.1798 21.9045L12.1635 22.6817L11.3188 21.837L12.096 20.8208C12.2331 20.6412 12.2421 20.3947 12.1178 20.2061C11.7082 19.584 11.4251 18.904 11.2774 18.1857C11.2317 17.9642 11.0511 17.7963 10.8274 17.7661L9.5625 17.5977V16.4029L10.8269 16.2345C11.0505 16.2047 11.2312 16.0363 11.2768 15.8148C11.4245 15.0965 11.7077 14.4165 12.1173 13.7944C12.2416 13.6058 12.2326 13.3593 12.0955 13.1798L11.3183 12.1635L12.163 11.3188L13.1793 12.096C13.3583 12.2331 13.6053 12.2416 13.7939 12.1178C14.416 11.7082 15.096 11.4251 15.8142 11.2774C16.0358 11.2317 16.2037 11.0511 16.2339 10.8274L16.4023 9.5625H17.5971L17.7655 10.8269C17.7953 11.0505 17.9637 11.2312 18.1852 11.2768C18.9035 11.4245 19.5835 11.7077 20.2056 12.1173C20.3947 12.2416 20.6412 12.2331 20.8202 12.0955L21.8365 11.3183L22.6812 12.163L21.904 13.1793C21.7669 13.3588 21.7579 13.6053 21.8822 13.7939C22.2918 14.416 22.5749 15.096 22.7226 15.8142C22.7683 16.0358 22.9489 16.2037 23.1726 16.2339L24.4375 16.4023V17.5977ZM29.2188 26.0312H32.4062V29.2188H29.2188V26.0312ZM29.2188 15.4062H32.4062V18.5938H29.2188V15.4062Z" fill="#07C28E"/>
</svg>
