<svg width="20" height="22" viewBox="0 0 20 22" fill="none" xmlns="http://www.w3.org/2000/svg">
<path d="M16.9696 7.45007C16.9696 3.33551 13.6341 0 9.51953 0C5.40497 0 2.06946 3.33551 2.06946 7.45007C1.00576 7.58251 0 8.27785 0 9.89203V13.7826C0 15.6038 1.27479 16.266 2.48336 16.266H3.68364C3.91222 16.266 4.09754 16.0807 4.09754 15.8521V7.83913C4.09754 7.61055 3.91222 7.42523 3.68364 7.42523H2.89725C2.89725 3.76787 5.86217 0.802952 9.51953 0.802952C13.1769 0.802952 16.1418 3.76787 16.1418 7.42523H15.3554C15.1268 7.42523 14.9415 7.61055 14.9415 7.83913V15.8397C14.9415 16.0682 15.1268 16.2536 15.3554 16.2536H16.1418C16.0259 19.097 14.6601 19.7634 11.9325 19.8834V19.6061C11.9325 19.1489 11.5619 18.7783 11.1047 18.7783H8.50136C8.04416 18.7783 7.67357 19.1489 7.67357 19.6061V20.9512C7.67357 21.4084 8.04416 21.779 8.50136 21.779H11.113C11.5702 21.779 11.9408 21.4084 11.9408 20.9512V20.7112C14.5649 20.5912 16.833 20.049 16.9696 16.2287C18.0333 16.0963 19.0391 15.4009 19.0391 13.7868V9.89617C19.0391 8.27371 18.0374 7.58251 16.9696 7.45007ZM3.26975 8.22405V15.4258H2.46266C1.8501 15.4258 0.807091 15.2106 0.807091 13.7702V9.87962C0.807091 8.45169 1.83768 8.22405 2.46266 8.22405H3.26975ZM11.113 20.3263V20.9554H8.50136V19.6102H11.113V20.3263ZM18.2113 13.7826C18.2113 15.2106 17.1807 15.4382 16.5557 15.4382H15.7693V8.25302H16.5764C17.189 8.25302 18.232 8.46824 18.232 9.90859L18.2113 13.7826Z" fill="#202333"/>
</svg>
