<svg width="35" height="34" viewBox="0 0 35 34" fill="none" xmlns="http://www.w3.org/2000/svg">
<path d="M33.0242 6.22336H26.0529C25.7775 6.22336 25.5545 6.4336 25.5545 6.69327C25.5545 6.95295 25.7775 7.16319 26.0529 7.16319H33.0242C33.3209 7.16319 33.562 7.39056 33.562 7.6703V25.7659C33.562 26.0456 33.3209 26.273 33.0242 26.273H2.06979C1.77309 26.273 1.53194 26.0456 1.53194 25.7659V7.6703C1.53194 7.39056 1.77309 7.16319 2.06979 7.16319H13.0199V8.10301H3.02712C2.75171 8.10301 2.52873 8.31325 2.52873 8.57293V20.9892C2.52873 21.2486 2.75171 21.4591 3.02712 21.4591C3.30254 21.4591 3.52552 21.2486 3.52552 20.9892V9.04284H13.0199V11.5637L10.8862 12.5249C10.7159 12.6017 10.6027 12.7676 10.6027 12.949V20.6125C10.6027 20.7936 10.713 20.9586 10.8862 21.0366L17.332 23.9403C17.4717 24.0022 17.6293 23.9991 17.7619 23.9403L21.3856 22.3079C21.6341 22.196 21.7392 21.9153 21.6206 21.6813C21.5019 21.4471 21.2039 21.348 20.9558 21.4598L18.0454 22.7709V16.1488L23.4945 13.6943V20.3164L22.7541 20.6497C22.5057 20.7616 22.4006 21.0423 22.5192 21.2763C22.6379 21.5105 22.9356 21.6096 23.1838 21.4978L24.2078 21.0366C24.3809 20.9586 24.4913 20.7936 24.4913 20.6125V12.949C24.4913 12.7698 24.3807 12.6029 24.2078 12.5249L22.074 11.5637V9.04284H31.5684V24.3934H3.52552V22.9941C3.52552 22.7345 3.30254 22.5242 3.02712 22.5242C2.75171 22.5242 2.52873 22.7345 2.52873 22.9941V24.8633C2.52873 25.1229 2.75171 25.3332 3.02712 25.3332H32.0668C32.3422 25.3332 32.5652 25.1229 32.5652 24.8633V8.57293C32.5652 8.31325 32.3422 8.10301 32.0668 8.10301H22.074V7.16319H23.9264C24.2018 7.16319 24.4248 6.95295 24.4248 6.69327C24.4248 6.4336 24.2018 6.22336 23.9264 6.22336H22.074V5.28353H26.543C26.8184 5.28353 27.0414 5.07329 27.0414 4.81362V3.69904C27.6215 3.50496 28.0382 2.98267 28.0382 2.37007C28.0382 1.59275 27.3674 0.960327 26.543 0.960327C25.7185 0.960327 25.0478 1.59275 25.0478 2.37007C25.0478 2.98267 25.4644 3.50496 26.0446 3.69904V4.3437H21.5757C21.3002 4.3437 21.0773 4.55394 21.0773 4.81362V6.22336H18.0454V3.69904C18.6255 3.50496 19.0422 2.98267 19.0422 2.37007C19.0422 1.59275 18.3714 0.960327 17.547 0.960327C16.7226 0.960327 16.0518 1.59275 16.0518 2.37007C16.0518 2.98267 16.4684 3.50496 17.0486 3.69904V6.22336H14.0167V4.81362C14.0167 4.55394 13.7937 4.3437 13.5183 4.3437H9.04937V3.69904C9.62953 3.50496 10.0462 2.98267 10.0462 2.37007C10.0462 1.59275 9.37541 0.960327 8.55098 0.960327C7.72655 0.960327 7.0558 1.59275 7.0558 2.37007C7.0558 2.98267 7.47243 3.50496 8.05259 3.69904V4.81362C8.05259 5.07329 8.27557 5.28353 8.55098 5.28353H13.0199V6.22336H2.06979C1.22356 6.22336 0.535156 6.87243 0.535156 7.6703V25.7659C0.535156 26.5638 1.22356 27.2128 2.06979 27.2128H12.8751C12.6822 28.9366 11.4733 29.9432 11.0923 30.2203H8.97462C8.15019 30.2203 7.47943 30.8527 7.47943 31.63C7.47943 32.4073 8.15019 33.0398 8.97462 33.0398H26.1193C26.9438 33.0398 27.6145 32.4073 27.6145 31.63C27.6145 30.8527 26.9438 30.2203 26.1193 30.2203H24.003C23.6269 29.9442 22.4138 28.9285 22.2194 27.2128H33.0242C33.8704 27.2128 34.5588 26.5638 34.5588 25.7659V7.6703C34.5588 6.87243 33.8704 6.22336 33.0242 6.22336ZM26.543 1.90015C26.8179 1.90015 27.0414 2.11088 27.0414 2.37007C27.0414 2.62925 26.8179 2.83998 26.543 2.83998C26.2681 2.83998 26.0446 2.62925 26.0446 2.37007C26.0446 2.11088 26.2681 1.90015 26.543 1.90015ZM17.547 1.90015C17.8219 1.90015 18.0454 2.11088 18.0454 2.37007C18.0454 2.62925 17.8219 2.83998 17.547 2.83998C17.2721 2.83998 17.0486 2.62925 17.0486 2.37007C17.0486 2.11088 17.2721 1.90015 17.547 1.90015ZM8.55098 1.90015C8.82588 1.90015 9.04937 2.11088 9.04937 2.37007C9.04937 2.62925 8.82588 2.83998 8.55098 2.83998C8.27609 2.83998 8.05259 2.62925 8.05259 2.37007C8.05259 2.11088 8.27609 1.90015 8.55098 1.90015ZM14.0167 9.04284H17.0486V9.74893L14.0167 11.1149V9.04284ZM22.8367 12.949L17.547 15.3316L12.2573 12.949L17.547 10.5661L22.8367 12.949ZM11.5995 13.6943L17.0486 16.1488V22.7709L11.5995 20.3164V13.6943ZM21.0773 11.1149L18.0454 9.74893V9.04284H21.0773V11.1149ZM21.0773 7.16319V8.10301H18.0454V7.16319H21.0773ZM17.0486 7.16319V8.10301H14.0167V7.16319H17.0486ZM26.6177 31.63C26.6177 31.8892 26.3942 32.0999 26.1193 32.0999H8.97462C8.69972 32.0999 8.47622 31.8892 8.47622 31.63C8.47622 31.3708 8.69972 31.1601 8.97462 31.1601H26.1193C26.3942 31.1601 26.6177 31.3708 26.6177 31.63ZM22.5735 30.2203H12.5205C13.1048 29.5768 13.753 28.5741 13.8773 27.2128H21.2167C21.341 28.5741 21.9892 29.5768 22.5735 30.2203Z" fill="#FA8B26"/>
</svg>
