<svg width="58" height="58" viewBox="0 0 58 58" fill="none" xmlns="http://www.w3.org/2000/svg">
<circle opacity="0.15" cx="29" cy="29" r="29" fill="white"/>
<path d="M27.2076 17.8059C26.2443 16.8462 25.0099 16.2048 23.6708 15.9681C22.3318 15.7315 20.9523 15.9109 19.7184 16.4824C19.7356 15.8212 19.5553 15.1699 19.2004 14.6118C18.8456 14.0537 18.3325 13.614 17.7265 13.349C17.1206 13.084 16.4493 13.0056 15.7987 13.124C15.148 13.2424 14.5474 13.5521 14.0736 14.0136C13.5998 14.475 13.2744 15.0673 13.1389 15.7146C13.0034 16.362 13.064 17.035 13.313 17.6478C13.5619 18.2605 13.9879 18.7851 14.5366 19.1544C15.0852 19.5238 15.7314 19.7212 16.3928 19.7215H16.4793C15.9072 20.9569 15.728 22.3381 15.9659 23.6785C16.2038 25.019 16.8473 26.2542 17.8095 27.2173L18.754 28.1618C18.8786 28.2857 19.0472 28.3552 19.2229 28.3552C19.3986 28.3552 19.5672 28.2857 19.6918 28.1618L28.1521 19.7215C28.2759 19.5968 28.3455 19.4283 28.3455 19.2526C28.3455 19.0768 28.2759 18.9083 28.1521 18.7837L27.2076 17.8059ZM14.9828 17.8059C14.7035 17.527 14.5132 17.1714 14.436 16.7843C14.3588 16.3972 14.3982 15.9959 14.5491 15.6311C14.7001 15.2664 14.9558 14.9546 15.284 14.7352C15.6122 14.5159 15.9981 14.3988 16.3928 14.3988C16.7876 14.3988 17.1734 14.5159 17.5016 14.7352C17.8298 14.9546 18.0856 15.2664 18.2365 15.6311C18.3875 15.9959 18.4268 16.3972 18.3496 16.7843C18.2724 17.1714 18.0822 17.527 17.8029 17.8059C17.4238 18.1701 16.9185 18.3735 16.3928 18.3735C15.8671 18.3735 15.3618 18.1701 14.9828 17.8059ZM19.2129 26.7451L18.7473 26.2729C17.7916 25.2669 17.2666 23.9273 17.2844 22.5398C17.3022 21.1523 17.8612 19.8267 18.8424 18.8455C19.8236 17.8643 21.1493 17.3052 22.5368 17.2875C23.9242 17.2697 25.2638 17.7947 26.2698 18.7504L26.742 19.216L19.2129 26.7451Z" fill="white"/>
<path d="M19 27.4994C16.2 25.4994 16.5 21.3327 17 19.4994L20.5 16.9994H23.5L26 17.4994L27 18.9994L19 27.4994Z" fill="white"/>
<path d="M39 27.4994L30.5 19.4994L33.5 16.9994C37.5 16.1994 39.8333 18.3327 40.5 19.4994C42.5 22.2994 40.3333 25.9994 39 27.4994Z" fill="white"/>
<path d="M38.5 30.5L31 38.5V39.5L34.5 41.5L37.5 41L40.5 39L41.5 35.5C41.1667 34.5788 40.4 32.6892 40 32.5C39.6 32.3108 39.5 32.0878 39.5 32L38.5 30.5Z" fill="white"/>
<path d="M21.5 41L18 40L16.5 36.5L17.5 33L19 30.5L27.5 39L24 41.5L21.5 41Z" fill="white"/>
<path d="M39.5 18V15.5L42 13.5L44 16L43 19L39.5 18Z" fill="white"/>
<path d="M14.5 18L14 15.5L16 14L18 14.5L19 17L17.5 19L14.5 18Z" fill="white"/>
<path d="M14 42L14.5 40.5L16 39.5H18L18.5 41.5L18 43.5L15.5 44L14 42Z" fill="white"/>
<path d="M39.5 41L40 40.5L41.5 39L43.5 40L44 42L43.5 43.5L42 44L40 43.5L39.5 41Z" fill="white"/>
<path d="M38.3752 28.1579C38.437 28.2202 38.5106 28.2697 38.5916 28.3035C38.6727 28.3372 38.7596 28.3546 38.8474 28.3546C38.9352 28.3546 39.0221 28.3372 39.1032 28.3035C39.1842 28.2697 39.2578 28.2202 39.3196 28.1579L40.2574 27.2134C41.2197 26.2503 41.8632 25.0151 42.1011 23.6746C42.339 22.3341 42.1598 20.9529 41.5877 19.7176H41.6675C42.2149 19.7188 42.7542 19.5848 43.2374 19.3276C43.7206 19.0704 44.1329 18.6979 44.4376 18.2431C44.7423 17.7883 44.9301 17.2653 44.9841 16.7206C45.0382 16.1758 44.957 15.6262 44.7477 15.1203C44.5384 14.6145 44.2074 14.1682 43.7842 13.821C43.361 13.4737 42.8586 13.2364 42.3216 13.1299C41.7846 13.0234 41.2297 13.0512 40.706 13.2107C40.1823 13.3701 39.7061 13.6564 39.3196 14.0441C38.997 14.3615 38.7436 14.7422 38.5754 15.1623C38.4071 15.5824 38.3276 16.0328 38.3419 16.4851C37.1057 15.9115 35.7232 15.7315 34.3813 15.9694C33.0394 16.2073 31.8031 16.8517 30.8394 17.8153L29.9083 18.7531C29.7844 18.8778 29.7148 19.0463 29.7148 19.222C29.7148 19.3978 29.7844 19.5663 29.9083 19.6909L38.3752 28.1579ZM40.2574 14.9886C40.6357 14.6361 41.136 14.4442 41.6529 14.4534C42.1698 14.4625 42.6631 14.6719 43.0286 15.0375C43.3942 15.4031 43.6036 15.8963 43.6128 16.4132C43.6219 16.9301 43.43 17.4304 43.0775 17.8087C42.6985 18.1729 42.1932 18.3763 41.6675 18.3763C41.1418 18.3763 40.6365 18.1729 40.2574 17.8087C39.8838 17.4345 39.6739 16.9274 39.6739 16.3986C39.6739 15.8699 39.8838 15.3627 40.2574 14.9886ZM31.7905 18.7531C32.7881 17.7547 34.1414 17.1935 35.5527 17.1928C36.9641 17.1922 38.3179 17.7523 39.3163 18.7498C40.3147 19.7473 40.876 21.1007 40.8766 22.512C40.8772 23.9234 40.3172 25.2772 39.3196 26.2756L38.8474 26.7478L31.3183 19.2187L31.7905 18.7531Z" fill="white"/>
<path d="M19.7185 29.9122C19.5939 29.7883 19.4253 29.7188 19.2496 29.7188C19.0739 29.7188 18.9053 29.7883 18.7807 29.9122L17.803 30.8566C16.8433 31.82 16.2018 33.0543 15.9652 34.3934C15.7285 35.7325 15.908 37.1119 16.4794 38.3458H16.393C15.9563 38.3446 15.5237 38.4304 15.1206 38.5983C14.7175 38.7662 14.3518 39.0127 14.0451 39.3235C13.6574 39.71 13.3711 40.1862 13.2116 40.7099C13.0522 41.2336 13.0244 41.7885 13.1309 42.3255C13.2373 42.8625 13.4747 43.3649 13.8219 43.7881C14.1692 44.2113 14.6155 44.5423 15.1213 44.7516C15.6271 44.9609 16.1768 45.0421 16.7216 44.988C17.2663 44.934 17.7893 44.7462 18.2441 44.4415C18.6988 44.1368 19.0714 43.7245 19.3286 43.2413C19.5858 42.7581 19.7197 42.2188 19.7185 41.6714C19.7185 41.6714 19.7185 41.6115 19.7185 41.5849C20.9539 42.157 22.3351 42.3362 23.6756 42.0983C25.0161 41.8605 26.2513 41.2169 27.2144 40.2547L28.1588 39.3169C28.2212 39.2551 28.2707 39.1815 28.3044 39.1004C28.3382 39.0194 28.3556 38.9325 28.3556 38.8447C28.3556 38.7569 28.3382 38.6699 28.3044 38.5889C28.2707 38.5078 28.2212 38.4343 28.1588 38.3724L19.7185 29.9122ZM17.803 43.0814C17.4239 43.4456 16.9186 43.649 16.393 43.649C15.8673 43.649 15.362 43.4456 14.9829 43.0814C14.7506 42.8495 14.5792 42.5638 14.4838 42.2497C14.3884 41.9356 14.3719 41.6028 14.4359 41.2809C14.4998 40.9589 14.6422 40.6577 14.8505 40.4039C15.0587 40.1501 15.3263 39.9517 15.6296 39.8261C15.9329 39.7005 16.2625 39.6517 16.5892 39.684C16.9158 39.7162 17.2295 39.8286 17.5023 40.0111C17.7752 40.1936 17.9988 40.4407 18.1533 40.7303C18.3079 41.0199 18.3886 41.3431 18.3883 41.6714C18.3878 42.2004 18.1773 42.7076 17.803 43.0814ZM26.2699 39.3235C25.2715 40.3211 23.9177 40.8811 22.5063 40.8805C21.095 40.8799 19.7417 40.3186 18.7441 39.3202C17.7466 38.3218 17.1865 36.968 17.1872 35.5566C17.1878 34.1453 17.749 32.792 18.7475 31.7944L19.213 31.3289L26.7421 38.8513L26.2699 39.3235Z" fill="white"/>
<path d="M44.0214 39.3257C43.7126 39.0159 43.3456 38.77 42.9416 38.6023C42.5375 38.4345 42.1044 38.3481 41.6669 38.348H41.5804C42.1525 37.1126 42.3317 35.7314 42.0938 34.3909C41.856 33.0504 41.2124 31.8152 40.2502 30.8521L39.3124 29.9077C39.2506 29.8453 39.177 29.7959 39.096 29.7621C39.0149 29.7283 38.928 29.7109 38.8402 29.7109C38.7524 29.7109 38.6654 29.7283 38.5844 29.7621C38.5033 29.7959 38.4298 29.8453 38.3679 29.9077L29.9077 38.3812C29.8453 38.4431 29.7959 38.5166 29.7621 38.5977C29.7283 38.6787 29.7109 38.7657 29.7109 38.8535C29.7109 38.9413 29.7283 39.0282 29.7621 39.1093C29.7959 39.1903 29.8453 39.2639 29.9077 39.3257L30.8521 40.2635C31.8152 41.2258 33.0504 41.8693 34.3909 42.1072C35.7314 42.345 37.1126 42.1658 38.348 41.5938L38.3413 41.6736C38.3412 42.2203 38.4759 42.7587 38.7335 43.2409C38.991 43.7232 39.3635 44.1345 39.818 44.4385C40.2725 44.7425 40.7949 44.9297 41.3389 44.9836C41.883 45.0376 42.432 44.9565 42.9373 44.7476C43.4426 44.5388 43.8886 44.2086 44.2358 43.7862C44.583 43.3639 44.8207 42.8625 44.9279 42.3263C45.0351 41.7902 45.0085 41.2359 44.8504 40.7125C44.6923 40.1891 44.4075 39.7128 44.0214 39.3257ZM31.79 39.3257L31.3177 38.8535L38.8468 31.331L39.3191 31.7966C40.3175 32.795 40.8784 34.1492 40.8784 35.5612C40.8784 36.9731 40.3175 38.3273 39.3191 39.3257C38.3206 40.3241 36.9665 40.885 35.5545 40.885C34.1425 40.885 32.7884 40.3241 31.79 39.3257ZM43.0969 43.0836C42.7178 43.4478 42.2125 43.6512 41.6869 43.6512C41.1612 43.6512 40.6559 43.4478 40.2768 43.0836C39.9032 42.7095 39.6933 42.2023 39.6933 41.6736C39.6933 41.1448 39.9032 40.6376 40.2768 40.2635C40.6551 39.9111 41.1554 39.7192 41.6723 39.7283C42.1892 39.7374 42.6824 39.9468 43.048 40.3124C43.4136 40.678 43.623 41.1712 43.6321 41.6881C43.6412 42.2051 43.4494 42.7054 43.0969 43.0836Z" fill="white"/>
</svg>
