<svg width="31" height="50" viewBox="0 0 31 50" fill="none" xmlns="http://www.w3.org/2000/svg">
<g clip-path="url(#clip0_0:7070)">
<path fill-rule="evenodd" clip-rule="evenodd" d="M2.45384 42.3178H14.9944C15.8417 42.3178 16.4795 44.0195 16.8232 44.6692H2.45384V42.3178ZM11.3369 36.57C11.5176 37.247 11.7921 37.5167 12.1207 38.1375H5.5891V32.1284H13.6882V35.2636C12.3331 35.3764 11.9271 35.6886 11.3369 36.57ZM22.3099 32.3898V38.1375H24.1388C24.1388 33.3895 23.5437 32.044 25.1838 31.6059C25.7358 32.5885 25.4451 36.7712 25.4451 38.1375H27.274V32.9123C28.1112 32.931 28.5804 32.8271 28.5804 33.6961C28.5804 38.1229 29.2508 43.0708 27.2882 45.7283C25.7856 47.7627 22.253 48.245 19.9069 46.2887C18.7219 45.3006 18.686 44.3951 17.958 43.0124L13.6885 37.0928C16.9479 37.0928 15.4388 38.6744 17.1417 38.9184C18.6162 39.1297 18.1309 37.1448 18.1301 34.7414C18.1296 32.9997 18.1304 31.2578 18.1301 29.5161C18.1299 26.0609 17.638 25.4153 18.914 25.0748C19.3543 25.3806 19.4365 25.1122 19.4365 25.8586V38.138H21.004C21.004 37.0799 21.2634 31.6324 21.5265 31.0839C23.0796 31.2538 22.3104 31.4823 22.3104 32.3903L22.3099 32.3898ZM16.3007 35.7861C14.5062 34.8364 16.1564 34.4269 15.2557 30.5609C12.8472 29.9997 7.79563 30.2998 5.0666 30.2998C4.45512 30.2998 4.02159 30.7333 4.02159 31.3448C4.02159 41.4806 2.36486 40.0872 11.6071 39.9578C12.9911 39.9383 13.3697 39.6974 13.9496 40.4889H2.45409V8.87622H25.184V30.0384C22.9274 30.0384 24.2689 30.431 23.1284 29.7634C22.4519 29.3675 22.2732 29.277 21.2651 29.2548C21.2651 27.3526 21.8038 23.2459 18.9137 23.2459C17.8988 23.2459 17.0667 23.9496 16.6746 24.6642C16.0037 25.8872 16.3012 34.0564 16.3012 35.7864L16.3007 35.7861ZM2.45384 2.34433H25.1838V7.30847H2.45384V2.34433ZM0.624961 2.08321C0.624961 8.0749 0.212927 43.3464 0.886338 46.2367C4.24379 47.0188 12.2153 46.3893 16.5839 46.4761C19.4724 46.5332 18.7408 49.3719 23.3549 49.3719C27.8916 49.3719 30.409 45.5959 30.409 40.7503C30.409 35.9881 31.3757 30.3283 27.0126 31.3448L27.0147 3.64894C27.0265 2.24272 27.3511 0.515961 25.9674 0.515961H1.66996C0.866874 0.515961 0.624961 1.28139 0.624961 2.08346V2.08321Z" fill="#A284F5"/>
<path fill-rule="evenodd" clip-rule="evenodd" d="M13.1639 22.4609H5.84859V15.1454H22.3083V19.8481C20.5496 19.3787 21.7102 18.8031 18.128 18.8031C15.8919 18.8031 13.5827 20.6636 13.1641 22.4609H13.1639ZM4.01971 14.1004V23.5059C4.01971 24.108 4.20146 24.2898 4.80359 24.2898H12.6416C12.6416 27.6197 13.4728 26.9511 13.948 28.7311C14.6249 28.5504 14.8947 28.2759 15.5155 27.9473C15.1032 26.4028 14.4705 27.2167 14.4705 24.5509C14.4705 20.5031 19.289 19.453 21.6053 21.8577C24.0034 24.3474 22.372 26.3464 21.5246 27.9475L22.7855 29.0408C25.6121 24.8906 24.3095 25.5499 24.1341 21.9414C23.9953 19.0807 24.7954 13.3167 23.3533 13.3167H4.80359C4.20172 13.3167 4.01971 13.4985 4.01971 14.1006V14.1004Z" fill="#A284F5"/>
<path fill-rule="evenodd" clip-rule="evenodd" d="M4.01971 12.0128H13.4252V10.1839H4.01971V12.0128Z" fill="#A284F5"/>
<path fill-rule="evenodd" clip-rule="evenodd" d="M4.01971 29.2547H11.8575V27.4261H4.01971V29.2547Z" fill="#A284F5"/>
<path fill-rule="evenodd" clip-rule="evenodd" d="M11.5978 4.69768C11.5978 5.85846 12.8173 5.48156 15.5167 5.48156C16.4773 5.48156 16.3006 4.92392 16.3006 3.65268H11.5978V4.69768Z" fill="#A284F5"/>
</g>
<defs>
<clipPath id="clip0_0:7070">
<rect width="30" height="48.8562" fill="white" transform="translate(0.5 0.515625)"/>
</clipPath>
</defs>
</svg>
