<svg width="26" height="24" viewBox="0 0 26 24" fill="none" xmlns="http://www.w3.org/2000/svg">
<path d="M10.2572 17.2609C10.159 17.2609 10.06 17.2271 9.97933 17.1584L7.20169 14.7932C7.10587 14.7115 7.05078 14.5922 7.05078 14.4663C7.05078 14.3405 7.10611 14.2212 7.20169 14.1395L9.97933 11.7744C10.1597 11.6206 10.4306 11.6424 10.5844 11.8228C10.7379 12.0034 10.7164 12.2743 10.5358 12.4278L8.1421 14.4663L10.5358 16.5047C10.7164 16.6585 10.7379 16.9294 10.5844 17.1098C10.4994 17.2096 10.3786 17.2609 10.2572 17.2609Z" fill="#202333"/>
<path d="M15.74 17.2609C15.6186 17.2609 15.4978 17.2096 15.413 17.1098C15.2593 16.9294 15.2811 16.6585 15.4614 16.5047L17.8551 14.4663L15.4614 12.4278C15.2811 12.2743 15.2593 12.0034 15.413 11.8228C15.5666 11.6424 15.8377 11.6206 16.0179 11.7744L18.7955 14.1395C18.8913 14.2212 18.9464 14.3405 18.9464 14.4663C18.9464 14.5922 18.8913 14.7115 18.7955 14.7932L16.0179 17.1584C15.9371 17.2271 15.8382 17.2609 15.74 17.2609Z" fill="#202333"/>
<path d="M12.0159 19.0349C11.9864 19.0349 11.9567 19.0317 11.9268 19.0255C11.6949 18.9767 11.5464 18.7489 11.5952 18.517L13.3264 10.2978C13.3752 10.066 13.6028 9.91747 13.8349 9.96633C14.0668 10.0152 14.2153 10.2428 14.1664 10.4749L12.4353 18.694C12.3926 18.8962 12.2144 19.0349 12.0159 19.0349Z" fill="#202333"/>
<path d="M23.1179 23.5135H2.88208C1.29301 23.5135 0 22.2207 0 20.6314V3.45629C0 1.86722 1.29301 0.574219 2.88208 0.574219H23.1179C24.707 0.574219 26 1.86722 26 3.45629V20.6314C26 22.2207 24.707 23.5135 23.1179 23.5135ZM2.88208 1.43271C1.76633 1.43271 0.858491 2.34054 0.858491 3.45629V20.6314C0.858491 21.7471 1.76633 22.655 2.88208 22.655H23.1179C24.2337 22.655 25.1415 21.7471 25.1415 20.6314V3.45629C25.1415 2.34054 24.2337 1.43271 23.1179 1.43271H2.88208Z" fill="#202333"/>
<path d="M25.5708 7.44833H0.429245C0.192106 7.44833 0 7.25623 0 7.01909C0 6.78219 0.192106 6.58984 0.429245 6.58984H25.5708C25.8079 6.58984 26 6.78219 26 7.01909C26 7.25623 25.8079 7.44833 25.5708 7.44833Z" fill="#202333"/>
<path d="M7.33301 5.39258C6.58422 5.39258 5.97461 4.78296 5.97461 4.03418C5.97461 3.28516 6.58422 2.67578 7.33301 2.67578C8.08203 2.67578 8.69141 3.28516 8.69141 4.03418C8.69141 4.78296 8.08203 5.39258 7.33301 5.39258ZM7.33301 3.53427C7.05754 3.53427 6.8331 3.75848 6.8331 4.03418C6.8331 4.30988 7.05754 4.53409 7.33301 4.53409C7.60871 4.53409 7.83292 4.30988 7.83292 4.03418C7.83292 3.75848 7.60871 3.53427 7.33301 3.53427Z" fill="#202333"/>
<path d="M3.16113 5.38086C2.41211 5.38086 1.80273 4.77148 1.80273 4.02246C1.80273 3.27344 2.41211 2.66406 3.16113 2.66406C3.91016 2.66406 4.51953 3.27344 4.51953 4.02246C4.51953 4.77148 3.91016 5.38086 3.16113 5.38086ZM3.16113 3.52255C2.88567 3.52255 2.66122 3.747 2.66122 4.02246C2.66122 4.29816 2.88567 4.52237 3.16113 4.52237C3.43684 4.52237 3.66104 4.29816 3.66104 4.02246C3.66104 3.747 3.43684 3.52255 3.16113 3.52255Z" fill="#202333"/>
<path d="M11.5066 5.40601C10.7578 5.40601 10.1484 4.79664 10.1484 4.04761C10.1484 3.29883 10.7578 2.68945 11.5066 2.68945C12.2556 2.68945 12.865 3.29883 12.865 4.04761C12.865 4.79664 12.2556 5.40601 11.5066 5.40601ZM11.5066 3.5477C11.2311 3.5477 11.0069 3.77191 11.0069 4.04761C11.0069 4.32332 11.2311 4.54752 11.5066 4.54752C11.7823 4.54752 12.0065 4.32332 12.0065 4.04761C12.0065 3.77191 11.7823 3.5477 11.5066 3.5477Z" fill="#202333"/>
</svg>
