<svg height='300px' width='300px'  fill="#35c9a2" xmlns="http://www.w3.org/2000/svg" viewBox="0 0 64 64" x="0px" y="0px"><g><path d="M39,27a1,1,0,0,0,1-1V3a1,1,0,0,0-1-1H37a3,3,0,0,0-3,3,1,1,0,0,1-1,1H28a4,4,0,0,0-4,4V26a1,1,0,0,0,1,1ZM26,10a2,2,0,0,1,2-2h5a3,3,0,0,0,3-3,1,1,0,0,1,1-1h1v7H26Zm0,3H38V25H26Z"></path><rect x="29" y="15" width="2" height="2"></rect><rect x="33" y="15" width="2" height="2"></rect><path d="M32,19a4,4,0,0,0-4,4h2a2,2,0,0,1,4,0h2A4,4,0,0,0,32,19Z"></path><path d="M61,13H52a1,1,0,0,0-1,1v3a1,1,0,0,0-1,1v4a1,1,0,0,0,1,1h2v2H51a1,1,0,0,0-1,1V37H49a1,1,0,0,0-1,1v3H43a1,1,0,0,0-1,1v3H40V35h5a3,3,0,0,0,3-3V22a3,3,0,0,0-6,0v7H22V22a3,3,0,0,0-6,0V32a3,3,0,0,0,3,3h5V45H22V42a1,1,0,0,0-1-1H12a1,1,0,0,0-1,1v3H9V42a1,1,0,0,0-1-1H4V40a3,3,0,0,1,2-2.816V38a1,1,0,0,0,1,1h4a1,1,0,0,0,1-1V20a1,1,0,0,0-1-1,5.006,5.006,0,0,0-5,5V35.1A5.009,5.009,0,0,0,2,40V61a1,1,0,0,0,1,1H61a1,1,0,0,0,1-1V14A1,1,0,0,0,61,13ZM8,24a3.006,3.006,0,0,1,2-2.829V37H8Zm36-2a1,1,0,0,1,2,0v1H44ZM31,31h2v8.586l-1,1-1-1ZM18,22a1,1,0,0,1,2,0v1H18Zm1,11a1,1,0,0,1-1-1V25h2v5a1,1,0,0,0,1,1h8v9a1,1,0,0,0,.293.707l2,2a1,1,0,0,0,1.414,0l2-2A1,1,0,0,0,35,40V31h8a1,1,0,0,0,1-1V25h2v7a1,1,0,0,1-1,1H39a1,1,0,0,0-1,1V45H26V34a1,1,0,0,0-1-1ZM13,43h7v2H13ZM4,43H7v2H4ZM60,60H4V51H60Zm0-11H4V47H60Zm0-4H44V43H60Zm0-4H50V39H60Zm0-4H52V35h8Zm0-4H52V31h8Zm0-4H52V27h8Zm0-4H55V23h5Zm0-4H52V19h8Zm0-4H53V15h7Z"></path></g></svg>