<svg width="58" height="58" viewBox="0 0 58 58" fill="none" xmlns="http://www.w3.org/2000/svg">
<circle opacity="0.15" cx="29" cy="29" r="29" fill="white"/>
<path d="M43.3457 42.8965H41.383V19.9976C41.383 19.477 41.1762 18.9778 40.8081 18.6097C40.44 18.2416 39.9408 18.0348 39.4202 18.0348H36.1489C35.6284 18.0348 35.1291 18.2416 34.7611 18.6097C34.393 18.9778 34.1862 19.477 34.1862 19.9976V42.8965H32.2234V14.7635C32.2234 14.243 32.0166 13.7438 31.6485 13.3757C31.2804 13.0076 30.7812 12.8008 30.2606 12.8008H26.9894C26.4688 12.8008 25.9696 13.0076 25.6015 13.3757C25.2334 13.7438 25.0266 14.243 25.0266 14.7635V42.8965H23.0638V25.2316C23.0638 24.7111 22.857 24.2118 22.4889 23.8437C22.1209 23.4757 21.6216 23.2689 21.1011 23.2689H17.8298C17.3092 23.2689 16.81 23.4757 16.4419 23.8437C16.0738 24.2118 15.867 24.7111 15.867 25.2316V42.8965H13.9043C13.7307 42.8965 13.5643 42.9655 13.4416 43.0882C13.3189 43.2108 13.25 43.3773 13.25 43.5508C13.25 43.7243 13.3189 43.8907 13.4416 44.0134C13.5643 44.1361 13.7307 44.205 13.9043 44.205H43.3457C43.5193 44.205 43.6857 44.1361 43.8084 44.0134C43.9311 43.8907 44 43.7243 44 43.5508C44 43.3773 43.9311 43.2108 43.8084 43.0882C43.6857 42.9655 43.5193 42.8965 43.3457 42.8965ZM21.7553 42.8965H17.1755V25.2316C17.1755 25.0581 17.2445 24.8917 17.3672 24.769C17.4899 24.6463 17.6563 24.5774 17.8298 24.5774H21.1011C21.2746 24.5774 21.441 24.6463 21.5637 24.769C21.6864 24.8917 21.7553 25.0581 21.7553 25.2316V42.8965ZM30.9149 42.8965H26.3351V14.7635C26.3351 14.59 26.404 14.4236 26.5267 14.3009C26.6494 14.1782 26.8158 14.1093 26.9894 14.1093H30.2606C30.4342 14.1093 30.6006 14.1782 30.7233 14.3009C30.846 14.4236 30.9149 14.59 30.9149 14.7635V42.8965ZM40.0745 42.8965H35.4947V19.9976C35.4947 19.8241 35.5636 19.6577 35.6863 19.535C35.809 19.4123 35.9754 19.3433 36.1489 19.3433H39.4202C39.5937 19.3433 39.7601 19.4123 39.8828 19.535C40.0055 19.6577 40.0745 19.8241 40.0745 19.9976V42.8965Z" fill="white"/>
<path d="M16.5 43.5V25L17.5 24H21.5L22.5 25V43H25.5V14.5L26.5 13.5H30.5L31.5 14.5V43.5H35V20L36 19H40L40.5 21V43.5H35H31.5H16.5Z" fill="white"/>
</svg>
